<?xml version="1.0" encoding="UTF-8" standalone="no"?>
<!-- Created with Inkscape (http://www.inkscape.org/) -->

<svg
   width="48.96463mm"
   height="24.554794mm"
   viewBox="0 0 48.96463 24.554794"
   version="1.1"
   id="svg5"
   inkscape:version="1.1.2 (0a00cf5339, 2022-02-04)"
   sodipodi:docname="ko lili.svg"
   xmlns:inkscape="http://www.inkscape.org/namespaces/inkscape"
   xmlns:sodipodi="http://sodipodi.sourceforge.net/DTD/sodipodi-0.dtd"
   xmlns="http://www.w3.org/2000/svg"
   xmlns:svg="http://www.w3.org/2000/svg">
  <sodipodi:namedview
     id="namedview7"
     pagecolor="#ffffff"
     bordercolor="#666666"
     borderopacity="1.0"
     inkscape:pageshadow="2"
     inkscape:pageopacity="0.0"
     inkscape:pagecheckerboard="0"
     inkscape:document-units="mm"
     showgrid="false"
     inkscape:zoom="3.0005141"
     inkscape:cx="234.45982"
     inkscape:cy="130.14436"
     inkscape:window-width="1920"
     inkscape:window-height="1016"
     inkscape:window-x="0"
     inkscape:window-y="27"
     inkscape:window-maximized="1"
     inkscape:current-layer="layer1" />
  <defs
     id="defs2">
    <inkscape:path-effect
       effect="bspline"
       id="path-effect3357"
       is_visible="true"
       lpeversion="1"
       weight="33.333333"
       steps="2"
       helper_size="0"
       apply_no_weight="true"
       apply_with_weight="true"
       only_selected="false" />
    <inkscape:path-effect
       effect="bspline"
       id="path-effect2670"
       is_visible="true"
       lpeversion="1"
       weight="33.333333"
       steps="2"
       helper_size="0"
       apply_no_weight="true"
       apply_with_weight="true"
       only_selected="false" />
    <inkscape:path-effect
       effect="bspline"
       id="path-effect2335"
       is_visible="true"
       lpeversion="1"
       weight="33.333333"
       steps="2"
       helper_size="0"
       apply_no_weight="true"
       apply_with_weight="true"
       only_selected="false" />
  </defs>
  <g
     inkscape:label="Layer 1"
     inkscape:groupmode="layer"
     id="layer1"
     transform="translate(-6.5831089,-2.7910223)">
    <path
       id="path3355"
       style="fill:#3333cc;stroke:none;stroke-width:0.264583px;stroke-linecap:butt;stroke-linejoin:miter;stroke-opacity:1"
       d="m 18.695462,7.1611968 c -0.151892,0.00132 -0.301477,0.013997 -0.447519,0.03824 -1.168342,0.1939557 -2.104263,1.1375419 -3.237013,1.5187694 -1.132748,0.3812302 -2.462583,0.200025 -3.484026,0.6376881 -1.021439,0.4376632 -1.7341767,1.4940817 -1.9316643,2.8442707 -0.1974877,1.35019 0.1187688,2.984429 1.0113093,4.334619 0.89254,1.350192 2.357596,2.397707 4.117578,2.705777 1.759982,0.308073 3.814789,-0.122761 5.329391,-1.319816 1.514602,-1.197054 2.48893,-3.160511 2.759522,-4.922178 C 23.083629,11.2369 22.65031,9.676953 21.733519,8.6189874 20.931326,7.6932686 19.758698,7.152029 18.695462,7.1611968 Z m -0.522968,3.0669942 c 0.330825,0 0.507071,0.218724 0.528651,0.451655 0.155043,0.05133 0.221247,0.06788 0.374655,0.155027 0.24475,0.139052 0.44092,0.340111 0.579292,0.584462 0.07639,0.171069 0.10522,0.2086 0.14056,0.393774 0.05282,0.276818 0.01402,0.556699 -0.07906,0.820105 -0.07608,0.172532 -0.08982,0.222668 -0.194821,0.381889 -0.123637,0.187473 -0.276897,0.349473 -0.455269,0.481108 0.02212,0.106619 0.03569,0.214929 0.04031,0.324011 5.29e-4,0.163942 0.0051,0.206595 -0.01497,0.373103 -0.03671,0.303376 -0.12767,0.596958 -0.253215,0.874881 -0.105399,0.20745 -0.128868,0.268656 -0.260447,0.464056 -0.217139,0.322453 -0.48844,0.603705 -0.80512,0.829408 -0.222607,0.140919 -0.2844,0.192675 -0.527616,0.296621 -0.280596,0.119925 -0.57958,0.193869 -0.885219,0.20464 -0.09946,0.0035 -0.199218,-0.0067 -0.298688,-0.0098 -0.250314,-0.0422 -0.316439,-0.04076 -0.55449,-0.130742 -0.32929,-0.124475 -0.616246,-0.331922 -0.856276,-0.587044 -0.05192,-0.06348 -0.107355,-0.124716 -0.156065,-0.190688 -0.214177,-0.290068 -0.357034,-0.626493 -0.433565,-0.977717 -0.0095,-0.05842 -0.02082,-0.116493 -0.02842,-0.175183 -0.0078,-0.05977 -0.01257,-0.1201 -0.01603,-0.180351 -0.240268,-0.06508 -0.459684,-0.188383 -0.656291,-0.342098 -0.149093,-0.131474 -0.193238,-0.160594 -0.322461,-0.313677 -0.198173,-0.234765 -0.344741,-0.506283 -0.438732,-0.798399 -0.01886,-0.07225 -0.04149,-0.143444 -0.05684,-0.216524 -0.05723,-0.272452 -0.06871,-0.565542 -0.0026,-0.837676 0.01643,-0.06761 0.04194,-0.132665 0.06305,-0.198954 0.07835,-0.155628 0.09072,-0.203433 0.203089,-0.336415 0.156737,-0.185481 0.362328,-0.312544 0.588595,-0.395324 0.05536,-0.01617 0.10972,-0.03543 0.16588,-0.04857 0.2456,-0.05749 0.501214,-0.05115 0.748276,-0.0078 0.04184,0.0094 0.08405,0.0177 0.125574,0.02842 0.115184,0.02975 0.227799,0.07096 0.333828,0.125058 0.102415,-0.0105 0.216043,0.01164 0.334348,0.07906 0.04677,0.02717 0.09482,0.05279 0.14056,0.08165 0.144584,0.09123 0.277926,0.19816 0.399458,0.318328 0.102576,0.112271 0.146174,0.152189 0.232544,0.279054 0.151199,0.222102 0.241094,0.461933 0.264584,0.730186 0.0021,0.182936 0.01175,0.223613 -0.02273,0.405144 -0.05309,0.27941 -0.180374,0.536418 -0.346231,0.765328 -0.122571,0.146619 -0.15943,0.20329 -0.307475,0.328663 -0.134705,0.114075 -0.285337,0.209529 -0.447519,0.27905 0,0 -5.29e-4,0 -5.29e-4,0 0.0051,0.08845 0.01733,0.176226 0.03307,0.263552 0.05224,0.211077 0.142912,0.413263 0.276984,0.585494 0.02923,0.03754 0.06234,0.07208 0.09354,0.108003 0.139647,0.137874 0.30335,0.25114 0.490926,0.31316 0.127254,0.04207 0.170765,0.04089 0.304374,0.05788 0.302173,0.01095 0.591484,-0.07897 0.850077,-0.232545 0.05707,-0.0339 0.110612,-0.07382 0.165881,-0.110588 0.262758,-0.196932 0.477882,-0.449752 0.634071,-0.738457 0.02862,-0.05292 0.05315,-0.108223 0.07958,-0.162264 0.07963,-0.184525 0.138972,-0.378703 0.159162,-0.579292 0.0092,-0.09201 0.0057,-0.118885 0.0031,-0.208256 -1.22e-4,-0.0031 -7.94e-4,-0.0062 -0.0011,-0.0093 -0.130951,0.0011 -0.262205,-0.01254 -0.390158,-0.04341 -0.07588,-0.01831 -0.148812,-0.04728 -0.223242,-0.0708 -0.184626,-0.08866 -0.242887,-0.10446 -0.406175,-0.23151 -0.255524,-0.198811 -0.43706,-0.465151 -0.55449,-0.76481 -0.06104,-0.20473 -0.08709,-0.25508 -0.107487,-0.469223 -0.03103,-0.325628 0.02646,-0.647504 0.157615,-0.946195 0.03704,-0.06995 0.06983,-0.142266 0.111104,-0.209807 0.148812,-0.243522 0.357322,-0.454469 0.598929,-0.606163 0.05556,-0.03488 0.11506,-0.06254 0.172599,-0.09405 0.056,-0.02259 0.110918,-0.04839 0.167949,-0.06821 0.17335,-0.06025 0.358087,-0.08745 0.541052,-0.09095 z m -0.169497,1.023713 c -0.02879,0.0071 -0.0573,0.01537 -0.08475,0.02635 -0.0222,0.0089 -0.04298,0.0208 -0.0646,0.03101 -0.139097,0.08253 -0.256982,0.199575 -0.334862,0.342098 -0.0173,0.03166 -0.0299,0.06591 -0.04496,0.0987 -0.06774,0.17853 -0.07981,0.3712 -0.02687,0.555522 0.01021,0.03551 0.02522,0.06963 0.03773,0.104386 0.07321,0.155289 0.176847,0.278905 0.33383,0.353468 0.02826,0.01341 0.05822,0.02315 0.08733,0.03462 0.149339,0.04299 0.295328,0.03736 0.438217,-0.02635 0.02807,-0.01251 0.05455,-0.02894 0.08165,-0.04341 0.147336,-0.09518 0.259512,-0.232458 0.33228,-0.391708 0.01394,-0.03051 0.02458,-0.06225 0.03669,-0.09353 0.03116,-0.112564 0.04403,-0.234823 -0.01188,-0.342098 -0.0085,-0.01643 -0.01966,-0.03182 -0.02946,-0.04754 -0.07187,-0.09718 -0.171982,-0.163896 -0.286288,-0.201539 -0.03201,-0.01056 -0.06469,-0.01778 -0.09715,-0.02687 -0.216665,-0.06906 -0.33205,-0.214788 -0.366903,-0.373102 z m -4.079854,0.83044 c -0.05873,7.94e-4 -0.117094,0.0079 -0.173633,0.02479 -0.01926,0.0058 -0.03749,0.01368 -0.05633,0.02066 -0.109826,0.05115 -0.147997,0.08441 -0.182417,0.198438 -0.02746,0.147989 -0.01606,0.301638 0.01913,0.447519 0.0097,0.04043 0.02339,0.08001 0.03514,0.119888 0.07285,0.205554 0.191548,0.389763 0.352433,0.537435 0.03101,0.02846 0.06478,0.05372 0.09715,0.08061 0.106691,0.07717 0.224224,0.145196 0.358635,0.153996 0.06512,0.0043 0.0897,-0.0037 0.153996,-0.01447 0.158697,-0.04266 0.291126,-0.14056 0.396875,-0.264583 0.02474,-0.02901 0.04694,-0.06029 0.07028,-0.09043 0.08379,-0.130628 0.15653,-0.278966 0.151929,-0.438216 -7.94e-4,-0.02196 -0.0048,-0.04328 -0.0072,-0.06511 -0.02665,-0.147344 -0.127452,-0.257419 -0.228409,-0.361217 -0.07032,-0.06807 -0.150178,-0.122973 -0.233577,-0.172599 -0.11071,0.01159 -0.233164,-0.01545 -0.358119,-0.09715 -0.06925,-0.03483 -0.144571,-0.05244 -0.220141,-0.06718 -0.05773,-0.0079 -0.116967,-0.01323 -0.175699,-0.01241 z" />
    <path
       id="path2668"
       style="fill:#114444;stroke:none;stroke-width:0.264583px;stroke-linecap:butt;stroke-linejoin:miter;stroke-opacity:1"
       d="m 29.592181,8.7767793 c -0.058,-8.47e-5 -0.117121,0.00212 -0.176734,0.00619 -0.953818,0.066022 -2.120032,0.6887713 -2.816365,1.9642217 -0.696333,1.275448 -0.92215,3.203043 -0.06511,4.705654 0.857035,1.502611 2.796098,2.580191 4.735628,3.657659 1.564066,-0.541079 3.128296,-1.082175 4.208529,-2.343526 C 36.558362,15.505624 37.154661,13.523975 36.994316,12.036 36.833964,10.548027 35.916466,9.5534848 34.932938,9.2459913 33.94941,8.9384952 32.899824,9.318085 31.850439,9.697643 31.156032,9.2377813 30.462154,8.7780334 29.592181,8.7767687 Z m 0.677476,2.5636667 c 0.143414,-0.0019 0.287202,0.02016 0.424264,0.06305 0.06162,0.01929 0.119753,0.04766 0.179832,0.07132 0.05308,0.02905 0.108112,0.05517 0.159682,0.08681 0.220847,0.135551 0.406347,0.319368 0.567923,0.520382 0.137146,-0.126155 0.285488,-0.24144 0.450103,-0.329697 0.131855,-0.07069 0.15902,-0.0746 0.299207,-0.125055 0.213725,-0.06247 0.435782,-0.079 0.654222,-0.02946 0.145902,0.03309 0.183026,0.05842 0.31781,0.119888 0.208576,0.11667 0.378841,0.281741 0.505396,0.484208 0.07723,0.123556 0.09443,0.177859 0.151413,0.310576 0.100833,0.278495 0.143886,0.574509 0.121955,0.870231 -0.0046,0.06259 -0.01492,0.12474 -0.02222,0.187068 -0.05709,0.334582 -0.193453,0.646941 -0.373105,0.933278 -0.03714,0.05919 -0.0779,0.116089 -0.116787,0.174149 -0.196369,0.274624 -0.431983,0.51852 -0.688848,0.736907 -0.0472,0.04013 -0.09619,0.07864 -0.144177,0.117821 -0.24651,0.19307 -0.504211,0.370883 -0.761712,0.548804 -0.104473,0.07247 -0.209777,0.143944 -0.315224,0.214974 -0.342596,0.23073 -0.675349,0.04408 -0.776698,-0.22996 -0.162105,-0.07131 -0.321971,-0.147288 -0.477491,-0.232029 -0.119964,-0.06857 -0.170968,-0.09533 -0.288353,-0.173114 -0.216543,-0.143489 -0.416576,-0.310118 -0.59893,-0.495062 -0.123729,-0.132244 -0.173833,-0.179615 -0.285255,-0.324011 -0.188272,-0.243996 -0.339084,-0.513855 -0.438216,-0.806151 -0.0568,-0.200763 -0.07907,-0.251711 -0.10542,-0.45992 -0.04097,-0.323604 -0.01418,-0.650515 0.07803,-0.96325 0.07456,-0.201562 0.08677,-0.261128 0.196369,-0.447 0.119051,-0.201914 0.275735,-0.385858 0.46302,-0.527616 0.06311,-0.04776 0.132655,-0.08649 0.198956,-0.129707 0.183759,-0.08154 0.229484,-0.115573 0.42943,-0.149863 0.06453,-0.01106 0.129632,-0.01672 0.19482,-0.01757 z m 0.0031,0.996323 c -0.06481,0.0021 -0.119321,0.02885 -0.195852,0.07441 -0.13974,0.105156 -0.243136,0.249441 -0.305925,0.412377 -0.01548,0.04016 -0.027,0.08206 -0.04031,0.122992 -0.05526,0.222559 -0.05397,0.454834 0.0036,0.67696 0.01132,0.04368 0.02728,0.08563 0.04083,0.128675 0.0844,0.229896 0.221213,0.433353 0.384474,0.614431 0.03445,0.03822 0.07093,0.0749 0.106452,0.112138 0.134359,0.134422 0.281435,0.25553 0.440802,0.359151 0.08388,0.05454 0.126476,0.07681 0.212905,0.125574 0.161533,0.08636 0.328334,0.163055 0.497128,0.234095 0.02,0.0084 0.03878,0.01725 0.05684,0.02687 0.220094,-0.152116 0.439716,-0.305122 0.651124,-0.469222 0.23405,-0.189294 0.458914,-0.393076 0.635619,-0.63872 0.02833,-0.0414 0.05758,-0.08185 0.08475,-0.124024 0.109053,-0.169288 0.199358,-0.351813 0.241329,-0.549836 0.0049,-0.03271 0.01117,-0.0653 0.01447,-0.09819 0.01537,-0.151294 -2.12e-4,-0.303602 -0.04599,-0.448551 -0.03963,-0.103376 -0.08176,-0.206709 -0.170535,-0.278019 -0.07547,-0.04806 -0.119337,-0.06318 -0.210838,-0.04289 -0.01863,0.0054 -0.03753,0.0094 -0.05581,0.01601 -0.135925,0.04882 -0.248386,0.144893 -0.353468,0.240813 -0.106373,0.106622 -0.208507,0.217569 -0.292486,0.343133 -0.273407,0.446971 -0.81226,0.276643 -0.923975,-0.08682 -0.0099,-0.01939 -0.01934,-0.03992 -0.02791,-0.06149 -0.04826,-0.114421 -0.121288,-0.215402 -0.195336,-0.314192 -0.09932,-0.123169 -0.210588,-0.241388 -0.349851,-0.319879 -0.02175,-0.01225 -0.04518,-0.02175 -0.0677,-0.03255 -0.05289,-0.01715 -0.09547,-0.02461 -0.134358,-0.02326 z" />
    <path
       id="path2333"
       style="fill:#aa1111;stroke:none;stroke-width:0.264583px;stroke-linecap:butt;stroke-linejoin:miter;stroke-opacity:1"
       d="m 45.588388,6.9603325 c -0.483587,-0.0051 -0.957072,0.0597 -1.3994,0.198956 -1.769303,0.557014 -3.037776,2.307783 -3.790466,3.8633285 -0.752686,1.555544 -1.141039,2.942177 -1.005623,4.73511 0.135417,1.792936 0.836351,3.843375 2.683042,4.87929 1.846691,1.035915 4.858345,1.057749 6.713283,-0.04031 1.854941,-1.098057 2.592232,-3.315596 2.690794,-5.622395 0.09856,-2.306802 -0.44188,-4.702876 -1.846916,-6.2192585 -1.053779,-1.13729 -2.593959,-1.779564 -4.044714,-1.794724 z m -0.0031,3.5393195 c 0.281276,-0.01281 0.572347,0.201674 0.519864,0.596345 -0.02778,0.207629 -0.07978,0.411059 -0.126606,0.61495 -0.04877,0.204485 -0.08358,0.411715 -0.105936,0.620633 -0.07721,0.70359 -1.071973,0.594555 -0.994773,-0.109038 0.02767,-0.247414 0.06698,-0.493583 0.125058,-0.73587 0.03984,-0.173463 0.08509,-0.346037 0.11007,-0.522448 0.04082,-0.30697 0.253553,-0.454613 0.472323,-0.464572 z m 1.998327,0.206706 c 0.330017,-5.29e-4 0.64747,0.331788 0.443902,0.749308 -0.09806,0.211841 -0.200044,0.421402 -0.301792,0.631486 -0.106897,0.220848 -0.21204,0.44295 -0.316259,0.665075 -0.300667,0.640782 -1.206556,0.215485 -0.905888,-0.425296 0.105973,-0.225835 0.212733,-0.451382 0.321429,-0.675928 0.102132,-0.210871 0.204271,-0.421492 0.302823,-0.634072 0.10663,-0.218699 0.282919,-0.310266 0.455785,-0.310573 z m -4.015259,0.100251 c 0.203288,0.0083 0.402768,0.137416 0.467673,0.417547 0.03883,0.169309 0.06812,0.340603 0.101285,0.511079 0.0353,0.177303 0.07878,0.352878 0.128675,0.526582 0.194624,0.680529 -0.767591,0.955447 -0.962216,0.274918 -0.05744,-0.20156 -0.108754,-0.404598 -0.149344,-0.610299 -0.03087,-0.158805 -0.05789,-0.318637 -0.09354,-0.476456 -0.09486,-0.409419 0.210352,-0.655418 0.507463,-0.643371 z m 2.562635,2.806546 c 0.227833,-7.94e-4 0.456782,0.0074 0.67903,0.05891 0.04845,0.01125 0.09579,0.02682 0.143658,0.04031 0.204068,0.07255 0.38708,0.18927 0.507981,0.373621 0.08795,0.134106 0.0932,0.192198 0.138491,0.343132 0.0092,0.06014 0.02122,0.119881 0.02791,0.180351 0.02035,0.182822 0.01474,0.368461 0.01035,0.551905 -0.0011,0.04827 -0.0098,0.334862 -0.01138,0.382921 -0.01148,0.365625 -0.01601,0.731311 -0.0186,1.097092 -1.88e-4,0.239773 -0.0084,0.479343 -0.02791,0.718301 -0.03102,0.374256 -0.326321,0.526876 -0.588076,0.482143 -0.03703,0.244996 -0.245555,0.464042 -0.59273,0.416509 -0.04161,-0.0059 -0.08278,-0.01286 -0.12454,-0.01757 -0.163319,-0.01852 -0.327818,-0.02225 -0.491958,-0.02635 -0.407868,-0.0075 -0.81656,-0.0122 -1.223182,-0.04806 -0.191257,-0.0191 -0.381852,-0.04427 -0.573093,-0.06305 -0.262538,0.281069 -0.828778,0.189063 -0.868164,-0.337966 -0.0074,-0.09812 -0.0039,-0.04539 -0.01188,-0.158128 -0.02302,-0.356394 -0.03236,-0.713587 -0.02635,-1.070737 0.0092,-0.520748 0.0325,-1.040871 0.05581,-1.561145 0.0073,-0.246806 0.01717,-0.49457 -0.0031,-0.74104 -0.0473,-0.417591 0.283972,-0.626869 0.577741,-0.580842 0.02294,0.0013 0.04654,0.003 0.0708,0.0067 0.241036,0.03283 0.485087,0.02662 0.727605,0.02222 0.465071,-0.0163 0.929155,-0.04991 1.394229,-0.06666 0.07546,-0.0011 0.151432,-0.0024 0.227378,-0.0026 z m 0.08268,1.000974 c -0.09302,3.7e-5 -0.185481,0.0031 -0.273886,0.0021 -0.471252,0.0168 -0.941531,0.05139 -1.412833,0.06666 -0.127103,0.0021 -0.254569,0.0041 -0.381889,0.0026 -0.0016,0.1065 -0.0052,0.21304 -0.0083,0.31936 -0.02273,0.516408 -0.04629,1.032393 -0.05529,1.549259 -0.003,0.184185 -0.0013,0.368385 0.0041,0.552421 0.191503,0.01802 0.382151,0.04465 0.573609,0.06356 0.379835,0.03244 0.761126,0.03641 1.14205,0.04341 0.186774,0.0044 0.373763,0.0098 0.559654,0.02997 0.05836,0.0063 0.116486,0.01545 0.174668,0.02326 0.01624,0.0021 0.03219,0.0051 0.04754,0.0083 0.01797,-0.213106 0.02376,-0.426942 0.02429,-0.640789 0.0027,-0.37356 0.0074,-0.74694 0.01913,-1.120344 0.0085,-0.277674 0.02572,-0.556611 0.0047,-0.834059 7.94e-4,-0.006 -0.0029,-0.01497 0.0026,-0.01757 0.0024,-0.0011 0.03102,0.02106 0.04238,0.02687 0.0051,0.0027 0.01103,0.0062 0.01654,0.0047 0.0028,-7.94e-4 -0.0011,-0.0064 -0.0031,-0.0083 -0.0067,-0.0057 -0.01524,-0.0093 -0.02273,-0.01394 -0.141777,-0.04942 -0.298177,-0.05742 -0.453202,-0.05736 z" />
  </g>
</svg>
