<?xml version="1.0" encoding="UTF-8" standalone="no"?>
<!-- Created with Inkscape (http://www.inkscape.org/) -->

<svg
   width="69.42003mm"
   height="26.14812mm"
   viewBox="0 0 69.42003 26.14812"
   version="1.1"
   id="svg5"
   xml:space="preserve"
   xmlns="http://www.w3.org/2000/svg"
   xmlns:svg="http://www.w3.org/2000/svg"><defs
     id="defs2" /><g
     id="layer1"
     transform="translate(-908.6165,-852.3602)"><g
       id="g312"><path
         style="opacity:1;fill:#ccccff;stroke:none;stroke-width:0.7;stroke-linecap:round;stroke-linejoin:round;stroke-dasharray:none;paint-order:markers stroke fill"
         d="m 908.6411,863.4686 c -0.2919,-3.873 1.8807,-7.9203 13.5544,-9.6108 11.6737,-1.6905 32.8467,-1.024 43.9561,0.8891 11.1094,1.9132 12.1537,5.0728 11.8394,8.4543 -0.3142,3.3816 -1.987,6.9845 -7.4373,8.7188 -5.4504,1.7343 -14.6781,1.5998 -20.0533,2.4746 -5.3752,0.8748 -6.898,2.7588 -8.4209,4.6429 -1.9046,-2.0021 -3.8092,-4.0042 -8.4151,-4.7207 -4.6058,-0.7166 -11.9121,-0.1477 -16.9437,-1.7124 -5.0316,-1.5647 -7.7878,-5.2628 -8.0796,-9.1358 z"
         id="path303"
         transform="translate(0,-0.5291667)" /></g></g></svg>
