<?xml version="1.0" encoding="UTF-8" standalone="no"?>
<!-- Created with Inkscape (http://www.inkscape.org/) -->

<svg
   width="59.21833mm"
   height="50.40915mm"
   viewBox="0 0 59.21833 50.40915"
   version="1.1"
   id="svg5"
   xml:space="preserve"
   xmlns="http://www.w3.org/2000/svg"
   xmlns:svg="http://www.w3.org/2000/svg"><defs
     id="defs2" /><g
     id="layer1"
     transform="translate(-661.7269,-626.8132)"><g
       id="g312"><path
         style="opacity:1;fill:#ffcccc;stroke:none;stroke-width:0.7;stroke-linecap:round;stroke-linejoin:round;stroke-dasharray:none;paint-order:markers stroke fill"
         d="m 662.6981,637.8509 c -1.3516,7.0185 -1.1033,20.3204 -0.397,26.9084 0.7063,6.5881 2.1147,9.6166 10.7602,11.2712 8.6455,1.6546 24.9566,1.7512 31.0868,-0.7629 6.1301,-2.514 7.4519,-10.3795 9.3725,-14.5819 1.9205,-4.2025 4.6726,-6.1269 7.4246,-8.0513 -2.4506,-2.3564 -4.6583,-4.4794 -6.8262,-9.329 -2.1679,-4.8496 -3.7735,-11.7998 -9.7916,-14.4089 -6.018,-2.6091 -21.3558,-2.4279 -29.3538,-1.2984 -7.998,1.1296 -10.9239,3.2343 -12.2755,10.2528 z"
         id="path290" /></g></g></svg>
