<?xml version="1.0" encoding="UTF-8" standalone="no"?>
<!-- Created with Inkscape (http://www.inkscape.org/) -->

<svg
   width="87.55034mm"
   height="61.49072mm"
   viewBox="0 0 87.55034 61.49072"
   version="1.1"
   id="svg5"
   xml:space="preserve"
   xmlns="http://www.w3.org/2000/svg"
   xmlns:svg="http://www.w3.org/2000/svg"><defs
     id="defs2" /><g
     id="layer1"
     transform="translate(-674.9891,-1222.864)"><g
       id="g395"><path
         style="opacity:1;fill:#114444;stroke:none;stroke-width:0.611561;stroke-linecap:round;stroke-linejoin:round;stroke-dasharray:none;paint-order:markers stroke fill"
         d="m 708.7373,1252.797 c 3.176,-11.053 8.2252,-17.338 19.3868,-17.467 11.1616,-0.13 28.4336,5.896 37.8065,16.887 9.3729,10.991 10.8438,26.945 5.3375,34.963 -5.5063,8.018 -17.9894,8.098 -30.5379,8.161 -12.5485,0.06 -25.1618,0.107 -30.8169,-7.782 -5.6551,-7.888 -4.3521,-23.709 -1.176,-34.762 z"
         id="path388"
         transform="matrix(1.278871,0,0,1.024449,-227.911,-42.66662)" /><g
         id="g391"
         style="fill:#ffffff"
         transform="translate(-23.82884,-12.57101)"><path
           style="fill:#ffffff;fill-opacity:1;fill-rule:nonzero;stroke:none;stroke-width:0.264583"
           id="path346"
           d="m 733.0574,1265.243 c -1.6277,-1.267 -3.6136,-2.091 -5.6856,-2.226 -0.6482,-0.04 -1.2988,0.03 -1.9484,0.05 -0.6718,0.144 -1.3673,0.204 -2.0156,0.431 -2.2981,0.807 -4.2246,2.436 -5.3726,4.593 -1.1314,2.126 -1.0202,2.908 -1.338,5.261 0.06,0.902 0.031,1.815 0.1797,2.706 0.4302,2.574 1.6446,5.161 3.7594,6.785 1.9172,1.472 2.7474,1.413 5.0051,1.93 0.8491,-0.02 1.7071,0.08 2.5472,-0.05 2.4312,-0.361 4.8297,-1.633 6.4008,-3.542 1.3814,-1.678 1.4192,-2.402 2.0778,-4.4 0.089,-0.755 0.2415,-1.505 0.2661,-2.265 0.068,-2.117 -0.4376,-4.216 -1.5914,-6.005 -0.8594,-1.332 -1.3989,-1.666 -2.5509,-2.668 -2.7136,-2.266 -5.9187,1.571 -3.2052,3.838 v 0 c 0.5361,0.415 0.9422,0.674 1.3624,1.217 1.0202,1.318 1.0983,2.853 0.9289,4.45 -0.2106,0.869 -0.2783,1.51 -0.79,2.265 -0.7019,1.035 -1.9241,1.83 -3.1348,2.116 -0.4429,0.104 -0.9054,0.09 -1.3581,0.135 -0.9036,-0.114 -1.6423,-0.104 -2.45,-0.585 -1.2864,-0.765 -1.9834,-2.233 -2.2847,-3.64 -0.122,-0.569 -0.1286,-1.156 -0.1929,-1.735 0.039,-0.548 0.024,-1.103 0.118,-1.645 0.2778,-1.605 1.229,-3.221 2.775,-3.896 0.3429,-0.15 0.7204,-0.201 1.0808,-0.302 0.3516,-0.03 0.7019,-0.09 1.0546,-0.09 1.1232,0 2.2177,0.428 3.12,1.078 2.6913,2.293 5.9338,-1.513 3.2424,-3.806 z" /><path
           style="fill:#ffffff;fill-opacity:1;fill-rule:nonzero;stroke:none;stroke-width:0.264583"
           id="path347"
           d="m 714.8539,1254.067 c 0.5183,1.64 1.0612,3.271 1.6481,4.887 0.089,0.238 0.1783,0.477 0.2672,0.716 1.2372,3.312 5.9211,1.562 4.6839,-1.75 v 0 c -0.084,-0.224 -0.1677,-0.449 -0.2516,-0.673 -0.5895,-1.622 -1.125,-3.261 -1.6539,-4.903 -1.2184,-3.319 -5.9121,-1.596 -4.6937,1.723 z" /><path
           style="fill:#ffffff;fill-opacity:1;fill-rule:nonzero;stroke:none;stroke-width:0.264583"
           id="path348"
           d="m 724.2611,1250.866 c 0.1494,1.75 0.326,3.497 0.5243,5.241 0.034,0.283 0.066,0.566 0.1,0.849 0.4126,3.511 5.3782,2.928 4.9657,-0.584 v 0 c -0.033,-0.276 -0.064,-0.552 -0.098,-0.829 -0.2032,-1.788 -0.3756,-3.577 -0.5405,-5.369 -0.4893,-3.501 -5.4412,-2.809 -4.9519,0.692 z" /><path
           style="fill:#ffffff;fill-opacity:1;fill-rule:nonzero;stroke:none;stroke-width:0.264583"
           id="path351"
           d="m 744.7423,1264.462 c 1.6332,1.255 3.2758,2.497 4.9522,3.694 0.9167,0.632 1.8478,1.244 2.7958,1.829 0.3186,0.197 0.9787,0.611 1.3311,0.71 0.4435,0.123 0.9068,0.157 1.3603,0.236 0.5289,-0.122 1.0736,-0.189 1.5867,-0.367 0.5312,-0.184 1.7653,-0.943 2.2402,-1.236 1.1819,-0.729 2.34,-1.497 3.5004,-2.259 1.2872,-0.865 2.5924,-1.704 3.8534,-2.607 2.8721,-2.062 -0.044,-6.124 -2.916,-4.062 v 0 c -1.2025,0.866 -2.4553,1.66 -3.6822,2.49 -1.1075,0.727 -2.2137,1.457 -3.3387,2.157 -0.2847,0.177 -0.5726,0.349 -0.8599,0.523 -0.1593,0.1 -0.4101,0.113 -0.4797,0.285 -0.043,0.106 0.2212,0.05 0.3318,0.08 0.1479,0.06 0.3,0.12 0.4442,0.193 0.059,0.03 -0.1291,-0.03 -0.1873,-0.06 -0.1794,-0.1 -0.3498,-0.207 -0.5228,-0.314 -0.8655,-0.533 -1.7159,-1.091 -2.5535,-1.667 -1.6608,-1.184 -3.2838,-2.418 -4.9036,-3.658 -2.8532,-2.088 -5.8057,1.947 -2.9524,4.035 z" /><path
           style="fill:#ffffff;fill-opacity:1;fill-rule:nonzero;stroke:none;stroke-width:0.264583"
           id="path352"
           d="m 747.3461,1283.194 c 1.5111,-0.779 2.9589,-1.676 4.4297,-2.529 0.7913,-0.456 1.5928,-0.895 2.399,-1.326 0.3603,-0.192 0.7194,-0.396 1.0956,-0.556 0.6689,0.08 1.3203,0.269 1.9661,0.46 2.1111,0.685 4.1127,1.653 6.1058,2.619 0.4524,0.22 0.9025,0.445 1.3539,0.668 0.074,0.04 0.3865,0.193 0.4559,0.212 0.2894,0.08 0.5855,0.134 0.8781,0.201 3.5245,0.277 3.9172,-4.707 0.3926,-4.985 v 0 c 0.2318,0.06 0.4636,0.124 0.6951,0.186 0.072,0.02 -0.1355,-0.06 -0.2021,-0.09 -0.4646,-0.229 -0.9279,-0.461 -1.3939,-0.688 -2.2542,-1.092 -4.5227,-2.177 -6.9183,-2.928 -0.4159,-0.115 -0.8271,-0.247 -1.2472,-0.345 -1.3748,-0.32 -2.8078,-0.403 -4.1376,0.134 -1.3573,0.624 -2.6437,1.395 -3.9499,2.116 -1.3288,0.77 -2.6419,1.569 -3.991,2.303 -3.2189,1.462 -1.1507,6.014 2.0682,4.552 z" /><path
           style="fill:#ffffff;fill-opacity:1;fill-rule:nonzero;stroke:none;stroke-width:0.264583"
           id="path369"
           d="m 733.8574,1252.267 c -0.2638,1.77 -0.6864,3.51 -1.1732,5.231 -0.1119,0.364 -0.2241,0.728 -0.3363,1.093 -1.0369,3.38 3.7431,4.847 4.7803,1.466 v 0 c 0.1227,-0.401 0.2457,-0.802 0.3688,-1.204 0.5373,-1.915 1.008,-3.849 1.3009,-5.818 0.5435,-3.493 -4.3971,-4.262 -4.9405,-0.768 z" /></g></g></g></svg>
