<?xml version="1.0" encoding="UTF-8" standalone="no"?>
<!-- Created with Inkscape (http://www.inkscape.org/) -->

<svg
   width="60.51642mm"
   height="51.75793mm"
   viewBox="0 0 60.51642 51.75793"
   version="1.1"
   id="svg5"
   xml:space="preserve"
   xmlns="http://www.w3.org/2000/svg"
   xmlns:svg="http://www.w3.org/2000/svg"><defs
     id="defs2" /><g
     id="layer1"
     transform="translate(-710.1756,-1300.697)"><g
       id="g397"><path
         style="opacity:1;fill:#3333cc;stroke:none;stroke-width:0.621907;stroke-linecap:round;stroke-linejoin:round;stroke-dasharray:none;paint-order:markers stroke fill"
         d="m 730.3378,1302.603 c 6.6079,-0.859 13.2939,0.393 19.9513,6.387 6.6574,5.995 13.2859,16.733 11.409,24.995 -1.877,8.261 -12.2595,14.046 -23.155,14.721 -10.8956,0.675 -22.3042,-3.76 -27.0351,-11.163 -4.7309,-7.402 -2.784,-17.772 1.4542,-24.442 4.2381,-6.669 10.7678,-9.639 17.3756,-10.498 z"
         id="path389"
         transform="matrix(1.136098,0,0,1.115139,-95.03874,-151.6153)" /><g
         id="g393"><path
           style="fill:#ffffff;fill-opacity:1;fill-rule:nonzero;stroke:none;stroke-width:0.264583"
           id="path384"
           d="m 734.4051,1316.288 c -0.3,-0.105 -0.5916,-0.238 -0.8998,-0.315 -2.0746,-0.523 -4.1839,-0.112 -5.9592,1.09 -0.5191,0.351 -0.9517,0.816 -1.4274,1.224 -0.3734,0.53 -0.8314,1.009 -1.1203,1.589 -0.9639,1.936 -1.0422,4.157 -0.3103,6.18 0.6175,1.706 1.1197,2.027 2.2844,3.344 0.5781,0.375 1.1133,0.827 1.7348,1.124 1.8288,0.875 3.8857,0.951 5.7685,0.199 1.5544,-0.621 1.9137,-1.179 3.0797,-2.3 0.3387,-0.527 0.7438,-1.016 1.0163,-1.579 0.8842,-1.829 0.9739,-3.856 0.2016,-5.746 -0.255,-0.623 -0.6755,-1.165 -1.0133,-1.747 -1.9132,-2.973 -6.1177,-0.268 -4.2045,2.705 v 0 c 0.1455,0.169 0.3127,0.32 0.4365,0.505 0.1527,0.229 0.3932,0.778 0.3961,1.075 0.01,0.551 -0.1979,0.829 -0.4276,1.311 -0.1529,0.192 -0.2884,0.399 -0.4585,0.575 -0.1931,0.2 -0.6916,0.601 -0.9853,0.695 -0.6577,0.211 -1.3277,0 -1.9254,-0.267 -0.2003,-0.173 -0.4244,-0.323 -0.6011,-0.521 -0.586,-0.656 -0.8395,-1.329 -0.849,-2.201 0,-0.214 0,-0.435 0.058,-0.641 0.064,-0.222 0.2046,-0.415 0.3069,-0.623 0.1641,-0.181 0.308,-0.383 0.4922,-0.544 0.1802,-0.158 0.3855,-0.286 0.5929,-0.406 0.5464,-0.316 0.9634,-0.325 1.5669,-0.259 3.1586,1.589 5.4051,-2.878 2.2465,-4.467 z" /><path
           style="fill:#ffffff;fill-opacity:1;fill-rule:nonzero;stroke:none;stroke-width:0.264583"
           id="path385"
           d="m 752.2656,1316.726 c -0.9374,-0.846 -2.0825,-1.457 -3.3422,-1.658 -0.4627,-0.07 -0.9355,-0.126 -1.4028,-0.09 -0.5662,0.05 -1.1139,0.223 -1.6711,0.334 -0.5255,0.262 -1.0898,0.458 -1.5767,0.786 -1.6523,1.116 -2.7125,2.772 -3.0818,4.728 -0.3149,1.665 -0.058,2.245 0.2378,3.86 0.2797,0.592 0.4824,1.227 0.8393,1.776 1.1038,1.697 2.8718,2.733 4.8863,2.901 1.5936,0.133 2.123,-0.197 3.5888,-0.672 0.5146,-0.321 1.0668,-0.587 1.5439,-0.961 1.3827,-1.084 2.4045,-2.634 2.6995,-4.381 0.2551,-1.512 -0.01,-2.048 -0.3209,-3.49 -0.2395,-0.517 -0.4792,-1.034 -0.7189,-1.551 -1.5923,-3.157 -6.0566,-0.906 -4.4643,2.251 v 0 c 0.1145,0.186 0.2291,0.371 0.3437,0.556 0.1481,0.387 0.4278,0.984 0.3132,1.421 -0.1619,0.62 -0.6588,1.078 -1.1321,1.466 -0.5207,0.269 -0.8932,0.469 -1.4957,0.471 -0.1312,0 -0.2709,0.01 -0.3913,-0.04 -0.4125,-0.178 -0.5517,-0.471 -0.8073,-0.815 -0.076,-0.246 -0.1793,-0.484 -0.2294,-0.737 -0.067,-0.339 -0.1031,-1.014 -0.01,-1.373 0.1547,-0.573 0.5543,-1.018 1.0236,-1.353 0.1,-0.06 0.1889,-0.14 0.2982,-0.176 0.4585,-0.154 0.9631,0.03 1.3372,0.291 2.5048,2.495 6.0338,-1.047 3.529,-3.543 z" /><path
           style="fill:#ffffff;fill-opacity:1;fill-rule:nonzero;stroke:none;stroke-width:0.264583"
           id="path386"
           d="m 729.9836,1330.024 c 0,0.253 -0.011,0.505 0.01,0.758 0.1207,1.852 0.6734,3.735 1.5883,5.351 0.3226,0.569 0.7287,1.087 1.093,1.63 0.5324,0.509 1.0105,1.082 1.5971,1.528 1.8587,1.41 4.0798,2.1 6.4132,1.907 2.0156,-0.166 2.6008,-0.63 4.3894,-1.462 0.6041,-0.455 1.2605,-0.848 1.8116,-1.366 1.5349,-1.442 2.5998,-3.325 3.1562,-5.344 0.3387,-1.23 0.313,-1.774 0.3829,-2.987 0.155,-3.532 -4.8403,-3.751 -4.9951,-0.219 v 0 c -0.013,0.615 0.01,0.996 -0.1278,1.614 -0.241,1.097 -0.7524,2.187 -1.5208,3.017 -0.2799,0.302 -0.6233,0.539 -0.9348,0.809 -0.907,0.51 -1.1281,0.73 -2.1473,0.938 -1.1248,0.23 -2.1167,-0.02 -3.0819,-0.623 -0.3019,-0.189 -0.5577,-0.443 -0.8366,-0.664 -0.2281,-0.31 -0.4842,-0.6 -0.6845,-0.928 -0.654,-1.07 -1.0004,-2.297 -1.1274,-3.536 0.2993,-3.523 -4.6828,-3.946 -4.9821,-0.423 z" /></g></g></g></svg>
