<?xml version="1.0" encoding="UTF-8" standalone="no"?>
<!-- Created with Inkscape (http://www.inkscape.org/) -->

<svg
   width="38.7834mm"
   height="119.6815mm"
   viewBox="0 0 38.7834 119.6815"
   version="1.1"
   id="svg5"
   xml:space="preserve"
   xmlns="http://www.w3.org/2000/svg"
   xmlns:svg="http://www.w3.org/2000/svg"><defs
     id="defs2" /><g
     id="layer1"
     transform="translate(-961.1029,-1255.577)"><g
       id="g312"><path
         style="opacity:1;fill:#ccccff;stroke:none;stroke-width:0.35;stroke-linecap:round;stroke-linejoin:round;stroke-dasharray:none;paint-order:markers stroke fill"
         d="m 1159.609,1290.057 c 0.763,-1.328 1.837,-2.262 2.433,-2.828 0.597,-0.567 1.307,-1.327 1.948,-1.808 0.641,-0.48 1.303,-0.788 1.974,-1.099 0,0 0.765,3.452 0.765,3.452 0.47,-0.98 0.941,-1.959 1.411,-2.5 0.471,-0.541 0.941,-0.642 1.412,-0.744 0.258,1.323 0.515,2.644 1.492,4.22 0.977,1.575 2.673,3.401 2.862,5.199 0.189,1.798 -1.128,3.567 -2.446,5.335 1.891,3.552 3.783,7.103 4.513,13.209 0.73,6.105 0.299,14.764 -2.055,18.95 -2.354,4.187 -6.63,3.898 -10.907,3.61 1.22,0.814 2.439,1.628 3.822,1.899 1.382,0.271 2.926,-10e-4 3.422,1.377 0.497,1.379 -0.06,4.407 -2.566,5.436 -2.51,1.029 -6.974,0.06 -9.088,-2.891 -2.115,-2.948 -1.878,-7.871 -1.276,-14.973 0.603,-7.102 1.572,-16.386 2.541,-25.668 -0.761,-1.696 -1.647,-3.672 -1.701,-5.165 -0.05,-1.493 0.682,-3.683 1.444,-5.011 z"
         id="path306"
         transform="matrix(2,0,0,2,-1352.707,-1313.067)" /></g></g></svg>
