<?xml version="1.0" encoding="UTF-8" standalone="no"?>
<!-- Created with Inkscape (http://www.inkscape.org/) -->

<svg
   width="55.73481mm"
   height="65.88885mm"
   viewBox="0 0 55.73481 65.88885"
   version="1.1"
   id="svg5"
   xml:space="preserve"
   xmlns="http://www.w3.org/2000/svg"
   xmlns:svg="http://www.w3.org/2000/svg"><defs
     id="defs2" /><g
     id="layer1"
     transform="translate(-640.9821,-1301.207)"><g
       id="g396"><path
         style="opacity:1;fill:#aa1111;stroke:none;stroke-width:0.547239;stroke-linecap:round;stroke-linejoin:round;stroke-dasharray:none;paint-order:markers stroke fill"
         d="m 647.1516,1330.895 c 0.7443,10.653 6.2404,24.79 15.2536,28.177 9.0133,3.386 21.543,-3.977 26.1279,-14.102 4.5849,-10.125 1.2254,-23.01 -5.784,-29.981 -7.0094,-6.972 -17.6683,-8.028 -25.0013,-4.972 -7.3331,3.056 -11.3405,10.225 -10.5962,20.878 z"
         id="path390"
         transform="matrix(1.27915,0,0,1.27915,-186.7091,-372.4279)" /><g
         id="g392"
         transform="translate(-0.5291667,1.058333)"><path
           style="fill:#ffffff;fill-opacity:1;fill-rule:nonzero;stroke:none;stroke-width:0.264583"
           id="path370"
           d="m 659.6997,1334.403 c 0.259,2.272 0.3252,4.563 0.4789,6.844 0.075,1.481 0.295,2.987 0.3905,4.449 -0.011,3.536 4.9887,3.551 4.9998,0.02 v 0 c -0.034,-1.605 -0.3479,-3.196 -0.4016,-4.802 -0.1699,-2.512 -0.2172,-5.041 -0.5744,-7.536 -0.7279,-3.46 -5.6208,-2.431 -4.8932,1.029 z" /><path
           style="fill:#ffffff;fill-opacity:1;fill-rule:nonzero;stroke:none;stroke-width:0.264583"
           id="path371"
           d="m 661.1245,1334.635 c 2.4849,-0.05 4.9456,-0.48 7.3969,-0.856 2.4612,-0.394 4.926,-0.767 7.4049,-1.03 -0.5077,-0.127 0.974,0.02 0.7406,-0.06 -0.099,-0.03 -0.2104,0 -0.3157,0.01 -0.6077,-0.389 -1.2636,-0.712 -1.8229,-1.168 -0.1426,-0.116 -0.045,-0.529 -0.2273,-0.503 -0.1781,0.02 -0.016,0.358 -0.024,0.538 -0.1516,2.992 -0.046,5.987 0.168,8.973 0.1085,1.677 0.3847,3.334 0.6051,4.997 0.4691,3.504 5.425,2.841 4.9559,-0.663 v 0 c -0.2109,-1.563 -0.4675,-3.119 -0.5739,-4.694 -0.2053,-2.819 -0.3024,-5.647 -0.1571,-8.472 0.01,-0.606 0.1047,-1.914 -0.2636,-2.392 -1.3414,-1.74 -1.9849,-1.702 -3.6129,-1.536 -2.5558,0.272 -5.098,0.652 -7.6356,1.059 -2.1785,0.335 -4.364,0.719 -6.5706,0.799 -3.5351,-0.05 -3.6021,4.952 -0.067,4.999 z" /><path
           style="fill:#ffffff;fill-opacity:1;fill-rule:nonzero;stroke:none;stroke-width:0.264583"
           id="path372"
           d="m 665.107,1349.407 c 2.3053,-0.583 4.6857,-0.802 7.045,-1.048 1.7511,-0.17 3.5018,-0.341 5.2523,-0.516 3.5179,-0.352 3.0205,-5.327 -0.4974,-4.975 v 0 c -1.7574,0.176 -3.5153,0.347 -5.2732,0.518 -2.7416,0.286 -5.5157,0.542 -8.1753,1.301 -3.3378,1.165 -1.6891,5.886 1.6486,4.72 z" /><path
           style="fill:#ffffff;fill-opacity:1;fill-rule:nonzero;stroke:none;stroke-width:0.264583"
           id="path373"
           d="m 665.2026,1317.704 c 0.3058,1.544 0.5558,3.1 0.824,4.651 0.038,0.215 0.077,0.431 0.1152,0.646 0.6239,3.479 5.5454,2.598 4.9217,-0.883 v 0 c -0.037,-0.204 -0.073,-0.409 -0.1101,-0.613 -0.302,-1.748 -0.5644,-3.506 -0.9607,-5.236 -1.0142,-3.387 -5.8043,-1.951 -4.7901,1.435 z" /><path
           style="fill:#ffffff;fill-opacity:1;fill-rule:nonzero;stroke:none;stroke-width:0.264583"
           id="path375"
           d="m 674.3978,1317.475 c -0.1391,1.841 -0.2794,3.682 -0.3926,5.525 -0.2167,3.529 4.7741,3.835 4.9906,0.306 v 0 c 0.1164,-1.895 0.2672,-3.787 0.3997,-5.68 0.1064,-3.534 -4.8913,-3.685 -4.9977,-0.151 z" /><path
           style="fill:#ffffff;fill-opacity:1;fill-rule:nonzero;stroke:none;stroke-width:0.264583"
           id="path379"
           d="m 655.9723,1321.003 c 0.9482,1.574 1.8655,3.166 2.8432,4.722 0.1436,0.217 0.2873,0.433 0.4307,0.65 1.9582,2.944 6.1214,0.175 4.1632,-2.769 v 0 c -0.1201,-0.181 -0.2405,-0.361 -0.3609,-0.542 -1.0009,-1.59 -1.9283,-3.224 -2.9107,-4.827 -1.9552,-2.945 -6.1208,-0.18 -4.1655,2.766 z" /></g></g></g></svg>
