<?xml version="1.0" encoding="UTF-8" standalone="no"?>
<!-- Created with Inkscape (http://www.inkscape.org/) -->

<svg
   width="64.49315mm"
   height="80.42216mm"
   viewBox="0 0 64.49315 80.42216"
   version="1.1"
   id="svg5"
   xml:space="preserve"
   xmlns="http://www.w3.org/2000/svg"
   xmlns:svg="http://www.w3.org/2000/svg"><defs
     id="defs2" /><g
     id="layer1"
     transform="translate(-578.0628,-1216.867)"><g
       id="g394"><path
         style="opacity:1;fill:#aa8822;stroke:none;stroke-width:0.586392;stroke-linecap:round;stroke-linejoin:round;stroke-dasharray:none;paint-order:markers stroke fill"
         d="m 643.8845,1260.269 c 2.8295,-10.845 11.4619,-16.722 20.2155,-17.837 8.7537,-1.115 17.6283,2.533 24.3896,11.916 6.7612,9.383 11.4087,24.502 9.4205,35.365 -1.9883,10.864 -10.6117,17.471 -20.2027,18.933 -9.591,1.463 -20.148,-2.22 -26.9135,-11.969 -6.7655,-9.748 -9.7389,-25.562 -6.9094,-36.408 z"
         id="path387"
         transform="matrix(1.185487,0.1401304,-0.1401304,1.185487,-5.716709,-349.0795)" /><g
         id="g390"
         style="fill:#ffffff"
         transform="rotate(6.741361,782.3945,743.9811)"><path
           style="fill:#ffffff;fill-opacity:1;fill-rule:nonzero;stroke:none;stroke-width:0.264583"
           id="path330"
           d="m 676.8551,1268.288 c -2.7815,-0.341 -5.6356,-0.16 -8.3468,0.563 -0.7932,0.212 -1.5626,0.505 -2.3439,0.757 -0.7639,0.347 -1.5526,0.644 -2.2913,1.042 -3.0753,1.657 -5.5976,4.235 -6.7265,7.6 -0.2876,0.857 -0.3876,1.766 -0.5813,2.65 -0.011,0.897 -0.1143,1.798 -0.03,2.691 0.3413,3.645 2.0873,7.252 4.5071,9.969 0.5932,0.666 1.2878,1.235 1.9315,1.852 0.7742,0.503 1.5071,1.076 2.3222,1.508 2.4112,1.28 5.1253,1.835 7.846,1.621 2.431,-0.191 2.9218,-0.567 5.1943,-1.433 3.2414,-1.656 5.9687,-4.057 7.8137,-7.219 1.1612,-1.99 1.1877,-2.521 1.8457,-4.685 0.091,-0.826 0.2553,-1.648 0.2736,-2.479 0.052,-2.347 -0.5308,-4.662 -1.6322,-6.728 -0.8822,-1.655 -1.3722,-2.065 -2.5797,-3.458 -1.5891,-1.551 -3.4534,-2.626 -5.546,-3.342 -0.5977,-0.204 -1.2189,-0.333 -1.8285,-0.499 -3.4184,-0.902 -4.6942,3.932 -1.2755,4.835 v 0 c 1.9134,0.48 3.412,0.956 4.9114,2.326 0.3191,0.347 0.6633,0.672 0.9573,1.04 1.628,2.038 2.2174,4.333 1.9177,6.911 -0.4101,1.519 -0.4112,1.871 -1.1941,3.291 -1.2798,2.321 -3.211,4.101 -5.5229,5.366 -0.549,0.237 -1.0777,0.528 -1.647,0.711 -2.2651,0.725 -4.7456,0.528 -6.8818,-0.497 -0.543,-0.26 -1.0369,-0.612 -1.5555,-0.918 -0.4665,-0.423 -0.9697,-0.808 -1.3994,-1.268 -1.7116,-1.831 -3.102,-4.44 -3.4581,-6.94 -0.08,-0.561 -0.041,-1.132 -0.062,-1.698 0.081,-0.526 0.1008,-1.065 0.2437,-1.578 0.4381,-1.575 1.4533,-3.05 2.7172,-4.076 1.1454,-0.929 1.9669,-1.218 3.2933,-1.846 0.6117,-0.206 1.2136,-0.443 1.8351,-0.618 2.1339,-0.601 4.3934,-0.761 6.5919,-0.501 3.5007,0.496 4.2018,-4.454 0.7011,-4.95 z" /><path
           style="fill:#ffffff;fill-opacity:1;fill-rule:nonzero;stroke:none;stroke-width:0.264583"
           id="path339"
           d="m 666.125,1254.216 c 0.3162,2.606 0.6398,5.209 1.1261,7.79 0.08,0.353 0.1609,0.706 0.2413,1.059 0.7914,3.446 5.6645,2.326 4.8731,-1.12 v 0 c -0.067,-0.289 -0.1344,-0.579 -0.2016,-0.869 -0.486,-2.558 -0.7824,-5.142 -1.1136,-7.723 -0.6102,-3.483 -5.5351,-2.62 -4.9253,0.863 z" /><path
           style="fill:#ffffff;fill-opacity:1;fill-rule:nonzero;stroke:none;stroke-width:0.264583"
           id="path342"
           d="m 654.7731,1259.531 c 1.1683,2.089 2.2183,4.239 3.3632,6.341 0.1817,0.322 0.3626,0.643 0.544,0.965 1.7361,3.08 6.0917,0.625 4.3555,-2.455 v 0 c -0.1702,-0.301 -0.3396,-0.602 -0.5094,-0.904 -1.1851,-2.172 -2.2608,-4.401 -3.4851,-6.552 -1.8419,-3.018 -6.1098,-0.413 -4.2682,2.605 z" /><path
           style="fill:#ffffff;fill-opacity:1;fill-rule:nonzero;stroke:none;stroke-width:0.264583"
           id="path344"
           d="m 677.7695,1254.618 c -0.3339,2.187 -0.8,4.352 -1.1811,6.529 -0.053,0.335 -0.1078,0.671 -0.162,1.005 -0.562,3.491 4.3742,4.286 4.9363,0.796 v 0 c 0.05,-0.314 0.1007,-0.627 0.1512,-0.939 0.4061,-2.327 0.9205,-4.634 1.2382,-6.975 0.2941,-3.523 -4.6887,-3.939 -4.9826,-0.416 z" /><path
           style="fill:#ffffff;fill-opacity:1;fill-rule:nonzero;stroke:none;stroke-width:0.264583"
           id="path357"
           d="m 664.1505,1284.277 c 0.8683,1.59 2.0034,3.108 3.4663,4.202 0.4222,0.316 0.8887,0.568 1.3332,0.852 0.4892,0.203 0.9604,0.455 1.4674,0.609 1.7042,0.519 3.3626,0.426 5.0115,-0.249 1.3652,-0.558 1.652,-0.945 2.7699,-1.878 1.0266,-1.064 1.8214,-2.281 2.3198,-3.674 0.127,-0.356 0.2003,-0.728 0.3004,-1.092 0.8678,-3.427 -3.9794,-4.655 -4.847,-1.227 v 0 c -0.029,0.148 -0.048,0.298 -0.088,0.443 -0.1903,0.678 -0.553,1.27 -1.0023,1.809 -0.1627,0.167 -0.3101,0.35 -0.4881,0.5 -0.3715,0.313 -1.0581,0.72 -1.5632,0.756 -0.5133,0.04 -0.7969,-0.112 -1.2808,-0.269 -0.2212,-0.121 -0.4562,-0.22 -0.6639,-0.364 -0.9747,-0.672 -1.7015,-1.659 -2.2746,-2.677 -1.5978,-3.154 -6.0582,-0.895 -4.4603,2.259 z" /></g></g></g></svg>
