<?xml version="1.0" encoding="UTF-8" standalone="no"?>
<!-- Created with Inkscape (http://www.inkscape.org/) -->

<svg
   width="109.2844mm"
   height="57.40557mm"
   viewBox="0 0 109.2844 57.40557"
   version="1.1"
   id="svg5"
   xml:space="preserve"
   xmlns="http://www.w3.org/2000/svg"
   xmlns:svg="http://www.w3.org/2000/svg"><defs
     id="defs2" /><g
     id="layer1"
     transform="translate(-714.9519,-736.074)"><g
       id="g312"><path
         style="opacity:1;fill:#ffcccc;stroke:none;stroke-width:0.7;stroke-linecap:round;stroke-linejoin:round;stroke-dasharray:none;paint-order:markers stroke fill"
         d="m 722.3071,741.6323 c 2.9614,-2.3692 6.8724,-3.5151 10.6441,-3.1187 3.7717,0.3964 7.359,2.3303 9.7632,5.2634 1.7985,-1.2061 3.7012,-2.2567 5.6799,-3.1365 6.0944,-2.7097 12.9163,-3.7614 19.5438,-3.0131 6.6275,0.7484 13.0432,3.2948 18.3799,7.2952 1.0254,-1.8241 2.384,-3.4601 3.9886,-4.8032 3.2236,-2.6981 7.4541,-4.1637 11.656,-4.0379 4.2018,0.1258 8.3371,1.8417 11.3935,4.7278 3.0565,2.8862 5.0065,6.9163 5.3727,11.1041 0.3663,4.1878 -0.8545,8.4952 -3.3636,11.8681 3.4234,1.622 6.2124,4.5417 7.6761,8.0356 1.4637,3.494 1.5885,7.5298 0.3434,11.1075 -0.8821,2.5349 -2.4345,4.8331 -4.4567,6.5979 -2.0222,1.7648 -4.5093,2.992 -7.1402,3.5231 -2.6309,0.5311 -5.3994,0.3648 -7.9478,-0.4773 -2.5484,-0.8422 -4.8708,-2.3582 -6.6672,-4.3524 -2.7048,1.8271 -5.8189,3.0445 -9.0457,3.5363 -5.787,0.882 -11.9043,-0.6529 -16.5893,-4.1626 -4.2813,1.1685 -8.5893,2.2392 -12.9195,3.2107 -7.6574,1.718 -15.4905,3.1327 -23.3161,2.5433 -3.8101,-0.287 -7.6301,-1.066 -11.0451,-2.7798 -3.415,-1.7137 -6.4106,-4.4228 -8.0151,-7.8905 -1.5205,-3.2863 -1.7065,-7.1672 -0.5071,-10.5837 1.1994,-3.4166 3.7703,-6.3297 7.0113,-7.9445 -2.6417,-1.8799 -4.5901,-4.7122 -5.4012,-7.8514 -0.6822,-2.6406 -0.5653,-5.4795 0.3147,-8.0609 0.8801,-2.5814 2.5178,-4.8968 4.6474,-6.6005 z"
         id="path302" /></g></g></svg>
