<?xml version="1.0" encoding="UTF-8" standalone="no"?>
<!-- Created with Inkscape (http://www.inkscape.org/) -->

<svg
   width="65.2603mm"
   height="12.9418mm"
   viewBox="0 0 65.2603 12.9418"
   version="1.1"
   id="svg5"
   xml:space="preserve"
   xmlns="http://www.w3.org/2000/svg"
   xmlns:svg="http://www.w3.org/2000/svg"><defs
     id="defs2" /><g
     id="layer1"
     transform="translate(-463.7658,-979.0226)"><g
       id="g312"><path
         style="opacity:1;fill:#ccccff;stroke:none;stroke-width:0.657208;stroke-linecap:round;stroke-linejoin:round;stroke-dasharray:none;paint-order:markers stroke fill"
         d="m 516.3113,989.8003 c 8.343,-0.1063 9.592,-0.4584 10.3958,-1.7356 0.8037,-1.2772 1.2821,-3.2816 0.868,-5.2147 -0.4141,-1.9332 -1.4292,-2.6505 -11.2293,-3.1633 -9.8001,-0.5127 -28.1409,-0.6503 -38.146,-0.078 -10.0051,0.5726 -11.6693,1.8549 -12.211,3.9142 -0.5417,2.0593 0.039,4.8949 0.6208,7.7306 2.1119,-0.5083 4.2239,-1.0166 13.7253,-1.2279 9.5014,-0.2113 27.6335,-0.1193 35.9764,-0.2256 z"
         id="path311"
         transform="matrix(1.053366,0,0,1.076989,-26.86379,-75.60476)" /></g></g></svg>
