<?xml version="1.0" encoding="UTF-8" standalone="no"?>
<!-- Created with Inkscape (http://www.inkscape.org/) -->

<svg
   width="48.09632mm"
   height="27.1572mm"
   viewBox="0 0 48.09632 27.1572"
   version="1.1"
   id="svg5"
   xml:space="preserve"
   xmlns="http://www.w3.org/2000/svg"
   xmlns:svg="http://www.w3.org/2000/svg"><defs
     id="defs2" /><g
     id="layer1"
     transform="translate(-442.1606,-555.216)"><g
       id="g312"><path
         style="opacity:1;fill:#ffffcc;stroke:none;stroke-width:0.684073;stroke-linecap:round;stroke-linejoin:round;stroke-dasharray:none;paint-order:markers stroke fill"
         d="m 481.0624,556.3103 c 7.021,0.8991 8.0904,2.3673 8.4702,5.1805 0.3799,2.8132 0.07,6.9714 -0.8359,9.8082 -0.9062,2.8368 -2.4089,4.3526 -9.3252,4.7544 -6.9162,0.4017 -19.2461,-0.3104 -26.23,0.5009 -6.9839,0.8114 -8.6217,3.1462 -10.2595,5.4811 -0.2158,-6.4495 -0.4316,-12.8986 0.4376,-17.4462 0.8691,-4.5476 2.8229,-7.1926 10.2863,-8.3502 7.4633,-1.1577 20.4356,-0.8278 27.4565,0.071 z"
         id="path296"
         transform="matrix(1.023282,0,0,1.023282,-10.83565,-13.21314)" /></g></g></svg>
