<?xml version="1.0" encoding="UTF-8" standalone="no"?>
<!-- Created with Inkscape (http://www.inkscape.org/) -->

<svg
   width="39.71174mm"
   height="11.41522mm"
   viewBox="0 0 39.71174 11.41522"
   version="1.1"
   id="svg5"
   xml:space="preserve"
   xmlns="http://www.w3.org/2000/svg"
   xmlns:svg="http://www.w3.org/2000/svg"><defs
     id="defs2" /><g
     id="layer1"
     transform="translate(-903.2675,-974.9128)"><g
       id="g312"><path
         style="opacity:1;fill:#ccccff;stroke:none;stroke-width:0.645064;stroke-linecap:round;stroke-linejoin:round;stroke-dasharray:none;paint-order:markers stroke fill"
         d="m 906.9187,985.8798 c 1.7269,-0.3451 3.2997,-0.6594 9.4275,-0.5769 6.1278,0.083 15.8144,0.5877 20.2806,-0.01 4.4661,-0.5974 4.9867,-2.6259 4.7867,-4.4029 -0.1999,-1.7771 -1.0703,-3.4975 -4.1818,-4.4417 -3.1115,-0.9443 -8.4638,-1.1123 -14.0066,-1.0852 -5.5427,0.027 -11.2757,0.2492 -14.5093,1.2603 -3.2337,1.0111 -3.9674,2.8108 -3.8503,4.4849 0.1171,1.6741 1.0852,3.2227 2.0532,4.7712 z"
         id="path304"
         transform="matrix(1.085164,0,0,1.085164,-78.64734,-83.51326)" /></g></g></svg>
