<?xml version="1.0" encoding="UTF-8" standalone="no"?>
<!-- Created with Inkscape (http://www.inkscape.org/) -->

<svg
   width="40.97664mm"
   height="19.55388mm"
   viewBox="0 0 40.97664 19.55388"
   version="1.1"
   id="svg5"
   xml:space="preserve"
   xmlns="http://www.w3.org/2000/svg"
   xmlns:svg="http://www.w3.org/2000/svg"><defs
     id="defs2" /><g
     id="layer1"
     transform="translate(-921.1642,-1182.067)"><g
       id="g312"><path
         style="opacity:1;fill:#ccccff;stroke:none;stroke-width:0.596848;stroke-linecap:round;stroke-linejoin:round;stroke-dasharray:none;paint-order:markers stroke fill"
         d="m 957.5215,1187.099 c 3.1536,2.32 2.7255,5.649 -0.1997,7.645 -2.9251,1.996 -8.3472,2.659 -11.3531,3.542 -3.006,0.883 -3.595,1.984 -4.2551,1.988 -0.6602,0 -1.391,-1.09 -4.354,-1.708 -2.963,-0.617 -8.1587,-0.76 -10.7652,-2.55 -2.6065,-1.79 -2.6241,-5.228 0.1914,-7.813 2.8156,-2.585 8.4639,-4.316 14.6555,-4.526 6.1916,-0.21 12.9265,1.102 16.0802,3.422 z"
         id="path289"
         transform="matrix(1.16906,0,0,1.176605,-159.8145,-210.6273)" /></g></g></svg>
