<?xml version="1.0" encoding="UTF-8" standalone="no"?>
<!-- Created with Inkscape (http://www.inkscape.org/) -->

<svg
   width="72.10503mm"
   height="46.59512mm"
   viewBox="0 0 72.10503 46.59512"
   version="1.1"
   id="svg5"
   xml:space="preserve"
   xmlns="http://www.w3.org/2000/svg"
   xmlns:svg="http://www.w3.org/2000/svg"><defs
     id="defs2" /><g
     id="layer1"
     transform="translate(-743.5013,-892.5702)"><g
       id="g312"><path
         style="opacity:1;fill:#ccccff;stroke:none;stroke-width:0.678116;stroke-linecap:round;stroke-linejoin:round;stroke-dasharray:none;paint-order:markers stroke fill"
         d="m 747.8306,903.7373 c 2.6942,-5.7811 7.3272,-9.0931 16.496,-10.4884 9.1689,-1.3953 22.8735,-0.8738 31.504,0.2545 8.6306,1.1282 12.187,2.8632 14.8328,8.4346 2.6458,5.5714 4.3805,14.978 3.895,20.8189 -0.4854,5.841 -3.1909,8.115 -8.6809,8.7416 -5.4899,0.6265 -13.7621,-0.3943 -18.5925,0.3392 -4.8304,0.7334 -6.2165,3.2209 -7.6028,5.7087 -0.9949,-2.6295 -1.9898,-5.2588 -7.0192,-5.9627 -5.0295,-0.7038 -14.0915,0.5179 -19.6039,-0.089 -5.5124,-0.6065 -7.473,-3.0414 -8.0755,-8.384 -0.6025,-5.3425 0.1528,-13.5926 2.847,-19.3737 z"
         id="path301"
         transform="matrix(1.032272,0,0,1.032272,-25.32354,-28.63754)" /></g></g></svg>
