<?xml version="1.0" encoding="UTF-8" standalone="no"?>
<!-- Created with Inkscape (http://www.inkscape.org/) -->

<svg
   width="41.33985mm"
   height="23.55833mm"
   viewBox="0 0 41.33985 23.55833"
   version="1.1"
   id="svg5"
   xml:space="preserve"
   xmlns="http://www.w3.org/2000/svg"
   xmlns:svg="http://www.w3.org/2000/svg"><defs
     id="defs2" /><g
     id="layer1"
     transform="translate(-857.4025,-1079.323)"><g
       id="g312"><path
         style="opacity:1;fill:#ccccff;stroke:none;stroke-width:0.7;stroke-linecap:round;stroke-linejoin:round;stroke-dasharray:none;paint-order:markers stroke fill"
         d="m 880.2296,1086.735 c 1.1783,-2.646 3.6058,-4.702 6.4093,-5.429 2.8034,-0.727 5.9243,-0.11 8.2398,1.63 2.3387,1.757 3.805,4.623 3.8619,7.547 0.057,2.925 -1.297,5.845 -3.5657,7.692 -2.2687,1.846 -5.403,2.579 -8.2552,1.93 -2.8522,-0.65 -5.3604,-2.667 -6.606,-5.314 -0.7092,2.166 -2.065,4.117 -3.8487,5.536 -1.7836,1.42 -3.9885,2.303 -6.2589,2.508 -2.2704,0.205 -4.5978,-0.269 -6.6068,-1.346 -2.0091,-1.078 -3.6922,-2.754 -4.7779,-4.758 -0.9562,-1.765 -1.449,-3.779 -1.4175,-5.786 0.031,-2.008 0.5872,-4.004 1.5962,-5.74 1.009,-1.736 2.4689,-3.207 4.1965,-4.23 1.7275,-1.022 3.7187,-1.595 5.7257,-1.648 2.3963,-0.06 4.807,0.622 6.8121,1.936 2.0051,1.313 3.5959,3.25 4.4952,5.472 z"
         id="path305" /></g></g></svg>
