<?xml version="1.0" encoding="UTF-8" standalone="no"?>
<!-- Created with Inkscape (http://www.inkscape.org/) -->

<svg
   width="43.48795mm"
   height="26.77871mm"
   viewBox="0 0 43.48795 26.77871"
   version="1.1"
   id="svg5"
   xml:space="preserve"
   xmlns="http://www.w3.org/2000/svg"
   xmlns:svg="http://www.w3.org/2000/svg"><defs
     id="defs2" /><g
     id="layer1"
     transform="translate(-436.832,-633.2811)"><g
       id="g312"><path
         style="opacity:1;fill:#aaeedd;stroke-width:6.37124;stroke-linecap:round;stroke-linejoin:round;paint-order:markers stroke fill"
         d="m 439.0303,659.0587 c 1.5989,-2.0119 3.1978,-4.0238 6.8995,-4.7501 3.7016,-0.7262 9.1115,-0.2048 15.6288,-9e-4 6.5173,0.204 12.3552,0.042 15.6644,-2.2382 3.3093,-2.2803 3.3969,-6.5063 2.1413,-10.0499 -1.2556,-3.5437 -3.6472,-6.1284 -10.1934,-7.6282 -6.5463,-1.4999 -15.1477,-1.4425 -21.1616,-0.4697 -6.014,0.9728 -8.217,2.5684 -9.2858,7.5715 -1.0688,5.0031 -0.4378,10.7659 0.3068,17.5655 z"
         id="path7"
         transform="matrix(1.036492,0,0,1.036492,-17.31147,-23.04928)" /></g></g></svg>
