<?xml version="1.0" encoding="UTF-8" standalone="no"?>
<!-- Created with Inkscape (http://www.inkscape.org/) -->

<svg
   width="210mm"
   height="297mm"
   viewBox="0 0 210 297"
   version="1.1"
   id="svg1"
   xml:space="preserve"
   inkscape:version="1.3.2 (091e20e, 2023-11-25)"
   sodipodi:docname="ko.svg"
   xmlns:inkscape="http://www.inkscape.org/namespaces/inkscape"
   xmlns:sodipodi="http://sodipodi.sourceforge.net/DTD/sodipodi-0.dtd"
   xmlns="http://www.w3.org/2000/svg"
   xmlns:svg="http://www.w3.org/2000/svg"><sodipodi:namedview
     id="namedview1"
     pagecolor="#ffffff"
     bordercolor="#666666"
     borderopacity="1.0"
     inkscape:showpageshadow="2"
     inkscape:pageopacity="0.0"
     inkscape:pagecheckerboard="0"
     inkscape:deskcolor="#d1d1d1"
     inkscape:document-units="mm"
     inkscape:zoom="3.4581927"
     inkscape:cx="138.0779"
     inkscape:cy="224.1055"
     inkscape:window-width="1920"
     inkscape:window-height="1011"
     inkscape:window-x="0"
     inkscape:window-y="32"
     inkscape:window-maximized="1"
     inkscape:current-layer="layer1"
     showgrid="false"
     showguides="true" /><defs
     id="defs1"><inkscape:path-effect
       effect="bspline"
       id="path-effect91"
       is_visible="true"
       lpeversion="1.3"
       weight="33.333333"
       steps="2"
       helper_size="0"
       apply_no_weight="true"
       apply_with_weight="true"
       only_selected="false"
       uniform="false" /><inkscape:path-effect
       effect="bspline"
       id="path-effect90"
       is_visible="true"
       lpeversion="1.3"
       weight="33.333333"
       steps="2"
       helper_size="0"
       apply_no_weight="true"
       apply_with_weight="true"
       only_selected="false"
       uniform="false" /><inkscape:path-effect
       effect="bspline"
       id="path-effect89"
       is_visible="true"
       lpeversion="1.3"
       weight="33.333333"
       steps="2"
       helper_size="0"
       apply_no_weight="true"
       apply_with_weight="true"
       only_selected="false"
       uniform="false" /><inkscape:path-effect
       effect="bspline"
       id="path-effect88"
       is_visible="true"
       lpeversion="1.3"
       weight="33.333333"
       steps="2"
       helper_size="0"
       apply_no_weight="true"
       apply_with_weight="true"
       only_selected="false"
       uniform="false" /><inkscape:path-effect
       effect="bspline"
       id="path-effect13"
       is_visible="true"
       lpeversion="1.3"
       weight="33.333333"
       steps="2"
       helper_size="0"
       apply_no_weight="true"
       apply_with_weight="true"
       only_selected="false"
       uniform="false" /><inkscape:path-effect
       effect="bspline"
       id="path-effect11"
       is_visible="true"
       lpeversion="1.3"
       weight="33.333333"
       steps="2"
       helper_size="0"
       apply_no_weight="true"
       apply_with_weight="true"
       only_selected="false"
       uniform="false" /><inkscape:path-effect
       effect="bspline"
       id="path-effect10"
       is_visible="true"
       lpeversion="1.3"
       weight="33.333333"
       steps="2"
       helper_size="0"
       apply_no_weight="true"
       apply_with_weight="true"
       only_selected="false"
       uniform="false" /><inkscape:path-effect
       effect="bspline"
       id="path-effect9"
       is_visible="true"
       lpeversion="1.3"
       weight="33.333333"
       steps="2"
       helper_size="0"
       apply_no_weight="true"
       apply_with_weight="true"
       only_selected="false"
       uniform="false" /><inkscape:path-effect
       effect="bspline"
       id="path-effect8"
       is_visible="true"
       lpeversion="1.3"
       weight="33.333333"
       steps="2"
       helper_size="0"
       apply_no_weight="true"
       apply_with_weight="true"
       only_selected="false"
       uniform="false" /><inkscape:path-effect
       effect="bspline"
       id="path-effect7"
       is_visible="true"
       lpeversion="1.3"
       weight="33.333333"
       steps="2"
       helper_size="0"
       apply_no_weight="true"
       apply_with_weight="true"
       only_selected="false"
       uniform="false" /><inkscape:path-effect
       effect="bspline"
       id="path-effect6"
       is_visible="true"
       lpeversion="1.3"
       weight="33.333333"
       steps="2"
       helper_size="0"
       apply_no_weight="true"
       apply_with_weight="true"
       only_selected="false"
       uniform="false" /><inkscape:path-effect
       effect="bspline"
       id="path-effect5"
       is_visible="true"
       lpeversion="1.3"
       weight="33.333333"
       steps="2"
       helper_size="0"
       apply_no_weight="true"
       apply_with_weight="true"
       only_selected="false"
       uniform="false" /><inkscape:path-effect
       effect="bspline"
       id="path-effect4"
       is_visible="true"
       lpeversion="1.3"
       weight="33.333333"
       steps="2"
       helper_size="0"
       apply_no_weight="true"
       apply_with_weight="true"
       only_selected="false"
       uniform="false" /><inkscape:path-effect
       effect="bspline"
       id="path-effect2"
       is_visible="true"
       lpeversion="1.3"
       weight="33.333333"
       steps="2"
       helper_size="0"
       apply_no_weight="true"
       apply_with_weight="true"
       only_selected="false"
       uniform="false" /><inkscape:path-effect
       effect="bspline"
       id="path-effect47"
       is_visible="true"
       lpeversion="1.3"
       weight="33.333333"
       steps="2"
       helper_size="0"
       apply_no_weight="true"
       apply_with_weight="true"
       only_selected="false"
       uniform="false" /><inkscape:path-effect
       effect="bspline"
       id="path-effect45"
       is_visible="true"
       lpeversion="1.3"
       weight="33.333333"
       steps="2"
       helper_size="0"
       apply_no_weight="true"
       apply_with_weight="true"
       only_selected="false"
       uniform="false" /><inkscape:path-effect
       effect="bspline"
       id="path-effect44"
       is_visible="true"
       lpeversion="1.3"
       weight="33.333333"
       steps="2"
       helper_size="0"
       apply_no_weight="true"
       apply_with_weight="true"
       only_selected="false"
       uniform="false" /><inkscape:path-effect
       effect="bspline"
       id="path-effect43"
       is_visible="true"
       lpeversion="1.3"
       weight="33.333333"
       steps="2"
       helper_size="0"
       apply_no_weight="true"
       apply_with_weight="true"
       only_selected="false"
       uniform="false" /><inkscape:path-effect
       effect="bspline"
       id="path-effect42"
       is_visible="true"
       lpeversion="1.3"
       weight="33.333333"
       steps="2"
       helper_size="0"
       apply_no_weight="true"
       apply_with_weight="true"
       only_selected="false"
       uniform="false" /><inkscape:path-effect
       effect="bspline"
       id="path-effect41"
       is_visible="true"
       lpeversion="1.3"
       weight="33.333333"
       steps="2"
       helper_size="0"
       apply_no_weight="true"
       apply_with_weight="true"
       only_selected="false"
       uniform="false" /><inkscape:path-effect
       effect="bspline"
       id="path-effect12"
       is_visible="true"
       lpeversion="1.3"
       weight="33.333333"
       steps="2"
       helper_size="0"
       apply_no_weight="true"
       apply_with_weight="true"
       only_selected="false"
       uniform="false" /><inkscape:path-effect
       effect="bspline"
       id="path-effect3"
       is_visible="true"
       lpeversion="1.3"
       weight="33.333333"
       steps="2"
       helper_size="0"
       apply_no_weight="true"
       apply_with_weight="true"
       only_selected="false"
       uniform="false" /><inkscape:path-effect
       effect="bspline"
       id="path-effect63"
       is_visible="true"
       lpeversion="1.3"
       weight="33.333333"
       steps="2"
       helper_size="0"
       apply_no_weight="true"
       apply_with_weight="true"
       only_selected="false"
       uniform="false" /><inkscape:path-effect
       effect="bspline"
       id="path-effect62"
       is_visible="true"
       lpeversion="1.3"
       weight="33.333333"
       steps="2"
       helper_size="0"
       apply_no_weight="true"
       apply_with_weight="true"
       only_selected="false"
       uniform="false" /><inkscape:path-effect
       effect="bspline"
       id="path-effect61"
       is_visible="true"
       lpeversion="1.3"
       weight="33.333333"
       steps="2"
       helper_size="0"
       apply_no_weight="true"
       apply_with_weight="true"
       only_selected="false"
       uniform="false" /><inkscape:path-effect
       effect="bspline"
       id="path-effect40"
       is_visible="true"
       lpeversion="1.3"
       weight="33.333333"
       steps="2"
       helper_size="0"
       apply_no_weight="true"
       apply_with_weight="true"
       only_selected="false"
       uniform="false" /><inkscape:path-effect
       effect="bspline"
       id="path-effect39"
       is_visible="true"
       lpeversion="1.3"
       weight="33.333333"
       steps="2"
       helper_size="0"
       apply_no_weight="true"
       apply_with_weight="true"
       only_selected="false"
       uniform="false" /><inkscape:path-effect
       effect="bspline"
       id="path-effect38"
       is_visible="true"
       lpeversion="1.3"
       weight="33.333333"
       steps="2"
       helper_size="0"
       apply_no_weight="true"
       apply_with_weight="true"
       only_selected="false"
       uniform="false" /><inkscape:path-effect
       effect="bspline"
       id="path-effect37"
       is_visible="true"
       lpeversion="1.3"
       weight="33.333333"
       steps="2"
       helper_size="0"
       apply_no_weight="true"
       apply_with_weight="true"
       only_selected="false"
       uniform="false" /><inkscape:path-effect
       effect="bspline"
       id="path-effect36"
       is_visible="true"
       lpeversion="1.3"
       weight="33.333333"
       steps="2"
       helper_size="0"
       apply_no_weight="true"
       apply_with_weight="true"
       only_selected="false"
       uniform="false" /><inkscape:path-effect
       effect="bspline"
       id="path-effect35"
       is_visible="true"
       lpeversion="1.3"
       weight="33.333333"
       steps="2"
       helper_size="0"
       apply_no_weight="true"
       apply_with_weight="true"
       only_selected="false"
       uniform="false" /><inkscape:path-effect
       effect="bspline"
       id="path-effect34"
       is_visible="true"
       lpeversion="1.3"
       weight="33.333333"
       steps="2"
       helper_size="0"
       apply_no_weight="true"
       apply_with_weight="true"
       only_selected="false"
       uniform="false" /><inkscape:path-effect
       effect="bspline"
       id="path-effect33"
       is_visible="true"
       lpeversion="1.3"
       weight="33.333333"
       steps="2"
       helper_size="0"
       apply_no_weight="true"
       apply_with_weight="true"
       only_selected="false"
       uniform="false" /><inkscape:path-effect
       effect="bspline"
       id="path-effect32"
       is_visible="true"
       lpeversion="1.3"
       weight="33.333333"
       steps="2"
       helper_size="0"
       apply_no_weight="true"
       apply_with_weight="true"
       only_selected="false"
       uniform="false" /><inkscape:path-effect
       effect="bspline"
       id="path-effect31"
       is_visible="true"
       lpeversion="1.3"
       weight="33.333333"
       steps="2"
       helper_size="0"
       apply_no_weight="true"
       apply_with_weight="true"
       only_selected="false"
       uniform="false" /><inkscape:path-effect
       effect="bspline"
       id="path-effect30"
       is_visible="true"
       lpeversion="1.3"
       weight="33.333333"
       steps="2"
       helper_size="0"
       apply_no_weight="true"
       apply_with_weight="true"
       only_selected="false"
       uniform="false" /><inkscape:path-effect
       effect="bspline"
       id="path-effect29"
       is_visible="true"
       lpeversion="1.3"
       weight="33.333333"
       steps="2"
       helper_size="0"
       apply_no_weight="true"
       apply_with_weight="true"
       only_selected="false"
       uniform="false" /><inkscape:path-effect
       effect="bspline"
       id="path-effect28"
       is_visible="true"
       lpeversion="1.3"
       weight="33.333333"
       steps="2"
       helper_size="0"
       apply_no_weight="true"
       apply_with_weight="true"
       only_selected="false"
       uniform="false" /><inkscape:path-effect
       effect="bspline"
       id="path-effect27"
       is_visible="true"
       lpeversion="1.3"
       weight="33.333333"
       steps="2"
       helper_size="0"
       apply_no_weight="true"
       apply_with_weight="true"
       only_selected="false"
       uniform="false" /><rect
       x="87.239149"
       y="522.35201"
       width="277.12957"
       height="89.781431"
       id="rect9" /></defs><g
     inkscape:label="Layer 1"
     inkscape:groupmode="layer"
     id="layer1"><path
       style="fill:#ccccff;stroke:none;stroke-width:0.264583px;stroke-linecap:butt;stroke-linejoin:miter;stroke-opacity:1"
       d="m 80.509483,211.0046 c 0.357445,-1.50739 1.186831,-2.53595 5.371733,-3.02119 4.184903,-0.48525 11.724831,-0.42713 18.244454,-0.32808 6.51963,0.0991 13.11795,0.26704 15.39796,1.12111 2.28001,0.85408 2.52139,3.24825 2.4349,5.00545 -0.0865,1.7572 -0.46061,3.27644 -0.83473,4.79567 -1.63416,-0.65602 -3.26829,-1.31203 -8.92527,-1.50219 -5.65698,-0.19015 -15.336166,0.0856 -21.309655,0.0647 -5.973488,-0.0209 -8.240584,-0.33827 -9.431456,-1.49011 -1.190872,-1.15184 -1.305382,-3.13799 -0.947936,-4.64537 z"
       id="path11"
       inkscape:path-effect="#path-effect13"
       inkscape:original-d="m 80.037526,210.52579 c 0.829402,-1.02858 1.658787,-2.05714 2.488206,-3.08574 7.540387,0.0581 15.080315,0.11623 22.620698,0.17434 5.49887,0.13999 12.09719,0.30798 16.49628,0.41997 0.16092,1.59616 0.4023,3.99033 0.60346,5.9855 -0.37413,1.51923 -1.12237,4.5577 -1.12237,4.5577 0,0 -3.26829,-1.31203 -4.90248,-1.96807 -9.67977,0.27573 -19.358956,0.55144 -29.038708,0.82717 -2.267226,-0.31743 -4.534321,-0.63485 -6.801551,-0.95229 -0.114514,-1.98624 -0.229023,-3.97239 -0.343535,-5.95858 z"
       transform="translate(-0.38420263,0.60164869)"
       sodipodi:nodetypes="cccccccccc" /><path
       style="fill:#ccccff;stroke:none;stroke-width:0.264583px;stroke-linecap:butt;stroke-linejoin:miter;stroke-opacity:1"
       d="m 109.8714,179.85454 c -0.26218,3.02615 -0.28604,8.14267 0.0664,10.98697 0.35247,2.84431 1.14518,3.46655 3.45604,3.77635 2.31085,0.30979 6.13967,0.30713 10.51953,0.25369 4.37987,-0.0534 9.3105,-0.15762 12.37965,-0.84235 3.06915,-0.68474 4.27668,-1.94996 4.90845,-4.38793 0.63178,-2.43797 0.6878,-6.04852 -0.33435,-8.64826 -1.02214,-2.59974 -3.12238,-4.18855 -5.83364,-5.15741 -2.71126,-0.96885 -6.13696,-1.32862 -10.1092,-1.58263 -3.97225,-0.25401 -5.70192,-0.31217 -9.99608,0.66382 -4.29416,0.97598 -4.79465,1.9116 -5.05683,4.93775 z"
       id="path10"
       inkscape:path-effect="#path-effect11"
       inkscape:original-d="m 109.63309,177.764 c -0.0238,5.11669 -0.0477,10.23321 -0.0716,15.34974 0.73284,0.56694 1.52354,1.19175 2.31426,1.81658 3.82897,-0.003 7.65779,-0.005 11.48669,-0.008 4.93083,-0.1042 9.86146,-0.2084 14.7922,-0.31259 1.20756,-1.26527 2.41508,-2.53049 3.62263,-3.79573 0.056,-3.6107 0.11202,-7.22125 0.16804,-10.83188 -2.1003,-1.58885 -4.20054,-3.17766 -6.30078,-4.76647 -3.32228,-0.3489 -6.74798,-0.70866 -10.12207,-1.06301 -4.5704,-0.15367 -6.30007,-0.21183 -13.71092,-0.46102 -1.17747,2.20115 -1.67796,3.13677 -2.17845,4.07238 z"
       sodipodi:nodetypes="ccccccccccc" /><path
       style="fill:#ccccff;stroke:none;stroke-width:0.254331px;stroke-linecap:butt;stroke-linejoin:miter;stroke-opacity:1"
       d="m 61.059238,190.99359 c 0.03497,-1.22201 0.505243,-2.55728 2.895017,-3.41088 2.389774,-0.8536 6.698879,-1.22552 10.828447,-1.3579 4.129567,-0.13237 8.079284,-0.0252 10.142961,0.60303 2.063677,0.62824 2.241086,1.77749 2.329797,2.84359 0.08871,1.0661 0.08871,2.04891 -0.09373,3.08339 -0.18244,1.03448 -0.547308,2.12053 -0.912183,3.2066 -1.06468,-0.67306 -2.129341,-1.34612 -4.823369,-1.5564 -2.694029,-0.21029 -7.01722,0.0422 -10.555675,0.12401 -3.538455,0.0818 -6.291982,-0.007 -7.868946,-0.6059 -1.576963,-0.59882 -1.977288,-1.70753 -1.942318,-2.92954 z"
       id="path9"
       inkscape:path-effect="#path-effect10"
       inkscape:original-d="m 60.623933,191.10686 c 0.470273,-1.33528 0.940547,-2.67055 1.41082,-4.00582 4.309276,-0.37193 8.618381,-0.74385 12.92757,-1.11577 3.949946,0.10716 7.899663,0.21432 11.849598,0.32149 0.177419,1.14932 0.354829,2.29857 0.532249,3.4479 0,0.98287 0,1.96568 0,2.94855 -0.364881,1.08609 -1.094624,3.25821 -1.094624,3.25821 0,0 -2.129338,-1.34612 -3.194039,-2.01919 -4.323359,0.2525 -8.64655,0.50499 -12.969822,0.75749 -2.753638,-0.0889 -5.507165,-0.17777 -8.26075,-0.26665 -0.400341,-1.10876 -0.800666,-2.21747 -1.201002,-3.32621 z"
       transform="matrix(1.040308,0,0,1.040308,-2.5943354,-7.3637329)"
       sodipodi:nodetypes="ccccccccccc" /><path
       style="fill:#ccccff;stroke:none;stroke-width:0.264583px;stroke-linecap:butt;stroke-linejoin:miter;stroke-opacity:1"
       d="m 61.344164,158.37956 c 2.991951,-0.84169 8.703473,-0.4774 11.870029,0.25156 3.166557,0.72896 3.787692,1.82248 3.338571,3.39299 -0.449122,1.57052 -1.968482,3.61788 -2.186611,5.91891 -0.21813,2.30104 1.035209,5.25716 1.088723,6.57545 0.05351,1.3183 -1.052872,1.98192 -3.707511,2.25847 -2.654638,0.27656 -7.007482,0.25616 -9.678965,-0.3621 -2.671483,-0.61827 -3.661262,-1.83432 -3.38436,-3.37024 0.276903,-1.53593 1.820487,-3.39159 1.885641,-5.06623 0.06515,-1.67464 -0.566906,-2.34261 -1.453005,-5.092 -0.886099,-2.7494 -0.764463,-3.66511 2.227488,-4.50681 z"
       id="path8"
       inkscape:path-effect="#path-effect9"
       inkscape:original-d="m 58.624215,157.17355 c 5.7119,0.36432 11.423422,0.72861 17.135354,1.09293 0.62118,1.0936 1.242316,2.18712 1.863492,3.28071 -1.519418,2.04744 -3.038779,4.0948 -4.558168,6.1422 1.083129,2.55467 2.336469,5.51079 3.249388,7.664 -0.805891,0.48338 -1.912275,1.147 -2.868441,1.72051 -4.353113,-0.0204 -8.705957,-0.0408 -13.059079,-0.0612 -0.989842,-1.21613 -1.979622,-2.43218 -2.969461,-3.6483 1.543642,-1.85573 3.087225,-3.71139 4.630838,-5.56708 -1.413304,-1.49359 -2.045363,-2.16156 -4.239911,-4.48078 0.42235,-3.17957 0.543987,-4.09528 0.815988,-6.14299 z"
       sodipodi:nodetypes="cccsccccscc" /><path
       style="fill:#ccccff;stroke:none;stroke-width:0.251005px;stroke-linecap:butt;stroke-linejoin:miter;stroke-opacity:1"
       d="m 118.30227,148.82573 c 0.26659,0.36447 0.50806,0.60178 4.14094,0.69415 3.63287,0.0924 10.65691,0.0398 14.3455,-0.0466 3.68859,-0.0864 4.0668,-0.21511 4.43195,-1.18741 0.36515,-0.9723 0.7172,-2.78808 0.10714,-4.03463 -0.61006,-1.24655 -2.18218,-1.9238 -5.45389,-2.20027 -3.27171,-0.27646 -8.24277,-0.15214 -11.55766,0.18828 -3.31489,0.34042 -4.9734,0.89691 -5.84137,1.80608 -0.86796,0.90917 -0.96085,2.42544 -0.82262,3.21405 0.13823,0.78861 0.38342,1.20187 0.65001,1.56634 z"
       id="path7"
       inkscape:path-effect="#path-effect8"
       inkscape:original-d="m 118.32737,148.95287 c 0.24149,0.23733 0.48296,0.47464 0.72445,0.71197 7.02426,-0.0526 14.0483,-0.10517 21.07235,-0.15775 0.35119,-0.12588 0.73037,-0.25176 1.10956,-0.37764 0.35208,-1.81587 0.70414,-3.63165 1.0562,-5.44747 -1.57219,-0.67728 -3.14431,-1.35453 -4.71647,-2.03179 -4.97126,0.12432 -9.94232,0.24865 -14.91348,0.37297 -1.65862,0.55652 -3.31713,1.11301 -4.97576,1.66953 -0.0773,1.26182 -0.17019,2.77809 -0.2319,3.78536 0.33817,0.56995 0.58336,0.98321 0.87505,1.47482 z"
       sodipodi:nodetypes="cccccccccc"
       transform="matrix(1.0219948,0,0,1.087203,-3.108506,-12.715723)" /><path
       style="fill:#ccccff;stroke:none;stroke-width:0.231261px;stroke-linecap:butt;stroke-linejoin:miter;stroke-opacity:1"
       d="m 91.702189,162.85663 c -0.306803,-1.09213 -0.626143,-2.22889 -0.189935,-3.00479 0.436209,-0.7759 1.702278,-1.32316 2.810087,-1.33843 1.107809,-0.0153 2.106983,0.47995 3.106176,0.97518 0.821435,-0.63306 1.640916,-1.26462 2.619223,-1.5189 0.9783,-0.25428 2.10612,-0.12887 3.00071,0.15828 0.89458,0.28715 1.55319,0.73572 2.21181,1.1843 0.95448,-0.46032 1.90895,-0.92064 2.96571,-1.13275 1.05676,-0.21211 2.21574,-0.17599 3.14732,0.0462 0.93158,0.22216 1.63571,0.63036 2.33985,1.03856 0.94165,-0.75876 1.88327,-1.5175 3.0626,-1.63911 1.17933,-0.1216 2.59623,0.39393 3.26067,1.02669 0.66444,0.63275 0.57633,1.38264 0.48822,2.13256 0.6154,0.96356 1.2308,1.92712 1.13185,2.98601 -0.099,1.05889 -0.91222,2.2131 -1.99458,2.61429 -1.08236,0.40118 -2.43375,0.0493 -3.78516,-0.30256 -0.63049,0.37789 -1.26099,0.75579 -1.91721,0.89717 -0.65623,0.14138 -1.33819,0.0462 -2.05636,-0.18386 -0.71817,-0.2301 -1.47249,-0.59514 -2.22682,-0.96019 -0.56034,0.54249 -1.12067,1.08497 -1.7742,1.39274 -0.65354,0.30778 -1.4002,0.38082 -2.14649,0.19088 -0.7463,-0.18994 -1.49215,-0.64285 -2.23802,-1.09576 -0.59919,0.48727 -1.19837,0.97454 -2.08996,1.25991 -0.89159,0.28536 -2.448757,0.39512 -3.154049,0.233 -0.705291,-0.16212 -1.857449,-0.89465 -2.733456,-1.4516 -1.017171,0.41533 -2.034321,0.83065 -2.985566,0.56371 -0.951244,-0.26694 -1.836495,-1.21611 -1.967578,-2.00843 -0.131082,-0.79231 0.492031,-1.42768 1.115158,-2.06307 z"
       id="path6"
       inkscape:path-effect="#path-effect7"
       inkscape:original-d="m 91.702189,162.85663 c 0,0 -0.626142,-2.22889 -0.920409,-3.27639 1.166683,-0.5043 2.432751,-1.05156 3.649159,-1.57735 0.999212,0.49524 2.997578,1.4857 2.997578,1.4857 0,0 1.640916,-1.26462 2.464305,-1.89919 1.133218,0.12601 2.261038,0.25142 3.391578,0.37713 0.65863,0.44859 1.97586,1.34574 1.97586,1.34574 0,0 1.90895,-0.92064 2.86345,-1.38097 1.15902,0.0361 2.318,0.0722 3.47701,0.10834 0.70415,0.40821 2.11242,1.22461 2.11242,1.22461 0,0 1.88327,-1.5175 2.82494,-2.27628 1.41699,0.51557 2.83389,1.0311 4.25088,1.54667 -0.0881,0.74994 -0.26433,2.24975 -0.26433,2.24975 0,0 1.23079,1.92712 1.84619,2.89067 -0.81329,1.15423 -1.62656,2.30844 -2.43986,3.46269 -1.35142,-0.35188 -4.05422,-1.05562 -4.05422,-1.05562 0,0 -1.26099,0.75579 -1.89148,1.13368 -0.68196,-0.0951 -1.36392,-0.19027 -2.04591,-0.28541 -0.75435,-0.36506 -2.263,-1.09515 -2.263,-1.09515 0,0 -1.12067,1.08497 -1.68102,1.62747 -0.74671,0.0731 -1.49338,0.14609 -2.24009,0.21913 -0.74588,-0.45292 -2.2376,-1.35874 -2.2376,-1.35874 0,0 -1.19837,0.97454 -1.79757,1.46182 -1.18398,0.0834 -2.741147,0.19321 -3.551875,0.25035 -0.599855,-0.38138 -2.62802,-1.67086 -2.62802,-1.67086 0,0 -2.034322,0.83065 -3.051513,1.24599 -0.885298,-0.94922 -1.77055,-1.89839 -2.655853,-2.84762 0.62314,-0.6354 1.86938,-1.90616 1.86938,-1.90616 z"
       sodipodi:nodetypes="cccccccccccccscccccccccccccc"
       transform="matrix(1.034118,0,0,1.2657413,-3.7494347,-42.871364)" /><path
       style="fill:#ccccff;stroke:none;stroke-width:0.264583px;stroke-linecap:butt;stroke-linejoin:miter;stroke-opacity:1"
       d="m 54.376254,143.98118 c -0.260272,1.45138 -0.05549,2.46021 0.592674,3.21264 0.648168,0.75243 1.73968,1.24843 3.866533,1.51538 2.126853,0.26695 5.288934,0.30483 8.780983,0.0592 3.492048,-0.24559 7.313917,-0.77463 11.135861,-1.30369 0.134238,-2.43641 0.268473,-4.87278 -0.533632,-6.44818 -0.802106,-1.5754 -2.540451,-2.28969 -5.191443,-2.61053 -2.650992,-0.32083 -6.214382,-0.24817 -9.189839,-0.1266 -2.975458,0.12157 -5.362813,0.29203 -6.919185,1.32425 -1.556371,1.03222 -2.281681,2.92611 -2.541952,4.37749 z"
       id="path5"
       inkscape:path-effect="#path-effect6"
       inkscape:original-d="m 53.911203,144.42372 c 0.20478,1.00884 0.409556,2.01767 0.614336,3.02651 1.091557,0.49602 2.183069,0.99202 3.274602,1.48803 3.162173,0.0379 6.324254,0.0758 9.486331,0.11366 3.82202,-0.52907 11.465833,-1.58717 11.465833,-1.58717 0,0 0.268473,-4.87278 0.402714,-7.30924 -1.738451,-0.71434 -3.476794,-1.42864 -5.215244,-2.14297 -3.563536,0.0727 -7.126927,0.14533 -10.690389,0.218 -2.387452,0.17048 -4.774808,0.34094 -7.16221,0.5114 -0.725339,1.89397 -1.45065,3.78786 -2.175973,5.68178 z"
       sodipodi:nodetypes="cccccccccc" /><path
       style="fill:#ccccff;stroke:none;stroke-width:0.264583px;stroke-linecap:butt;stroke-linejoin:miter;stroke-opacity:1"
       d="m 79.149019,119.6878 c -1.469948,1.12774 -1.818402,3.45884 -1.766785,5.22769 0.05162,1.76886 0.503291,2.97531 2.068554,3.40317 1.565262,0.42787 4.243927,0.0771 7.46733,-0.19057 3.223404,-0.26769 6.812492,-0.44351 12.287012,-0.39261 5.47452,0.0509 11.84249,0.31929 15.81898,0.30572 3.9765,-0.0136 5.24401,-0.3225 5.94776,-1.54133 0.70374,-1.21883 0.84364,-3.34742 0.1626,-4.72688 -0.68103,-1.37947 -2.18291,-2.00962 -4.866,-2.47406 -2.68308,-0.46443 -6.54758,-0.76313 -9.75438,-0.62494 -3.2068,0.13819 -5.75579,0.71323 -9.098288,0.79228 -3.342497,0.0791 -7.444616,-0.33452 -10.835526,-0.58283 -3.390909,-0.24832 -5.961309,-0.32338 -7.431257,0.80436 z"
       id="path4"
       inkscape:path-effect="#path-effect5"
       inkscape:original-d="m 78.027532,118.48439 c -0.348461,2.33115 -0.696915,4.66225 -1.045382,6.99344 0.4517,1.20652 0.903373,2.41297 1.355073,3.61948 2.678827,-0.35078 5.357492,-0.70154 8.036318,-1.05232 3.767981,-0.18458 7.357069,-0.36041 11.303719,-0.55375 7.00239,0.29514 13.37036,0.56354 20.05577,0.84531 1.26758,-0.30893 2.53509,-0.61785 3.80267,-0.92678 0.13991,-2.12873 0.27981,-4.25732 0.41972,-6.38605 -1.50198,-0.6302 -3.00386,-1.26036 -4.50584,-1.89055 -3.86419,-0.29867 -7.72869,-0.59737 -11.59315,-0.89606 -2.54914,0.57507 -5.09813,1.15011 -7.647271,1.72518 -4.135854,-0.41697 -8.237973,-0.83054 -12.40732,-1.25088 -2.612472,-0.0763 -5.182872,-0.15135 -7.774307,-0.22702 z"
       sodipodi:nodetypes="ccccccccccccc" /><path
       style="fill:#ffcccc;stroke:none;stroke-width:0.264583px;stroke-linecap:butt;stroke-linejoin:miter;stroke-opacity:1"
       d="m 141.1816,100.94198 c -0.17006,2.88122 -0.33996,5.75978 -0.88232,7.33006 -0.54236,1.57027 -1.45681,1.82694 -5.30044,2.06601 -3.84364,0.23907 -10.35055,0.45183 -14.36096,0.14968 -4.0104,-0.30216 -4.91881,-1.0736 -5.38634,-2.30012 -0.46752,-1.22652 -0.45811,-2.70977 0.16939,-4.26645 0.6275,-1.55667 2.04303,-3.0326 4.88078,-3.32513 2.83775,-0.29253 13.21701,0.0748 20.87989,0.34595 z"
       id="path2"
       inkscape:path-effect="#path-effect4"
       inkscape:original-d="m 141.1816,100.94198 c 0,0 -0.33996,5.75978 -0.51018,8.64365 -0.9145,0.25668 -1.82895,0.51335 -2.74345,0.77004 -6.77277,0.22145 -13.27968,0.43421 -20.31791,0.66434 -0.98258,-0.83444 -1.89099,-1.60588 -2.83651,-2.40884 0.0105,-1.65008 0.0199,-3.13333 0.0314,-4.95015 1.24348,-1.29653 2.65901,-2.77246 3.38801,-3.53257 4.9465,0.17505 22.98864,0.81353 22.98864,0.81353 z"
       sodipodi:nodetypes="cccccccc"
       transform="translate(-53.186382,0.13485632)" /><path
       style="fill:#ffcccc;stroke:none;stroke-width:0.260885px;stroke-linecap:butt;stroke-linejoin:miter;stroke-opacity:1"
       d="m 118.62441,87.036826 c -4.87504,-0.738288 -5.17855,-2.300364 -5.05008,-4.039124 0.12846,-1.73876 0.66438,-3.51723 5.65725,-4.405324 4.99287,-0.888093 13.78014,-0.749112 18.49373,0.07625 4.71359,0.825365 5.04401,2.332159 5.09033,3.929359 0.0463,1.597201 -0.19147,3.284778 -5.03207,4.179758 -4.8406,0.894981 -14.28411,0.997366 -19.15916,0.259078 z"
       id="path45"
       inkscape:path-effect="#path-effect47"
       inkscape:original-d="m 114.05615,87.877497 c -0.30678,-1.57896 -0.61028,-3.141036 -0.92036,-4.736928 0.567,-1.881627 1.10291,-3.660099 1.68297,-5.585046 9.40569,0.148762 18.19296,0.287743 27.2897,0.431619 0.33044,1.506853 0.66086,3.013648 0.99129,4.520472 -0.23779,1.687577 -0.47558,3.375154 -0.71337,5.062731 -9.44341,0.102384 -18.88692,0.204769 -28.33023,0.307152 z"
       sodipodi:nodetypes="cccccsc"
       transform="matrix(1.0025039,0,0,1.0259834,-12.174676,23.053847)" /><path
       style="fill:#aaeedd;stroke:none;stroke-width:0.260885px;stroke-linecap:butt;stroke-linejoin:miter;stroke-opacity:1"
       d="m 119.07653,94.61967 c -1.84867,-0.316911 -5.54591,-0.950717 -7.10805,-3.948218 -1.56214,-2.997502 -0.99532,-8.301369 -0.24444,-11.690886 0.75088,-3.389517 1.65397,-4.720988 5.02562,-5.49877 3.37166,-0.777783 9.20171,-0.987391 14.36592,-0.829491 5.16421,0.157901 9.66194,0.683291 11.90021,2.301167 2.23827,1.617876 2.21681,4.3281 2.08718,7.644518 -0.12963,3.316419 -0.36742,7.238979 -0.60521,11.161539 -3.93794,0.07685 -7.87123,0.153616 -11.80463,0.350023 -3.9334,0.196407 -7.84825,0.511525 -9.80808,0.669277 -1.95982,0.157752 -1.95985,0.157752 -3.80852,-0.159159 z"
       id="path42"
       inkscape:path-effect="#path-effect43"
       inkscape:original-d="m 120.9252,94.936581 c -3.69734,-0.633823 -7.39458,-1.267627 -11.09181,-1.901431 0.57295,-5.3612 1.13978,-10.665066 1.71887,-16.083765 0.92266,-1.360338 1.82575,-2.691806 2.73865,-4.03775 5.83041,-0.209621 11.66046,-0.41923 17.49087,-0.628852 4.49801,0.525423 8.99574,1.050814 13.49375,1.576236 -0.0215,2.710329 -0.0429,5.420553 -0.0644,8.13083 -0.23779,3.92256 -0.71337,11.76768 -0.71337,11.76768 0,0 -7.87123,0.153616 -11.81383,0.23056 -3.9242,0.31587 -7.83905,0.630988 -11.7587,0.946492 z"
       sodipodi:nodetypes="cccccccccc"
       transform="matrix(1.0025039,0,0,1.0259834,-0.22950494,-2.4565141)" /><path
       style="fill:#aaeedd;stroke:none;stroke-width:0.264583px;stroke-linecap:butt;stroke-linejoin:miter;stroke-opacity:1"
       d="m 54.176572,78.973319 c 0.233471,-2.411029 1.012362,-4.086842 2.604697,-5.029299 1.592335,-0.942458 3.997935,-1.151479 9.370538,-1.294153 5.372603,-0.142675 13.711561,-0.218984 18.454033,0.313101 4.742472,0.532085 5.887893,1.672503 6.93524,4.001306 1.047346,2.328803 1.996493,5.845715 1.684871,8.112746 -0.311623,2.267031 -1.883977,3.283907 -7.552156,3.298988 -5.668179,0.01508 -15.431497,-0.971635 -19.700576,-0.184684 -4.269079,0.786951 -3.043383,3.347527 -4.02861,3.557389 -0.985228,0.209862 -4.181339,-1.930998 -5.935445,-4.574609 -1.754106,-2.643611 -2.066064,-5.789756 -1.832592,-8.200785 z"
       id="path41"
       inkscape:path-effect="#path-effect42"
       inkscape:original-d="m 53.631136,78.238137 c 0.778907,-1.675847 1.557798,-3.35166 2.336721,-5.027541 2.405747,-0.209034 4.811347,-0.418055 7.217094,-0.627089 8.339459,-0.07631 16.678417,-0.152624 25.017872,-0.228939 1.145489,1.140485 2.29091,2.280903 3.436399,3.421387 0.949204,3.517122 1.898351,7.034034 2.847556,10.551158 -1.57245,1.016938 -3.144804,2.033814 -4.717253,3.050752 -9.763909,-0.986776 -19.527227,-1.973493 -29.29113,-2.960268 1.225745,2.560678 2.451441,5.121254 3.677162,7.681881 -3.196176,-2.140903 -6.392287,-4.281763 -9.588529,-6.42271 -0.31197,-3.146275 -0.623928,-6.29242 -0.935892,-9.438631 z"
       sodipodi:nodetypes="ccccccccscc"
       transform="translate(-0.52916667,0.07935967)" /><path
       style="fill:#ffffaa;stroke:none;stroke-width:0.264583px;stroke-linecap:butt;stroke-linejoin:miter;stroke-opacity:1"
       d="m 64.207739,62.198754 c 7.036331,-0.433936 18.830742,0.498516 26.979173,-0.07389 8.148431,-0.572407 12.650378,-2.649571 14.899328,-5.539113 2.24896,-2.889542 2.24466,-6.591118 -0.96797,-8.494259 -3.21263,-1.90314 -9.633188,-2.007614 -18.391137,-2.344825 -8.757948,-0.337211 -19.852228,-0.907119 -25.919628,0.171192 -6.067401,1.07831 -6.760514,2.895682 -6.972963,7.388983 -0.212449,4.493301 0.656896,9.330682 1.17866,9.974992 0.521764,0.644309 2.158207,-0.649143 9.194537,-1.083079 z"
       id="path34"
       inkscape:path-effect="#path-effect41"
       inkscape:original-d="m 59.449181,60.832328 c 11.794889,0.93249 23.5893,1.864942 35.383951,2.797413 4.502211,-2.077285 9.004158,-4.154448 13.506368,-6.231734 -0.004,-3.701799 -0.009,-7.403375 -0.0129,-11.105176 -6.42096,-0.10448 -12.841518,-0.208954 -19.262469,-0.313434 -11.094946,-0.569942 -22.189226,-1.139849 -33.284165,-1.709791 -1.039862,2.726562 -1.732976,4.543934 -3.119525,8.179526 0.961652,5.35101 1.830997,10.188391 2.163569,12.038953 0.710956,-0.561943 2.347399,-1.855395 4.625171,-3.655757 z"
       sodipodi:nodetypes="ccccccccc" /><text
       xml:space="preserve"
       style="font-style:normal;font-variant:normal;font-weight:500;font-stretch:semi-condensed;font-size:5.29165px;line-height:0.95;font-family:'Bricolage Grotesque 48pt SemiCondensed';-inkscape-font-specification:'Bricolage Grotesque 48pt SemiCondensed,  Medium Semi-Condensed';letter-spacing:0px;word-spacing:0px;fill:#665500;stroke-width:0.264583"
       x="57.855236"
       y="53.457172"
       id="text1"><tspan
         sodipodi:role="line"
         style="font-style:normal;font-variant:normal;font-weight:500;font-stretch:semi-condensed;font-size:5.29165px;line-height:0.95;font-family:'Bricolage Grotesque 48pt SemiCondensed';-inkscape-font-specification:'Bricolage Grotesque 48pt SemiCondensed,  Medium Semi-Condensed';fill:#665500;stroke-width:0.264583"
         x="57.855236"
         y="53.457172"
         id="tspan2">ma Pelin la jan kulupu</tspan><tspan
         sodipodi:role="line"
         style="font-style:normal;font-variant:normal;font-weight:500;font-stretch:semi-condensed;font-size:5.29165px;line-height:0.95;font-family:'Bricolage Grotesque 48pt SemiCondensed';-inkscape-font-specification:'Bricolage Grotesque 48pt SemiCondensed,  Medium Semi-Condensed';fill:#665500;stroke-width:0.264583"
         x="57.855236"
         y="58.484241"
         id="tspan4">li mute ala mute?</tspan></text><text
       xml:space="preserve"
       style="font-style:normal;font-variant:normal;font-weight:500;font-stretch:semi-condensed;font-size:5.29165px;line-height:0.95;font-family:'Bricolage Grotesque 48pt SemiCondensed';-inkscape-font-specification:'Bricolage Grotesque 48pt SemiCondensed,  Medium Semi-Condensed';letter-spacing:0px;word-spacing:0px;fill:#114444;stroke-width:0.264583"
       x="57.855236"
       y="79.915497"
       id="text6"><tspan
         sodipodi:role="line"
         style="font-style:normal;font-variant:normal;font-weight:500;font-stretch:semi-condensed;font-size:5.29165px;line-height:0.95;font-family:'Bricolage Grotesque 48pt SemiCondensed';-inkscape-font-specification:'Bricolage Grotesque 48pt SemiCondensed,  Medium Semi-Condensed';fill:#114444;stroke-width:0.264583"
         x="57.855236"
         y="79.915497"
         id="tspan6">jan en soweli</tspan><tspan
         sodipodi:role="line"
         style="font-style:normal;font-variant:normal;font-weight:500;font-stretch:semi-condensed;font-size:5.29165px;line-height:0.95;font-family:'Bricolage Grotesque 48pt SemiCondensed';-inkscape-font-specification:'Bricolage Grotesque 48pt SemiCondensed,  Medium Semi-Condensed';fill:#114444;stroke-width:0.264583"
         x="57.855236"
         y="84.942566"
         id="tspan7">li ante ala ante?</tspan></text><text
       xml:space="preserve"
       style="font-style:normal;font-variant:normal;font-weight:500;font-stretch:semi-condensed;font-size:5.29165px;line-height:0.95;font-family:'Bricolage Grotesque 48pt SemiCondensed';-inkscape-font-specification:'Bricolage Grotesque 48pt SemiCondensed,  Medium Semi-Condensed';letter-spacing:0px;word-spacing:0px;fill:#114444;stroke-width:0.264583"
       x="115.55477"
       y="79.915497"
       id="text9"><tspan
         sodipodi:role="line"
         style="font-style:normal;font-variant:normal;font-weight:500;font-stretch:semi-condensed;font-size:5.29165px;line-height:0.95;font-family:'Bricolage Grotesque 48pt SemiCondensed';-inkscape-font-specification:'Bricolage Grotesque 48pt SemiCondensed,  Medium Semi-Condensed';fill:#114444;stroke-width:0.264583"
         x="115.55477"
         y="79.915497"
         id="tspan9">sitelen pona</tspan><tspan
         sodipodi:role="line"
         style="font-style:normal;font-variant:normal;font-weight:500;font-stretch:semi-condensed;font-size:5.29165px;line-height:0.95;font-family:'Bricolage Grotesque 48pt SemiCondensed';-inkscape-font-specification:'Bricolage Grotesque 48pt SemiCondensed,  Medium Semi-Condensed';fill:#114444;stroke-width:0.264583"
         x="115.55477"
         y="84.942566"
         id="tspan10">o lon ala</tspan><tspan
         sodipodi:role="line"
         style="font-style:normal;font-variant:normal;font-weight:500;font-stretch:semi-condensed;font-size:5.29165px;line-height:0.95;font-family:'Bricolage Grotesque 48pt SemiCondensed';-inkscape-font-specification:'Bricolage Grotesque 48pt SemiCondensed,  Medium Semi-Condensed';fill:#114444;stroke-width:0.264583"
         x="115.55477"
         y="89.969635"
         id="tspan11">nasin Juniko</tspan></text><text
       xml:space="preserve"
       style="font-style:normal;font-variant:normal;font-weight:500;font-stretch:semi-condensed;font-size:5.29165px;line-height:0.95;font-family:'Bricolage Grotesque 48pt SemiCondensed';-inkscape-font-specification:'Bricolage Grotesque 48pt SemiCondensed,  Medium Semi-Condensed';letter-spacing:0px;word-spacing:0px;fill:#aa1111;stroke-width:0.264583"
       x="105.26317"
       y="109.75851"
       id="text14"><tspan
         sodipodi:role="line"
         style="font-style:normal;font-variant:normal;font-weight:500;font-stretch:semi-condensed;font-size:5.29165px;line-height:0.95;font-family:'Bricolage Grotesque 48pt SemiCondensed';-inkscape-font-specification:'Bricolage Grotesque 48pt SemiCondensed,  Medium Semi-Condensed';fill:#aa1111;stroke-width:0.264583"
         x="105.26317"
         y="109.75851"
         id="tspan14">kalama ala</tspan></text><text
       xml:space="preserve"
       style="font-style:normal;font-variant:normal;font-weight:500;font-stretch:semi-condensed;font-size:5.29165px;line-height:0.95;font-family:'Bricolage Grotesque 48pt SemiCondensed';-inkscape-font-specification:'Bricolage Grotesque 48pt SemiCondensed,  Medium Semi-Condensed';letter-spacing:0px;word-spacing:0px;fill:#aa1111;stroke-width:0.264583"
       x="65.005348"
       y="107.25182"
       id="text16"><tspan
         sodipodi:role="line"
         style="font-style:normal;font-variant:normal;font-weight:500;font-stretch:semi-condensed;font-size:5.29165px;line-height:0.95;font-family:'Bricolage Grotesque 48pt SemiCondensed';-inkscape-font-specification:'Bricolage Grotesque 48pt SemiCondensed,  Medium Semi-Condensed';fill:#aa1111;stroke-width:0.264583"
         x="65.005348"
         y="107.25182"
         id="tspan16">jan Panini</tspan></text><text
       xml:space="preserve"
       style="font-style:normal;font-variant:normal;font-weight:500;font-stretch:semi-condensed;font-size:5.29165px;line-height:0.95;font-family:'Bricolage Grotesque 48pt SemiCondensed';-inkscape-font-specification:'Bricolage Grotesque 48pt SemiCondensed,  Medium Semi-Condensed';letter-spacing:0px;word-spacing:0px;fill:#3333cc;stroke-width:0.264583"
       x="80.499878"
       y="125.33833"
       id="text17"><tspan
         sodipodi:role="line"
         style="font-style:normal;font-variant:normal;font-weight:500;font-stretch:semi-condensed;font-size:5.29165px;line-height:0.95;font-family:'Bricolage Grotesque 48pt SemiCondensed';-inkscape-font-specification:'Bricolage Grotesque 48pt SemiCondensed,  Medium Semi-Condensed';fill:#3333cc;stroke-width:0.264583"
         x="80.499878"
         y="125.33833"
         id="tspan17">jan poka mi li tawa</tspan></text><text
       xml:space="preserve"
       style="font-style:normal;font-variant:normal;font-weight:500;font-stretch:semi-condensed;font-size:5.29165px;line-height:0.95;font-family:'Bricolage Grotesque 48pt SemiCondensed';-inkscape-font-specification:'Bricolage Grotesque 48pt SemiCondensed,  Medium Semi-Condensed';letter-spacing:0px;word-spacing:0px;fill:#3333cc;stroke-width:0.264583"
       x="57.722103"
       y="145.16597"
       id="text18"><tspan
         sodipodi:role="line"
         style="font-style:normal;font-variant:normal;font-weight:500;font-stretch:semi-condensed;font-size:5.29165px;line-height:0.95;font-family:'Bricolage Grotesque 48pt SemiCondensed';-inkscape-font-specification:'Bricolage Grotesque 48pt SemiCondensed,  Medium Semi-Condensed';fill:#3333cc;stroke-width:0.264583"
         x="57.722103"
         y="145.16597"
         id="tspan18">jan Ulise¹</tspan></text><text
       xml:space="preserve"
       style="font-style:normal;font-variant:normal;font-weight:500;font-stretch:semi-condensed;font-size:5.29165px;line-height:0.95;font-family:'Bricolage Grotesque 48pt SemiCondensed';-inkscape-font-specification:'Bricolage Grotesque 48pt SemiCondensed,  Medium Semi-Condensed';letter-spacing:0px;word-spacing:0px;fill:#3333cc;stroke-width:0.264583"
       x="119.94965"
       y="147.89925"
       id="text19"><tspan
         sodipodi:role="line"
         style="font-style:normal;font-variant:normal;font-weight:500;font-stretch:semi-condensed;font-size:5.29165px;line-height:0.95;font-family:'Bricolage Grotesque 48pt SemiCondensed';-inkscape-font-specification:'Bricolage Grotesque 48pt SemiCondensed,  Medium Semi-Condensed';fill:#3333cc;stroke-width:0.264583"
         x="119.94965"
         y="147.89925"
         id="tspan19">toki suwi</tspan></text><text
       xml:space="preserve"
       style="font-style:normal;font-variant:normal;font-weight:500;font-stretch:semi-condensed;font-size:5.29165px;line-height:0.95;font-family:'Bricolage Grotesque 48pt SemiCondensed';-inkscape-font-specification:'Bricolage Grotesque 48pt SemiCondensed,  Medium Semi-Condensed';letter-spacing:0px;word-spacing:0px;fill:#3333cc;stroke-width:0.264583"
       x="61.94725"
       y="164.01605"
       id="text20"><tspan
         sodipodi:role="line"
         style="font-style:normal;font-variant:normal;font-weight:500;font-stretch:semi-condensed;font-size:5.29165px;line-height:0.95;font-family:'Bricolage Grotesque 48pt SemiCondensed';-inkscape-font-specification:'Bricolage Grotesque 48pt SemiCondensed,  Medium Semi-Condensed';fill:#3333cc;stroke-width:0.264583"
         x="61.94725"
         y="164.01605"
         id="tspan20">tenpo</tspan><tspan
         sodipodi:role="line"
         style="font-style:normal;font-variant:normal;font-weight:500;font-stretch:semi-condensed;font-size:5.29165px;line-height:0.95;font-family:'Bricolage Grotesque 48pt SemiCondensed';-inkscape-font-specification:'Bricolage Grotesque 48pt SemiCondensed,  Medium Semi-Condensed';fill:#3333cc;stroke-width:0.264583"
         x="61.94725"
         y="169.04312"
         id="tspan21">  jan</tspan><tspan
         sodipodi:role="line"
         style="font-style:normal;font-variant:normal;font-weight:500;font-stretch:semi-condensed;font-size:5.29165px;line-height:0.95;font-family:'Bricolage Grotesque 48pt SemiCondensed';-inkscape-font-specification:'Bricolage Grotesque 48pt SemiCondensed,  Medium Semi-Condensed';fill:#3333cc;stroke-width:0.264583"
         x="61.94725"
         y="174.07019"
         id="tspan22">tu tu¹</tspan></text><text
       xml:space="preserve"
       style="font-style:normal;font-variant:normal;font-weight:500;font-stretch:semi-condensed;font-size:5.29165px;line-height:0.95;font-family:'Bricolage Grotesque 48pt SemiCondensed';-inkscape-font-specification:'Bricolage Grotesque 48pt SemiCondensed,  Medium Semi-Condensed';letter-spacing:0px;word-spacing:0px;fill:#3333cc;stroke-width:0.264583"
       x="92.829453"
       y="164.77692"
       id="text25"><tspan
         sodipodi:role="line"
         style="font-style:normal;font-variant:normal;font-weight:500;font-stretch:semi-condensed;font-size:5.29165px;line-height:0.95;font-family:'Bricolage Grotesque 48pt SemiCondensed';-inkscape-font-specification:'Bricolage Grotesque 48pt SemiCondensed,  Medium Semi-Condensed';fill:#3333cc;stroke-width:0.264583"
         x="92.829453"
         y="164.77692"
         id="tspan25">toki insa olin</tspan></text><text
       xml:space="preserve"
       style="font-style:normal;font-variant:normal;font-weight:500;font-stretch:semi-condensed;font-size:5.29165px;line-height:0.95;font-family:'Bricolage Grotesque 48pt SemiCondensed';-inkscape-font-specification:'Bricolage Grotesque 48pt SemiCondensed,  Medium Semi-Condensed';letter-spacing:0px;word-spacing:0px;fill:#3333cc;stroke-width:0.264583"
       x="112.79951"
       y="181.04497"
       id="text27"><tspan
         sodipodi:role="line"
         style="font-style:normal;font-variant:normal;font-weight:500;font-stretch:semi-condensed;font-size:5.29165px;line-height:0.95;font-family:'Bricolage Grotesque 48pt SemiCondensed';-inkscape-font-specification:'Bricolage Grotesque 48pt SemiCondensed,  Medium Semi-Condensed';fill:#3333cc;stroke-width:0.264583"
         x="112.79951"
         y="181.04497"
         id="tspan27">o moli ala</tspan><tspan
         sodipodi:role="line"
         style="font-style:normal;font-variant:normal;font-weight:500;font-stretch:semi-condensed;font-size:5.29165px;line-height:0.95;font-family:'Bricolage Grotesque 48pt SemiCondensed';-inkscape-font-specification:'Bricolage Grotesque 48pt SemiCondensed,  Medium Semi-Condensed';fill:#3333cc;stroke-width:0.264583"
         x="112.79951"
         y="186.07204"
         id="tspan28">tawa pimeja</tspan><tspan
         sodipodi:role="line"
         style="font-style:normal;font-variant:normal;font-weight:500;font-stretch:semi-condensed;font-size:5.29165px;line-height:0.95;font-family:'Bricolage Grotesque 48pt SemiCondensed';-inkscape-font-specification:'Bricolage Grotesque 48pt SemiCondensed,  Medium Semi-Condensed';fill:#3333cc;stroke-width:0.264583"
         x="112.79951"
         y="191.09911"
         id="tspan29">pona tenpo¹</tspan></text><text
       xml:space="preserve"
       style="font-style:normal;font-variant:normal;font-weight:500;font-stretch:semi-condensed;font-size:5.29165px;line-height:0.95;font-family:'Bricolage Grotesque 48pt SemiCondensed';-inkscape-font-specification:'Bricolage Grotesque 48pt SemiCondensed,  Medium Semi-Condensed';letter-spacing:0px;word-spacing:0px;fill:#3333cc;stroke-width:0.264583"
       x="64.202904"
       y="192.48636"
       id="text32"><tspan
         sodipodi:role="line"
         style="font-style:normal;font-variant:normal;font-weight:500;font-stretch:semi-condensed;font-size:5.29165px;line-height:0.95;font-family:'Bricolage Grotesque 48pt SemiCondensed';-inkscape-font-specification:'Bricolage Grotesque 48pt SemiCondensed,  Medium Semi-Condensed';fill:#3333cc;stroke-width:0.264583"
         x="64.202904"
         y="192.48636"
         id="tspan32">seme li mi</tspan></text><text
       xml:space="preserve"
       style="font-style:normal;font-variant:normal;font-weight:500;font-stretch:semi-condensed;font-size:5.29165px;line-height:0.95;font-family:'Bricolage Grotesque 48pt SemiCondensed';-inkscape-font-specification:'Bricolage Grotesque 48pt SemiCondensed,  Medium Semi-Condensed';letter-spacing:0px;word-spacing:0px;fill:#3333cc;stroke-width:0.264583"
       x="83.382698"
       y="214.81609"
       id="text34"><tspan
         sodipodi:role="line"
         style="font-style:normal;font-variant:normal;font-weight:500;font-stretch:semi-condensed;font-size:5.29165px;line-height:0.95;font-family:'Bricolage Grotesque 48pt SemiCondensed';-inkscape-font-specification:'Bricolage Grotesque 48pt SemiCondensed,  Medium Semi-Condensed';fill:#3333cc;stroke-width:0.264583"
         x="83.382698"
         y="214.81609"
         id="tspan34">kijetesantakalu o</tspan></text><g
       id="g91"><path
         style="fill:#665500;stroke:none;stroke-width:0.233039px;stroke-linecap:butt;stroke-linejoin:miter;stroke-opacity:1"
         d="m 30.817779,55.346992 c 0.774084,-0.251745 1.854987,-0.370944 2.788848,0.01626 0.933861,0.387207 1.720648,1.280783 1.934222,2.214695 0.213573,0.933912 -0.146068,1.908099 -0.505717,2.882306 -1.245399,0.186173 -2.490798,0.372346 -3.577264,0.12775 -1.086467,-0.244596 -2.013962,-0.919933 -2.378922,-1.695185 -0.364959,-0.775252 -0.167373,-1.650369 0.165061,-2.280086 0.332434,-0.629718 0.799689,-1.013999 1.573772,-1.265744 z"
         id="path90"
         inkscape:path-effect="#path-effect90"
         inkscape:original-d="m 30.510964,55.214445 c 1.080899,-0.119197 2.161802,-0.238397 3.242704,-0.357595 0.786821,0.893612 1.573607,1.787189 2.360411,2.680785 -0.359656,0.974228 -1.078947,2.922622 -1.078947,2.922622 0,0 -2.490798,0.372345 -3.736197,0.558519 -0.927534,-0.675364 -1.85503,-1.3507 -2.782543,-2.026052 0.197593,-0.875154 0.395181,-1.750271 0.592772,-2.625407 0.467276,-0.3843 0.934532,-0.76858 1.4018,-1.152872 z"
         transform="matrix(1.0552667,0,0,1.2215311,-1.4359676,-12.900389)"
         sodipodi:nodetypes="cccccccc" /><path
         id="path36"
         style="fill:#ffffff;stroke-width:2.64583;paint-order:markers stroke fill"
         d="m 33.314059,57.707678 c -0.167079,0.08883 -0.261911,0.26044 -0.346427,0.421547 -0.08201,0.162097 -0.128905,0.345461 -0.09075,0.527248 0.0095,0.04513 0.02643,0.08835 0.03966,0.13253 0.01802,0.03734 0.03437,0.07554 0.05407,0.112027 0.06745,0.12495 0.173751,0.25853 0.291504,0.339569 0.03516,0.02421 0.07406,0.04245 0.111086,0.06368 0.163139,0.07122 0.337857,0.09815 0.511378,0.04527 0.111803,-0.03407 0.160129,-0.07259 0.256045,-0.132681 0.130477,-0.104021 0.252992,-0.22502 0.335344,-0.371962 0.04912,-0.08765 0.05824,-0.124952 0.09028,-0.215997 0.03556,-0.136795 0.07025,-0.280107 0.0441,-0.422006 -0.0058,-0.03156 -0.01836,-0.0615 -0.02756,-0.09225 -0.03481,-0.08013 -0.07776,-0.159504 -0.143187,-0.219461 -0.09382,-0.08598 -0.205054,-0.148307 -0.314476,-0.211376 -0.128182,-0.07336 -0.249602,-0.106704 -0.397838,-0.113229 -0.04761,-0.0021 -0.09524,0.0037 -0.142867,0.0055 -0.373605,0.02066 -0.344373,0.549029 0.02923,0.52836 v 0 c 0.01574,-0.0013 0.101033,-0.01037 0.123856,-0.0081 0.05342,0.0054 0.07449,0.0222 0.124487,0.04657 0.144655,0.08232 0.01244,0.0056 0.152762,0.09123 0.03213,0.01961 0.04844,0.02233 0.06789,0.05336 0.0016,7.94e-4 0.0038,0.0034 0.005,0.0021 0.0033,-0.0035 0.005,-0.01818 0.0055,-0.01339 0.0013,0.0127 -0.0016,0.02551 -0.0029,0.03821 -0.0048,0.04872 -0.01275,0.0971 -0.02514,0.1445 -0.0085,0.02687 -0.02267,0.07583 -0.03561,0.101917 -0.04136,0.08338 -0.111334,0.149622 -0.177821,0.212736 -0.0587,0.04149 -0.03918,0.02904 -0.09114,0.06159 -0.0071,0.0044 -0.01333,0.01077 -0.02135,0.01315 -0.03922,0.01159 -0.08142,-0.0011 -0.118872,-0.01188 -0.01,-0.0036 -0.02064,-0.0058 -0.03001,-0.01085 -0.0319,-0.01704 -0.05169,-0.03947 -0.07619,-0.06653 -0.0389,-0.04299 -0.07027,-0.0909 -0.09723,-0.142142 -0.005,-0.0088 -0.01177,-0.01675 -0.015,-0.02633 -0.0044,-0.01315 -0.0053,-0.02725 -0.0076,-0.04095 -0.01119,-0.06877 0.01397,-0.115091 0.04297,-0.176609 0.02733,-0.0535 0.05351,-0.111593 0.08988,-0.159911 0.0079,-0.01048 0.02037,-0.01749 0.02648,-0.02911 0.0019,-0.0037 -0.01548,0.0049 -0.01236,0.0021 0.007,-0.0062 0.01659,-0.0088 0.02487,-0.01318 0.328964,-0.178303 0.0768,-0.643528 -0.252159,-0.465222 z m -1.054277,-1.680342 c -0.163772,0.02021 -0.272375,0.09013 -0.383175,0.211513 -0.02643,0.02895 -0.04835,0.0617 -0.07252,0.09256 -0.131307,0.194792 -0.175667,0.425651 -0.202314,0.654744 0.0013,0.04013 -0.0011,0.08057 0.0042,0.12039 0.01582,0.122645 0.06686,0.2383 0.142791,0.335479 0.06928,0.08866 0.108691,0.113038 0.193799,0.18211 0.04597,0.0249 0.08963,0.05464 0.137914,0.0747 0.04965,0.02064 0.101746,0.03581 0.154395,0.04674 0.130254,0.02703 0.212849,0.02098 0.345604,-0.01492 0.117195,-0.0317 0.180949,-0.07839 0.282244,-0.138702 0.126678,-0.09327 0.249833,-0.198819 0.325041,-0.340016 0.04837,-0.09081 0.05098,-0.12119 0.07718,-0.217937 0.02381,-0.134602 0.02315,-0.273572 -0.01701,-0.405231 -0.02598,-0.08523 -0.03931,-0.101346 -0.08071,-0.179334 -0.09836,-0.153906 -0.24108,-0.269203 -0.390057,-0.371266 -0.08805,-0.04575 -0.111469,-0.06447 -0.213548,-0.08753 -0.04772,-0.0108 -0.09683,-0.01405 -0.145245,-0.02109 -0.371462,-0.045 -0.435107,0.480322 -0.06365,0.525325 v 0 c 0.04336,0.0028 0.08585,0.0021 0.125669,0.0214 0.08191,0.0545 0.160954,0.11566 0.224772,0.191069 0.0094,0.01455 0.02299,0.03367 0.02953,0.0503 0.01863,0.04732 0.02114,0.09887 0.01664,0.148939 -0.0011,0.0062 -0.01,0.05727 -0.01423,0.06796 -0.02864,0.07229 -0.09705,0.118546 -0.153165,0.167616 -0.108111,0.07249 -0.01426,0.01281 -0.121557,0.07266 -0.01109,0.0062 -0.01992,0.01749 -0.03236,0.02016 -0.04837,0.01037 -0.116541,-0.0094 -0.16116,-0.02739 -0.05868,-0.04256 -0.124003,-0.08688 -0.141309,-0.161838 0.01209,-0.110755 0.02876,-0.239543 0.07159,-0.342765 0.0072,-0.01749 0.01714,-0.03379 0.02572,-0.05068 0.0118,-0.01632 0.02402,-0.03232 0.03537,-0.04895 0.0052,-0.0076 0.0092,-0.01611 0.01429,-0.02381 0.0032,-0.0048 0.0079,-0.0086 0.01056,-0.01368 7.94e-4,-0.0016 -0.0021,-0.0049 -2.64e-4,-0.0057 0.0078,-0.0033 0.05899,-0.01043 0.06316,-0.01103 0.368946,-0.06234 0.280784,-0.584112 -0.08816,-0.521771 z m -1.29601,2.148049 c -0.03868,0.05685 -0.06146,0.123907 -0.08361,0.188447 -0.01378,0.04018 -0.03899,0.118682 -0.04844,0.159335 -0.0077,0.03329 -0.01278,0.06715 -0.01916,0.100719 -5.29e-4,0.04471 -0.006,0.0896 -0.0019,0.134141 0.01154,0.127664 0.07244,0.308337 0.141142,0.418719 0.02111,0.03393 0.0466,0.06494 0.0699,0.09741 0.0291,0.0295 0.05547,0.06198 0.08731,0.08851 0.132585,0.11045 0.305651,0.189111 0.477623,0.208957 0.04924,0.0057 0.09908,0.003 0.148624,0.0046 0.190497,-0.02355 0.345988,-0.07184 0.491032,-0.203219 0.07819,-0.07083 0.0956,-0.107728 0.154287,-0.194315 0.07494,-0.13784 0.135673,-0.291635 0.135247,-0.451281 -1.01e-4,-0.03694 -0.0057,-0.07366 -0.0086,-0.110493 -0.02729,-0.151704 -0.08264,-0.271288 -0.199242,-0.376709 -0.07328,-0.06626 -0.113003,-0.08206 -0.197196,-0.128373 -0.165638,-0.08272 -0.346623,-0.114673 -0.529053,-0.131839 -0.05005,-0.003 -0.09908,-0.0076 -0.149358,-0.0035 -0.03334,0.0027 -0.06627,0.0091 -0.0994,0.01368 -0.369096,0.06146 -0.282178,0.583438 0.08692,0.52198 v 0 c 0.03742,-0.01106 0.07472,-0.0091 0.113538,-0.0052 0.113448,0.01003 0.227139,0.0249 0.331581,0.07351 0.03355,0.01548 0.03936,0.01712 0.06905,0.03418 0.0065,0.0037 0.01209,0.0089 0.01892,0.01185 0.0024,0.0011 0.0062,-0.0024 0.0078,-2.41e-4 0.0065,0.0084 0.01712,0.04049 0.02066,0.05043 0.02262,0.07032 -0.01807,0.152831 -0.04612,0.216043 -0.02799,0.05109 -0.01299,0.02863 -0.04958,0.07524 -0.006,0.0076 -0.01082,0.01619 -0.01799,0.02262 -0.03748,0.03353 -0.08777,0.03884 -0.133019,0.05647 -0.01638,0.0016 -0.0327,0.0054 -0.04915,0.0048 -0.06175,-0.0024 -0.116435,-0.02474 -0.171082,-0.05097 -0.01273,-0.0061 -0.02614,-0.01103 -0.03792,-0.01881 -0.01244,-0.0082 -0.02278,-0.01921 -0.03418,-0.0288 -0.0078,-0.0083 -0.01683,-0.01553 -0.02336,-0.02482 -0.03207,-0.04571 -0.04738,-0.100452 -0.06644,-0.152024 -0.0039,-0.01066 -0.0095,-0.02074 -0.01294,-0.03158 -0.0029,-0.0093 -0.004,-0.01902 -0.006,-0.02852 0.0024,-0.01662 0.0039,-0.03343 0.0075,-0.04983 0.0077,-0.03471 0.0268,-0.0926 0.03787,-0.126031 0.0052,-0.0158 0.01159,-0.03123 0.01617,-0.04722 0.0011,-0.0039 -7.93e-4,-0.0085 7.94e-4,-0.01214 0.0062,-0.01246 0.015,-0.02342 0.02249,-0.03514 0.191254,-0.321606 -0.263568,-0.592079 -0.454819,-0.270473 z" /></g><g
       id="g92"><path
         style="fill:#114444;stroke:none;stroke-width:0.244518px;stroke-linecap:butt;stroke-linejoin:miter;stroke-opacity:1"
         d="m 26.723098,57.523192 c 0.518938,0.964497 0.270435,2.260393 -0.353904,3.130722 -0.62434,0.870328 -1.624466,1.315 -2.62461,1.75968 -1.02523,-0.355546 -2.050438,-0.711085 -2.641415,-1.510525 -0.590977,-0.79944 -0.74767,-2.042685 -0.2539,-3.051752 0.49377,-1.009067 1.545874,-1.721488 2.858977,-1.798083 1.313102,-0.0766 2.495915,0.505461 3.014852,1.469958 z"
         id="path91"
         inkscape:path-effect="#path-effect91"
         inkscape:original-d="m 27.490552,57.191721 c -0.248516,1.295968 -0.497018,2.591864 -0.745535,3.887833 -1.000163,0.444689 -3.000433,1.33404 -3.000433,1.33404 0,0 -2.050438,-0.711085 -3.07569,-1.066639 -0.156703,-1.243326 -0.313395,-2.486571 -0.470097,-3.729895 1.144242,-0.77481 2.196346,-1.487231 3.432654,-2.324382 1.389897,0.683961 2.57271,1.266017 3.859101,1.899043 z"
         sodipodi:nodetypes="ccccccc"
         transform="matrix(1.0820573,0,0,1.0820573,-1.9512747,-4.8602568)" /><path
         id="path53"
         style="fill:#ffffff;stroke-width:2.64583;paint-order:markers stroke fill"
         d="m 24.006777,58.021683 c -0.09855,-0.08162 -0.211036,-0.147346 -0.32675,-0.20153 -0.03908,-0.01831 -0.0793,-0.03408 -0.118952,-0.05112 -0.04065,-0.01476 -0.08055,-0.0318 -0.121942,-0.04432 -0.193793,-0.05862 -0.429398,-0.09177 -0.630248,-0.05778 -0.06597,0.01116 -0.129671,0.03307 -0.194507,0.0496 -0.06812,0.03312 -0.140772,0.05821 -0.204373,0.09934 -0.07214,0.04666 -0.137956,0.103113 -0.200199,0.162338 -0.127307,0.121131 -0.22676,0.254786 -0.288665,0.421838 -0.08633,0.232955 -0.07064,0.34594 -0.07818,0.587576 0.01407,0.09633 0.02115,0.193948 0.04221,0.288997 0.03634,0.163965 0.108525,0.360775 0.195462,0.50561 0.101891,0.169749 0.229065,0.308518 0.37232,0.443524 0.06884,0.06488 0.143713,0.123029 0.215569,0.184542 0.250497,0.197223 0.508517,0.385267 0.780094,0.552563 0.04661,0.02871 0.09421,0.05577 0.141311,0.08365 0.32215,0.190339 0.591326,-0.26525 0.269176,-0.455588 v 0 c -0.122873,-0.07244 -0.155627,-0.08991 -0.281424,-0.172805 -0.194944,-0.12846 -0.382431,-0.267697 -0.566564,-0.411112 -0.140687,-0.118406 -0.214665,-0.171969 -0.336644,-0.307716 -0.04265,-0.04746 -0.08425,-0.09645 -0.118759,-0.150119 -0.06612,-0.102804 -0.118141,-0.238813 -0.148036,-0.356248 -0.01645,-0.06461 -0.02374,-0.131218 -0.03561,-0.196826 -8.47e-4,-0.127495 -0.0114,-0.235686 0.02254,-0.359707 0.03208,-0.117226 0.0776,-0.167992 0.159575,-0.256394 0.03098,-0.03342 0.06287,-0.06654 0.09909,-0.09418 0.03121,-0.02381 0.0679,-0.03945 0.10185,-0.05917 0.08117,-0.02553 0.116293,-0.04312 0.200462,-0.04589 0.03512,-0.0011 0.07026,0.0029 0.10523,0.0063 0.100835,0.0098 0.200253,0.02954 0.293879,0.06928 0.02824,0.01172 0.05695,0.02238 0.08473,0.03516 0.08887,0.04085 0.175284,0.0899 0.249857,0.153559 0.299342,0.224507 0.616842,-0.198826 0.317499,-0.423333 z m -0.02348,0.515227 c 0.06641,-0.09882 0.153941,-0.179409 0.247394,-0.252339 0.02711,-0.02117 0.05573,-0.04031 0.0836,-0.06046 0.09615,-0.06478 0.201776,-0.115493 0.316917,-0.135043 0.06385,-0.01085 0.09982,-0.0064 0.165701,-0.0048 0.113522,0.0076 0.214726,0.0335 0.301215,0.110908 0.01872,0.01675 0.03697,0.03443 0.05191,0.05462 0.01438,0.01942 0.02359,0.0422 0.03539,0.06329 0.02372,0.05711 0.05232,0.116057 0.06087,0.178305 0.0079,0.05748 -0.0099,0.153379 -0.02149,0.204192 -0.03341,0.146003 -0.05512,0.189474 -0.108874,0.336386 -0.09927,0.243092 -0.222346,0.475867 -0.387176,0.681178 -0.114039,0.142047 -0.161389,0.182272 -0.292101,0.313545 -0.233567,0.227139 -0.49372,0.423161 -0.761513,0.607541 -0.308055,0.212394 -0.0077,0.648049 0.300369,0.435658 v 0 c 0.0452,-0.03121 0.09087,-0.06175 0.135613,-0.09362 0.246957,-0.175874 0.483273,-0.366678 0.701603,-0.57731 0.15262,-0.154953 0.20978,-0.204176 0.343053,-0.373298 0.194278,-0.246534 0.341529,-0.524015 0.45812,-0.814684 0.02707,-0.07638 0.05769,-0.151585 0.08119,-0.229129 0.04175,-0.137732 0.07698,-0.294987 0.07804,-0.439992 0.0015,-0.198146 -0.05756,-0.354298 -0.149504,-0.525414 -0.03644,-0.05016 -0.06818,-0.104106 -0.109329,-0.150487 -0.03664,-0.0413 -0.07874,-0.07787 -0.122781,-0.111168 -0.178071,-0.134649 -0.373739,-0.188195 -0.593452,-0.199691 -0.135746,0.0016 -0.168303,-0.0047 -0.299868,0.02177 -0.179861,0.03622 -0.34605,0.117544 -0.496657,0.220363 -0.03749,0.02773 -0.07588,0.05429 -0.112472,0.0832 -0.119496,0.09439 -0.231536,0.200668 -0.318985,0.32589 -0.233746,0.292184 0.179464,0.62275 0.413211,0.330568 z" /></g><g
       id="g93"><path
         style="fill:#aa1111;stroke:none;stroke-width:0.264583px;stroke-linecap:butt;stroke-linejoin:miter;stroke-opacity:1"
         d="m 22.042571,47.269348 c 0.47885,-0.744974 1.29264,-1.166426 2.293525,-1.326961 1.000885,-0.160536 2.188819,-0.06016 2.775872,0.570663 0.587053,0.630823 0.573203,1.792048 0.51367,3.061016 -0.05953,1.268968 -0.164744,2.645603 -0.728927,3.442087 -0.564184,0.796484 -1.587296,1.012783 -2.555945,1.006175 -0.968649,-0.0066 -1.882778,-0.236118 -2.384509,-0.918448 -0.501731,-0.682331 -0.591043,-1.817434 -0.563743,-2.919257 0.0273,-1.101822 0.171207,-2.1703 0.650057,-2.915275 z"
         id="path88"
         inkscape:path-effect="#path-effect88"
         inkscape:original-d="m 21.707632,46.945825 c 0.81379,-0.42145 1.627579,-0.842902 2.441368,-1.264354 1.187981,0.10038 2.375915,0.200755 3.563871,0.301133 -0.01384,1.161269 -0.0277,2.322494 -0.04155,3.483739 -0.105215,1.376691 -0.210426,2.753326 -0.31564,4.129987 -1.023154,0.216308 -2.046266,0.432607 -3.069399,0.648909 -0.914165,-0.229518 -1.828294,-0.45903 -2.742441,-0.688543 -0.08931,-1.135147 -0.178627,-2.27025 -0.267941,-3.405376 0.143914,-1.068519 0.287822,-2.136997 0.431732,-3.205495 z"
         transform="rotate(-6.0459495,24.520588,49.948597)" /><path
         id="path67"
         style="fill:#ffffff;stroke-width:2.64583;paint-order:markers stroke fill"
         d="m 25.266025,47.908167 c -0.0447,0.213105 -0.08609,0.426974 -0.124725,0.641323 -0.0083,0.04861 -0.01664,0.09721 -0.02498,0.14582 -0.06313,0.368813 0.458451,0.458094 0.521581,0.08928 v 0 c 0.0081,-0.04709 0.01611,-0.09419 0.02418,-0.141281 0.02199,-0.12205 0.03567,-0.201023 0.05976,-0.322962 0.0222,-0.112351 0.05136,-0.22447 0.06647,-0.338149 0.0033,-0.02457 0.0046,-0.04935 0.0069,-0.07403 0,-0.374177 -0.529166,-0.374177 -0.529166,0 z m -2.25913,0.238015 c 0.08781,0.251988 0.198336,0.495072 0.308783,0.737725 0.02953,0.06137 0.05907,0.122729 0.08859,0.1841 0.162362,0.337115 0.639116,0.107506 0.476755,-0.229614 v 0 c -0.02792,-0.05793 -0.05585,-0.115859 -0.08377,-0.173788 -0.07838,-0.172028 -0.156823,-0.343959 -0.226453,-0.519786 -0.07176,-0.181201 -0.01188,-0.03718 -0.067,-0.180845 -0.0055,-0.01435 -0.01187,-0.02834 -0.01782,-0.0425 -0.158897,-0.338763 -0.637979,-0.114047 -0.479082,0.224715 z m 1.121724,-0.37526 c 0.01407,0.21105 0.04287,0.420684 0.07431,0.629733 0.01966,0.122934 0.04486,0.244859 0.06901,0.366955 0.07259,0.367066 0.591702,0.264411 0.519113,-0.102659 v 0 c -0.02258,-0.114194 -0.04625,-0.228204 -0.06486,-0.34314 -0.03187,-0.211117 -0.05841,-0.422783 -0.07524,-0.63568 -0.05996,-0.369343 -0.582286,-0.284554 -0.52233,0.08479 z m -0.610183,2.380862 c 0.140113,-0.0164 0.278146,-0.04663 0.41699,-0.07093 0.126889,-0.0222 0.254046,-0.04287 0.381057,-0.06437 0.276555,-0.04538 0.554664,-0.08142 0.833643,-0.108077 0.06423,-0.0087 0.128699,-0.0028 0.193104,-5.3e-4 0.114803,0.0045 0.229798,0.0011 0.344579,0.0056 0.0073,7.93e-4 0.01463,0.0011 0.02184,0.0024 5.03e-4,9.3e-5 -1.86e-4,0.0016 -6.88e-4,0.0013 -0.01135,-0.0024 -0.02406,-0.0019 -0.03373,-0.0084 -0.03865,-0.02553 -0.07562,-0.05404 -0.109129,-0.08602 -0.01365,-0.01302 -0.02132,-0.06382 -0.03081,-0.0475 -0.01599,0.0275 0.002,0.06359 0.003,0.09539 0.0026,0.214715 0.008,0.42944 0.02362,0.643647 0.01,0.136816 0.01518,0.177511 0.02912,0.31288 0.02736,0.242433 0.04267,0.485997 0.05321,0.729676 0.01621,0.373827 0.544875,0.350909 0.52867,-0.02291 v 0 c -0.01104,-0.254175 -0.02707,-0.508225 -0.05551,-0.761114 -0.01312,-0.126579 -0.01793,-0.16407 -0.02737,-0.291946 -0.01545,-0.209137 -0.02018,-0.418801 -0.02288,-0.628433 -0.0034,-0.0911 -4.5e-4,-0.220213 -0.0462,-0.300146 -0.07225,-0.126254 -0.185434,-0.159681 -0.313872,-0.167868 -0.115544,-0.0039 -0.231203,-0.0019 -0.346765,-0.0056 -0.08689,-0.0028 -0.173959,-0.0088 -0.260589,0.0028 -0.291655,0.02799 -0.582421,0.06552 -0.871537,0.113093 -0.129264,0.02188 -0.258669,0.04295 -0.387808,0.06556 -0.05202,0.0091 -0.10391,0.01897 -0.155865,0.02847 -0.03684,0.0068 -0.07363,0.01384 -0.110528,0.02032 -0.05729,0.01005 -0.05906,0.0098 -0.108166,0.01617 -0.37232,0.03723 -0.319667,0.563771 0.05265,0.526542 z m -0.306794,-0.187391 c 0.0041,0.269727 0.01584,0.539295 0.02511,0.808887 0.01095,0.319357 0.03687,0.637897 0.05949,0.956561 0.01242,0.170897 0.0014,0.392891 0.159271,0.507497 0.05425,0.03939 0.122833,0.05376 0.18425,0.08064 0.05188,0.005 0.10356,0.01286 0.155632,0.01511 0.112114,0.0048 0.236861,-0.0054 0.347562,-0.01638 0.226296,-0.02254 0.450843,-0.06067 0.67563,-0.09444 0.3188,-0.04695 0.636173,-0.102859 0.95448,-0.152929 0.03806,-0.0061 0.07622,-0.01143 0.114497,-0.01595 0.37152,-0.04451 0.308572,-0.569921 -0.06295,-0.525407 v 0 c -0.04471,0.0054 -0.08933,0.01146 -0.13379,0.01863 -0.31709,0.0499 -0.633261,0.105537 -0.950835,0.152368 -0.08025,0.01204 -0.160487,0.02413 -0.240735,0.03616 -0.182953,0.02744 -0.366278,0.0565 -0.551212,0.06734 -0.01897,0.0011 -0.135281,0.0029 -0.174448,0.0036 0.0427,0.0443 0.04971,0.04274 0.07183,0.104322 0.002,0.0056 1.01e-4,0.02331 -0.0017,0.01767 -0.0046,-0.01415 -0.0055,-0.02934 -0.0069,-0.04418 -0.0061,-0.06367 -0.0055,-0.127879 -0.01264,-0.191477 -0.02217,-0.312237 -0.04765,-0.624348 -0.05848,-0.93726 -0.0091,-0.263538 -0.02049,-0.527052 -0.02479,-0.790712 0,-0.374179 -0.529167,-0.374179 -0.529167,0 z" /></g><g
       id="g94"
       transform="translate(0.52916663,-1.0583333)"><path
         style="fill:#3333cc;stroke:none;stroke-width:0.264583px;stroke-linecap:butt;stroke-linejoin:miter;stroke-opacity:1"
         d="m 32.49797,46.713544 c 1.022264,-0.109427 2.080105,0.106511 2.725861,0.740315 0.645756,0.633804 0.879396,1.685425 0.762671,2.687185 -0.116725,1.001761 -0.583802,1.9536 -1.447865,2.460817 -0.864064,0.507218 -2.125054,0.569794 -3.131798,0.268866 -1.006743,-0.300928 -1.759181,-0.965333 -2.034205,-1.888955 -0.275023,-0.923622 -0.07263,-2.106398 0.129778,-3.289198 0.986646,-0.434801 1.973294,-0.869603 2.995558,-0.97903 z"
         id="path89"
         inkscape:path-effect="#path-effect89"
         inkscape:original-d="m 32.462351,46.38817 c 1.057883,0.215948 2.115724,0.431885 3.173587,0.647827 0.233648,1.051666 0.467288,2.103287 0.700934,3.154932 -0.467096,0.951875 -0.934173,1.903714 -1.401257,2.855571 -1.261042,0.06258 -2.522032,0.125156 -3.78305,0.187732 -0.75247,-0.664432 -1.504907,-1.328838 -2.257361,-1.993257 0.202407,-1.182825 0.607208,-3.548401 0.607208,-3.548401 0,0 1.973294,-0.869603 2.959939,-1.304404 z"
         sodipodi:nodetypes="cccccccc" /><path
         id="path87"
         style="fill:#ffffff;stroke-width:2.64583;paint-order:markers stroke fill"
         d="m 31.287742,50.041294 c -0.01468,0.07563 -0.02142,0.152818 -0.0211,0.229865 1.3e-4,0.03075 0.002,0.06146 0.0031,0.0922 0.0069,0.06216 0.0135,0.142489 0.02949,0.203478 0.02401,0.09158 0.05485,0.170373 0.103319,0.252044 0.06326,0.106598 0.09797,0.136946 0.179288,0.22837 0.109236,0.104952 0.229107,0.200319 0.363891,0.270825 0.106865,0.0559 0.225208,0.101814 0.341905,0.132196 0.06176,0.01609 0.125158,0.02508 0.187738,0.03761 0.07415,0.0026 0.148291,0.01019 0.222445,0.0078 0.0736,-0.0024 0.14704,-0.01077 0.219798,-0.02209 0.156379,-0.02434 0.278937,-0.05877 0.423595,-0.12591 0.189291,-0.08785 0.215638,-0.12451 0.378068,-0.253494 0.04739,-0.04865 0.09739,-0.09488 0.142158,-0.145942 0.14342,-0.163563 0.264729,-0.372359 0.307147,-0.587915 0.01029,-0.05228 0.01212,-0.105867 0.01815,-0.1588 0.003,-0.150955 -0.01506,-0.30221 -0.06199,-0.446029 -0.0076,-0.02342 -0.01725,-0.04613 -0.02588,-0.06919 -0.135281,-0.348875 -0.628665,-0.15759 -0.493405,0.191285 v 0 c 0.004,0.0095 0.0085,0.01876 0.01196,0.02843 0.02846,0.07946 0.03899,0.164076 0.04226,0.248018 -7.93e-4,0.02334 7.94e-4,0.04688 -0.0024,0.07001 -0.008,0.05801 -0.02847,0.113424 -0.05345,0.166018 -0.05488,0.115504 -0.129579,0.205213 -0.220043,0.294907 -0.103389,0.08921 -0.11176,0.107122 -0.236336,0.170291 -0.04401,0.02233 -0.08955,0.04215 -0.136541,0.05722 -0.08578,0.02752 -0.213958,0.04766 -0.303649,0.0541 -0.04417,0.0032 -0.08856,0.0011 -0.132837,0.0016 -0.0426,-0.0075 -0.08571,-0.01251 -0.127794,-0.02252 -0.07216,-0.01714 -0.162224,-0.04851 -0.229364,-0.08167 -0.08997,-0.04444 -0.169953,-0.106317 -0.244251,-0.173016 -0.0396,-0.0417 -0.06897,-0.06882 -0.10087,-0.115943 -0.01553,-0.02294 -0.04419,-0.07567 -0.0526,-0.104577 -0.0097,-0.03343 -0.01639,-0.09288 -0.02103,-0.127823 -0.0032,-0.06588 -0.0053,-0.132445 0.0082,-0.197442 0.07338,-0.366911 -0.44551,-0.470689 -0.518892,-0.103778 z m 2.168414,-1.695335 c -0.01116,0.0028 -0.02246,0.0051 -0.0335,0.0084 -0.05027,0.01479 -0.08286,0.02625 -0.131826,0.04505 -0.0546,0.02096 -0.09715,0.03803 -0.14917,0.0674 -0.02924,0.01651 -0.05673,0.03593 -0.0851,0.05389 -0.02927,0.02516 -0.06115,0.04756 -0.08782,0.07546 -0.0967,0.10115 -0.154403,0.21545 -0.18877,0.350478 -0.02646,0.103941 -0.0245,0.153104 -0.03055,0.257765 0.0038,0.0438 0.0036,0.08812 0.0114,0.131395 0.02503,0.1392 0.08433,0.26263 0.18253,0.365151 0.08091,0.08447 0.121508,0.09806 0.221142,0.154599 0.04471,0.01508 0.08826,0.03417 0.134136,0.04524 0.17722,0.04275 0.372978,0.02313 0.540779,-0.0465 0.04556,-0.01889 0.08785,-0.0449 0.131773,-0.06735 0.147495,-0.09448 0.267703,-0.19771 0.34721,-0.357545 0.01815,-0.03647 0.03406,-0.07441 0.04478,-0.113721 0.01172,-0.04296 0.01474,-0.08783 0.02212,-0.131738 -0.0082,-0.117459 -5.29e-4,-0.154665 -0.04792,-0.263867 -0.06272,-0.144637 -0.176551,-0.258016 -0.285057,-0.368442 -0.09236,-0.09127 -0.193865,-0.17331 -0.311917,-0.229077 -0.07477,-0.03532 -0.08914,-0.03564 -0.168227,-0.05744 -0.362956,-0.09095 -0.491583,0.422341 -0.128627,0.513294 v 0 c 0.0074,0.0011 0.01492,0.0016 0.02217,0.0034 0.08408,0.0217 0.148479,0.08389 0.20987,0.141402 0.04507,0.04547 0.06305,0.0624 0.104889,0.109169 0.01312,0.01466 0.02513,0.03028 0.03834,0.04487 0.0062,0.0068 0.01355,0.01238 0.01969,0.01921 0.0075,0.0084 0.01257,0.01886 0.02119,0.02638 0.0016,0.005 0.0052,0.0098 0.0051,0.01513 -5.29e-4,0.02003 -0.01299,0.04898 -0.02222,0.06523 -0.02897,0.051 -0.07732,0.08467 -0.123616,0.118562 -0.0172,0.01069 -0.03351,0.02299 -0.0516,0.03211 -0.06617,0.0334 -0.143603,0.04672 -0.217218,0.03985 -0.0132,-0.0013 -0.02617,-0.0044 -0.03925,-0.0065 -0.03358,-0.0132 -0.03659,-0.01246 -0.06591,-0.03089 -0.0078,-0.0049 -0.01603,-0.0094 -0.02241,-0.01603 -0.0297,-0.03092 -0.03959,-0.0711 -0.04445,-0.112234 0.0013,-0.059 0.0019,-0.119369 0.0185,-0.176644 0.0038,-0.01296 0.0096,-0.02529 0.01505,-0.03765 0.004,-0.0089 0.0076,-0.01815 0.01323,-0.02617 0.0063,-0.009 0.01471,-0.01632 0.02204,-0.02447 0.0114,-0.0081 0.02228,-0.01704 0.03418,-0.02439 0.03337,-0.02059 0.05612,-0.02847 0.09358,-0.0431 0.0359,-0.01402 0.07202,-0.02838 0.109866,-0.03628 0.363006,-0.09075 0.234662,-0.604118 -0.128344,-0.513368 z m -2.093681,0.09365 c -0.03274,0.0132 -0.06778,0.02048 -0.100134,0.03469 -0.02641,0.01162 -0.05256,0.02392 -0.07781,0.03786 -0.02249,0.01241 -0.04346,0.02734 -0.06518,0.04102 -0.02556,0.02167 -0.05361,0.04073 -0.07671,0.06501 -0.07662,0.08054 -0.131606,0.178697 -0.169545,0.282538 -0.02801,0.07666 -0.03362,0.114567 -0.05066,0.192804 -0.0042,0.03172 -0.01071,0.06323 -0.01265,0.09517 -0.0024,0.03812 -0.0029,0.07648 -5e-5,0.114559 0.0082,0.108035 0.0375,0.219007 0.08375,0.317019 0.01617,0.03426 0.03649,0.06639 0.05473,0.09958 0.02191,0.03023 0.04164,0.06215 0.06569,0.0907 0.04998,0.05935 0.115194,0.120547 0.18183,0.160983 0.04065,0.02466 0.08391,0.04518 0.128008,0.06297 0.108902,0.04395 0.146505,0.04235 0.26331,0.0599 0.0494,-0.0011 0.09896,7.94e-4 0.148212,-0.0031 0.128288,-0.01032 0.253569,-0.04664 0.368234,-0.104789 0.03447,-0.01749 0.06855,-0.03625 0.09989,-0.05886 0.03587,-0.02588 0.06733,-0.0574 0.100997,-0.0861 0.05715,-0.0694 0.09981,-0.110789 0.135533,-0.194514 0.03899,-0.09136 0.0529,-0.165843 0.05693,-0.263691 0.0042,-0.102248 -0.0067,-0.134557 -0.02384,-0.235135 -0.01167,-0.03737 -0.02032,-0.07581 -0.035,-0.112096 -0.05022,-0.124206 -0.125195,-0.222891 -0.222877,-0.313484 -0.07004,-0.06496 -0.103346,-0.08304 -0.181811,-0.135885 -0.14269,-0.08534 -0.298273,-0.148047 -0.461754,-0.17966 -0.02982,-0.0058 -0.06001,-0.0095 -0.09002,-0.01423 -0.02553,-0.0028 -0.05105,-0.0057 -0.07658,-0.0085 -0.371999,-0.0403 -0.42899,0.485791 -0.05699,0.526087 v 0 c 0.0182,0.0019 0.03641,0.0038 0.05461,0.0057 0.01794,0.0024 0.036,0.0043 0.05385,0.0075 0.100869,0.0177 0.196871,0.05485 0.285871,0.10513 0.01757,0.01111 0.03565,0.02148 0.05275,0.03333 0.03372,0.02334 0.05902,0.04485 0.08805,0.07364 0.02159,0.02143 0.03928,0.04089 0.05304,0.06824 0.0071,0.01402 0.01143,0.02922 0.01714,0.04384 0.0038,0.01519 0.0087,0.03013 0.0113,0.04556 0.01024,0.06033 0.0011,0.03301 0.0057,0.08584 5.29e-4,0.0057 0.0048,0.01111 0.0038,0.01677 -0.003,0.01778 -0.01916,0.04147 -0.02793,0.05613 -0.0063,0.0081 -0.01117,0.0176 -0.01897,0.02421 -0.01328,0.0113 -0.0285,0.02016 -0.04357,0.02891 -0.07384,0.04286 -0.146357,0.05736 -0.23068,0.06416 -0.07091,-0.0046 -0.04232,5.29e-4 -0.113575,-0.01807 -0.01199,-0.0031 -0.02442,-0.0052 -0.0358,-0.01013 -0.04053,-0.01765 -0.07101,-0.05095 -0.0969,-0.08551 -0.008,-0.0123 -0.01691,-0.02405 -0.02395,-0.03693 -0.01691,-0.03101 -0.02447,-0.05586 -0.03427,-0.08986 -0.0068,-0.02373 -0.01397,-0.05042 -0.01352,-0.07549 2.65e-4,-0.0172 0.0036,-0.03423 0.0054,-0.05134 0.0078,-0.03976 0.01132,-0.06374 0.02291,-0.101984 0.01987,-0.06548 0.0072,-0.01595 0.03199,-0.07614 0.01304,-0.03161 -0.01087,0.005 0.01267,-0.02719 0.0074,-0.0053 0.01492,-0.01042 0.02222,-0.01585 0.0035,-0.0026 0.0061,-0.0063 0.01,-0.0082 0.01,-0.0047 0.02077,-0.0076 0.03123,-0.01122 0.02908,-0.01003 0.05864,-0.01873 0.08715,-0.03037 0.347538,-0.138658 0.15145,-0.63015 -0.196088,-0.491495 z" /></g></g></svg>
