<?xml version="1.0" encoding="UTF-8" standalone="no"?>
<!-- Created with Inkscape (http://www.inkscape.org/) -->

<svg
   width="303mm"
   height="216mm"
   viewBox="0 0 303 216"
   version="1.1"
   id="svg5"
   xml:space="preserve"
   sodipodi:docname="selo.svg"
   inkscape:version="1.3.2 (091e20e, 2023-11-25)"
   xmlns:inkscape="http://www.inkscape.org/namespaces/inkscape"
   xmlns:sodipodi="http://sodipodi.sourceforge.net/DTD/sodipodi-0.dtd"
   xmlns="http://www.w3.org/2000/svg"
   xmlns:svg="http://www.w3.org/2000/svg"><sodipodi:namedview
     id="namedview1"
     pagecolor="#ffffff"
     bordercolor="#666666"
     borderopacity="1.0"
     inkscape:showpageshadow="2"
     inkscape:pageopacity="0.0"
     inkscape:pagecheckerboard="0"
     inkscape:deskcolor="#d1d1d1"
     inkscape:document-units="mm"
     showgrid="false"
     inkscape:zoom="1.2168497"
     inkscape:cx="1085.1792"
     inkscape:cy="160.24987"
     inkscape:window-width="1920"
     inkscape:window-height="1011"
     inkscape:window-x="0"
     inkscape:window-y="32"
     inkscape:window-maximized="1"
     inkscape:current-layer="layer1" /><defs
     id="defs2"><inkscape:path-effect
       effect="bspline"
       id="path-effect4"
       is_visible="true"
       lpeversion="1.3"
       weight="33.333333"
       steps="2"
       helper_size="0"
       apply_no_weight="true"
       apply_with_weight="true"
       only_selected="false"
       uniform="false" /><inkscape:path-effect
       effect="bspline"
       id="path-effect3"
       is_visible="true"
       lpeversion="1.3"
       weight="33.333333"
       steps="2"
       helper_size="0"
       apply_no_weight="true"
       apply_with_weight="true"
       only_selected="false"
       uniform="false" /><inkscape:path-effect
       effect="bspline"
       id="path-effect2"
       is_visible="true"
       lpeversion="1.3"
       weight="33.333333"
       steps="2"
       helper_size="0"
       apply_no_weight="true"
       apply_with_weight="true"
       only_selected="false"
       uniform="false" /><inkscape:path-effect
       effect="bspline"
       id="path-effect1"
       is_visible="true"
       lpeversion="1.3"
       weight="33.333333"
       steps="2"
       helper_size="0"
       apply_no_weight="true"
       apply_with_weight="true"
       only_selected="false"
       uniform="false" /></defs><g
     id="layer1"
     transform="translate(-899.2266,265.6201)"><path
       id="path3"
       style="fill:#aaeedd;stroke:none;stroke-width:0.264583px;stroke-linecap:butt;stroke-linejoin:miter;stroke-opacity:1"
       d="M 941.72013 -265.6201 C 932.76157 -257.83048 933.19123 -247.4467 939.48357 -234.96202 C 949.53518 -215.01855 974.53582 -189.71886 998.71768 -177.43892 C 1022.8995 -165.15897 1046.2612 -165.89985 1072.2346 -178.31483 C 1098.2081 -190.72982 1126.7916 -214.81826 1138.0854 -232.86086 C 1147.2666 -247.52838 1144.9998 -258.14321 1141.571 -265.6201 L 941.72013 -265.6201 z " /><path
       id="path4"
       style="fill:#ffffaa;stroke:none;stroke-width:0.264583px;stroke-linecap:butt;stroke-linejoin:miter;stroke-opacity:1"
       d="M 899.2266 -265.6201 L 899.2266 -136.25797 C 919.84116 -129.3325 944.63346 -125.33639 963.95288 -133.50878 C 984.8482 -142.34781 999.32937 -165.41245 999.74708 -184.72426 C 1000.1648 -204.03606 986.51903 -219.59371 975.14806 -235.30929 C 967.22333 -246.26189 960.39539 -257.28228 950.85756 -265.6201 L 899.2266 -265.6201 z " /><path
       id="path1"
       style="fill:#ffcccc;stroke:none;stroke-width:0.264583px;stroke-linecap:butt;stroke-linejoin:miter;stroke-opacity:1"
       d="M 971.01033 -153.97472 C 944.62424 -135.39082 918.26852 -116.7979 899.2266 -95.89816 L 899.2266 -49.619848 L 1157.2351 -49.619848 C 1153.742 -64.808936 1144.2699 -85.144816 1130.4244 -100.63327 C 1110.8369 -122.54509 1082.5576 -134.70025 1054.5396 -141.9646 C 1026.5215 -149.22894 998.76596 -151.60177 971.01033 -153.97472 z " /><path
       id="path2"
       style="fill:#ccccff;stroke:none;stroke-width:0.264583px;stroke-linecap:butt;stroke-linejoin:miter;stroke-opacity:1"
       d="M 1209.635 -214.41599 C 1195.8638 -210.18105 1177.472 -202.81238 1166.7477 -181.13275 C 1154.5593 -156.49327 1152.2898 -113.37817 1154.9598 -84.752587 C 1156.4216 -69.080946 1159.3722 -57.775108 1163.487 -49.619848 L 1209.635 -49.619848 L 1209.635 -214.41599 z "
       transform="translate(-7.4083337)" /><rect
       style="fill:#ffffff;stroke:#000000;stroke-width:1.5;stroke-linecap:round;stroke-linejoin:round;stroke-dasharray:none;paint-order:fill markers stroke"
       id="rect8"
       width="123.5"
       height="185"
       x="914.7266"
       y="-250.1202"
       ry="10" /><rect
       style="fill:#ffffff;stroke:#000000;stroke-width:1.5;stroke-linecap:round;stroke-linejoin:round;stroke-dasharray:none;paint-order:fill markers stroke"
       id="rect9"
       width="123.5"
       height="185"
       x="1063.227"
       y="-250.1202"
       ry="10" /><path
       d="m 1087.412,-219.9674 v -11.7899 h 2.688 v 11.7899 z m 4.141,0 v -8.8174 h 2.689 v 8.8174 z m 1.336,-9.6357 q -0.768,0 -1.185,-0.3172 -0.401,-0.3173 -0.401,-0.9352 0,-0.6346 0.401,-0.9519 0.417,-0.334 1.185,-0.334 0.785,0 1.186,0.334 0.417,0.3173 0.417,0.9519 0,0.6012 -0.417,0.9352 -0.401,0.3172 -1.186,0.3172 z m 2.822,12.2074 v -7.8487 -3.5404 h 2.322 v 2.6553 l 0.183,0.017 q 0.167,-0.9686 0.535,-1.6199 0.384,-0.6513 0.968,-0.9686 0.585,-0.3173 1.386,-0.3173 1.069,0 1.82,0.5344 0.769,0.5344 1.169,1.5699 0.401,1.0353 0.401,2.5383 0,1.5196 -0.417,2.555 -0.418,1.0353 -1.169,1.5697 -0.752,0.5177 -1.77,0.5177 -0.769,0 -1.353,-0.3006 -0.568,-0.3173 -0.952,-0.9519 -0.367,-0.6345 -0.551,-1.5864 h -0.2 q 0.08,0.4676 0.15,0.9853 0.08,0.5009 0.117,0.9852 0.05,0.4843 0.05,0.9352 v 2.2711 z m 4.426,-4.5255 q 0.534,0 0.885,-0.3173 0.367,-0.334 0.534,-0.8684 0.184,-0.5511 0.184,-1.2023 0,-0.7014 -0.201,-1.2358 -0.183,-0.5511 -0.551,-0.8684 -0.35,-0.334 -0.868,-0.334 -0.384,0 -0.701,0.167 -0.318,0.167 -0.551,0.4843 -0.218,0.3006 -0.351,0.7515 -0.134,0.4342 -0.134,0.9853 v 0.167 q 0,0.4508 0.08,0.8182 0.1,0.3507 0.267,0.6179 0.167,0.2672 0.384,0.4676 0.234,0.1837 0.484,0.2839 0.267,0.084 0.535,0.084 z m 8.416,2.1876 q -1.486,0 -2.204,-1.0187 -0.718,-1.0186 -0.718,-3.1228 v -4.9097 h 2.705 v 4.7928 q 0,1.0354 0.301,1.4863 0.3,0.4509 0.885,0.4509 0.384,0 0.701,-0.2004 0.317,-0.2004 0.551,-0.6012 0.234,-0.4008 0.351,-0.9853 0.117,-0.6011 0.117,-1.386 v -3.5571 h 2.705 v 4.9598 3.8576 h -2.254 l -0.02,-3.223 h -0.184 q -0.133,1.2024 -0.501,1.9705 -0.35,0.7682 -0.968,1.1356 -0.601,0.3507 -1.47,0.3507 z m 13.844,-0.033 q -1.553,0 -2.305,-0.8016 -0.751,-0.8015 -0.751,-2.5049 v -3.6071 h -1.052 l 0.02,-1.8203 h 0.3 q 0.885,-0.1002 1.269,-0.5344 0.384,-0.4342 0.485,-1.3693 l 0.07,-0.3841 h 1.553 v 2.0039 h 2.054 v 2.171 h -2.054 v 3.3232 q 0,0.6179 0.301,0.8851 0.301,0.2672 0.802,0.2672 0.25,0 0.501,-0.067 0.267,-0.067 0.484,-0.1837 v 2.388 q -0.534,0.1503 -0.952,0.1837 -0.401,0.05 -0.718,0.05 z m 6.813,0.033 q -1.219,0 -2.07,-0.334 -0.852,-0.3507 -1.403,-0.9519 -0.535,-0.6178 -0.785,-1.4194 -0.251,-0.8183 -0.251,-1.7534 0,-0.9853 0.251,-1.8537 0.267,-0.885 0.802,-1.5364 0.534,-0.668 1.352,-1.0521 0.818,-0.3841 1.921,-0.3841 1.118,0 1.92,0.3841 0.818,0.3674 1.319,1.0688 0.501,0.6848 0.668,1.6199 0.167,0.9352 0.02,2.0373 l -6.546,0.1002 v -1.4528 l 4.642,-0.084 -0.534,0.8016 q 0.1,-0.7849 -0.05,-1.3026 -0.151,-0.5344 -0.518,-0.8016 -0.351,-0.2671 -0.902,-0.2671 -0.601,0 -1.002,0.3172 -0.384,0.3173 -0.567,0.9018 -0.184,0.5845 -0.184,1.3861 0,1.3526 0.484,1.9705 0.501,0.6179 1.436,0.6179 0.418,0 0.685,-0.1002 0.284,-0.1002 0.451,-0.2839 0.184,-0.2004 0.25,-0.4676 0.08,-0.2672 0.101,-0.5845 l 2.438,0.2505 q -0.02,0.5678 -0.217,1.1356 -0.184,0.551 -0.635,1.0186 -0.451,0.4509 -1.219,0.7348 -0.752,0.2839 -1.854,0.2839 z m 5.043,-0.2338 v -5.0766 -3.7408 h 2.238 l 0.02,3.3066 h 0.2 q 0.134,-1.2024 0.485,-1.9873 0.35,-0.7849 0.968,-1.169 0.618,-0.3841 1.536,-0.3841 1.47,0 2.221,1.002 0.752,0.9853 0.752,3.006 v 5.0432 h -2.705 v -4.7092 q 0,-1.0354 -0.318,-1.5364 -0.3,-0.501 -0.951,-0.501 -0.535,0 -0.936,0.3674 -0.384,0.3507 -0.601,1.1022 -0.217,0.7348 -0.217,1.9037 v 3.3733 z m 9.786,2.5717 v -7.8487 -3.5404 h 2.322 v 2.6553 l 0.183,0.017 q 0.167,-0.9686 0.535,-1.6199 0.384,-0.6513 0.968,-0.9686 0.585,-0.3173 1.386,-0.3173 1.069,0 1.82,0.5344 0.769,0.5344 1.169,1.5699 0.401,1.0353 0.401,2.5383 0,1.5196 -0.417,2.555 -0.418,1.0353 -1.169,1.5697 -0.752,0.5177 -1.77,0.5177 -0.769,0 -1.353,-0.3006 -0.568,-0.3173 -0.952,-0.9519 -0.367,-0.6345 -0.551,-1.5864 h -0.2 q 0.08,0.4676 0.15,0.9853 0.08,0.5009 0.117,0.9852 0.05,0.4843 0.05,0.9352 v 2.2711 z m 4.426,-4.5255 q 0.534,0 0.885,-0.3173 0.367,-0.334 0.534,-0.8684 0.184,-0.5511 0.184,-1.2023 0,-0.7014 -0.201,-1.2358 -0.183,-0.5511 -0.551,-0.8684 -0.35,-0.334 -0.868,-0.334 -0.384,0 -0.701,0.167 -0.318,0.167 -0.552,0.4843 -0.217,0.3006 -0.35,0.7515 -0.134,0.4342 -0.134,0.9853 v 0.167 q 0,0.4508 0.08,0.8182 0.1,0.3507 0.267,0.6179 0.167,0.2672 0.384,0.4676 0.234,0.1837 0.484,0.2839 0.267,0.084 0.535,0.084 z m 9.635,2.1876 q -1.302,0 -2.304,-0.501 -0.986,-0.5177 -1.553,-1.553 -0.551,-1.0354 -0.551,-2.5884 0,-1.5865 0.567,-2.6051 0.585,-1.0355 1.587,-1.5365 1.018,-0.501 2.288,-0.501 1.319,0 2.304,0.5177 1.002,0.501 1.553,1.5365 0.551,1.0186 0.551,2.5884 0,1.6031 -0.584,2.6385 -0.585,1.0353 -1.587,1.5196 -1.002,0.4843 -2.271,0.4843 z m 0.07,-1.9705 q 0.551,0 0.902,-0.2839 0.367,-0.3006 0.551,-0.8684 0.2,-0.5678 0.2,-1.3693 0,-0.8684 -0.217,-1.4696 -0.2,-0.6012 -0.584,-0.9185 -0.384,-0.3172 -0.969,-0.3172 -0.518,0 -0.885,0.3005 -0.367,0.2839 -0.568,0.8517 -0.183,0.5678 -0.183,1.3694 0,1.3025 0.467,2.0039 0.468,0.7014 1.286,0.7014 z"
       id="path12"
       style="font-weight:800;font-size:16.6994px;line-height:0.85;font-family:'Bricolage Grotesque 72pt';-inkscape-font-specification:'Bricolage Grotesque 72pt, Ultra-Bold';font-variant-numeric:oldstyle-nums;stroke-width:0.264583"
       aria-label="lipu tenpo" /></g></svg>
