<?xml version="1.0" encoding="UTF-8" standalone="no"?>
<!-- Created with Inkscape (http://www.inkscape.org/) -->

<svg
   width="11.66967mm"
   height="11.89633mm"
   viewBox="0 0 44.10583 44.96251"
   version="1.1"
   id="svg5"
   xmlns="http://www.w3.org/2000/svg"
   xmlns:svg="http://www.w3.org/2000/svg">
  <defs
     id="defs2" />
  <g
     id="layer1"
     transform="translate(-437.9578,-278.7713)">
    <path
       id="path6"
       style="fill:#665500;stroke-width:2.26772;stroke-linecap:round;stroke-linejoin:round;paint-order:fill markers stroke"
       d="m 460.7461,278.7714 c -10.2371,-0.03 -20.5151,13.2123 -22.4454,23.5878 -2.0589,11.0674 5.38,18.8714 16.2539,20.8673 10.874,1.9959 25.1834,-1.8154 27.2422,-12.8828 2.059,-11.0674 -8.1336,-29.3889 -19.0077,-31.3848 -0.6796,-0.1247 -1.3606,-0.1855 -2.043,-0.1875 z m 0.3438,12.1152 c 1.0196,0.03 2.0229,0.3031 2.953,0.7676 1.3761,0.7712 1.2895,2.229 0.5137,3.0312 0.189,0.2889 0.3135,0.6539 0.334,1.0997 0.021,1.0856 0.1355,1.8126 -0.2852,2.873 -0.6408,1.6154 -1.9705,2.7092 -3.7207,2.9004 -0.578,0.063 -1.1597,-0.071 -1.7402,-0.1074 -0.5244,-0.242 -1.1003,-0.3962 -1.5742,-0.7265 -1.9593,-1.3664 -2.6938,-4.022 -1.9414,-6.252 0.1908,-0.5655 0.5577,-1.056 0.8359,-1.584 0.4447,-0.3947 0.833,-0.8634 1.3341,-1.1836 0.4407,-0.2818 0.9469,-0.4576 1.4511,-0.5976 0.6104,-0.1697 1.228,-0.2387 1.8399,-0.2208 z m -0.1289,3.7423 c -0.5483,0 -1.2094,0.1507 -1.5958,0.5137 -0.105,0.099 -0.1313,0.2581 -0.1973,0.3866 -0.1949,0.8549 -0.1061,2.0481 0.8945,2.3535 0.1366,0.046 0.2836,0.023 0.4259,0.035 0.3024,-0.1111 0.6999,-0.261 0.7539,-0.6368 0.013,-0.085 -0.037,-0.1678 -0.047,-0.2538 -0.016,-0.1481 -0.01,-0.2967 -0.016,-0.4453 -0.022,-0.2078 -0.043,-0.4152 -0.065,-0.6232 -0.024,-0.5229 0.1021,-0.9485 0.3204,-1.2772 -0.078,-0.017 -0.159,-0.032 -0.2481,-0.041 -0.073,-0.01 -0.1482,-0.011 -0.2265,-0.012 z m -7.7423,7.3749 c 0.653,-0.014 1.3082,0.058 1.9257,0.1934 0.241,0.053 0.47,0.1476 0.7052,0.2226 0.6213,0.2576 0.9927,0.672 1.164,1.1309 0.1195,0.1391 0.2306,0.2994 0.3262,0.4883 0.8413,1.7381 0.4887,0.8101 1.0274,2.789 -0.01,0.5732 0.073,1.157 -0.031,1.7208 -0.4188,2.2732 -2.4648,4.0886 -4.7618,4.2578 -0.5927,0.044 -1.1836,-0.112 -1.7753,-0.1681 -0.545,-0.2595 -1.1451,-0.4261 -1.6348,-0.7793 -1.9363,-1.3967 -2.7355,-4.1206 -2.0097,-6.373 0.1725,-0.5351 0.5294,-0.9907 0.7949,-1.4862 0.3984,-0.3673 0.7456,-0.7992 1.1953,-1.1016 0.9015,-0.6064 1.986,-0.8706 3.0742,-0.8946 z m 12.2402,0.541 c 0.6592,-0.031 1.3254,0.093 1.9571,0.3633 0.031,0.013 0.057,0.027 0.086,0.041 0.6033,-0.1531 1.301,0 1.9004,0.6328 0.7006,0.7844 1.0775,1.0871 1.5097,2.1094 0.4009,0.9476 0.5641,1.9938 0.4005,3.0176 -0.082,0.5105 -0.3243,0.9818 -0.4863,1.4726 -0.2997,0.4139 -0.5453,0.8749 -0.9005,1.2422 -1.3943,1.4425 -3.6973,2.09 -5.6445,1.6074 -0.5465,-0.1353 -1.0414,-0.4273 -1.5625,-0.6406 -0.3969,-0.3675 -0.8644,-0.6707 -1.1913,-1.1015 -1.3235,-1.7433 -1.1618,-4.0935 -0.1349,-5.9258 0.2517,-0.4491 0.6012,-0.8345 0.9024,-1.2519 0.4161,-0.3342 0.7859,-0.7353 1.248,-1.0021 0.6032,-0.3479 1.2568,-0.5335 1.916,-0.5644 z m -12.0253,3.2246 c -0.5884,-0.014 -1.2009,0.1064 -1.545,0.4825 -0.094,0.1031 -0.1409,0.2421 -0.2108,0.3633 -0.03,0.1484 -0.088,0.294 -0.088,0.4453 -0.01,0.574 0.2427,1.3421 0.6544,1.7499 0.2821,0.2797 0.596,0.2655 0.953,0.3164 0.4024,-0.082 0.606,-0.071 0.9375,-0.3495 0.356,-0.299 0.6308,-0.8887 0.5937,-1.3554 -0.011,-0.1438 -0.092,-0.2732 -0.1366,-0.4103 -0.3272,-0.765 -0.2055,-0.5082 -0.5781,-1.1836 -0.1836,-0.031 -0.3791,-0.054 -0.5801,-0.059 z m 12.084,0.4063 c -0.034,0.01 -0.041,0.059 -0.068,0.082 -0.3221,0.277 -0.3494,0.2676 -0.6153,0.6523 -0.3767,0.6456 -0.9705,1.9077 -0.074,2.4199 0.1,0.057 0.2179,0.077 0.3262,0.1153 0.8707,0.01 1.8807,-0.1163 2.4062,-0.9141 0.078,-0.1182 0.1034,-0.2628 0.1544,-0.3946 0.041,-0.4321 -0.057,-0.7825 -0.2402,-1.0937 -0.5679,0.044 -1.1773,-0.1779 -1.6758,-0.7969 -0.05,-0.023 -0.163,-0.082 -0.2129,-0.07 z" />
  </g>
</svg>
