<?xml version="1.0" encoding="UTF-8" standalone="no"?>
<!-- Created with Inkscape (http://www.inkscape.org/) -->

<svg
   width="468.8563"
   height="112.0903"
   viewBox="0 0 468.8563 112.0903"
   version="1.1"
   id="svg5"
   xml:space="preserve"
   xmlns="http://www.w3.org/2000/svg"
   xmlns:svg="http://www.w3.org/2000/svg"><defs
     id="defs2" /><g
     id="layer1"
     transform="translate(-175.8276,-406.6655)"><path
       id="path8"
       style="font-variation-settings:'wght' 401;opacity:1;fill:#ffffcc;stroke-width:4;stroke-linecap:round;stroke-linejoin:round;paint-order:fill markers stroke"
       transform="translate(2,-2)"
       d="m 475.6052,492.0831 c 1.0154,12.6548 6.2787,22.5887 32.1172,26.5732 25.8385,3.9845 72.2492,2.0194 99.2184,-3.55 26.9692,-5.5694 34.4935,-14.7426 35.6054,-26.8897 1.1119,-12.1472 -4.1886,-27.2671 -27.6406,-33.274 -23.452,-6.0068 -65.0523,-2.8998 -90.3865,-2.4251 -25.3343,0.4747 -34.3992,-1.6831 -43.4643,-3.841 -3.2325,15.3758 -6.465,30.7517 -5.4496,43.4066 z m -185.0043,-79.9706 c 22.964,3.9064 26.5885,11.8258 28.2624,24.5553 1.674,12.7295 1.3974,30.268 1.1209,47.807 -6.1441,-5.086 -12.2882,-10.1718 -35.055,-11.2456 -22.7669,-1.0738 -62.1542,1.8646 -84.2236,-2.0719 -22.0693,-3.9364 -26.8183,-14.7473 -26.8774,-26.3497 -0.059,-11.6023 4.5715,-23.9949 28.0391,-30.2449 23.4675,-6.25 65.7696,-6.3566 88.7336,-2.4502 z m 44.9953,32.3544 c 2.4736,-18.3481 10.2947,-27.7881 29.2063,-32.4368 18.9117,-4.6486 48.9118,-4.5055 67.6087,0.5867 18.6969,5.0921 26.0886,15.1331 29.3647,27.05 3.276,11.9169 2.4361,25.7093 -3.319,37.2192 -5.7552,11.5099 -16.4252,20.7367 -34.6544,23.4658 -18.2292,2.7291 -44.017,-1.0396 -59.4321,0.7066 -15.4151,1.7462 -20.4573,9.007 -25.4995,16.2679 -2.8742,-27.2557 -5.7483,-54.5113 -3.2747,-72.8594 z" /></g></svg>
