<?xml version="1.0" encoding="UTF-8" standalone="no"?>
<!-- Created with Inkscape (http://www.inkscape.org/) -->

<svg
   width="309.8575"
   height="76.51221"
   viewBox="0 0 309.8575 76.51221"
   version="1.1"
   id="svg5"
   xml:space="preserve"
   xmlns="http://www.w3.org/2000/svg"
   xmlns:svg="http://www.w3.org/2000/svg"><defs
     id="defs2" /><g
     id="layer1"
     transform="translate(-186.8449,-162.335)"><path
       style="font-variation-settings:'wght' 401;opacity:1;fill:#ffffcc;stroke-width:3.56459;stroke-linecap:round;stroke-linejoin:round;paint-order:fill markers stroke"
       d="m 220.6982,177.2959 c 19.7839,-7.1651 49.1146,-7.8573 81.8256,-8.7918 32.7111,-0.9346 66.1841,-2.0496 97.396,-0.3356 31.2119,1.714 60.1591,6.2569 76.173,13.4906 16.014,7.2337 19.0923,17.1571 18.2494,26.3734 -0.8429,9.2162 -5.6069,17.7239 -22.2778,20.4878 -16.6709,2.7638 -45.2468,-0.2164 -81.961,-1.7123 -36.7142,-1.4959 -81.5636,-1.5073 -113.3115,0.2922 -31.748,1.7995 -50.3938,5.4098 -62.3357,2.5985 -11.9419,-2.8112 -16.2947,-10.4846 -16.6516,-23.1813 -0.3569,-12.6966 3.1096,-22.0563 22.8936,-29.2215 z"
       id="path9"
       transform="matrix(1.044389,0,0,1.205693,-19.71511,-39.34721)" /></g></svg>
