<?xml version="1.0" encoding="UTF-8" standalone="no"?>
<!-- Created with Inkscape (http://www.inkscape.org/) -->

<svg
   width="10.58186mm"
   height="10.63633mm"
   viewBox="0 0 39.99445 40.2003"
   version="1.1"
   id="svg5"
   xmlns="http://www.w3.org/2000/svg"
   xmlns:svg="http://www.w3.org/2000/svg">
  <defs
     id="defs2" />
  <g
     id="layer1"
     transform="translate(-456.0698,-421.8448)">
    <path
       id="path11"
       style="fill:#3333cc;stroke-width:2.26772;stroke-linecap:round;stroke-linejoin:round;paint-order:fill markers stroke"
       d="m 470.0512,421.8496 c -0.4271,0.01 -0.8423,0.016 -1.2441,0.031 -6.4297,0.2421 -9.3839,1.5157 -11.4004,9.1953 -2.0167,7.6796 -2.6459,19.6656 4.6933,26.1445 7.3391,6.479 22.6975,6.4759 29.5253,-0.2715 6.828,-6.7474 5.1246,-20.2401 -0.6797,-27.3808 -5.4414,-6.6944 -14.4871,-7.8055 -20.8944,-7.7188 z m 13.2324,11.0821 c 0.1404,0 0.2818,0.01 0.4219,0.018 1.1454,0.1707 1.6885,0.9688 1.7226,1.7872 0.1808,0.1578 0.3472,0.3579 0.4903,0.6093 0.6828,1.3313 1.1411,1.8394 1.1192,3.4316 -0.026,1.8763 -1.1129,3.7662 -2.7325,4.7266 -0.3969,0.2354 -0.8444,0.3664 -1.289,0.502 -0.032,0.3342 -0.065,0.6696 -0.098,1.0039 -0.4464,1.5979 -0.4535,2.1476 -1.463,3.5449 -1.2839,1.7772 -3.1849,3.0618 -5.4101,3.2481 -0.7128,0.06 -1.4272,-0.1053 -2.1406,-0.1583 -0.6536,-0.28 -1.3573,-0.4641 -1.961,-0.8398 -0.5482,-0.3413 -1.0213,-0.8032 -1.4512,-1.2851 -1.1521,-1.2918 -1.778,-2.8887 -1.9921,-4.5665 -0.7108,-0.2346 -1.3732,-0.6267 -1.9258,-1.1699 -1.1291,-1.11 -1.134,-1.8845 -1.5332,-3.336 0.023,-0.6426 -0.043,-1.2947 0.07,-1.9276 0.4215,-2.3451 2.215,-4.6507 4.6522,-5.0821 0.5165,-0.092 1.0482,0.039 1.5723,0.059 0.4471,0.1778 0.9231,0.2929 1.3399,0.5332 1.5266,0.8804 2.3905,2.5702 2.584,4.2676 0.01,0.1632 0,0.318 -0.016,0.4629 0.1121,0.308 0.1507,0.6712 0.088,1.0859 -0.087,0.4815 -0.115,0.9779 -0.2598,1.4453 -0.4833,1.5598 -0.6987,1.5459 -1.7637,2.7617 -0.3548,0.2001 -0.6909,0.4414 -1.0469,0.6387 0.035,0.2907 0.086,0.5788 0.1992,0.8965 0.3245,0.9093 1.0065,1.8808 1.9005,2.3105 0.2632,0.1262 0.5689,0.1342 0.8535,0.2012 0.3103,-0.025 0.6286,-0.01 0.9316,-0.076 1.427,-0.336 2.4675,-1.6069 2.9121,-2.9531 0.1045,-0.3165 0.1284,-0.6534 0.1934,-0.9804 0.01,-0.1923 0.022,-0.3839 0.031,-0.5762 -1.6643,-1.0037 -2.7421,-2.9355 -2.7421,-4.8848 2e-4,-0.6245 0.2064,-1.2318 0.3104,-1.8477 0.2816,-0.495 0.4962,-1.0348 0.8458,-1.4843 1.3495,-1.7352 3.4781,-2.4009 5.5859,-2.3652 z m -0.8594,3.8066 c -0.8099,0.1082 -1.5906,0.4183 -2.0077,1.1835 -0.095,0.1745 -0.1255,0.3763 -0.1896,0.5645 0.086,0.9315 0.65,2.1254 1.7657,2.0703 0.1462,-0.01 0.277,-0.091 0.416,-0.1367 0.5011,-0.6028 1.1155,-1.2737 0.8809,-2.123 -0.1121,-0.4059 -0.4185,-0.7543 -0.6563,-1.0821 -0.092,-0.1614 -0.1594,-0.3207 -0.209,-0.4765 z m -12.1114,0.3457 c -0.052,5e-4 -0.1041,0 -0.1562,0 -0.085,0.042 -0.1857,0.063 -0.2578,0.125 -0.085,0.074 -0.1381,0.1814 -0.2031,0.2734 -0.5017,0.6545 -0.9049,1.2651 -0.9649,2.1289 -0.018,0.2695 0.06,0.5363 0.09,0.8047 0.2136,0.4549 0.2796,0.8147 0.7539,1.0645 0.3712,0.1955 1.0457,-0.023 1.3497,-0.2442 0.1277,-0.089 0.2071,-0.2321 0.3104,-0.3476 0.3038,-0.4975 0.3103,-1.0498 0.3614,-1.6133 0.01,-0.034 0.013,-0.066 0.02,-0.1 -0.07,-0.1969 -0.1146,-0.4167 -0.1289,-0.6621 -0.094,-0.5511 -0.4127,-1.2758 -1.0176,-1.4199 -0.051,-0.012 -0.1039,-0.014 -0.1564,-0.014 z" />
  </g>
</svg>
