<?xml version="1.0" encoding="UTF-8" standalone="no"?>
<!-- Created with Inkscape (http://www.inkscape.org/) -->

<svg
   width="257.7621"
   height="64.08054"
   viewBox="0 0 257.7621 64.08054"
   version="1.1"
   id="svg5"
   xml:space="preserve"
   xmlns="http://www.w3.org/2000/svg"
   xmlns:svg="http://www.w3.org/2000/svg"><defs
     id="defs2" /><g
     id="layer1"
     transform="translate(-176.8899,-925.4748)"><path
       style="font-variation-settings:'wght' 401;opacity:1;fill:#aaeedd;stroke-width:3.23068;stroke-linecap:round;stroke-linejoin:round;paint-order:fill markers stroke"
       d="m 182.3868,947.223 c 1.0589,-6.3693 3.4306,-9.5368 41.6167,-10.6219 38.1861,-1.0852 112.1837,-0.088 150.9754,1.8438 38.7916,1.9319 42.3758,4.7983 44.0764,11.3163 1.7005,6.518 1.5173,16.6871 0.2785,22.6933 -1.2388,6.0062 -3.5333,7.8492 -41.5479,8.5492 -38.0146,0.7 -111.7465,0.2569 -150.3582,-1.3119 -38.6118,-1.5687 -42.1018,-4.263 -43.9738,-10.3959 -1.872,-6.1328 -2.126,-15.7036 -1.0671,-22.0729 z"
       id="path10"
       transform="matrix(1.080618,0,0,1.418602,-19.52866,-402.5553)" /></g></svg>
