<?xml version="1.0" encoding="UTF-8" standalone="no"?>
<!-- Created with Inkscape (http://www.inkscape.org/) -->

<svg
   width="270.992"
   height="66.36952"
   viewBox="0 0 270.992 66.36952"
   version="1.1"
   id="svg5"
   xml:space="preserve"
   xmlns="http://www.w3.org/2000/svg"
   xmlns:svg="http://www.w3.org/2000/svg"><defs
     id="defs2" /><g
     id="layer1"
     transform="translate(-196.4259,-676.0237)"><path
       style="font-variation-settings:'wght' 401;opacity:1;fill:#ffcccc;stroke-width:4;stroke-linecap:round;stroke-linejoin:round;paint-order:fill markers stroke"
       d="m 199.9013,728.351 c 3.0334,8.5404 7.6237,14.4718 12.1478,14.0179 4.5241,-0.4539 9.551,-8.1663 37.1763,-10.4159 27.6254,-2.2496 94.0206,-0.3534 134.1927,0.1044 40.1721,0.4578 61.6344,-0.3081 72.8757,-6.1775 11.2414,-5.8693 12.2604,-16.8413 10.3607,-25.1046 -1.8997,-8.2633 -6.7179,-13.8169 -24.9744,-17.4185 -18.2565,-3.6016 -49.9499,-5.2511 -90.8981,-6.4071 -40.9482,-1.156 -91.1476,-1.8184 -118.8351,1.6909 -27.6874,3.5094 -32.8597,11.1902 -34.7077,20.6055 -1.8479,9.4153 -0.3714,20.5646 2.6621,29.1049 z"
       id="path11" /></g></svg>
