<?xml version="1.0" encoding="UTF-8" standalone="no"?>
<!-- Created with Inkscape (http://www.inkscape.org/) -->

<svg
   width="11.90689mm"
   height="13.59549mm"
   viewBox="0 0 45.00241 51.38452"
   version="1.1"
   id="svg5"
   xmlns="http://www.w3.org/2000/svg"
   xmlns:svg="http://www.w3.org/2000/svg">
  <defs
     id="defs2" />
  <g
     id="layer1"
     transform="translate(-455.0518,-129.4707)">
    <path
       id="path351"
       style="fill:#114444;stroke-width:2.26772;stroke-linecap:round;stroke-linejoin:round;paint-order:fill markers stroke"
       d="m 475.1607,129.4782 c -7.4839,0.093 -14.522,1.7842 -17.9355,10.293 -3.6412,9.0761 -3.1585,25.9085 4.9316,34.4747 8.0901,8.566 23.788,8.8646 31.5782,0.5507 7.79,-8.3139 7.6706,-25.2393 3.4628,-34.4649 -4.2079,-9.2255 -12.5041,-10.7507 -20.5352,-10.8535 -0.5019,-0.01 -1.003,-0.01 -1.5019,0 z m 2.3946,10.043 c 0.9448,0.01 1.8844,0.6814 1.8749,2.0176 0,1.765 0.013,3.5286 0.061,5.2929 0.01,0.2323 0.017,0.4651 0.027,0.6973 0.112,2.6702 -3.6635,2.8284 -3.7754,0.1582 -0.01,-0.251 -0.021,-0.5028 -0.031,-0.7539 -0.048,-1.8071 -0.06,-3.6141 -0.06,-5.4219 0.01,-1.3362 0.9593,-1.9968 1.9043,-1.9902 z m 7.8749,1.041 c 1.1814,0.07 2.2747,1.2443 1.5938,2.7695 -0.704,1.4887 -1.374,2.9901 -1.9395,4.5372 -0.071,0.2196 -0.1419,0.4409 -0.2128,0.6601 -0.8256,2.5418 -4.4195,1.3738 -3.5938,-1.168 0.087,-0.2647 0.1728,-0.5304 0.2598,-0.7949 0.5994,-1.6255 1.2906,-3.211 2.0352,-4.7754 0.4084,-0.9151 1.1485,-1.2705 1.8573,-1.2285 z m -14.4296,0.1992 c 0.8268,0 1.6536,0.5261 1.8554,1.6778 0.259,1.4032 0.6292,2.783 1.0781,4.1367 0.066,0.1584 0.1294,0.3181 0.1953,0.4766 0.998,2.4792 -2.508,3.8893 -3.5058,1.4101 -0.093,-0.2345 -0.1863,-0.4688 -0.2793,-0.7031 -0.5022,-1.5286 -0.9234,-3.0838 -1.2109,-4.668 -0.2596,-1.4807 0.804,-2.3345 1.8672,-2.3301 z m 6.0488,11.3907 c 0.623,0 1.2459,0.01 1.8691,0.02 2.0311,0.1079 4.3092,0.1894 5.8516,1.7363 1.0414,1.0442 1.0115,1.5602 1.4297,2.9297 0.046,0.5355 0.1226,1.0683 0.1406,1.6055 0.031,0.9025 -0.068,2.2101 -0.1387,3.1113 -0.096,1.23 -0.2194,2.4578 -0.3183,3.6875 -0.055,0.6908 -0.066,1.3837 -0.076,2.0762 -9e-4,0.065 0,0.1273 -0.01,0.1894 0.4052,1.0617 -0.1253,2.4685 -1.7266,2.5898 -1.8858,0.1411 -3.7778,0.1868 -5.668,0.094 -2.4485,-0.1079 -4.8998,-0.2606 -7.3514,-0.1836 v 0 c -1.6687,0.1225 -2.4021,-1.3094 -2.0626,-2.4453 -0.1154,-0.2507 -0.1866,-0.5455 -0.1972,-0.8868 -0.043,-1.4391 -0.031,-2.8789 0,-4.3183 0.065,-2.7141 0.1484,-5.427 0.2304,-8.1407 v 0 c 0.046,-1.2616 0.9146,-1.8902 1.8066,-1.9277 0.1861,-0.053 0.3903,-0.086 0.6152,-0.09 1.8694,-0.023 3.7383,-0.054 5.6075,-0.049 z m -0.033,3.7793 c -1.4209,0 -2.8424,0.017 -4.2637,0.035 -0.065,2.161 -0.1322,4.3211 -0.1836,6.4825 -0.027,1.2528 -0.035,2.5069 0,3.7597 2.0026,0 4.006,0.1185 6.0059,0.207 1.1584,0.057 2.3168,0.055 3.4745,0.01 0.012,-0.4964 0.031,-0.9912 0.07,-1.4863 0.192,-2.3898 0.5257,-4.7867 0.4179,-7.1875 -0.01,-0.098 -0.039,-0.727 -0.123,-0.8926 -0.4889,-0.9637 -2.7179,-0.8064 -3.5606,-0.9102 -0.6114,-0.011 -1.2227,-0.016 -1.834,-0.017 z" />
  </g>
</svg>
