<?xml version="1.0" encoding="UTF-8" standalone="no"?>
<!-- Created with Inkscape (http://www.inkscape.org/) -->

<svg
   width="12.68738mm"
   height="15.98173mm"
   viewBox="0 0 47.95232 60.40337"
   version="1.1"
   id="svg5"
   xmlns="http://www.w3.org/2000/svg"
   xmlns:svg="http://www.w3.org/2000/svg">
  <defs
     id="defs2" />
  <g
     id="layer1"
     transform="translate(-468.2798,-200.1637)">
    <path
       id="path3"
       style="fill:#aa1111;stroke-width:2.26771;stroke-linecap:round;stroke-linejoin:round;paint-order:fill markers stroke"
       d="m 492.3647,200.1639 c -4.1606,-0.019 -8.3384,1.123 -11.9922,3.5371 -8.3513,5.518 -13.9682,17.6757 -11.5117,30.4141 2.4564,12.7386 12.9869,26.0584 23.17,26.4433 10.1831,0.385 20.0172,-12.1657 23.1035,-24.3437 3.0863,-12.1781 -0.5771,-23.984 -7.9512,-30.4473 -4.1479,-3.6356 -9.4691,-5.5793 -14.8184,-5.6035 z m 0.2168,12.6152 c 0.9436,-0.048 1.9216,0.5698 1.9903,1.9043 0.106,1.674 0.083,3.3491 0.012,5.0235 -0.1153,2.67 -3.8908,2.5079 -3.7754,-0.1621 0.068,-1.5555 0.087,-3.1131 -0.012,-4.668 v 0 c -0.069,-1.3345 0.8396,-2.0491 1.7832,-2.0977 z m -7.2324,0.9942 c 0.8267,-0.019 1.6672,0.4812 1.9003,1.6269 0.4086,1.5426 0.8224,3.0836 1.2051,4.6329 0.6408,2.5946 -3.029,3.5006 -3.6698,0.9061 -0.3952,-1.5998 -0.8296,-3.1887 -1.2384,-4.785 -0.2998,-1.4732 0.7399,-2.3563 1.8028,-2.3809 z m 15.2968,1.0918 c 1.1823,0.054 2.2909,1.2136 1.631,2.7479 -0.5276,1.2279 -1.065,2.4523 -1.5099,3.713 -0.8952,2.518 -4.4558,1.2525 -3.5605,-1.2656 0.4779,-1.3355 1.0326,-2.6407 1.5977,-3.9414 0.396,-0.9206 1.1325,-1.2862 1.8417,-1.2539 z m -9.5878,9.4335 c 0.1619,0 0.3232,0.014 0.4844,0.031 0.5433,0.059 1.0749,0.2115 1.5957,0.377 0.551,0.175 1.0814,0.4029 1.5878,0.6758 0.5999,-0.6453 1.6219,-0.8977 2.6114,-0.1407 2.2369,1.7771 1.1788,0.7604 3.1309,3.086 1.0098,1.9016 1.4413,2.4182 1.9336,4.5663 0.5648,2.4649 0.4742,5.0731 -0.4942,7.4318 -0.3091,0.7524 -0.7867,1.4245 -1.1796,2.1367 -1.3982,1.4986 -1.6606,2.0124 -3.4883,3.0292 -2.09,1.1628 -4.5492,1.6698 -6.9298,1.3945 -0.8066,-0.093 -1.5834,-0.3624 -2.3749,-0.543 -1.8205,-0.9287 -2.4555,-1.0549 -3.8888,-2.58 -1.7086,-1.8182 -2.6276,-4.1461 -2.8632,-6.6114 -0.077,-0.8515 0,-1.7111 0,-2.5663 0.1578,-0.8644 0.2332,-1.7485 0.4726,-2.5938 0.6703,-2.367 2.019,-4.6689 4.0255,-6.1464 1.4728,-1.0846 2.2095,-1.0935 3.916,-1.5157 0.4861,0 0.9752,-0.041 1.4609,-0.031 z m -0.5937,3.7247 c -0.2566,0.014 -0.5133,0.063 -0.7697,0.084 -0.934,0.3067 -1.3752,0.3532 -2.1542,1.0255 -1.1972,1.0331 -1.9812,2.6947 -2.3555,4.1972 -0.1533,0.6159 -0.1872,1.255 -0.2812,1.8827 0.019,0.6286 -0.019,1.2629 0.059,1.8868 0.2058,1.6453 0.8428,3.1843 2.0605,4.3341 0.9872,0.9322 1.3487,0.9709 2.5606,1.5097 0.4927,0.08 0.9783,0.2103 1.4766,0.2382 1.6197,0.092 3.2387,-0.2797 4.6229,-1.1327 1.2107,-0.7462 1.3375,-1.0599 2.2364,-2.1152 0.2119,-0.4507 0.4738,-0.8803 0.6348,-1.3517 0.7779,-2.2767 0.4597,-4.7309 -0.5235,-6.8906 -0.2466,-0.5414 -0.5857,-1.035 -0.8789,-1.5527 -0.1603,-0.1733 -0.2193,-0.243 -0.3281,-0.3633 -0.6903,0.5968 -1.7855,0.7271 -2.6758,-0.207 -0.9453,-0.8114 -2.1558,-1.4739 -3.4277,-1.5449 -0.086,0 -0.1705,0 -0.2558,0 z m -1.256,6.8105 c 0.5962,0.015 1.203,0.3271 1.6232,1.0488 0.3448,0.5655 0.9177,1.2815 1.6835,1.1114 0.1138,-0.025 0.2108,-0.1005 0.3165,-0.1504 0.4924,-0.4504 0.2163,-0.1941 0.8242,-0.7676 2.0505,-1.714 4.4762,1.1864 2.4257,2.9005 -1.6029,1.265 -0.7111,0.7129 -2.7089,1.6092 -0.5205,0.04 -1.04,0.1601 -1.5606,0.1211 -1.8506,-0.1385 -3.3318,-1.3981 -4.2461,-2.9237 -0.9243,-1.588 0.331,-2.9831 1.6425,-2.9493 z" />
  </g>
</svg>
