<?xml version="1.0" encoding="UTF-8" standalone="no"?>
<!-- Created with Inkscape (http://www.inkscape.org/) -->

<svg
   width="469.5238"
   height="69.21251"
   viewBox="0 0 469.5238 69.21251"
   version="1.1"
   id="svg5"
   xml:space="preserve"
   xmlns="http://www.w3.org/2000/svg"
   xmlns:svg="http://www.w3.org/2000/svg"><defs
     id="defs2" /><g
     id="layer1"
     transform="translate(-38.01375,-1405.373)"><path
       style="font-variation-settings:'wght' 401;opacity:1;fill:#ccccff;stroke-width:3.81169;stroke-linecap:round;stroke-linejoin:round;paint-order:fill markers stroke"
       d="m 47.31604,1429.324 c 2.31142,-11.003 7.2308,-16.937 44.59568,-19.722 37.36488,-2.784 107.14978,-2.396 168.54378,-2.061 61.394,0.335 114.3944,0.616 153.1732,0.931 38.7787,0.315 63.3334,0.663 76.137,9.47 12.8036,8.807 13.817,25.464 2.6902,34.552 -11.1267,9.088 -30.5007,9.339 -112.2499,8.856 -81.7491,-0.483 -191.5141,-1.505 -257.9633,0.201 -66.44927,1.706 -71.46429,6.138 -76.57494,10.655 -0.33218,-15.969 -0.66315,-31.879 1.64828,-42.882 z"
       id="path2"
       transform="matrix(1.032588,0,0,1.066476,-8.899411,-95.48734)" /></g></svg>
