<?xml version="1.0" encoding="UTF-8" standalone="no"?>
<!-- Created with Inkscape (http://www.inkscape.org/) -->

<svg
   width="248.4787"
   height="96.46"
   viewBox="0 0 248.4787 96.46"
   version="1.1"
   id="svg5"
   xml:space="preserve"
   xmlns="http://www.w3.org/2000/svg"
   xmlns:svg="http://www.w3.org/2000/svg"><defs
     id="defs2" /><g
     id="layer1"
     transform="translate(-183.6761,-1130.732)"><path
       style="font-variation-settings:'wght' 401;opacity:1;fill:#ccccff;stroke-width:4;stroke-linecap:round;stroke-linejoin:round;paint-order:fill markers stroke"
       d="m 201.2967,1169.315 -5.2169,-23.884 27.3801,5.417 11.8711,-19.399 18.2409,18.972 19.2618,-19.689 15.2157,20.338 21.4323,-20.253 14.4735,22.174 21.9508,-20.237 13.0783,18.06 25.164,-16.086 6.9657,19.769 23.0315,-11.997 -0.5771,24.732 18.5864,18.188 -21.6966,6.921 -2.3046,25.446 -20.6265,-15.831 -12.2098,19.071 -16.2762,-17.577 -15.048,18.724 -13.3855,-17.498 -20.1636,22.516 -14.0594,-22.433 -15.752,20.642 -14.0631,-20.93 -17.4016,21.976 -15.057,-16.423 -27.8217,17.12 2.3363,-27.968 -24.9494,-11.843 z"
       id="path3" /></g></svg>
