<?xml version="1.0" encoding="UTF-8" standalone="no"?>
<!-- Created with Inkscape (http://www.inkscape.org/) -->

<svg
   width="11.615926mm"
   height="12.008117mm"
   viewBox="0 0 43.902712 45.385008"
   version="1.1"
   id="svg5"
   xmlns="http://www.w3.org/2000/svg"
   xmlns:svg="http://www.w3.org/2000/svg">
  <defs
     id="defs2" />
  <g
     id="layer1"
     transform="translate(-320.37009,-546.01129)">
    <path
       id="path25"
       style="fill:#114444;stroke:none;stroke-width:0.910023px;stroke-linecap:butt;stroke-linejoin:miter;stroke-opacity:1"
       d="m 360.66753,568.06912 c 0.0105,-1.23191 -0.0785,-2.43836 -0.25476,-3.59446 -0.94017,-6.16587 -4.36668,-10.91692 -9.33849,-12.86228 -4.97182,-1.94536 -11.4884,-1.08492 -17.94435,2.41738 -6.45594,3.50228 -12.85054,9.64591 -13.67117,16.99598 -0.82063,7.35008 3.93201,15.90555 11.32818,18.56914 7.39617,2.6636 17.43478,-0.56431 23.22724,-5.96905 4.70636,-4.39134 6.60933,-10.21845 6.65335,-15.55671 z m -11.34978,5.82881 c 0.004,1.10558 -0.25501,2.20512 -0.73762,3.20108 -0.17963,0.37071 -0.42799,0.70535 -0.64163,1.05755 -0.80776,0.92983 -0.91596,1.21463 -2.01378,1.83427 -0.93813,0.52949 -2.28641,0.76541 -3.35038,0.76605 -0.36065,2.1e-4 -0.7178,-0.063 -1.0771,-0.0942 -1.10516,-0.21826 -1.44241,-0.23091 -2.51501,-0.67541 -0.41819,-0.1733 -0.82115,-0.38424 -1.21573,-0.60609 -1.39,-0.78152 -2.65487,-1.76242 -3.78406,-2.88648 -0.36393,-0.39573 -0.74045,-0.77994 -1.09132,-1.1873 -1.01378,-1.17695 -1.85362,-2.48512 -2.75673,-3.74495 -0.97545,-1.62575 0.60176,-3.06007 1.93735,-2.62521 0.27638,-0.6374 0.48269,-1.11473 0.89936,-1.84137 0.93085,-1.6233 2.1196,-3.09235 3.52457,-4.32795 0.89357,-0.70902 1.31961,-1.12113 2.35148,-1.6423 1.24331,-0.62794 2.812,-0.99587 4.20708,-0.85848 0.50905,0.0501 0.99665,0.23218 1.49479,0.34837 1.05027,0.55659 1.36916,0.62738 2.2324,1.48234 0.58017,0.57461 1.14023,1.41555 1.45568,2.16486 0.16308,0.38733 0.2673,0.79771 0.35548,1.20862 0.0682,0.31922 0.0735,0.64967 0.11019,0.97401 0.0324,0.74458 0.0777,1.20705 0.0107,1.95335 -0.0528,0.58741 -0.19767,1.15669 -0.39636,1.70807 0.15107,0.29539 0.16806,0.33975 0.48878,1.1162 0.25444,0.8531 0.42779,1.27893 0.49412,2.20041 0.0114,0.15785 0.0172,0.31663 0.0178,0.47456 z m -3.42503,0.0338 c 1.9e-4,-0.16344 -0.01,-0.32628 -0.032,-0.48345 -0.0601,-0.42492 -0.20557,-0.80064 -0.33948,-1.20507 -0.27871,-0.62787 -0.13407,-0.33044 -0.43191,-0.89403 -0.10285,-0.19959 -0.16962,-0.3941 -0.20617,-0.58121 -0.18915,-0.43647 -0.19576,-0.97842 0.10486,-1.5641 0.0997,-0.29363 0.22122,-0.58188 0.27727,-0.88869 0.10193,-0.55773 0.0314,-1.14698 0.002,-1.7063 -0.0308,-0.71673 -0.18711,-1.21298 -0.6363,-1.7685 -0.14584,-0.18038 -0.29447,-0.36116 -0.46923,-0.51367 -0.39406,-0.34385 -0.67781,-0.42533 -1.14998,-0.63452 -0.19775,-0.015 -0.39549,-0.0544 -0.59364,-0.0462 -0.72756,0.0308 -1.60502,0.29418 -2.23596,0.65053 -0.58601,0.33097 -1.00881,0.72022 -1.52855,1.14819 -1.1101,0.9959 -2.03862,2.18155 -2.77095,3.48013 -0.35852,0.63572 -0.54854,1.12352 -0.83538,1.78805 -0.17354,0.39836 -0.41632,0.67983 -0.69318,0.86381 0.38536,0.54006 0.7808,1.07249 1.21751,1.57477 0.30115,0.34637 0.62416,0.67165 0.93669,1.00778 0.91526,0.89708 1.93951,1.67788 3.06422,2.29461 0.30086,0.16498 0.60863,0.32195 0.92779,0.4479 0.6145,0.24251 0.98693,0.27242 1.62631,0.38036 0.23855,0.0154 0.47738,0.0535 0.71629,0.0462 0.47684,-0.0152 1.32927,-0.22603 1.72585,-0.49945 0.29041,-0.20022 0.51166,-0.57352 0.70562,-0.84782 0.11172,-0.20522 0.24351,-0.3996 0.33415,-0.61497 0.18464,-0.43948 0.28381,-0.94404 0.28438,-1.43435 z"
       transform="matrix(0,-1.098873,1.098873,0,-284.66264,942.34001)" />
  </g>
</svg>
