<?xml version="1.0" encoding="UTF-8" standalone="no"?>
<!-- Created with Inkscape (http://www.inkscape.org/) -->

<svg
   width="11.951676mm"
   height="13.123198mm"
   viewBox="0 0 45.17169 49.599487"
   version="1.1"
   id="svg5"
   xmlns="http://www.w3.org/2000/svg"
   xmlns:svg="http://www.w3.org/2000/svg">
  <defs
     id="defs2" />
  <g
     id="layer1"
     transform="translate(-391.61905,-130.62431)">
    <path
       id="path353"
       style="fill:#aa1111;stroke-width:2.26772;stroke-linecap:round;stroke-linejoin:round;paint-order:fill markers stroke"
       d="m 412.297,130.6335 c -7.1895,0.2231 -13.6768,4.7194 -17.3379,12.1016 -3.9051,7.8743 -4.5942,19.0315 -0.9551,26.3574 3.6391,7.3259 11.6056,10.8187 19.5449,11.1113 7.9395,0.2927 15.8511,-2.6149 19.9708,-9.5644 4.1197,-6.9495 4.4482,-17.9403 0.414,-26.1074 -4.034,-8.1672 -12.4307,-13.5105 -20.1894,-13.8868 -0.4849,-0.023 -0.968,-0.027 -1.4473,-0.012 z m 1.2813,10.1387 c 0.9428,0.062 1.8418,0.7917 1.7539,2.1249 0.024,1.2675 0.1357,2.5323 0.2207,3.797 0.014,0.2057 0.03,0.4115 0.045,0.6172 0.1916,2.6656 -3.5778,2.937 -3.7696,0.2714 -0.015,-0.2116 -0.032,-0.4249 -0.047,-0.6367 -0.096,-1.431 -0.2367,-2.8637 -0.2227,-4.2988 v 0 c 0.088,-1.3334 1.0747,-1.9373 2.0176,-1.875 z m 7.5254,0.4492 c 1.0607,0.071 2.0606,0.9963 1.6972,2.4551 -0.4769,1.6955 -1.0069,3.3754 -1.4218,5.0879 -0.6316,2.5968 -4.3054,1.7042 -3.6738,-0.8926 0.4193,-1.7186 0.9405,-3.4081 1.4296,-5.1074 0.2827,-1.1345 1.1437,-1.5979 1.9688,-1.543 z m -14.5508,0.8614 c 0.7101,-0.01 1.4312,0.3856 1.793,1.3203 0.4517,1.2394 0.8931,2.4835 1.3769,3.7108 0.2152,0.497 0.1109,0.2755 0.3007,0.6661 1.156,2.4096 -2.2502,4.0443 -3.4062,1.6347 -0.2699,-0.5672 -0.132,-0.2624 -0.4121,-0.916 -0.4856,-1.2344 -0.9333,-2.4831 -1.3847,-3.7305 -0.603,-1.5575 0.5491,-2.6751 1.7324,-2.6854 z m 9.164,10.4824 c 1.9689,0.1094 3.7989,0.455 5.0411,2.1602 0.6803,0.9339 0.7905,1.6992 1.0898,2.7773 0.4844,2.7199 0.4299,5.4945 0.4199,8.246 0.011,0.8799 -0.019,1.759 0,2.6388 0.038,2.0186 -2.1095,2.5533 -3.1836,1.5409 -1.0682,0.023 -2.1369,0.036 -3.205,0.068 -2.7227,0.092 -5.4445,0.2289 -8.1681,0.2949 -0.029,6e-4 -0.057,0 -0.086,0 -1.0112,0.084 -2.0858,-0.5967 -2.0546,-2.0313 0.018,-0.4007 -0.018,-0.8258 -0.031,-1.2226 -0.04,-1.2274 -0.07,-2.4538 -0.082,-3.6817 -0.021,-2.4613 -0.012,-4.9238 -0.055,-7.3848 -0.064,-1.5822 1.2338,-2.2727 2.3262,-2.0234 2.0825,-0.7283 4.2636,-1.2001 6.4668,-1.3437 0.5059,-0.037 1.0147,-0.024 1.5214,-0.037 z m 0.078,3.7792 c -0.4066,0.01 -0.8129,0 -1.2187,0.02 -1.8304,0.1076 -3.645,0.4863 -5.381,1.0722 0.021,1.9615 0.024,3.9234 0.041,5.8848 -0.023,1.047 0.035,2.0939 0.076,3.1407 2.1458,-0.072 4.2915,-0.1692 6.4375,-0.2423 0.9119,-0.028 1.8241,-0.041 2.7362,-0.059 8e-4,-0.1413 0,-0.2826 0,-0.4239 0.01,-2.4326 0.058,-4.88 -0.3007,-7.2929 -0.2896,-1.3096 -0.06,-0.3381 -0.3028,-1.2656 -0.022,-0.084 -0.01,-0.186 -0.062,-0.254 -0.4462,-0.5625 -1.4291,-0.4757 -2.0273,-0.5801 z" />
  </g>
</svg>
