<?xml version="1.0" encoding="UTF-8" standalone="no"?>
<!-- Created with Inkscape (http://www.inkscape.org/) -->

<svg
   width="11.919613mm"
   height="14.84236mm"
   viewBox="0 0 45.050505 56.097107"
   version="1.1"
   id="svg5"
   xmlns="http://www.w3.org/2000/svg"
   xmlns:svg="http://www.w3.org/2000/svg">
  <defs
     id="defs2" />
  <g
     id="layer1"
     transform="translate(-401.9584,-198.17543)">
    <path
       id="path2"
       style="fill:#665500;stroke-width:2.26774;stroke-linecap:round;stroke-linejoin:round;paint-order:fill markers stroke"
       d="m 421.8308,198.1766 c -0.7988,-0.01 -1.5837,0.044 -2.3517,0.1621 -8.1912,1.2592 -14.2997,9.8405 -16.5742,20.9121 -2.2743,11.0715 -0.7157,24.6337 7.5938,30.9239 8.3094,6.29 23.368,5.3078 30.7793,-2.7324 7.4114,-8.0404 7.1749,-23.1383 1.9199,-33.7189 -4.7624,-9.5885 -13.6465,-15.4662 -21.3671,-15.5468 z m 0.5858,12.6699 c 0.9442,-0.038 1.9134,0.5926 1.9669,1.9278 0.092,1.4897 0.089,3.0018 0.4336,4.4608 0.5776,2.6093 -3.1138,3.4278 -3.6914,0.8184 -0.06,-0.2834 -0.1317,-0.5658 -0.1797,-0.8516 -0.2376,-1.4113 -0.2479,-2.8507 -0.338,-4.2753 -0.053,-1.3353 0.8646,-2.0423 1.8086,-2.0801 z m 8.1329,1.1133 c 1.063,0.019 2.1092,0.8966 1.8164,2.3711 -0.3464,1.6096 -0.9836,3.136 -1.498,4.6953 -0.839,2.5375 -4.4268,1.35 -3.5879,-1.1876 0.4672,-1.4115 1.0374,-2.7938 1.3769,-4.244 0.2277,-1.1469 1.0658,-1.6499 1.8926,-1.6348 z m -15.7636,0.6308 c 0.7077,-0.057 1.4554,0.2829 1.8827,1.1894 0.6657,1.375 1.2208,2.8 1.875,4.1798 1.1424,2.4161 -2.2756,4.0313 -3.4179,1.6152 -0.6524,-1.3826 -1.2154,-2.8049 -1.8769,-4.1835 -0.7122,-1.511 0.3574,-2.7065 1.5371,-2.8009 z m 8.7558,10.1797 c 0.171,0 0.3407,-0.01 0.5116,0 2.2591,0.1198 4.3267,1.1413 6.1817,2.3554 0.5591,0.4151 0.8139,0.9282 0.8555,1.4317 0.099,0.082 0.1973,0.1722 0.2911,0.2792 1.9709,2.2938 1.0441,1.0425 2.7401,3.7852 0.704,2.0965 1.2136,2.849 0.9317,5.1406 -0.324,2.6291 -2.0366,4.9725 -4.2266,6.3809 -0.761,0.4897 -1.639,0.7654 -2.4589,1.1484 -2.3751,0.47 -3.2461,0.8889 -5.7051,0.3653 -3.003,-0.6394 -5.4738,-2.5775 -6.9727,-5.2383 -0.504,-0.8933 -0.7606,-1.9033 -1.1406,-2.8555 -0.091,-0.9805 -0.3015,-1.9591 -0.2715,-2.9433 0.122,-3.789 2.0001,-7.2764 5.4551,-8.9941 0.714,-0.3552 1.5135,-0.508 2.2696,-0.7618 0.5129,-0.023 1.0259,-0.084 1.539,-0.098 z m -0.043,3.7422 c -0.417,0 -0.8311,0.085 -1.2461,0.127 -0.4001,0.1772 -0.8262,0.3031 -1.1992,0.5312 -2.1451,1.3098 -3.0713,3.4957 -3.0312,5.9649 0.012,0.6764 0.1832,1.3396 0.2831,2.0097 0.285,0.5944 0.4955,1.2307 0.8555,1.7832 1.096,1.6838 2.6783,2.8772 4.6973,3.1465 1.619,0.2161 2.1523,-0.078 3.6952,-0.4707 0.5361,-0.2833 1.1154,-0.4947 1.6075,-0.8495 1.24,-0.8963 2.1982,-2.393 2.2383,-3.9552 0.029,-1.146 -0.3992,-1.8466 -0.8281,-2.8749 -1.247,-1.8245 -0.5673,-0.9616 -2.0333,-2.5938 -0.3324,-0.3796 -0.5004,-0.776 -0.5429,-1.1563 0,0 -0.01,-0.01 -0.014,-0.01 -1.358,-0.848 -2.8365,-1.6334 -4.4825,-1.6524 z m -1.9375,5.5918 c 0.7085,-0.047 1.4509,0.3043 1.8652,1.2168 0.564,0.7751 1.1039,0.7123 1.9258,0.3926 0.546,-0.4149 0.2679,-0.1869 0.834,-0.6914 2.0804,-1.6776 4.4516,1.2638 2.3711,2.9414 -1.3984,1.075 -0.6203,0.582 -2.3574,1.4317 -0.4862,0.088 -0.9655,0.2436 -1.459,0.2656 -2.0985,0.093 -3.7632,-1.0008 -4.7558,-2.7773 -0.6906,-1.521 0.3952,-2.7019 1.5761,-2.7794 z" />
  </g>
</svg>
