<?xml version="1.0" encoding="UTF-8" standalone="no"?>
<!-- Created with Inkscape (http://www.inkscape.org/) -->

<svg
   width="15.15174mm"
   height="8.087175mm"
   viewBox="0 0 15.15174 8.087175"
   version="1.1"
   id="svg5"
   xml:space="preserve"
   xmlns="http://www.w3.org/2000/svg"
   xmlns:svg="http://www.w3.org/2000/svg"><defs
     id="defs2" /><g
     id="layer1"
     transform="translate(-355.1484,-365.7758)"><path
       style="fill:#ccaa33;fill-opacity:1;stroke-width:10.8862;stroke-linecap:round;stroke-linejoin:round;-inkscape-stroke:none;paint-order:markers stroke fill"
       d="m 342.1695,379.571 c 10.2212,2.5654 18.6781,7.0108 21.3805,13.9057 2.7024,6.8949 -0.3498,16.2392 -4.4171,21.778 -4.0673,5.5388 -9.1499,7.2721 -15.6979,7.1638 -6.5481,-0.1084 -14.5618,-2.0585 -24.2114,-2.3552 -9.6495,-0.2968 -20.9348,1.0598 -27.644,-4.1926 -6.7091,-5.2525 -8.8422,-17.114 -5.3465,-24.9215 3.4956,-7.8075 12.6197,-11.5607 23.1746,-13.0948 10.5549,-1.534 22.5405,-0.8488 32.7618,1.7166 z"
       id="path77"
       transform="matrix(-0.1893911,0,0,0.1782153,424.1955,298.5807)" /></g></svg>
