<?xml version="1.0" encoding="UTF-8" standalone="no"?>
<!-- Created with Inkscape (http://www.inkscape.org/) -->

<svg
   width="19.53253mm"
   height="9.130012mm"
   viewBox="0 0 19.53253 9.130012"
   version="1.1"
   id="svg5"
   xml:space="preserve"
   xmlns="http://www.w3.org/2000/svg"
   xmlns:svg="http://www.w3.org/2000/svg"><defs
     id="defs2" /><g
     id="layer1"
     transform="translate(-318.2327,-364.858)"><path
       style="fill:#ccaa33;fill-opacity:1;stroke-width:7.64533;stroke-linecap:round;stroke-linejoin:round;-inkscape-stroke:none;paint-order:markers stroke fill"
       d="m 308.5117,404.1954 c 0.01,-5.0945 0.031,-15.2836 4.9707,-20.8172 4.9391,-5.5337 14.7959,-6.4115 25.3761,-6.437 10.5802,-0.025 21.8827,0.8015 27.168,6.2753 5.2853,5.4737 4.5528,15.5937 1.2113,20.8107 -3.3414,5.217 -9.2917,5.5308 -18.5254,5.6289 -9.2338,0.098 -21.751,-0.02 -29.0734,2.3804 -7.3225,2.4002 -9.4502,7.3184 -10.4407,7.2802 -0.9905,-0.038 -0.8436,-5.0324 -0.7702,-7.5296 0.073,-2.4971 0.073,-2.4971 0.084,-7.5917 z"
       id="path21"
       transform="matrix(0.3176279,0,0,0.2154511,220.2843,283.6457)" /></g></svg>
