<?xml version="1.0" encoding="UTF-8" standalone="no"?>
<!-- Created with Inkscape (http://www.inkscape.org/) -->

<svg
   width="11.79813mm"
   height="7.49337mm"
   viewBox="0 0 11.79813 7.49337"
   version="1.1"
   id="svg5"
   xml:space="preserve"
   xmlns="http://www.w3.org/2000/svg"
   xmlns:svg="http://www.w3.org/2000/svg"><defs
     id="defs2" /><g
     id="layer1"
     transform="translate(-303.9134,-366.2945)"><path
       style="fill:#ccaa33;fill-opacity:1;stroke-width:10.8862;stroke-linecap:round;stroke-linejoin:round;-inkscape-stroke:none;paint-order:markers stroke fill"
       d="m 350.3024,378.306 c 11.5195,3.5537 14.8705,12.2905 15.1501,19.947 0.2795,7.6565 -2.5124,14.2317 -7.6666,17.3391 -5.1542,3.1073 -12.6706,2.7467 -20.2879,1.1564 -7.6173,-1.5903 -15.3355,-4.4103 -20.2585,-3.3611 -4.923,1.0491 -7.0507,5.9673 -9.4764,4.5486 -2.4257,-1.4187 -5.1491,-9.1736 -4.4851,-17.0581 0.6641,-7.8846 4.7158,-15.8984 14.4792,-20.5458 9.7634,-4.6474 21.0256,-5.5797 32.5452,-2.0261 z"
       id="path50"
       transform="matrix(-0.1893911,0,0,0.1782153,373.1305,299.2599)" /></g></svg>
