<?xml version="1.0" encoding="UTF-8" standalone="no"?>
<!-- Created with Inkscape (http://www.inkscape.org/) -->

<svg
   width="12.55518mm"
   height="7.114399mm"
   viewBox="0 0 12.55518 7.114399"
   version="1.1"
   id="svg5"
   xml:space="preserve"
   xmlns="http://www.w3.org/2000/svg"
   xmlns:svg="http://www.w3.org/2000/svg"><defs
     id="defs2" /><g
     id="layer1"
     transform="translate(-339.9143,-366.3091)"><path
       style="fill:#ccaa33;fill-opacity:1;stroke-width:8;stroke-linecap:round;stroke-linejoin:round;-inkscape-stroke:none;paint-order:markers stroke fill"
       d="m 311.9602,402.4055 c 5.3127,-1.3056 14.1162,-1.7936 20.6624,-1.4769 6.5462,0.3168 10.8348,1.4383 13.8936,3.9669 3.0588,2.5287 4.8874,6.4642 2.4242,10.3747 -2.4632,3.9105 -9.2181,7.7959 -16.6693,10.4159 -7.4512,2.62 -15.5985,3.9746 -21.5307,3.5199 -5.9322,-0.4546 -9.6491,-2.7184 -10.6429,-6.4755 -0.9939,-3.7571 1.4404,-11.1482 3.0844,-14.0221 1.6439,-2.874 3.4657,-4.9973 8.7783,-6.3029 z"
       id="path88"
       transform="matrix(0.25,0,0,0.25,264.9477,266.1003)" /></g></svg>
