<?xml version="1.0" encoding="UTF-8" standalone="no"?>
<!-- Created with Inkscape (http://www.inkscape.org/) -->

<svg
   width="11.88466mm"
   height="6.811833mm"
   viewBox="0 0 11.88466 6.811833"
   version="1.1"
   id="svg5"
   xml:space="preserve"
   xmlns="http://www.w3.org/2000/svg"
   xmlns:svg="http://www.w3.org/2000/svg"><defs
     id="defs2" /><g
     id="layer1"
     transform="translate(-302.1154,-375.8128)"><path
       style="fill:#ccaa33;fill-opacity:1;stroke-width:12.3403;stroke-linecap:round;stroke-linejoin:round;-inkscape-stroke:none;paint-order:markers stroke fill"
       d="m 354.2266,381.7392 c 11.6017,4.7455 13.4969,10.8743 13.06,18.7851 -0.437,7.9108 -3.9151,15.3109 -12.706,18.7136 -8.7908,3.4026 -22.8943,2.8078 -31.7205,0.4768 -8.8262,-2.331 -12.375,-6.3981 -16.8283,-9.6834 -4.4532,-3.2854 -9.8107,-5.789 -9.8229,-8.4559 -0.012,-2.6668 5.3208,-5.4964 9.4458,-9.3437 4.1249,-3.8473 7.0414,-8.7121 16.3168,-11.6252 9.2753,-2.9131 20.6533,-3.6128 32.2551,1.1327 z"
       id="path39"
       transform="matrix(-0.1670741,0,0,0.1572153,363.4889,316.3385)" /></g></svg>
