<?xml version="1.0" encoding="UTF-8" standalone="no"?>
<!-- Created with Inkscape (http://www.inkscape.org/) -->

<svg
   width="21.30312mm"
   height="7.110148mm"
   viewBox="0 0 21.30312 7.110148"
   version="1.1"
   id="svg5"
   xml:space="preserve"
   xmlns="http://www.w3.org/2000/svg"
   xmlns:svg="http://www.w3.org/2000/svg"><defs
     id="defs2" /><g
     id="layer1"
     transform="translate(-329.3541,-385.006)"><path
       style="fill:#ccaa33;fill-opacity:1;stroke-width:1.88628;stroke-linecap:round;stroke-linejoin:round;-inkscape-stroke:none;paint-order:markers stroke fill"
       d="m 320.8341,397.5791 c 1.1343,0.6713 3.373,0.7339 5.3781,0.4766 2.0051,-0.2573 3.7765,-0.8345 5.0969,-0.7315 1.3204,0.1031 2.1897,0.8863 3.475,1.0012 1.2852,0.1149 2.986,-0.4386 3.8249,-1.4524 0.839,-1.0138 0.8156,-2.4876 0.2894,-3.5738 -0.5263,-1.0862 -1.5551,-1.784 -2.7266,-1.8711 -1.1714,-0.087 -2.4845,0.4369 -3.641,0.5046 -1.1566,0.068 -2.1561,-0.3205 -3.9467,-0.4574 -1.7906,-0.1369 -4.3716,-0.022 -5.9935,0.5293 -1.6219,0.5515 -2.3376,1.6197 -2.6291,2.6215 -0.2914,1.0018 -0.2617,2.2817 0.8726,2.953 z"
       id="path96"
       transform="matrix(1.094459,0,0,1.027186,-20.66044,-17.05346)" /></g></svg>
