<?xml version="1.0" encoding="UTF-8" standalone="no"?>
<!-- Created with Inkscape (http://www.inkscape.org/) -->

<svg
   width="19.4705mm"
   height="6.767009mm"
   viewBox="0 0 19.4705 6.767009"
   version="1.1"
   id="svg5"
   xml:space="preserve"
   xmlns="http://www.w3.org/2000/svg"
   xmlns:svg="http://www.w3.org/2000/svg"><defs
     id="defs2" /><g
     id="layer1"
     transform="translate(-370.2142,-384.3311)"><path
       style="opacity:0.77;fill:#00ff00;stroke:none;stroke-width:2.27136;stroke-linecap:butt;stroke-linejoin:round;stroke-dasharray:none;paint-order:markers stroke fill"
       d="m 298.7171,392.6711 c 1.3617,-0.6246 2.8293,-0.4408 4.4156,-0.27 1.5862,0.1708 3.2903,0.3285 5.0677,0.3319 1.7774,0 3.628,-0.1477 4.7879,0.4553 1.1599,0.6029 1.6288,1.9596 1.3827,3.0539 -0.246,1.0942 -1.2068,1.9257 -2.6297,2.1899 -1.4229,0.2641 -3.3073,-0.039 -5.6444,-0.01 -2.3371,0.034 -5.1257,0.4039 -7.0764,0.082 -1.9507,-0.3215 -3.0624,-1.3344 -2.9909,-2.5578 0.071,-1.2234 1.3258,-2.6551 2.6875,-3.2798 z"
       id="path79"
       transform="matrix(1.057702,0,0,1.057702,57.10656,-30.53865)" /></g></svg>
