<?xml version="1.0" encoding="UTF-8" standalone="no"?>
<!-- Created with Inkscape (http://www.inkscape.org/) -->

<svg
   width="14.72932mm"
   height="6.605403mm"
   viewBox="0 0 14.72932 6.605403"
   version="1.1"
   id="svg5"
   xml:space="preserve"
   xmlns="http://www.w3.org/2000/svg"
   xmlns:svg="http://www.w3.org/2000/svg"><defs
     id="defs2" /><g
     id="layer1"
     transform="translate(-353.0347,-384.9783)"><path
       style="fill:#aa1111;fill-opacity:1;stroke-width:1.78445;stroke-linecap:round;stroke-linejoin:round;-inkscape-stroke:none;paint-order:markers stroke fill"
       d="m 340.3875,392.762 c -0.1173,0.6165 -0.3521,1.8497 0.1668,2.7609 0.519,0.9111 1.7915,1.5004 4.1759,1.744 2.3843,0.2436 5.8802,0.1414 7.4664,-0.5858 1.5861,-0.7272 1.2625,-2.0794 0.788,-3.0548 -0.4744,-0.9754 -1.0997,-1.5742 -2.5267,-1.8751 -1.427,-0.3009 -3.6556,-0.3043 -5.4481,-0.1891 -1.7926,0.1152 -3.1486,0.3489 -3.8267,0.4657 -0.6782,0.1169 -0.6782,0.1177 -0.7956,0.7342 z"
       id="path93"
       transform="matrix(1.120798,0,0,1.120798,-28.29625,-53.80512)" /></g></svg>
