<?xml version="1.0" encoding="UTF-8" standalone="no"?>
<!-- Created with Inkscape (http://www.inkscape.org/) -->

<svg
   width="19.35773mm"
   height="7.502075mm"
   viewBox="0 0 19.35773 7.502075"
   version="1.1"
   id="svg5"
   xml:space="preserve"
   xmlns="http://www.w3.org/2000/svg"
   xmlns:svg="http://www.w3.org/2000/svg"><defs
     id="defs2" /><g
     id="layer1"
     transform="translate(-294.7793,-391.1023)"><path
       style="fill:#ccaa33;fill-opacity:1;stroke-width:8.29755;stroke-linecap:round;stroke-linejoin:round;-inkscape-stroke:none;paint-order:markers stroke fill"
       d="m 365.5477,389.1293 c 3.2566,6.3894 2.5127,15.885 -3.0907,21.1527 -5.6034,5.2676 -16.0662,6.307 -24.8782,5.475 -8.8121,-0.832 -15.9733,-3.5353 -20.7967,-2.743 -4.8233,0.7923 -7.3088,5.0802 -9.653,3.4151 -2.3443,-1.665 -4.5468,-9.2826 -4.5776,-16.3046 -0.031,-7.0219 2.1104,-13.4477 9.5261,-17.5588 7.4156,-4.1111 14.0704,-5.0531 29.5015,-3.6337 15.4311,1.4194 20.712,3.808 23.9686,10.1973 z"
       id="path86"
       transform="matrix(-0.2981306,0,0,0.1948725,404.3368,317.3796)" /></g></svg>
