<?xml version="1.0" encoding="UTF-8" standalone="no"?>
<!-- Created with Inkscape (http://www.inkscape.org/) -->

<svg
   width="11.73319mm"
   height="7.742716mm"
   viewBox="0 0 11.73319 7.742716"
   version="1.1"
   id="svg5"
   xml:space="preserve"
   xmlns="http://www.w3.org/2000/svg"
   xmlns:svg="http://www.w3.org/2000/svg"><defs
     id="defs2" /><g
     id="layer1"
     transform="translate(-347.8421,-375.5471)"><path
       style="fill:#ccaa33;fill-opacity:1;stroke-width:1.80998;stroke-linecap:round;stroke-linejoin:round;-inkscape-stroke:none;paint-order:markers stroke fill"
       d="m 324.6422,392.628 c 0.8394,-0.2513 2.5182,-0.7538 4.2173,-0.838 1.6991,-0.084 3.4179,0.2499 5.1369,0.5841 -0.01,1.3869 -0.012,2.7737 -0.5848,3.8149 -0.5728,1.0412 -1.7122,1.7366 -3.1895,2.1588 -1.4773,0.4221 -3.2918,0.5709 -4.5617,0.2986 -1.27,-0.2723 -1.9947,-0.9658 -2.2134,-1.9971 -0.2188,-1.0314 0.068,-2.4006 0.2121,-3.0853 0.1437,-0.6848 0.1438,-0.6848 0.9831,-0.936 z"
       id="path91"
       transform="matrix(1.104988,0,0,1.104988,-9.486677,-57.36168)" /></g></svg>
