<?xml version="1.0" encoding="UTF-8" standalone="no"?>
<!-- Created with Inkscape (http://www.inkscape.org/) -->

<svg
   width="11.69739mm"
   height="8.243115mm"
   viewBox="0 0 11.69739 8.243115"
   version="1.1"
   id="svg5"
   xml:space="preserve"
   xmlns="http://www.w3.org/2000/svg"
   xmlns:svg="http://www.w3.org/2000/svg"><defs
     id="defs2" /><g
     id="layer1"
     transform="translate(-376.8855,-125.6618)"><g
       id="g258"
       transform="translate(42.33335)"><path
         style="fill:#114444;stroke-width:0.39963;stroke-linecap:round;stroke-linejoin:round;paint-order:markers stroke fill"
         d="m 341.9589,127.3986 c 1.2732,0.1757 2.3329,-0.3843 2.8314,0.5546 0.4985,0.9389 0.4357,3.3765 -0.2112,4.3329 -0.6469,0.9563 -1.8776,0.431 -3.0728,0.2767 -1.1952,-0.1544 -2.3545,0.062 -3.3485,-0.1967 -0.9941,-0.2589 -1.8228,-0.9935 -1.8693,-2.2338 -0.046,-1.2403 0.6894,-2.9861 1.8004,-3.4034 1.111,-0.4173 2.5968,0.4939 3.87,0.6697 z"
         id="path251"
         transform="matrix(1.324146,0,0,1.324146,-110.7402,-42.00235)" /><g
         id="g257"
         transform="matrix(0.8629782,0,0,0.8629782,44.85886,7.607184)"
         style="stroke:#ffffff;stroke-width:1.15878"><path
           style="color:#000000;fill:#ffffff;stroke:none;stroke-linecap:round;stroke-linejoin:round;-inkscape-stroke:none;paint-order:markers stroke fill"
           d="m 340.9785,140.6875 c -0.3392,-0.013 -0.6299,0.1361 -0.8691,0.3184 -0.2421,0.1847 -0.4897,0.4371 -0.6426,0.7382 -0.1539,0.3035 -0.2039,0.6504 -0.1231,0.9688 0.077,0.3015 0.2566,0.5709 0.4981,0.7695 0.2425,0.1995 0.5359,0.3101 0.8301,0.3477 0.295,0.038 0.6018,0.01 0.873,-0.1289 0.2784,-0.1408 0.478,-0.3839 0.5996,-0.6504 0.1183,-0.2597 0.1789,-0.5495 0.1777,-0.8125 0,-0.01 -0.01,-0.017 -0.01,-0.027 a 0.306593,0.306593 0 0 0 0.051,-0.3027 c -0.095,-0.256 -0.1954,-0.6147 -0.4824,-0.8672 -0.104,-0.091 -0.2543,-0.091 -0.3808,-0.1484 -0.023,-0.019 -0.052,-0.046 -0.072,-0.061 -0.04,-0.029 -0.09,-0.054 -0.1035,-0.06 a 0.306593,0.306593 0 0 0 -0.1426,0 c -0.074,-0.014 -0.1299,-0.078 -0.2051,-0.08 z m -0.022,0.6133 c 0.044,0 0.089,0.042 0.1407,0.055 0.015,0.012 0.024,0.019 0.059,0.051 0.1054,0.096 0.3072,0.293 0.4121,0.4375 0.1028,0.1419 0.1386,0.2528 0.1386,0.3946 9e-4,0.1519 -0.048,0.3912 -0.123,0.5567 -0.073,0.159 -0.1924,0.2928 -0.3164,0.3554 -0.1313,0.065 -0.3337,0.095 -0.5235,0.07 -0.1911,-0.024 -0.378,-0.1001 -0.5175,-0.2149 -0.1406,-0.1156 -0.2536,-0.292 -0.293,-0.4473 -0.035,-0.1384 -0.01,-0.3696 0.076,-0.539 v 0 c 0.087,-0.1716 0.2922,-0.393 0.4707,-0.5293 0.1807,-0.1376 0.3205,-0.1977 0.4746,-0.1914 z"
           id="path252"
           transform="translate(-0.6907449,0.0850667)" /><path
           style="color:#000000;fill:#ffffff;stroke:none;stroke-linecap:round;stroke-linejoin:round;-inkscape-stroke:none;paint-order:markers stroke fill"
           d="m 339.75,138.3262 a 0.428046,0.428046 0 0 0 -0.4082,0.4472 c 0.022,0.4778 0.045,0.9624 0.047,1.1641 0,0.011 10e-5,0.012 0,0.022 a 0.428046,0.428046 0 0 0 0.023,0.3535 c 0,0.01 -0.012,0.021 0.096,0.1191 0.014,0.012 0.05,0.041 0.051,0.041 5e-4,3e-4 0.085,0.043 0.086,0.043 5e-4,2e-4 0.1324,0.029 0.1328,0.029 5e-4,0 0.1558,-0.021 0.1563,-0.022 5e-4,-1e-4 0.1284,-0.068 0.1289,-0.068 5e-4,-4e-4 0.058,-0.052 0.076,-0.076 0.037,-0.047 0.053,-0.083 0.064,-0.1113 0.044,-0.1123 0.034,-0.1373 0.037,-0.1817 0,-0.044 0,-0.091 0,-0.1523 0,-0.2469 -0.025,-0.7195 -0.047,-1.1973 a 0.428046,0.428046 0 0 0 -0.4473,-0.4062 z m 0.07,1.3633 c 0,0 0,0 0,0 a 0.428046,0.428046 0 0 0 -0.168,0.022 c 0,-7e-4 0.01,0 0.01,0 -5e-4,1e-4 0.1548,-0.019 0.1543,-0.019 z m 0.1094,0.023 c 0,0 0.02,0 0.019,0 -5e-4,-2e-4 0.084,0.043 0.084,0.043 -5e-4,-4e-4 0.036,0.026 0.049,0.037 0.1,0.09 0.074,0.092 0.068,0.082 a 0.428046,0.428046 0 0 0 -0.2207,-0.166 z m -0.4453,0.1191 a 0.428046,0.428046 0 0 0 -0.031,0.041 c 0.01,-0.01 0.01,-0.013 0.014,-0.023 0,-0.01 0.01,-0.01 0.018,-0.018 z"
           id="path253"
           transform="matrix(0.6793155,-0.2270736,0.2270736,0.6793155,76.56129,122.441)" /><path
           style="color:#000000;fill:#ffffff;stroke:none;stroke-linecap:round;stroke-linejoin:round;-inkscape-stroke:none;paint-order:markers stroke fill"
           d="m 341.4082,138.3359 a 0.434808,0.434808 0 0 0 -0.543,0.2911 c -0.1232,0.4083 -0.2469,0.8217 -0.3691,1.2265 a 0.434808,0.434808 0 0 0 0.291,0.541 0.434808,0.434808 0 0 0 0.541,-0.289 c 0.1222,-0.4049 0.246,-0.8182 0.3692,-1.2266 a 0.434808,0.434808 0 0 0 -0.2891,-0.543 z"
           id="path254"
           transform="matrix(0.6845136,-0.1692335,0.1692335,0.6845136,83.37895,102.0304)" /><path
           style="color:#000000;fill:#ffffff;stroke:none;stroke-linecap:round;stroke-linejoin:round;-inkscape-stroke:none;paint-order:markers stroke fill"
           d="m 342.8594,138.7285 a 0.4464405,0.4464405 0 0 0 -0.5977,0.1992 c -0.219,0.4361 -0.4397,0.8737 -0.6582,1.3086 a 0.4464405,0.4464405 0 0 0 0.1992,0.5996 0.4464405,0.4464405 0 0 0 0.5977,-0.1992 c 0.2185,-0.435 0.4392,-0.8726 0.6582,-1.3086 a 0.4464405,0.4464405 0 0 0 -0.1992,-0.5996 z"
           id="path255"
           transform="matrix(0.6742097,0.1306434,-0.1306434,0.6742097,129.2842,1.075017)" /><path
           style="color:#000000;fill:#ffffff;stroke:none;stroke-linecap:round;stroke-linejoin:round;-inkscape-stroke:none;paint-order:markers stroke fill"
           d="m 347.0703,150.2383 c -0.3239,0.046 -0.6512,0.2136 -0.9629,0.3828 v 0 c -0.3116,0.169 -0.5971,0.3497 -0.8769,0.5254 a 0.306593,0.306593 0 0 0 -0.096,0.4219 0.306593,0.306593 0 0 0 0.4218,0.098 c 0.28,-0.1758 0.5542,-0.3489 0.8438,-0.5059 0.2893,-0.157 0.6102,-0.2918 0.7558,-0.3125 0.1316,-0.018 0.197,0.019 0.4083,0.1738 0.2124,0.1555 0.5046,0.3941 0.6875,0.5391 0.1853,0.1471 0.2988,0.2235 0.3417,0.2519 a 0.306593,0.306593 0 0 0 0.4258,-0.086 0.306593,0.306593 0 0 0 -0.086,-0.4258 c -0.043,-0.029 -0.13,-0.085 -0.3008,-0.2207 -0.1735,-0.1376 -0.4675,-0.3808 -0.7051,-0.5547 -0.2385,-0.1743 -0.5191,-0.3326 -0.8574,-0.2851 z"
           id="path256"
           transform="translate(-2.896395,-7.824874)" /><path
           style="color:#000000;fill:#ffffff;stroke:none;stroke-linecap:round;stroke-linejoin:round;-inkscape-stroke:none;paint-order:markers stroke fill"
           d="m 346.918,149.2051 c -0.2538,0.078 -0.4904,0.2302 -0.8184,0.4179 -0.3281,0.188 -0.7543,0.4256 -1.1797,0.6622 a 0.3141045,0.3141045 0 0 0 -0.1211,0.4277 0.3141045,0.3141045 0 0 0 0.4278,0.1211 c 0.4254,-0.2366 0.8516,-0.4728 1.1855,-0.6641 0.3329,-0.1905 0.5763,-0.328 0.6895,-0.3633 0.065,-0.02 0.2298,-7e-4 0.3476,0.072 0.1424,0.086 0.3669,0.2818 0.5762,0.4512 0.2097,0.1696 0.4212,0.3202 0.5156,0.3886 0.093,0.067 0.1035,0.076 0.1035,0.076 a 0.3141045,0.3141045 0 0 0 0.4414,-0.051 0.3141045,0.3141045 0 0 0 -0.053,-0.4414 c 0,0 -0.029,-0.023 -0.125,-0.092 -0.094,-0.068 -0.2956,-0.2151 -0.4883,-0.3711 v 0 c -0.1923,-0.1557 -0.4145,-0.3587 -0.6445,-0.4981 -0.2552,-0.158 -0.5603,-0.2306 -0.8613,-0.1386 z"
           id="path257"
           transform="matrix(0.8785149,0,0,-1.084495,39.6188,303.9149)" /></g></g></g></svg>
