<?xml version="1.0" encoding="UTF-8" standalone="no"?>
<!-- Created with Inkscape (http://www.inkscape.org/) -->

<svg
   width="7.201425mm"
   height="9.312917mm"
   viewBox="0 0 7.201425 9.312917"
   version="1.1"
   id="svg5"
   xml:space="preserve"
   xmlns="http://www.w3.org/2000/svg"
   xmlns:svg="http://www.w3.org/2000/svg"><defs
     id="defs2" /><g
     id="layer1"
     transform="translate(-388.5611,-142.1863)"><g
       id="g263"
       transform="translate(43.02352,1.622696)"><path
         style="fill:#aa8822;stroke-width:0.408896;stroke-linecap:round;stroke-linejoin:round;paint-order:markers stroke fill"
         d="m 349.3979,141.3453 c 1.1747,-0.082 2.4113,0.6004 2.66,1.9333 0.2488,1.3328 -0.4903,3.3166 -1.5061,4.3731 -1.0158,1.0566 -2.3086,1.186 -3.1137,0.2756 -0.8052,-0.9104 -1.1229,-2.8604 -0.7254,-4.258 0.3976,-1.3975 1.5104,-2.2425 2.6852,-2.324 z"
         id="path258"
         transform="matrix(1.294136,0,0,1.294136,-102.9346,-42.34788)" /><g
         id="g262"
         transform="translate(-2.342817,4.439087)"
         style="stroke:#ffffff"><path
           style="color:#000000;fill:#ffffff;stroke:none;stroke-linecap:round;stroke-linejoin:round;-inkscape-stroke:none;paint-order:markers stroke fill"
           d="m 351.7539,148.0137 a 0.3927055,0.3927055 0 0 0 -0.2793,0.4804 c 0.054,0.2048 0.105,0.4051 0.1426,0.5821 0.037,0.1775 0.065,0.3476 0.088,0.4668 0.024,0.1231 0.057,0.2132 0.072,0.252 a 0.3927055,0.3927055 0 0 0 0.5098,0.2168 0.3927055,0.3927055 0 0 0 0.2188,-0.5117 c -0.014,-0.034 -0.014,-0.028 -0.029,-0.1055 -0.017,-0.092 -0.047,-0.2802 -0.09,-0.4824 -0.043,-0.2029 -0.098,-0.4153 -0.1523,-0.6211 a 0.3927055,0.3927055 0 0 0 -0.4805,-0.2793 z"
           id="path259"
           transform="matrix(0.6737456,0,0,0.6737456,113.3072,38.77793)" /><path
           style="color:#000000;fill:#ffffff;stroke:none;stroke-linecap:round;stroke-linejoin:round;-inkscape-stroke:none;paint-order:markers stroke fill"
           d="m 353.0957,147.7578 a 0.3927055,0.3927055 0 0 0 -0.375,0.4102 c 0.021,0.4479 0.043,0.8959 0.06,1.1582 0.019,0.2639 0.041,0.378 0.057,0.4414 a 0.3927055,0.3927055 0 0 0 0.4726,0.289 0.3927055,0.3927055 0 0 0 0.2911,-0.4726 c -0.013,-0.054 -0.02,-0.068 -0.037,-0.3125 v 0 c -0.017,-0.2461 -0.04,-0.6939 -0.06,-1.1406 a 0.3927055,0.3927055 0 0 0 -0.4102,-0.375 z"
           id="path260"
           transform="matrix(0.5488906,0.3907073,-0.3907073,0.5488906,217.1848,-80.19098)" /><path
           style="color:#000000;fill:#ffffff;stroke:none;stroke-linecap:round;stroke-linejoin:round;-inkscape-stroke:none;paint-order:markers stroke fill"
           d="m 354.6582,148.0762 a 0.392705,0.392705 0 0 0 -0.5078,0.2246 c -0.1388,0.3577 -0.2778,0.7161 -0.375,0.9824 -0.098,0.2669 -0.1508,0.437 -0.2012,0.5977 a 0.392705,0.392705 0 0 0 0.2578,0.4921 0.392705,0.392705 0 0 0 0.4922,-0.2558 c 0.051,-0.1615 0.097,-0.3122 0.1895,-0.5645 0.092,-0.2526 0.2303,-0.6111 0.3691,-0.9687 a 0.392705,0.392705 0 0 0 -0.2246,-0.5078 z"
           id="path261"
           transform="matrix(0.6522364,-0.1688811,0.1688811,0.6522364,95.45091,101.5309)" /><path
           style="color:#000000;fill:#ffffff;stroke:none;stroke-linecap:round;stroke-linejoin:round;-inkscape-stroke:none;paint-order:markers stroke fill"
           d="m 352.2012,155.5391 c -0.2788,0.052 -0.5299,0.2246 -0.6934,0.4804 -0.158,0.2473 -0.2742,0.5806 -0.3105,0.8887 -0.036,0.3067 0.021,0.5938 0.1504,0.8339 0.1277,0.2382 0.3388,0.4615 0.6367,0.586 0.3104,0.1292 0.7191,0.1668 1.084,0.045 0.3553,-0.1191 0.6524,-0.3903 0.8203,-0.7324 0.1769,-0.3607 0.2035,-0.8009 0.1914,-1.0469 -0.01,-0.1144 -0.021,-0.2006 -0.051,-0.2753 -0.029,-0.075 -0.087,-0.1412 -0.098,-0.1524 a 0.26461,0.26461 0 0 0 -0.01,-0.01 c -0.021,-0.021 -0.058,-0.053 -0.1699,-0.1348 0,0 0,0 -0.01,0 -0.1207,-0.088 -0.379,-0.2808 -0.6738,-0.3945 -0.2984,-0.1143 -0.6131,-0.1361 -0.875,-0.086 z m 1.584,0.5175 0.037,0.041 v 0 a 0.26461,0.26461 0 0 0 -0.035,-0.041 z m -1.4864,0 c 0.1431,-0.027 0.3935,-0.013 0.5859,0.06 v 0 c 0.1945,0.075 0.4271,0.2395 0.5488,0.3281 9e-4,6e-4 0,0 0,0 0.1054,0.077 0.086,0.062 0.1,0.076 0,0.01 0.01,0.029 0.012,0.096 0.01,0.135 -0.043,0.5958 -0.1367,0.7871 -0.103,0.2099 -0.3141,0.3979 -0.5137,0.4648 -0.1897,0.063 -0.5499,0.035 -0.7109,-0.031 v 0 c -0.172,-0.072 -0.2942,-0.2006 -0.373,-0.3477 -0.078,-0.1454 -0.1161,-0.3157 -0.092,-0.5234 0.024,-0.2063 0.137,-0.5167 0.2324,-0.666 0.09,-0.1407 0.2175,-0.2224 0.3437,-0.2461 z"
           id="path262"
           transform="translate(-1.350329,-15.26505)" /></g></g></g></svg>
