<?xml version="1.0" encoding="UTF-8" standalone="no"?>
<!-- Created with Inkscape (http://www.inkscape.org/) -->

<svg
   width="9.608956mm"
   height="8.837688mm"
   viewBox="0 0 9.608956 8.837688"
   version="1.1"
   id="svg5"
   xml:space="preserve"
   xmlns="http://www.w3.org/2000/svg"
   xmlns:svg="http://www.w3.org/2000/svg"><defs
     id="defs2" /><g
     id="layer1"
     transform="translate(-366.7413,-128.921)"><g
       id="g234"
       transform="translate(42.33335)"><path
         style="fill:#aa8822;stroke-width:0.418125;stroke-linecap:round;stroke-linejoin:round;paint-order:markers stroke fill"
         d="m 326.5554,132.6217 c 0.7841,-1.341 1.8009,-2.7902 2.7345,-2.8022 0.9335,-0.012 1.7839,1.4131 2.5863,2.7332 0.8025,1.3201 1.5569,2.535 1.06,3.2619 -0.497,0.727 -2.2452,0.9657 -3.8317,0.9865 -1.5865,0.021 -3.0109,-0.1765 -3.4476,-0.8913 -0.4367,-0.7149 0.1145,-1.9472 0.8985,-3.2881 z"
         id="path230"
         transform="matrix(1.265572,0,0,1.265572,-87.53914,-35.37487)" /><g
         id="g233"
         transform="translate(3.293004,-0.5030113)"
         style="stroke:#ffffff"><path
           style="color:#000000;fill:#ffffff;stroke:none;stroke-linecap:round;stroke-linejoin:round;-inkscape-stroke:none;paint-order:markers stroke fill"
           d="m 326.7793,134.3789 c -0.3776,0.122 -0.6799,0.4496 -0.8242,0.8223 -0.073,0.1886 -0.093,0.388 -0.078,0.5761 0.014,0.1875 0.059,0.3645 0.1679,0.5157 0.1149,0.1597 0.2808,0.2458 0.4551,0.291 0.1743,0.045 0.3655,0.049 0.5488,-0.016 0.3535,-0.1235 0.6324,-0.4276 0.8086,-0.7403 0.09,-0.1601 0.1504,-0.3379 0.168,-0.5215 0.018,-0.1835 -0.01,-0.3833 -0.1289,-0.5507 0,0 0,0 -0.01,0 -0.1227,-0.1628 -0.292,-0.2604 -0.4825,-0.3301 -0.1926,-0.071 -0.4068,-0.1138 -0.6269,-0.043 z m 0.1621,0.5039 c 0.037,-0.012 0.1648,-0.01 0.2832,0.035 0.1184,0.043 0.2256,0.1272 0.2441,0.1523 0.018,0.024 0.039,0.089 0.029,0.1856 -0.01,0.096 -0.046,0.2144 -0.1015,0.3125 -0.1148,0.2035 -0.3903,0.4535 -0.5235,0.5 -0.06,0.021 -0.1569,0.025 -0.2402,0 -0.083,-0.022 -0.145,-0.07 -0.1582,-0.088 -0.019,-0.027 -0.059,-0.1306 -0.068,-0.2481 -0.01,-0.1174 0.01,-0.2482 0.043,-0.3437 0.076,-0.1956 0.3562,-0.4658 0.4922,-0.5098 z"
           id="path231" /><path
           style="color:#000000;fill:#ffffff;stroke:none;stroke-linecap:round;stroke-linejoin:round;-inkscape-stroke:none;paint-order:markers stroke fill"
           d="m 341.4961,132.7617 c -0.3372,-0.1123 -0.6592,0 -0.8809,0.125 -0.2223,0.1296 -0.4633,0.3309 -0.6172,0.6387 -0.1533,0.3066 -0.2376,0.6808 -0.1738,1.0391 0.073,0.4084 0.3447,0.694 0.6778,0.8398 0.2969,0.1298 0.6324,0.152 0.9453,0.023 0.3197,-0.1317 0.5239,-0.4051 0.6621,-0.6933 0.1323,-0.276 0.2195,-0.591 0.2715,-0.7657 v 0 c 0.051,-0.1718 0.068,-0.2134 0.078,-0.2402 0,-0.01 0.034,-0.066 0.023,-0.17 -0.011,-0.1042 -0.065,-0.175 -0.094,-0.207 -0.058,-0.064 -0.086,-0.079 -0.1543,-0.1328 -0.1352,-0.1077 -0.4054,-0.3449 -0.7383,-0.4551 z m -0.2051,0.6192 c 0.1187,0.039 0.3489,0.2055 0.4922,0.3164 -0.012,0.037 -0.011,0.031 -0.027,0.084 -0.055,0.1858 -0.141,0.4771 -0.2344,0.6719 -0.088,0.1834 -0.2438,0.3388 -0.3223,0.3711 -0.085,0.035 -0.3272,0.031 -0.4375,-0.018 -0.074,-0.032 -0.2806,-0.2704 -0.2969,-0.3554 v 0 c -0.023,-0.1353 0.032,-0.4661 0.1153,-0.6328 0.083,-0.166 0.2176,-0.2823 0.3633,-0.3672 0.1461,-0.085 0.2226,-0.11 0.3476,-0.068 z"
           id="path232"
           transform="matrix(0.8119247,0,0,0.8119247,47.67211,26.54201)" /><path
           style="color:#000000;fill:#ffffff;stroke:none;stroke-linecap:round;stroke-linejoin:round;-inkscape-stroke:none;paint-order:markers stroke fill"
           d="m 325.957,132.1816 c -0.061,0.014 -0.091,0.03 -0.1562,0.057 a 0.26461,0.26461 0 0 0 0,0.01 c -0.1309,0.053 -0.3926,0.1504 -0.6016,0.2989 -0.2113,0.1499 -0.3269,0.3532 -0.375,0.5312 -0.048,0.178 -0.056,0.3933 0.039,0.5957 0.094,0.2025 0.244,0.335 0.3398,0.416 0.096,0.082 0.2049,0.1273 0.2461,0.1387 0.041,0.012 0.094,0.025 0.1582,0.033 0.09,0.014 0.1869,0.019 0.293,0.02 0.1194,9e-4 0.2483,-0.013 0.3868,-0.051 a 0.26461,0.26461 0 0 0 0.012,0 c 0.148,-0.047 0.2832,-0.1178 0.3945,-0.2012 0.1126,-0.083 0.1774,-0.1803 0.2148,-0.2363 v 0 c 0.04,-0.059 0.087,-0.1277 0.127,-0.211 0.037,-0.077 0.048,-0.1412 0.055,-0.1875 0.017,-0.07 0.013,-0.1784 -0.01,-0.2656 -0.019,-0.09 -0.049,-0.2046 -0.086,-0.3027 -0.036,-0.1002 -0.09,-0.1788 -0.098,-0.1895 v 0 c -0.016,-0.023 -0.03,-0.043 -0.047,-0.065 a 0.26461,0.26461 0 0 0 0,-0.01 c -0.02,-0.025 -0.046,-0.05 -0.08,-0.078 -0.01,-0.012 0,-0.01 0,0 -8e-4,-7e-4 0,0 0,0 a 0.26461,0.26461 0 0 0 -0.014,-0.025 c -0.014,-0.024 -0.056,-0.073 -0.1035,-0.1035 -0.031,-0.019 -0.038,-0.02 -0.051,-0.024 -0.051,-0.032 -0.1419,-0.052 -0.1543,-0.053 a 0.26461,0.26461 0 0 0 -0.023,0 0.26461,0.26461 0 0 0 -0.01,0 0.26461,0.26461 0 0 0 -0.01,0 0.26461,0.26461 0 0 0 -0.025,-0.01 c 0,-9e-4 0,0 0,0 l 0.029,0.01 c -0.021,-0.01 -0.024,-0.01 -0.033,-0.012 -0.01,0 -0.015,0 -0.021,-0.01 9e-4,5e-4 -0.013,0 -0.01,0 -0.019,-0.01 -0.037,-0.018 -0.059,-0.023 v 0 c -0.04,-0.011 -0.1,-0.025 -0.1445,-0.035 -0.013,0 -0.1149,-0.02 -0.1758,-0.01 z m 0.1172,0.5079 a 0.26461,0.26461 0 0 0 0.096,0.058 c 0.055,0.018 0.03,0.011 0.012,0 a 0.26461,0.26461 0 0 0 0.082,0.025 c -0.021,0 0.032,0 0.068,0.01 0.01,0.01 0,0.013 0.014,0.025 0.037,0.047 0.07,0.069 0.084,0.08 4e-4,6e-4 0,0 0,0 0,0 0,-3e-4 0,0 0.01,0.011 0.016,0.022 0.029,0.041 0.026,0.036 0.014,0.012 0.033,0.065 0.019,0.051 0.056,0.1802 0.068,0.2402 a 0.26461,0.26461 0 0 0 0,0.012 c 0.016,0.061 0.012,-4e-4 0.012,0 a 0.26461,0.26461 0 0 0 -0.01,0.041 c 0,0.025 0,0.03 -0.014,0.049 -0.011,0.024 -0.05,0.086 -0.09,0.1445 -0.042,0.063 -0.045,0.073 -0.092,0.1075 -0.047,0.035 -0.1567,0.094 -0.2363,0.1192 -6e-4,1e-4 0,-2e-4 0,0 -0.085,0.022 -0.1589,0.03 -0.2344,0.029 -0.092,0 -0.1803,-0.01 -0.2168,-0.014 a 0.26461,0.26461 0 0 0 -0.01,0 c -0.053,-0.01 -0.065,-0.012 -0.084,-0.018 a 0.26461,0.26461 0 0 0 -0.01,0 c -0.024,-0.01 0.017,0.019 -0.045,-0.033 -0.064,-0.054 -0.1713,-0.1717 -0.2012,-0.2363 -0.031,-0.065 -0.034,-0.1355 -0.01,-0.2305 0.026,-0.095 0.052,-0.1542 0.17,-0.2383 0.1186,-0.084 0.3685,-0.1902 0.498,-0.2422 a 0.26461,0.26461 0 0 0 0.037,-0.023 0.26461,0.26461 0 0 0 0.01,0 c 0.034,0.01 0.075,0.017 0.098,0.023 0,-4e-4 -0.01,0 -0.022,-0.01 -0.012,-0.01 -0.039,-0.027 -0.047,-0.033 z m 0.2891,0.1 c 0.014,0 0.047,0.012 0.051,0.012 h -0.024 c 0,3e-4 -0.016,-0.01 -0.023,-0.01 v 0 z"
           id="path233" /></g></g></g></svg>
