<?xml version="1.0" encoding="UTF-8" standalone="no"?>
<!-- Created with Inkscape (http://www.inkscape.org/) -->

<svg
   width="7.876217mm"
   height="9.451189mm"
   viewBox="0 0 7.876217 9.451189"
   version="1.1"
   id="svg5"
   xml:space="preserve"
   xmlns="http://www.w3.org/2000/svg"
   xmlns:svg="http://www.w3.org/2000/svg"><defs
     id="defs2" /><g
     id="layer1"
     transform="translate(-377.9511,-135.418)"><g
       id="g241"
       transform="translate(51.46551,-4.902613)"><path
         style="fill:#aa1111;stroke-width:0.440284;stroke-linecap:round;stroke-linejoin:round;paint-order:markers stroke fill"
         d="m 327.5964,142.9001 c 0.5414,-1.4273 1.3939,-1.9306 2.5636,-1.8562 1.1697,0.074 2.6565,0.7265 3.2432,2.2062 0.5867,1.4798 0.2731,3.787 -1.0116,4.8882 -1.2847,1.1012 -3.5408,0.9964 -4.5537,-0.2316 -1.0129,-1.2281 -0.7829,-3.5793 -0.2415,-5.0066 z"
         id="path234"
         transform="matrix(1.201876,0,0,1.201876,-66.68921,-29.1881)" /><g
         id="g240"
         transform="translate(3.372185,3.215091)"
         style="stroke:#ffffff"><path
           style="color:#000000;fill:#ffffff;stroke:none;stroke-linecap:round;stroke-linejoin:round;-inkscape-stroke:none;paint-order:markers stroke fill"
           d="m 325.7832,139.5586 a 0.2645835,0.2645835 0 0 0 -0.1934,0.3203 c 0.066,0.2678 0.1316,0.5369 0.1719,0.709 0.04,0.1718 0.054,0.247 0.07,0.3281 a 0.2645835,0.2645835 0 0 0 0.3106,0.207 0.2645835,0.2645835 0 0 0 0.209,-0.3105 c -0.016,-0.081 -0.033,-0.1683 -0.074,-0.3457 -0.042,-0.1773 -0.1077,-0.4445 -0.1738,-0.7129 a 0.2645835,0.2645835 0 0 0 -0.3203,-0.1953 z"
           id="path235" /><path
           style="color:#000000;fill:#ffffff;stroke:none;stroke-linecap:round;stroke-linejoin:round;-inkscape-stroke:none;paint-order:markers stroke fill"
           d="m 327.1641,139.3359 a 0.2645835,0.2645835 0 0 0 -0.2871,0.2403 c -0.032,0.3666 -0.064,0.7316 -0.076,0.9453 -0.013,0.2081 -0.01,0.2974 0.01,0.3652 a 0.2645835,0.2645835 0 0 0 0.3203,0.1914 0.2645835,0.2645835 0 0 0 0.1914,-0.3222 c 0,-0.011 0,-6e-4 0.01,-0.1993 0.012,-0.194 0.044,-0.5633 0.076,-0.9317 a 0.2645835,0.2645835 0 0 0 -0.2402,-0.2871 z"
           id="path236" /><path
           style="color:#000000;fill:#ffffff;stroke:none;stroke-linecap:round;stroke-linejoin:round;-inkscape-stroke:none;paint-order:markers stroke fill"
           d="m 328.4824,139.6094 a 0.264584,0.264584 0 0 0 -0.3437,0.1504 c -0.1334,0.3388 -0.2669,0.6767 -0.4004,1.0156 a 0.264584,0.264584 0 0 0 0.1504,0.3437 0.264584,0.264584 0 0 0 0.3418,-0.1484 c 0.1335,-0.3389 0.267,-0.6788 0.4004,-1.0176 a 0.264584,0.264584 0 0 0 -0.1485,-0.3437 z"
           id="path237" /><path
           style="color:#000000;fill:#ffffff;stroke:none;stroke-linecap:round;stroke-linejoin:round;-inkscape-stroke:none;paint-order:markers stroke fill"
           d="m 336.8535,156.5547 a 0.406908,0.406908 0 0 0 -0.4297,0.3828 c -0.07,1.2255 -0.1409,2.4544 -0.1875,3.0312 -0.019,0.238 -0.037,0.3072 -0.033,0.3106 a 0.406908,0.406908 0 0 0 -0.033,0.3848 c 0,0.01 0.011,0.022 0.029,0.051 0.019,0.029 0.038,0.078 0.1524,0.1426 0.029,0.016 0.1064,0.043 0.1074,0.043 0,2e-4 0.1435,0.01 0.1445,0.01 0,-2e-4 0.099,-0.021 0.1387,-0.041 0.04,-0.02 0.071,-0.042 0.096,-0.064 0.098,-0.089 0.1078,-0.147 0.123,-0.1895 0.061,-0.1696 0.061,-0.2762 0.086,-0.58 0.049,-0.6026 0.1194,-1.823 0.1894,-3.0488 a 0.406908,0.406908 0 0 0 -0.3828,-0.4297 z m -0.1406,3.5801 c 0.019,0.01 0.03,0.01 0.041,0.016 0.1063,0.061 0.116,0.1024 0.127,0.1191 0.011,0.017 0.012,0.017 0.01,0.01 a 0.406908,0.406908 0 0 0 -0.1758,-0.1445 z"
           id="path238"
           transform="matrix(0.6502294,0,0,0.6502294,107.0215,39.75217)" /><path
           style="color:#000000;fill:#ffffff;stroke:none;stroke-linecap:round;stroke-linejoin:round;-inkscape-stroke:none;paint-order:markers stroke fill"
           d="m 338.1602,156.5488 a 0.406908,0.406908 0 0 0 -0.4161,0.3985 0.406908,0.406908 0 0 0 0.3985,0.416 c 0.4725,0.01 0.9373,0.011 1.3535,0.031 0.4192,0.02 0.8036,0.055 1.0586,0.08 0.1659,0.016 0.2274,0.023 0.3125,0.031 0,0.059 0.01,0.1161 0.012,0.2109 a 0.4069487,0.4069487 0 0 0 0,0.01 c 0.01,0.1134 0.014,0.2515 0.033,0.4863 0.019,0.2314 0.051,0.556 0.084,0.8731 0.033,0.3179 0.07,0.6246 0.1016,0.8398 0.032,0.2152 0.06,0.3396 0.084,0.4414 a 0.4069487,0.4069487 0 0 0 0.012,0.01 c -0.01,-0.044 -0.024,-0.1015 -0.024,-0.1015 l 0.07,-0.01 a 0.406908,0.406908 0 0 0 -0.012,0.1347 0.4069487,0.4069487 0 0 0 0.7559,-0.1269 c 0,0 -0.015,-0.054 -0.022,-0.09 h 0.01 c -0.024,-0.1018 -0.042,-0.1811 -0.07,-0.3731 -0.028,-0.1919 -0.065,-0.4973 -0.098,-0.8086 -0.033,-0.3119 -0.063,-0.6332 -0.082,-0.8554 -0.018,-0.2187 -0.022,-0.3407 -0.033,-0.4805 v 0.01 c -0.01,-0.1051 -0.01,-0.2133 -0.019,-0.3242 0,-0.1094 -0.012,-0.1994 -0.012,-0.1348 -3e-4,-0.024 0,-0.039 0,-0.059 8e-4,-0.015 0,-0.039 0,-0.039 -10e-5,0 -0.06,-0.1944 -0.06,-0.1953 -6e-4,-9e-4 -0.1571,-0.1459 -0.1582,-0.1465 -6e-4,-3e-4 -0.051,-0.025 -0.072,-0.031 -0.021,-0.01 -0.039,-0.01 -0.055,-0.012 -0.032,-0.01 -0.055,-0.01 -0.074,-0.01 h 0.018 c -0.052,0 -0.075,0 -0.1485,-0.01 a 0.4069487,0.4069487 0 0 0 -0.012,0 c -0.079,-0.01 -0.2068,-0.022 -0.4668,-0.047 -0.261,-0.025 -0.6584,-0.061 -1.0976,-0.082 -0.4425,-0.022 -0.9118,-0.023 -1.375,-0.033 z m 3.6054,3.3516 0.062,0.051 a 0.406908,0.406908 0 0 0 -0.016,0 c -0.018,-0.014 -0.028,-0.038 -0.047,-0.049 z m -0.541,0.5605 a 0.406908,0.406908 0 0 0 0,0.02 c 0,0 0.013,0.018 0.039,0.047 a 0.4069487,0.4069487 0 0 0 0.1,0.08 c -0.051,-0.029 -0.1025,-0.087 -0.1367,-0.1465 z"
           id="path239"
           transform="matrix(0.6502294,0,0,0.6502294,106.1624,39.75516)" /><path
           style="color:#000000;fill:#ffffff;stroke:none;stroke-linecap:round;stroke-linejoin:round;-inkscape-stroke:none;paint-order:markers stroke fill"
           d="m 341.1836,160.6211 c -0.01,0 -0.083,0.021 -0.1465,0.037 0,0 0.013,-0.01 0.016,-0.01 0.017,-0.01 0.017,0 0.014,0 l 0.029,-0.01 c -0.01,0 -0.1048,0.013 -0.2617,0.027 -0.1561,0.016 -0.3717,0.035 -0.8105,0.047 -0.438,0.013 -1.1004,0.017 -1.5742,0.031 -0.4731,0.014 -0.7538,0.037 -1.0195,0.06 a 0.406908,0.406908 0 0 0 -0.3692,0.4414 0.406908,0.406908 0 0 0 0.4395,0.3692 c 0.2657,-0.023 0.517,-0.045 0.9726,-0.059 0.4547,-0.014 1.1178,-0.016 1.5743,-0.029 0.4545,-0.012 0.7011,-0.034 0.8672,-0.051 0.1653,-0.015 0.253,-0.025 0.3242,-0.037 a 0.4069487,0.4069487 0 0 0 0.029,-0.01 c 0.016,0 0.029,-0.01 0.055,-0.016 0.013,0 0.029,-0.01 0.059,-0.025 0.015,-0.01 0.062,-0.039 0.062,-0.039 10e-5,-2e-4 0.049,-0.045 0.049,-0.045 1e-4,-10e-5 0.062,-0.086 0.062,-0.086 0,-1e-4 0.047,-0.1561 0.047,-0.1562 0,-1e-4 -0.027,-0.1894 -0.027,-0.1895 0,-1e-4 -0.082,-0.1288 -0.082,-0.1289 -10e-5,-1e-4 -0.076,-0.062 -0.076,-0.062 -2e-4,-1e-4 -0.089,-0.043 -0.09,-0.043 -4e-4,-1e-4 -0.034,-0.01 -0.045,-0.012 -0.043,-0.01 -0.049,-0.01 -0.049,-0.01 a 0.4069487,0.4069487 0 0 0 -0.045,0 z m -0.2266,0.7402 a 0.406908,0.406908 0 0 0 0.3262,0.051 c -0.047,0.011 -0.1062,0.023 -0.1,0.023 h -0.045 c 0,5e-4 0,0 -0.037,-0.01 -0.01,0 -0.041,-0.014 -0.041,-0.014 4e-4,10e-5 -0.09,-0.041 -0.09,-0.041 0,1e-4 -0.01,-0.01 -0.014,-0.012 z"
           id="path240"
           transform="matrix(0.6502294,0,0,0.6502294,106.4207,39.26348)" /></g></g></g></svg>
