<?xml version="1.0" encoding="UTF-8" standalone="no"?>
<!-- Created with Inkscape (http://www.inkscape.org/) -->

<svg
   width="104.7251mm"
   height="103.3484mm"
   viewBox="0 0 104.7251 103.3484"
   version="1.1"
   id="svg5"
   xml:space="preserve"
   xmlns="http://www.w3.org/2000/svg"
   xmlns:svg="http://www.w3.org/2000/svg"><defs
     id="defs2" /><path
     id="path180"
     style="fill:none;stroke:#000000;stroke-width:2;stroke-linecap:butt;stroke-linejoin:miter;stroke-dasharray:none;stroke-opacity:1"
     d="m 1.156979,95.93987 c 0.04,-0.3208 0.09,-0.64197 0.13,-0.96237 0.04,-0.3058 0.09,-0.6095 0.131,-0.9167 0.04,-0.3194 0.06,-0.643 0.1,-0.9624 0.09,-0.7109 0.181,-1.1189 0.293,-1.8334 0.09,-0.6087 0.176,-1.22187 0.26,-1.83287 l 0.261,-1.925 c 0.1,-0.826 0.11,-1.186 0.163,-2.017 0.02,-0.351 0.05,-0.70197 0.06,-1.05397 0.05,-0.991 0.07,-1.987 0.1,-2.979 0.08,-2.57301 -0.01,0.692 0.03,-1.97101 0.01,-0.337 0.03,-0.672 0.03,-1.009 0.01,-0.702 0,-1.405 0,-2.108 0,-0.702 0.01,-1.405 0,-2.108 -0.01,-0.367 -0.03,-0.733 -0.03,-1.1 -0.01,-0.351 0.01,-0.703 0,-1.054 -0.02,-1.147 -0.08,-2.291 -0.1,-3.438 -0.01,-0.366 0,-0.733 0,-1.099 -0.01,-0.398 -0.03,-0.795 -0.03,-1.192 -0.02,-1.329 0.01,-0.842 0.03,-2.246 0.02,-1.115 -0.02,-2.231 0,-3.346 0.01,-0.382 0.03,-0.763 0.03,-1.145 0.01,-0.382 0,-0.764 0,-1.146 v -2.154 -1.146 c 0,-0.336 0.01,-0.673 0,-1.008 -0.01,-0.368 -0.05,-0.733 -0.06,-1.1 -0.06,-1.236 0,-0.827 -0.1,-2.109 -0.03,-0.337 -0.07,-0.671 -0.1,-1.008 -0.03,-0.366 -0.04,-0.734 -0.07,-1.1 l -0.06,-0.963 c -0.02,-0.382 -0.04,-0.763 -0.07,-1.145 -0.05,-0.826 -0.09,-1.313 -0.13,-2.154 l -0.03,-0.963 c -0.05,-1.051 -0.08,-1.196 -0.1,-2.2 -0.01,-0.382 0.01,-0.764 0,-1.146 0,-0.321 -0.03,-0.641 -0.03,-0.962 -0.01,-0.367 0,-0.734 0,-1.1 v -2.109 -2.062 c 0,-0.351 -0.01,-0.703 0,-1.054 0.02,-0.994 0.08,-1.986 0.1,-2.979 0.01,-0.321 -0.01,-0.642 0,-0.963 0.01,-0.627 0.05,-1.252 0.07,-1.879 0.01,-0.611 -0.01,-1.222 0,-1.833 0.06,-3.236 0.01,1.4 0.07,-1.696 0.01,-0.305 0,-0.611 0,-0.917 0,-0.55 0.01,-1.1 0,-1.65 -0.01,-0.26 -0.03,-0.519 -0.03,-0.779 -0.01,-0.519 0,-1.039 0,-1.558 v -2.429 -1.696 c 0,-0.29 -0.01,-0.581 0,-0.871 0.01,-0.276 0.05,-0.549 0.06,-0.825 0.02,-0.305 0.02,-0.611 0.03,-0.916 0.03,-0.799 0.03,-0.821 0.06,-1.60499 0,-0.09 0.06,-1.485 0.07,-1.604 0.02,-0.275 0.05,-0.549 0.07,-0.82397 0.02,-0.275 0.02,-0.551 0.03,-0.826 0.01,-0.282 0.06,-1.305 0.07,-1.558 0.05,-2.518 -0.1531,-1.3458 0.02,-3.4769 0.7041,-0.4102 0.8945,-0.2422 1.2931,-0.2771 0.1605,-0.014 0.3227,0 0.4841,0 0.4303,0 0.8609,-0.014 1.2909,0 0.2157,0.01 0.4304,0.03 0.6455,0.045 0.8789,0.061 0.4299,0.031 1.3449,0.09 1.865,0.1193 -0.466,-0.03 1.399,0.09 0.233,0.015 0.467,0.023 0.699,0.045 0.252,0.023 0.501001,0.069 0.753001,0.09 0.554,0.046 1.112,0.059 1.667,0.09 l 0.807,0.045 c 0.305,0.015 0.61,0.028 0.915,0.045 0.251,0.014 0.501,0.038 0.753,0.045 0.304,0.01 0.609,-0.01 0.914,0 0.558,0 1.111,0.075 1.667,0.09 0.896,0.023 1.794,-0.022 2.69,0 0.628,0.016 1.254,0.075 1.883,0.09 0.322,0.01 0.645,0 0.968,0 0.323,0.015 0.645,0.037 0.968,0.045 0.592,0.014 1.184,-0.014 1.775,0 0.629,0.016 1.255,0.075 1.883,0.09 0.322,0.01 0.645,0 0.968,0 h 1.936 2.905 c 0.323,0 0.646,0.01 0.968,0 0.306,-0.01 0.609,-0.037 0.915,-0.045 0,-10e-5 1.932,1e-4 1.936,0 0.305,-0.01 0.61,-0.03 0.915,-0.045 0.968,-0.046 1.936,-0.091 2.904,-0.1342 0.664,-0.03 1.326,-0.074 1.99,-0.09 0.323,-0.01 0.646,0.01 0.969,0 0.305,-0.01 0.609,-0.037 0.914,-0.045 0.305,-0.01 0.61,0.01 0.915,0 0.305,-0.01 0.609,-0.038 0.914,-0.045 0.323,-0.01 0.645,0.01 0.968,0 0.969,-0.022 1.936,-0.1119 2.905,-0.1342 0.322,-0.01 0.645,0 0.968,0 0.323,-0.015 0.645,-0.037 0.968,-0.045 0.645,-0.015 1.291,0.015 1.937,0 0.305,-0.01 0.609,-0.037 0.914,-0.045 0.323,-0.01 0.646,0 0.968,0 h 2.905 c 0.323,0 0.645,0.01 0.968,0 0.305,-0.01 0.609,-0.037 0.914,-0.045 0.95,-0.023 1.902,0.023 2.852,0 0.323,-0.01 0.644,-0.038 0.968,-0.045 0.663,-0.015 1.327,0.015 1.99,0 0.147,0 1.816,-0.082 1.99,-0.09 0.699,-0.031 1.4,-0.044 2.098,-0.09 0.324,-0.021 0.644,-0.069 0.968,-0.09 0.376,-0.024 0.754,-0.021 1.13,-0.045 0.323,-0.021 0.645,-0.061 0.968,-0.09 0.358,-0.031 0.717,-0.059 1.075,-0.09 0.987,-0.084 1.973,-0.1748 2.959,-0.2685 0.305,-0.029 0.609,-0.068 0.914,-0.089 0.323,-0.023 0.646,-0.03 0.969,-0.045 0.323,-0.015 0.645,-0.037 0.968,-0.045 0.591,-0.014 1.183,0 1.775,0 0.61,0 1.219,-0.016 1.829,0 0.305,0.01 0.609,0.03 0.914,0.045 0.323,0.015 0.645,0.037 0.968,0.045 0.574,0.014 1.148,-0.014 1.722,0 0.305,0.01 0.609,0.037 0.914,0.045 0.896,0.023 1.794,-0.024 2.69,0 0.269,0.01 0.537,0.038 0.806,0.045 0.305,0.01 0.61,0 0.915,0 0.556,0 1.112,0.014 1.667,0 0.305,-0.01 0.61,-0.037 0.915,-0.045 0.268,-0.01 0.538,0.01 0.807,0 1.45,-0.04 0.156,-0.052 1.667,-0.09 0.323,-0.01 0.646,0.01 0.968,0 0.288,-0.01 0.574,-0.045 0.86102,-0.045 0.359,0 0.208,-0.035 0.567,-0.021 0.448,0.017 0.54,-0.1959995 1.038,0.02 0.18,1.1611 0.211,1.1995 0.128,2.0105 -0.02,0.2252 -0.05,0.4505 -0.07,0.6777 -0.05,0.6447 -0.04,0.902 -0.04,1.5498 0,0.5326 -0.01,1.0652 0,1.5978 0,0.2743 0.02,0.5486 0.04,0.8229 0.04,0.85596 0.07,1.71093 0.103,2.56689 0.01,0.32237 0.02,0.64573 0.03,0.96809 0.162,2.27958 -0.01,-0.30734 0.103,1.88913 0.05,0.98512 0.136,1.96923 0.206,2.95334 0.05,0.66174 0.08,1.32549 0.138,1.98523 0.03,0.32437 0.07,0.64473 0.103,0.9691 0.03,0.32136 0.05,0.64573 0.07,0.96809 0.07,1.03316 0.137,2.06633 0.206,3.09949 0.09,1.3235 0.188,2.64699 0.275,3.97048 0.07,1.0652 0.136,2.13141 0.206,3.19661 0.09,1.4196 0.185,2.8402 0.275,4.2608 l 0.137,2.22752 c 0.02,0.38743 0.02,0.77487 0.03,1.16231 0.01,0.3554 0.03,0.7098 0.03,1.0652 v 1.11425 c 0,0.37142 0.03,0.74184 0.03,1.11326 0.01,0.75886 0,1.51771 0,2.27657 0,0.38643 0.01,0.77487 0,1.16231 -0.01,0.40445 -0.05,0.80591 -0.07,1.21036 -0.02,0.38644 -0.02,0.77488 -0.03,1.16231 -0.02,0.40346 -0.05,0.80591 -0.07,1.21037 -0.07,1.58479 0.01,0.74083 -0.103,2.32462 -0.06,0.80891 -0.147,1.61282 -0.206,2.42073 -0.03,0.37042 -0.04,0.74384 -0.07,1.11426 -0.04,0.42147 -0.102,0.83694 -0.138,1.25942 -0.03,0.38543 -0.04,0.77587 -0.07,1.16131 -0.04,0.40545 -0.1,0.80691 -0.138,1.21136 -0.04,0.3544 -0.07,0.7098 -0.103,1.0652 -0.05,0.37042 -0.1,0.74084 -0.137,1.11326 -0.04,0.37042 -0.07,0.74284 -0.103,1.11426 -0.05,0.37141 -0.1,0.74083 -0.137,1.11325 -0.04,0.3544 -0.06,0.7118 -0.103,1.0652 -0.04,0.34139 -0.105,0.67576 -0.138,1.01715 -0.04,0.38543 -0.04,0.77487 -0.07,1.16231 -0.04,0.66175 -0.09,1.32349 -0.138,1.98524 -0.02,0.30735 -0.06,0.61269 -0.07,0.92004 -0.01,0.32236 0,0.64572 0,0.96809 0,0.32336 -0.03,0.64573 -0.03,0.96909 v 0.87198 0.9681 c 0,0.29132 0.02,0.58165 0.03,0.87198 0.02,0.58065 0.04,1.16231 0.07,1.74297 0.02,0.5326 0.05,1.0652 0.07,1.5978 0.01,0.27431 0.02,0.54962 0.03,0.82293 0.02,0.27531 0.05,0.54861 0.07,0.82392 0,0.11113 0.07,1.60982 0.07,1.69492 0.02,0.58065 0.06,1.16131 0.07,1.74296 0.01,0.58066 0,1.16231 0,1.74397 v 1.79102 0.82393 c 0,0.29032 -0.03,0.58065 -0.03,0.87098 v 0.77487 0.82293 c 0,0.27531 -0.03,0.54862 -0.03,0.82393 v 0.77487 c -0.02,0.74184 -0.07,1.48568 -0.103,2.22651 0,0.13916 -0.07,1.48468 -0.07,1.59881 v 0.77487 c -0.02,0.87199 -0.09,1.74197 -0.103,2.61495 -0.02,0.89101 0.248,3.64281 0.248,4.53381 -0.501,-0.021 -0.022,-0.01 -1.318,0.1546 -1.92002,0.2384 -0.078,-0.01 -1.87002,0.2364 -0.398,0.054 -1.434,0.1973 -1.822,0.2385 -0.277,0.029 -0.556,0.046 -0.834,0.07 -0.264,0.023 -0.525,0.067 -0.787,0.072 -0.295,0.01 -0.587,-0.025 -0.88,-0.038 l -1.514,-0.065 -1.565,-0.067 c -0.243,-0.011 -0.489,-0.012 -0.732,-0.032 -0.716,-0.057 -1.427,-0.1937 -2.142,-0.2505 -0.505,-0.04 -1.011,-0.025 -1.515,-0.065 -0.228,-0.018 -0.454,-0.064 -0.682,-0.082 -0.26,-0.02 -0.521,-0.022 -0.781,-0.034 l -1.613,-0.069 c -0.57,-0.024 -1.139,-0.066 -1.711,-0.073 -0.277,-0 -0.555,0.012 -0.832,0.017 0,0 -1.763,0.03 -1.763,0.03 -2.385,0.037 0.477,-0.011 -1.813,0.028 -0.295,0 -0.589,0.02 -0.882,0.015 -0.31,-0 -0.619,-0.036 -0.929,-0.04 -0.946,-0.014 -1.893,0.05 -2.84,0.036 -0.294,-0 -0.586,-0.025 -0.879,-0.038 l -2.931,-0.126 c -0.326,-0.014 -0.652,-0.037 -0.978,-0.042 -0.637,-0.01 -1.275,0.047 -1.91,0.023 -0.309,-0.01 -0.619,-0.035 -0.928,-0.04 -0.006,-10e-5 -1.959,0.021 -1.959,0.021 -0.343,-0.01 -0.684,-0.038 -1.027,-0.044 -0.326,-0.01 -0.652,0.01 -0.979,0.011 -1.327,0.013 -0.77,0.01 -2.155,0.013 -0.162,8e-4 -2.067,0.013 -2.203,0.011 -0.342,-0.01 -0.684,-0.029 -1.026,-0.044 l -2.052,-0.088 c -0.7,-0.03 -1.401,-0.043 -2.101,-0.09 -0.341,-0.023 -0.683,-0.065 -1.024,-0.097 -0.698,-0.064 -1.397,-0.1313 -2.096,-0.1958 -0.142,-0.013 -2.052,-0.1787 -2.242,-0.202 -0.31,-0.038 -0.615,-0.1069 -0.925,-0.1453 -0.68,-0.085 -1.366,-0.1128 -2.046,-0.1936 -0.358,-0.042 -0.713,-0.1095 -1.071,-0.1517 -0.079,-0.01 -2.047,-0.1937 -2.097,-0.1957 -0.356,-0.024 -0.716,-0.022 -1.074,-0.0462 -1.074,-0.0726 -2.143,-0.22412 -3.217,-0.29672 -0.701,-0.0473 -1.401,-0.0602 -2.102,-0.0903 l -3.322,-0.14282 c -0.358,-0.0154 -0.716,-0.0392 -1.075,-0.0462 -0.391,-0.008 -0.783,0.01 -1.174,0.002 -0.359,-0.007 -0.718,-0.0308 -1.075,-0.0462 l -3.322,-0.14282 c -0.31,-0.0133 -0.62,-0.0349 -0.929,-0.0399 -0.342,-0.005 -0.686,0.006 -1.028,0.009 -0.343,-0.0147 -0.684,-0.0381 -1.027,-0.0441 -0.343,-0.005 -0.685,0.006 -1.028,0.009 -0.98,0.009 -1.959,0.0215 -2.939,0.0321 -0.326,0.004 -0.652,0.0156 -0.979,0.0106 -2.231,-0.0329 0.474,-0.0606 -1.761,-0.0229 -0.587,-0.008 -1.172,-0.0686 -1.759,-0.0756 -0.572,-0.007 -1.142,0.0219 -1.714,0.0319 -2.424001,0.0409 0.604,-0.0113 -1.715001,0.0319 -0.294,0.005 -0.588,0.001 -0.883,0.0148 -0.818,0.0383 -1.639,0.1399 -2.4567,0.2112 -0.787,0.0686 -1.5729,0.1367 -2.3591,0.2154 -0.8035,0.0806 -0.6515,0.0443 -1.4286,0.20263 -0.1985,0.0404 -0.3984,0.0752 -0.5933,0.1329 -0.1375,0.0406 -0.2633,0.088 -0.53836,-0.26604 -0.2684897,-1.55442 -0.1764397,-2.51124 -0.008,-3.74744 z" /></svg>
