<?xml version="1.0" encoding="UTF-8" standalone="no"?>
<!-- Created with Inkscape (http://www.inkscape.org/) -->

<svg
   width="264.41171mm"
   height="6.3472466mm"
   viewBox="0 0 264.41171 6.3472466"
   version="1.1"
   id="svg5"
   inkscape:version="1.3 (0e150ed, 2023-07-21)"
   sodipodi:docname="lipu tenpo.svg"
   xmlns:inkscape="http://www.inkscape.org/namespaces/inkscape"
   xmlns:sodipodi="http://sodipodi.sourceforge.net/DTD/sodipodi-0.dtd"
   xmlns="http://www.w3.org/2000/svg"
   xmlns:svg="http://www.w3.org/2000/svg">
  <sodipodi:namedview
     id="namedview7"
     pagecolor="#ffffff"
     bordercolor="#666666"
     borderopacity="1.0"
     inkscape:pageshadow="2"
     inkscape:pageopacity="0.0"
     inkscape:pagecheckerboard="0"
     inkscape:document-units="mm"
     showgrid="false"
     inkscape:snap-bbox="true"
     inkscape:snap-bbox-edge-midpoints="true"
     inkscape:zoom="2.8246226"
     inkscape:cx="659.73416"
     inkscape:cy="137.71752"
     inkscape:window-width="1920"
     inkscape:window-height="1016"
     inkscape:window-x="0"
     inkscape:window-y="27"
     inkscape:window-maximized="1"
     inkscape:current-layer="layer1"
     inkscape:snap-intersection-paths="true"
     inkscape:bbox-paths="true"
     inkscape:bbox-nodes="true"
     inkscape:snap-bbox-midpoints="true"
     showguides="false"
     inkscape:guide-bbox="true"
     inkscape:showpageshadow="0"
     inkscape:deskcolor="#d1d1d1">
    <sodipodi:guide
       position="-435.9895,152.39457"
       orientation="0,-1"
       id="guide37012"
       inkscape:locked="false" />
    <sodipodi:guide
       position="-562.10864,112.4871"
       orientation="0,-1"
       id="guide37014"
       inkscape:locked="false" />
  </sodipodi:namedview>
  <defs
     id="defs2" />
  <g
     inkscape:label="Layer 1"
     inkscape:groupmode="layer"
     id="layer1"
     transform="translate(-991.41433,-95.392194)">
    <path
       style="fill:none;stroke:#000000;stroke-width:0.264583px;stroke-linecap:butt;stroke-linejoin:miter;stroke-opacity:1"
       d="m 991.42277,100.31061 c 5.9207,0.37606 11.83353,0.90806 17.76793,1.03742 1.4803,0.0323 2.9616,-0.0309 4.4419,0 4.3164,0.0901 6.3164,0.37463 10.5762,0.20749 1.837,-0.0721 3.6643,-0.30697 5.4996,-0.41498 1.6906,-0.0995 3.3881,-0.075 5.0765,-0.20749 1.8392,-0.14433 3.6603,-0.47812 5.4996,-0.62244 1.6884,-0.13249 3.3857,-0.10991 5.0765,-0.20747 1.9056,-0.109951 3.8057,-0.302831 5.7111,-0.414981 1.6204,-0.0954 3.2448,-0.11018 4.865,-0.20749 3.6702,-0.22041 7.3251,-0.6886 10.9992,-0.82993 14.1225,-0.54326 -3.7585,0.63184 10.7877,-0.20746 1.7652,-0.10185 3.5229,-0.31313 5.288,-0.41498 1.8315,-0.10568 3.6682,-0.10182 5.4996,-0.20749 1.7652,-0.10185 3.523,-0.31108 5.2881,-0.41496 3.3813,-0.199 6.7687,-0.27666 10.1531,-0.41497 3.314,-0.13544 6.6256,-0.34267 9.9415,-0.41496 1.6213,-0.0353 3.2434,0 4.8651,0 3.2433,0 6.4866,0 9.73,0 3.1728,0 6.3457,0 9.5185,0 1.6217,0 3.2437,-0.0361 4.865,0 1.4819,0.033 2.9612,0.14147 4.442,0.20749 4.5071,0.20095 9.0272,0.51454 13.5374,0.62244 1.3393,0.032 2.6793,0 4.019,0 1.4101,0.0692 2.819,0.17199 4.2304,0.20749 4.0164,0.10102 8.0405,-0.10366 12.0568,0 2.682,0.0692 5.3559,0.34573 8.0379,0.41496 1.2687,0.0327 2.5382,0 3.8074,0 2.5382,0 5.0765,0 7.6148,0 2.4677,0 4.9355,0 7.4033,0 1.1986,0 2.3977,0.0356 3.5958,0 3.4072,-0.10128 6.7753,-0.62326 10.1531,-1.03742 1.1282,-0.13833 2.2501,-0.34318 3.3844,-0.41496 1.0555,-0.0668 2.1157,0.0324 3.1728,0 2.1932,-0.004 4.3685,-0.3383 6.5572,-0.41498 2.887,-0.10114 5.786,0.11325 8.6724,0 0.8483,-0.0333 1.6901,-0.1728 2.5383,-0.20746 0.8454,-0.0346 1.6929,0.0345 2.5383,0 1.6964,-0.0693 3.3804,-0.339353 5.0765,-0.414979 0.7044,-0.03141 1.4102,0 2.1153,0"
       id="path142" />
  </g>
</svg>
