<?xml version="1.0" encoding="UTF-8" standalone="no"?>
<!-- Created with Inkscape (http://www.inkscape.org/) -->

<svg
   width="11.66912mm"
   height="11.368024mm"
   viewBox="0 0 11.66912 11.368024"
   version="1.1"
   id="svg5"
   inkscape:version="1.3 (0e150ed, 2023-07-21)"
   sodipodi:docname="lipu tenpo.svg"
   xmlns:inkscape="http://www.inkscape.org/namespaces/inkscape"
   xmlns:sodipodi="http://sodipodi.sourceforge.net/DTD/sodipodi-0.dtd"
   xmlns="http://www.w3.org/2000/svg"
   xmlns:svg="http://www.w3.org/2000/svg">
  <sodipodi:namedview
     id="namedview7"
     pagecolor="#ffffff"
     bordercolor="#666666"
     borderopacity="1.0"
     inkscape:pageshadow="2"
     inkscape:pageopacity="0.0"
     inkscape:pagecheckerboard="0"
     inkscape:document-units="mm"
     showgrid="false"
     inkscape:snap-bbox="true"
     inkscape:snap-bbox-edge-midpoints="true"
     inkscape:zoom="3.5953245"
     inkscape:cx="3677.8321"
     inkscape:cy="589.93284"
     inkscape:window-width="1920"
     inkscape:window-height="1016"
     inkscape:window-x="0"
     inkscape:window-y="27"
     inkscape:window-maximized="1"
     inkscape:current-layer="g47"
     inkscape:snap-intersection-paths="true"
     inkscape:bbox-paths="true"
     inkscape:bbox-nodes="true"
     inkscape:snap-bbox-midpoints="true"
     showguides="true"
     inkscape:guide-bbox="true"
     inkscape:showpageshadow="0"
     inkscape:deskcolor="#d1d1d1">
    <sodipodi:guide
       position="-407.21307,227.3289"
       orientation="0,-1"
       id="guide37012"
       inkscape:locked="false" />
    <sodipodi:guide
       position="-533.33221,187.42144"
       orientation="0,-1"
       id="guide37014"
       inkscape:locked="false" />
  </sodipodi:namedview>
  <defs
     id="defs2" />
  <g
     inkscape:label="Layer 1"
     inkscape:groupmode="layer"
     id="layer1"
     transform="translate(-962.6379,-170.32653)">
    <path
       id="path52"
       style="fill:#ff4500;fill-rule:nonzero;stroke:none;stroke-width:0.433878px;stroke-linecap:butt;stroke-linejoin:miter;stroke-opacity:1"
       d="m 978.91361,130.86588 c -0.004,0.66098 0.716,1.26193 0.84658,1.52027 0.27491,0.14057 0.93719,0.95324 1.64992,0.84319 1.15836,-0.17886 3.20353,-2.38794 5.24638,-4.68539 -0.0716,0.29703 -0.13443,0.57904 -0.18389,0.83471 -0.31053,1.6049 -0.45464,2.79675 -0.4771,4.4176 -0.0274,1.97798 -0.26809,5.60875 0.52794,6.59631 0.42493,0.52717 1.5042,0.45557 1.805,0.54659 0.30081,-0.091 1.38008,-0.0194 1.80501,-0.54659 0.79603,-0.98756 0.55535,-4.61833 0.52794,-6.59631 -0.0225,-1.62085 -0.16657,-2.8127 -0.4771,-4.4176 -0.0831,-0.42957 -0.20677,-0.93644 -0.34574,-1.46688 2.22919,2.41881 4.55082,4.90934 5.70228,5.07265 0.58222,0.0826 1.09178,-0.55075 1.31011,-0.66099 0.11666,-0.21496 0.76525,-0.70535 0.69997,-1.28977 -0.18444,-1.65122 -5.0657,-5.85056 -7.70389,-8.65385 a 1.8707992,1.9282696 46.358241 0 0 -2.70412,-0.0229 c -2.82068,2.72382 -7.93448,6.59319 -8.21827,8.3759 -0.007,0.0445 -0.0108,0.089 -0.011,0.13304 z"
       transform="matrix(0,0.60980936,-0.60980936,0,1048.5839,-426.62413)" />
  </g>
</svg>
