<?xml version="1.0" encoding="UTF-8" standalone="no"?>
<!-- Created with Inkscape (http://www.inkscape.org/) -->

<svg
   width="9.9802694mm"
   height="11.253189mm"
   viewBox="0 0 9.9802694 11.253189"
   version="1.1"
   id="svg5"
   inkscape:version="1.3 (0e150ed, 2023-07-21)"
   sodipodi:docname="lipu tenpo.svg"
   xmlns:inkscape="http://www.inkscape.org/namespaces/inkscape"
   xmlns:sodipodi="http://sodipodi.sourceforge.net/DTD/sodipodi-0.dtd"
   xmlns="http://www.w3.org/2000/svg"
   xmlns:svg="http://www.w3.org/2000/svg">
  <sodipodi:namedview
     id="namedview7"
     pagecolor="#ffffff"
     bordercolor="#666666"
     borderopacity="1.0"
     inkscape:pageshadow="2"
     inkscape:pageopacity="0.0"
     inkscape:pagecheckerboard="0"
     inkscape:document-units="mm"
     showgrid="false"
     inkscape:snap-bbox="true"
     inkscape:snap-bbox-edge-midpoints="true"
     inkscape:zoom="3.5953245"
     inkscape:cx="3677.8321"
     inkscape:cy="589.93284"
     inkscape:window-width="1920"
     inkscape:window-height="1016"
     inkscape:window-x="0"
     inkscape:window-y="27"
     inkscape:window-maximized="1"
     inkscape:current-layer="g47"
     inkscape:snap-intersection-paths="true"
     inkscape:bbox-paths="true"
     inkscape:bbox-nodes="true"
     inkscape:snap-bbox-midpoints="true"
     showguides="true"
     inkscape:guide-bbox="true"
     inkscape:showpageshadow="0"
     inkscape:deskcolor="#d1d1d1">
    <sodipodi:guide
       position="-421.03546,227.35983"
       orientation="0,-1"
       id="guide37012"
       inkscape:locked="false" />
    <sodipodi:guide
       position="-547.1546,187.45237"
       orientation="0,-1"
       id="guide37014"
       inkscape:locked="false" />
  </sodipodi:namedview>
  <defs
     id="defs2" />
  <g
     inkscape:label="Layer 1"
     inkscape:groupmode="layer"
     id="layer1"
     transform="translate(-976.46029,-170.35746)">
    <path
       id="path56"
       style="fill:#ff4500;fill-rule:nonzero;stroke:none;stroke-width:0.481049px;stroke-linecap:butt;stroke-linejoin:miter;stroke-opacity:1"
       d="m 987.92081,120.0971 c -1.17115,0.002 -2.23613,0.0295 -3.03194,0.0658 -2.10744,0.096 -4.43581,0.17772 -5.22296,0.91794 -0.45355,0.42651 -0.34215,1.42652 -0.41059,1.71186 0.0684,0.28534 -0.043,1.2863 0.41059,1.71281 0.78715,0.74022 3.11552,0.82102 5.22296,0.917 0.343,0.0156 0.75581,0.0285 1.18572,0.0395 -0.13709,1.86422 -0.13718,4.00064 -0.14,5.58281 -0.002,1.38148 -0.0537,3.11352 0.0226,4.59347 -2.60797,0.087 -5.35529,0.32689 -6.18694,0.98465 -0.4861,0.38446 -0.42902,1.20807 -0.51488,1.44973 0.0859,0.24166 0.0288,1.06621 0.51488,1.45067 1.20865,0.95593 6.47002,1.03611 9.45752,1.0335 2.69116,-0.002 6.61265,0.0254 7.67238,-0.85217 0.49831,-0.41265 0.41721,-1.36007 0.50078,-1.632 -0.0836,-0.27193 -0.002,-1.21841 -0.50078,-1.63106 -0.8785,-0.72749 -3.71861,-0.83129 -6.19916,-0.84748 0.0729,-1.47012 0.0231,-3.18165 0.0207,-4.54931 -0.003,-1.58588 -0.002,-3.72868 -0.13999,-5.59596 2.81847,-0.0949 5.57646,-0.37571 6.36546,-1.02787 0.5189,-0.42892 0.37807,-1.35697 0.4538,-1.62825 -0.0757,-0.27127 0.0651,-1.19839 -0.4538,-1.6273 -1.04136,-0.86076 -5.51283,-1.07576 -9.02627,-1.06827 z"
       transform="matrix(0.5500117,0,0,0.5500117,437.85841,104.30275)" />
  </g>
</svg>
