<?xml version="1.0" encoding="UTF-8" standalone="no"?>
<!-- Created with Inkscape (http://www.inkscape.org/) -->

<svg
   width="9.980592mm"
   height="8.850025mm"
   viewBox="0 0 9.980592 8.850025"
   version="1.1"
   id="svg5"
   inkscape:version="1.3 (0e150ed, 2023-07-21)"
   sodipodi:docname="lipu tenpo.svg"
   xml:space="preserve"
   xmlns:inkscape="http://www.inkscape.org/namespaces/inkscape"
   xmlns:sodipodi="http://sodipodi.sourceforge.net/DTD/sodipodi-0.dtd"
   xmlns="http://www.w3.org/2000/svg"
   xmlns:svg="http://www.w3.org/2000/svg"><sodipodi:namedview
     id="namedview7"
     pagecolor="#ffffff"
     bordercolor="#666666"
     borderopacity="1.0"
     inkscape:pageshadow="2"
     inkscape:pageopacity="0.0"
     inkscape:pagecheckerboard="0"
     inkscape:document-units="mm"
     showgrid="false"
     inkscape:snap-bbox="true"
     inkscape:snap-bbox-edge-midpoints="true"
     inkscape:zoom="2"
     inkscape:cx="417.75"
     inkscape:cy="817.25"
     inkscape:window-width="1920"
     inkscape:window-height="1016"
     inkscape:window-x="0"
     inkscape:window-y="27"
     inkscape:window-maximized="1"
     inkscape:current-layer="layer1"
     inkscape:snap-intersection-paths="true"
     inkscape:bbox-paths="true"
     inkscape:bbox-nodes="true"
     inkscape:snap-bbox-midpoints="true"
     showguides="false"
     inkscape:guide-bbox="true"
     inkscape:showpageshadow="0"
     inkscape:deskcolor="#ffffff"><sodipodi:guide
       position="419.8704,277.576"
       orientation="0,-1"
       id="guide37012"
       inkscape:locked="false" /><sodipodi:guide
       position="293.7513,237.6685"
       orientation="0,-1"
       id="guide37014"
       inkscape:locked="false" /></sodipodi:namedview><defs
     id="defs2" /><g
     inkscape:label="Layer 1"
     inkscape:groupmode="layer"
     id="layer1"
     transform="translate(-135.5544,-220.5736)"><path
       id="path285"
       style="fill:#000000;fill-rule:nonzero;stroke:none;stroke-width:0.481049px;stroke-linecap:butt;stroke-linejoin:miter;stroke-opacity:1"
       transform="matrix(0.5500115,0,0,0.5500115,-403.0474,150.3723)"
       d="m 979.2555,140.9388 c 0.074,0.2824 -0.033,1.2607 0.4431,1.6945 0.9129,0.8323 3.9466,0.9647 6.3624,1.0492 3.1628,0.1106 9.7611,0.094 11.0052,-1.0323 0.4942,-0.4471 0.2793,-1.4262 0.3351,-1.7114 -0.056,-0.2852 0.1591,-1.2643 -0.3351,-1.7114 -1.2441,-1.1258 -7.8424,-1.1429 -11.0052,-1.0323 -2.4158,0.084 -5.4495,0.2169 -6.3624,1.0492 -0.4758,0.4338 -0.3693,1.4121 -0.4431,1.6945 z m 0,-10.4694 c 0.068,0.2853 -0.091,1.2655 0.4106,1.712 1.15,1.0247 6.2385,1.0943 9.2048,1.1125 2.7718,0.017 6.9407,0.096 8.0483,-0.8725 0.5519,-0.4824 0.4017,-1.6267 0.4821,-1.952 -0.08,-0.3254 0.07,-1.4696 -0.4821,-1.9521 -1.1076,-0.968 -5.2765,-0.8895 -8.0483,-0.8725 -2.9663,0.018 -8.0548,0.088 -9.2048,1.1125 -0.5011,0.4466 -0.3422,1.4267 -0.4106,1.7121 z" /></g></svg>
