<?xml version="1.0" encoding="UTF-8" standalone="no"?>
<!-- Created with Inkscape (http://www.inkscape.org/) -->

<svg
   width="162.73mm"
   height="63.05639mm"
   viewBox="0 0 162.73 63.05639"
   version="1.1"
   id="svg5"
   xml:space="preserve"
   xmlns="http://www.w3.org/2000/svg"
   xmlns:svg="http://www.w3.org/2000/svg"><defs
     id="defs2" /><g
     id="layer1"
     transform="translate(-22.0258,-72.53125)"><path
       id="rect14"
       style="opacity:1;vector-effect:none;fill:#ffffcc;stroke-width:2;stroke-linecap:round;stroke-linejoin:round"
       d="m 30.57959,92.11795 c 9.37798,-9.37799 26.26826,-14.64774 35.64624,-5.26975 8.06469,8.06469 0.0472,37.4837 -4.74146,44.3192 -7.60958,10.8622 -25.74448,-0.5644 -35.12246,-9.9424 -8.06469,-8.0647 -3.84701,-21.0424 4.21768,-29.10705 z" /><path
       id="rect13"
       style="opacity:1;vector-effect:none;fill:#ccccff;stroke-width:2;stroke-linecap:round;stroke-linejoin:round"
       d="m 49.97146,75.9571 c 6.25762,-6.25762 25.93587,-3.17438 32.19349,3.08324 6.77792,6.77792 7.06189,19.834 0.28397,26.61186 -6.25762,6.2576 -37.50077,1.4128 -37.50077,1.4128 0,0 -1.75461,-24.32998 5.02331,-31.1079 z" /><path
       d="m 63.3189,114.2459 v -19.70255 h 3.10792 v 19.70255 z m 6.13026,0 v -14.7983 h 3.10793 v 14.7983 z m 1.53971,-16.70867 q -0.96945,0 -1.48268,-0.39919 -0.48472,-0.42769 -0.48472,-1.19755 0,-0.79836 0.48472,-1.19755 0.51323,-0.39918 1.48268,-0.39918 0.96944,0 1.45417,0.39918 0.51323,0.39919 0.51323,1.19755 0,0.76986 -0.51323,1.19755 -0.48473,0.39919 -1.45417,0.39919 z m 4.56204,20.92857 0.0285,-12.4317 -0.0285,-6.5865 h 2.79429 l -0.19959,4.5336 h 0.28513 q 0.34215,-1.7108 1.02647,-2.7943 0.71283,-1.0835 1.71079,-1.59673 0.99795,-0.54175 2.30956,-0.54175 1.79632,0 3.10792,0.91242 1.31161,0.88386 2.02443,2.62316 0.71283,1.7108 0.71283,4.22 0,2.5376 -0.71283,4.2769 -0.71282,1.7393 -2.02443,2.6518 -1.28309,0.8839 -2.99387,0.8839 -1.45417,0 -2.50915,-0.6273 -1.02648,-0.6558 -1.68228,-1.8249 -0.6558,-1.1975 -0.91242,-2.8228 h -0.37067 q 0.17108,1.055 0.28513,1.996 0.14257,0.9409 0.1996,1.7963 0.0855,0.8269 0.0855,1.5967 v 3.7352 z m 7.07125,-6.5009 q 1.14053,0 1.91038,-0.6273 0.79837,-0.6558 1.19755,-1.7964 0.4277,-1.169 0.4277,-2.7087 0,-1.5112 -0.39919,-2.6517 -0.39918,-1.1405 -1.19755,-1.7678 -0.79836,-0.6273 -1.93889,-0.6273 -0.96944,0 -1.71078,0.4277 -0.71283,0.3992 -1.22607,1.112 -0.48472,0.6843 -0.74134,1.5397 -0.25661,0.8554 -0.25661,1.7108 v 0.3136 q 0,0.5988 0.14256,1.2831 0.17108,0.6843 0.45621,1.3686 0.31364,0.6558 0.76985,1.2261 0.45621,0.5418 1.11202,0.8839 0.6558,0.3137 1.45416,0.3137 z m 14.08542,2.6517 q -2.53767,0 -3.76373,-1.7964 -1.22606,-1.7963 -1.22606,-5.56 v -7.8126 h 3.13644 v 7.6985 q 0,2.5092 0.6558,3.6212 0.68431,1.112 2.13848,1.112 0.88391,0 1.56822,-0.4277 0.71283,-0.4277 1.19757,-1.2831 0.5132,-0.8839 0.7698,-2.167 0.2852,-1.2831 0.3137,-3.0224 v -5.5315 h 3.1079 v 7.8126 l 0.029,6.9857 h -2.7658 l 0.2852,-5.7596 h -0.3137 q -0.2851,2.1384 -0.9409,3.5071 -0.6273,1.3401 -1.68227,1.9959 -1.02647,0.6273 -2.50915,0.6273 z m 22.32572,-0.086 q -2.167,0 -3.279,-1.169 -1.0835,-1.1976 -1.0835,-3.5641 v -7.8126 h -1.9104 v -2.28108 h 0.8554 q 1.0264,-0.0855 1.4827,-0.59877 0.4847,-0.51324 0.5702,-1.53971 l 0.1711,-1.39714 h 1.8819 v 3.279 h 3.8777 v 2.5947 h -3.8777 v 7.5845 q 0,1.112 0.5132,1.6252 0.5417,0.4848 1.4257,0.4848 0.5132,0 1.0264,-0.1426 0.5133,-0.1426 0.941,-0.4562 v 2.9368 q -0.7414,0.2566 -1.3972,0.3422 -0.6273,0.114 -1.1975,0.114 z m 11.063,0.086 q -1.8248,0 -3.1935,-0.5418 -1.3401,-0.5417 -2.2525,-1.5397 -0.8839,-1.0265 -1.3401,-2.3951 -0.4562,-1.3971 -0.4562,-3.0794 0,-1.6538 0.4277,-3.1079 0.4562,-1.4542 1.3116,-2.5377 0.8839,-1.112 2.1955,-1.73929 1.3116,-0.62729 3.0509,-0.62729 1.6252,0 2.8513,0.57026 1.2546,0.54172 2.0815,1.59672 0.8268,1.0265 1.169,2.5092 0.3707,1.4827 0.1996,3.336 l -11.3482,0.1711 v -1.9389 l 9.1812,-0.1426 -0.7128,1.1405 q 0.114,-1.4826 -0.2567,-2.5091 -0.3706,-1.055 -1.169,-1.5967 -0.7984,-0.5703 -1.9959,-0.5703 -1.2831,0 -2.167,0.6843 -0.8839,0.6558 -1.3401,1.8534 -0.4562,1.1975 -0.4562,2.7942 0,2.5662 1.0835,3.9063 1.112,1.3116 3.1934,1.3116 0.9695,0 1.6253,-0.2566 0.6558,-0.2851 1.055,-0.7413 0.3992,-0.4847 0.5702,-1.055 0.1996,-0.5703 0.2281,-1.112 l 2.8513,0.3136 q -0.057,1.112 -0.4847,2.0815 -0.3992,0.9409 -1.1975,1.6823 -0.7984,0.7128 -1.9674,1.1405 -1.1691,0.3992 -2.7373,0.3992 z m 8.6679,-0.3707 v -7.8696 l -0.028,-6.9287 h 2.7658 l -0.2851,6.1303 h 0.3421 q 0.2281,-2.224 0.8554,-3.6497 0.6558,-1.4541 1.7393,-2.16695 1.0835,-0.71283 2.6517,-0.71283 2.5092,0 3.7352,1.76778 1.2261,1.7393 1.2261,5.3605 v 8.0692 h -3.1079 v -7.8411 q 0,-2.3666 -0.6843,-3.4786 -0.6844,-1.112 -2.1385,-1.112 -1.2546,0 -2.1385,0.8269 -0.8839,0.8269 -1.3686,2.4806 -0.4562,1.6253 -0.4562,4.0204 v 5.1038 z m 15.8248,4.2199 0.029,-12.4317 -0.029,-6.5865 h 2.7943 l -0.1996,4.5336 h 0.2851 q 0.3422,-1.7108 1.0265,-2.7943 0.7128,-1.0835 1.7108,-1.59673 0.9979,-0.54175 2.3095,-0.54175 1.7964,0 3.108,0.91242 1.3116,0.88386 2.0244,2.62316 0.7128,1.7108 0.7128,4.22 0,2.5376 -0.7128,4.2769 -0.7128,1.7393 -2.0244,2.6518 -1.2831,0.8839 -2.9939,0.8839 -1.4542,0 -2.5092,-0.6273 -1.0264,-0.6558 -1.6822,-1.8249 -0.6558,-1.1975 -0.9125,-2.8228 h -0.3706 q 0.171,1.055 0.2851,1.996 0.1426,0.9409 0.1996,1.7963 0.085,0.8269 0.085,1.5967 v 3.7352 z m 7.0712,-6.5009 q 1.1406,0 1.9104,-0.6273 0.7984,-0.6558 1.1976,-1.7964 0.4277,-1.169 0.4277,-2.7087 0,-1.5112 -0.3992,-2.6517 -0.3992,-1.1405 -1.1976,-1.7678 -0.7983,-0.6273 -1.9389,-0.6273 -0.9694,0 -1.7107,0.4277 -0.7129,0.3992 -1.2261,1.112 -0.4847,0.6843 -0.7414,1.5397 -0.2566,0.8554 -0.2566,1.7108 v 0.3136 q 0,0.5988 0.1426,1.2831 0.1711,0.6843 0.4562,1.3686 0.3136,0.6558 0.7699,1.2261 0.4562,0.5418 1.112,0.8839 0.6558,0.3137 1.4541,0.3137 z m 15.9388,2.6517 q -2.0814,0 -3.7067,-0.8554 -1.6252,-0.8839 -2.5662,-2.6232 -0.9409,-1.7393 -0.9409,-4.3055 0,-2.6232 0.9409,-4.334 0.9695,-1.7393 2.5947,-2.59469 1.6253,-0.85539 3.6497,-0.85539 2.0815,0 3.7067,0.88391 1.6253,0.88387 2.5377,2.62317 0.9409,1.7393 0.9409,4.334 0,2.6232 -0.9409,4.334 -0.941,1.7108 -2.5662,2.5662 -1.6252,0.8269 -3.6497,0.8269 z m 0.057,-2.4522 q 1.2546,0 2.1385,-0.5987 0.8839,-0.5988 1.3401,-1.7393 0.4848,-1.1691 0.4848,-2.7943 0,-1.6823 -0.5133,-2.8798 -0.4847,-1.2261 -1.3971,-1.8819 -0.9124,-0.6558 -2.1955,-0.6558 -1.2261,0 -2.1385,0.6273 -0.8839,0.5988 -1.3686,1.7678 -0.4562,1.1405 -0.4562,2.7943 0,2.5091 1.0835,3.9348 1.112,1.4256 3.0223,1.4256 z"
       id="text26"
       style="font-weight:500;font-size:28.5131px;line-height:0.9;font-family:'Bricolage Grotesque 72pt';-inkscape-font-specification:'Bricolage Grotesque 72pt, Medium';letter-spacing:0px;word-spacing:0px;stroke-width:0.264582"
       aria-label="lipu tenpo" /><g
       id="g17"
       transform="translate(-44.06771,-17.40611)"
       style="stroke-width:2.40242"><path
         style="color:#000000;fill:#000000;stroke-linejoin:round;-inkscape-stroke:none;paint-order:markers stroke fill"
         d="m 87.61133,118.1211 v 6.8437 a 1.201329,1.201329 0 0 0 1.20117,1.2012 h 6.84375 v -2.4023 h -5.64258 v -5.6426 z"
         id="rect17" /><path
         style="color:#000000;fill:#000000;-inkscape-stroke:none;paint-order:markers stroke fill"
         d="m 83.85938,116.9199 c -1.69148,0 -3.0918,1.3984 -3.0918,3.0899 v 9.9082 c 0,1.6914 1.40032,3.0918 3.0918,3.0918 h 9.9082 c 1.69147,0 3.08984,-1.4004 3.08984,-3.0918 v -9.9082 c 0,-1.6915 -1.39837,-3.0899 -3.08984,-3.0899 z m 0,2.4024 h 9.9082 c 0.40209,0 0.6875,0.2854 0.6875,0.6875 v 9.9082 c 0,0.4021 -0.28541,0.6894 -0.6875,0.6894 h -9.9082 c -0.4021,0 -0.68946,-0.2873 -0.68946,-0.6894 v -9.9082 c 0,-0.4021 0.28736,-0.6875 0.68946,-0.6875 z"
         id="rect1" /></g></g></svg>
