<?xml version="1.0" encoding="UTF-8" standalone="no"?>
<!-- Created with Inkscape (http://www.inkscape.org/) -->

<svg
   width="303mm"
   height="216mm"
   viewBox="0 0 303 216"
   version="1.1"
   id="svg5"
   xml:space="preserve"
   sodipodi:docname="selo.svg"
   inkscape:version="1.3.2 (091e20e, 2023-11-25)"
   xmlns:inkscape="http://www.inkscape.org/namespaces/inkscape"
   xmlns:sodipodi="http://sodipodi.sourceforge.net/DTD/sodipodi-0.dtd"
   xmlns="http://www.w3.org/2000/svg"
   xmlns:svg="http://www.w3.org/2000/svg"><sodipodi:namedview
     id="namedview1"
     pagecolor="#ffffff"
     bordercolor="#666666"
     borderopacity="1.0"
     inkscape:showpageshadow="2"
     inkscape:pageopacity="0.0"
     inkscape:pagecheckerboard="0"
     inkscape:deskcolor="#d1d1d1"
     inkscape:document-units="mm"
     showgrid="false"
     inkscape:zoom="0.74711008"
     inkscape:cx="977.09831"
     inkscape:cy="336.63045"
     inkscape:window-width="1920"
     inkscape:window-height="1011"
     inkscape:window-x="0"
     inkscape:window-y="0"
     inkscape:window-maximized="1"
     inkscape:current-layer="layer1" /><defs
     id="defs2"><inkscape:path-effect
       effect="bspline"
       id="path-effect4"
       is_visible="true"
       lpeversion="1.3"
       weight="33.333333"
       steps="2"
       helper_size="0"
       apply_no_weight="true"
       apply_with_weight="true"
       only_selected="false"
       uniform="false" /><inkscape:path-effect
       effect="bspline"
       id="path-effect3"
       is_visible="true"
       lpeversion="1.3"
       weight="33.333333"
       steps="2"
       helper_size="0"
       apply_no_weight="true"
       apply_with_weight="true"
       only_selected="false"
       uniform="false" /><inkscape:path-effect
       effect="bspline"
       id="path-effect2"
       is_visible="true"
       lpeversion="1.3"
       weight="33.333333"
       steps="2"
       helper_size="0"
       apply_no_weight="true"
       apply_with_weight="true"
       only_selected="false"
       uniform="false" /><inkscape:path-effect
       effect="bspline"
       id="path-effect1"
       is_visible="true"
       lpeversion="1.3"
       weight="33.333333"
       steps="2"
       helper_size="0"
       apply_no_weight="true"
       apply_with_weight="true"
       only_selected="false"
       uniform="false" /></defs><g
     id="layer1"
     transform="translate(-899.2266,265.6201)"><path
       id="path1"
       style="fill:#ffffaa;stroke:none;stroke-width:0.264583px;stroke-linecap:butt;stroke-linejoin:miter;stroke-opacity:1"
       d="M 1023.7162 -265.6201 C 1015.4512 -252.02902 1013.8846 -234.79225 1015.3895 -216.32285 C 1017.7952 -186.79913 1028.0106 -155.31921 1042.6349 -135.62235 C 1057.2593 -115.92549 1076.2915 -108.01224 1088.7117 -112.5111 C 1101.1319 -117.00995 1106.9399 -133.92051 1122.2621 -154.97414 C 1137.5843 -176.02776 1161.7343 -200.03343 1172.3794 -224.77143 C 1178.6064 -239.24211 1179.8706 -253.65705 1174.4615 -265.6201 L 1023.7162 -265.6201 z " /><path
       id="path2"
       style="fill:#aaeedd;stroke:none;stroke-width:0.264583px;stroke-linecap:butt;stroke-linejoin:miter;stroke-opacity:1"
       d="M 1079.9355 -164.51671 C 1051.5278 -164.95975 1025.1719 -151.05091 1003.5923 -129.91779 C 977.07228 -103.94643 958.63327 -68.857111 959.82962 -49.619848 L 1202.2267 -49.619848 L 1202.2267 -74.231265 C 1185.0649 -103.16857 1148.9196 -141.94147 1114.0631 -156.97712 C 1102.482 -161.97274 1091.0515 -164.34335 1079.9355 -164.51671 z " /><path
       id="path3"
       style="fill:#ffcccc;stroke:none;stroke-width:0.264583px;stroke-linecap:butt;stroke-linejoin:miter;stroke-opacity:1"
       d="M 1194.0824 -183.60064 C 1187.4106 -181.94253 1180.1545 -178.65723 1173.7338 -172.222 C 1160.9122 -159.37139 1151.4225 -133.965 1153.5221 -114.62449 C 1155.6218 -95.28397 1171.1743 -80.201997 1189.2316 -77.326505 C 1190.8329 -77.071513 1192.4541 -76.917388 1194.0824 -76.853149 L 1194.0824 -183.60064 z "
       transform="translate(8.1442651,8.8985031)" /><path
       id="path4"
       style="fill:#ccccff;stroke:none;stroke-width:0.264583px;stroke-linecap:butt;stroke-linejoin:miter;stroke-opacity:1"
       d="M 928.0696 -287.16173 L 928.0696 -147.68498 C 936.248 -145.0248 944.40546 -144.49565 952.0516 -148.10614 C 971.85512 -157.45731 988.07662 -194.53374 997.16926 -218.74059 C 1006.2619 -242.94743 1008.2256 -254.28377 1009.0238 -269.54524 C 1009.3221 -275.2483 1009.4551 -281.49842 1008.1903 -287.16173 L 928.0696 -287.16173 z "
       transform="translate(-28.843001,21.541634)" /><rect
       style="fill:#ffffff;stroke:#000000;stroke-width:1.5;stroke-linecap:round;stroke-linejoin:round;stroke-dasharray:none;paint-order:fill markers stroke"
       id="rect8"
       width="123.5"
       height="185"
       x="914.7266"
       y="-250.1202"
       ry="10" /><rect
       style="fill:#ffffff;stroke:#000000;stroke-width:1.5;stroke-linecap:round;stroke-linejoin:round;stroke-dasharray:none;paint-order:fill markers stroke"
       id="rect9"
       width="123.5"
       height="185"
       x="1063.227"
       y="-250.1202"
       ry="10" /><path
       d="m 1087.412,-219.9674 v -11.7899 h 2.688 v 11.7899 z m 4.141,0 v -8.8174 h 2.689 v 8.8174 z m 1.336,-9.6357 q -0.768,0 -1.185,-0.3172 -0.401,-0.3173 -0.401,-0.9352 0,-0.6346 0.401,-0.9519 0.417,-0.334 1.185,-0.334 0.785,0 1.186,0.334 0.417,0.3173 0.417,0.9519 0,0.6012 -0.417,0.9352 -0.401,0.3172 -1.186,0.3172 z m 2.822,12.2074 v -7.8487 -3.5404 h 2.322 v 2.6553 l 0.183,0.017 q 0.167,-0.9686 0.535,-1.6199 0.384,-0.6513 0.968,-0.9686 0.585,-0.3173 1.386,-0.3173 1.069,0 1.82,0.5344 0.769,0.5344 1.169,1.5699 0.401,1.0353 0.401,2.5383 0,1.5196 -0.417,2.555 -0.418,1.0353 -1.169,1.5697 -0.752,0.5177 -1.77,0.5177 -0.769,0 -1.353,-0.3006 -0.568,-0.3173 -0.952,-0.9519 -0.367,-0.6345 -0.551,-1.5864 h -0.2 q 0.08,0.4676 0.15,0.9853 0.08,0.5009 0.117,0.9852 0.05,0.4843 0.05,0.9352 v 2.2711 z m 4.426,-4.5255 q 0.534,0 0.885,-0.3173 0.367,-0.334 0.534,-0.8684 0.184,-0.5511 0.184,-1.2023 0,-0.7014 -0.201,-1.2358 -0.183,-0.5511 -0.551,-0.8684 -0.35,-0.334 -0.868,-0.334 -0.384,0 -0.701,0.167 -0.318,0.167 -0.551,0.4843 -0.218,0.3006 -0.351,0.7515 -0.134,0.4342 -0.134,0.9853 v 0.167 q 0,0.4508 0.08,0.8182 0.1,0.3507 0.267,0.6179 0.167,0.2672 0.384,0.4676 0.234,0.1837 0.484,0.2839 0.267,0.084 0.535,0.084 z m 8.416,2.1876 q -1.486,0 -2.204,-1.0187 -0.718,-1.0186 -0.718,-3.1228 v -4.9097 h 2.705 v 4.7928 q 0,1.0354 0.301,1.4863 0.3,0.4509 0.885,0.4509 0.384,0 0.701,-0.2004 0.317,-0.2004 0.551,-0.6012 0.234,-0.4008 0.351,-0.9853 0.117,-0.6011 0.117,-1.386 v -3.5571 h 2.705 v 4.9598 3.8576 h -2.254 l -0.02,-3.223 h -0.184 q -0.133,1.2024 -0.501,1.9705 -0.35,0.7682 -0.968,1.1356 -0.601,0.3507 -1.47,0.3507 z m 13.844,-0.033 q -1.553,0 -2.305,-0.8016 -0.751,-0.8015 -0.751,-2.5049 v -3.6071 h -1.052 l 0.02,-1.8203 h 0.3 q 0.885,-0.1002 1.269,-0.5344 0.384,-0.4342 0.485,-1.3693 l 0.07,-0.3841 h 1.553 v 2.0039 h 2.054 v 2.171 h -2.054 v 3.3232 q 0,0.6179 0.301,0.8851 0.301,0.2672 0.802,0.2672 0.25,0 0.501,-0.067 0.267,-0.067 0.484,-0.1837 v 2.388 q -0.534,0.1503 -0.952,0.1837 -0.401,0.05 -0.718,0.05 z m 6.813,0.033 q -1.219,0 -2.07,-0.334 -0.852,-0.3507 -1.403,-0.9519 -0.535,-0.6178 -0.785,-1.4194 -0.251,-0.8183 -0.251,-1.7534 0,-0.9853 0.251,-1.8537 0.267,-0.885 0.802,-1.5364 0.534,-0.668 1.352,-1.0521 0.818,-0.3841 1.921,-0.3841 1.118,0 1.92,0.3841 0.818,0.3674 1.319,1.0688 0.501,0.6848 0.668,1.6199 0.167,0.9352 0.02,2.0373 l -6.546,0.1002 v -1.4528 l 4.642,-0.084 -0.534,0.8016 q 0.1,-0.7849 -0.05,-1.3026 -0.151,-0.5344 -0.518,-0.8016 -0.351,-0.2671 -0.902,-0.2671 -0.601,0 -1.002,0.3172 -0.384,0.3173 -0.567,0.9018 -0.184,0.5845 -0.184,1.3861 0,1.3526 0.484,1.9705 0.501,0.6179 1.436,0.6179 0.418,0 0.685,-0.1002 0.284,-0.1002 0.451,-0.2839 0.184,-0.2004 0.25,-0.4676 0.08,-0.2672 0.101,-0.5845 l 2.438,0.2505 q -0.02,0.5678 -0.217,1.1356 -0.184,0.551 -0.635,1.0186 -0.451,0.4509 -1.219,0.7348 -0.752,0.2839 -1.854,0.2839 z m 5.043,-0.2338 v -5.0766 -3.7408 h 2.238 l 0.02,3.3066 h 0.2 q 0.134,-1.2024 0.485,-1.9873 0.35,-0.7849 0.968,-1.169 0.618,-0.3841 1.536,-0.3841 1.47,0 2.221,1.002 0.752,0.9853 0.752,3.006 v 5.0432 h -2.705 v -4.7092 q 0,-1.0354 -0.318,-1.5364 -0.3,-0.501 -0.951,-0.501 -0.535,0 -0.936,0.3674 -0.384,0.3507 -0.601,1.1022 -0.217,0.7348 -0.217,1.9037 v 3.3733 z m 9.786,2.5717 v -7.8487 -3.5404 h 2.322 v 2.6553 l 0.183,0.017 q 0.167,-0.9686 0.535,-1.6199 0.384,-0.6513 0.968,-0.9686 0.585,-0.3173 1.386,-0.3173 1.069,0 1.82,0.5344 0.769,0.5344 1.169,1.5699 0.401,1.0353 0.401,2.5383 0,1.5196 -0.417,2.555 -0.418,1.0353 -1.169,1.5697 -0.752,0.5177 -1.77,0.5177 -0.769,0 -1.353,-0.3006 -0.568,-0.3173 -0.952,-0.9519 -0.367,-0.6345 -0.551,-1.5864 h -0.2 q 0.08,0.4676 0.15,0.9853 0.08,0.5009 0.117,0.9852 0.05,0.4843 0.05,0.9352 v 2.2711 z m 4.426,-4.5255 q 0.534,0 0.885,-0.3173 0.367,-0.334 0.534,-0.8684 0.184,-0.5511 0.184,-1.2023 0,-0.7014 -0.201,-1.2358 -0.183,-0.5511 -0.551,-0.8684 -0.35,-0.334 -0.868,-0.334 -0.384,0 -0.701,0.167 -0.318,0.167 -0.552,0.4843 -0.217,0.3006 -0.35,0.7515 -0.134,0.4342 -0.134,0.9853 v 0.167 q 0,0.4508 0.08,0.8182 0.1,0.3507 0.267,0.6179 0.167,0.2672 0.384,0.4676 0.234,0.1837 0.484,0.2839 0.267,0.084 0.535,0.084 z m 9.635,2.1876 q -1.302,0 -2.304,-0.501 -0.986,-0.5177 -1.553,-1.553 -0.551,-1.0354 -0.551,-2.5884 0,-1.5865 0.567,-2.6051 0.585,-1.0355 1.587,-1.5365 1.018,-0.501 2.288,-0.501 1.319,0 2.304,0.5177 1.002,0.501 1.553,1.5365 0.551,1.0186 0.551,2.5884 0,1.6031 -0.584,2.6385 -0.585,1.0353 -1.587,1.5196 -1.002,0.4843 -2.271,0.4843 z m 0.07,-1.9705 q 0.551,0 0.902,-0.2839 0.367,-0.3006 0.551,-0.8684 0.2,-0.5678 0.2,-1.3693 0,-0.8684 -0.217,-1.4696 -0.2,-0.6012 -0.584,-0.9185 -0.384,-0.3172 -0.969,-0.3172 -0.518,0 -0.885,0.3005 -0.367,0.2839 -0.568,0.8517 -0.183,0.5678 -0.183,1.3694 0,1.3025 0.467,2.0039 0.468,0.7014 1.286,0.7014 z"
       id="path12"
       style="font-weight:800;font-size:16.6994px;line-height:0.85;font-family:'Bricolage Grotesque 72pt';-inkscape-font-specification:'Bricolage Grotesque 72pt, Ultra-Bold';font-variant-numeric:oldstyle-nums;stroke-width:0.264583"
       aria-label="lipu tenpo" /></g></svg>
