<?xml version="1.0" encoding="UTF-8"?>
<svg width="210mm" height="297mm" version="1.1" viewBox="0 0 210 297" xmlns="http://www.w3.org/2000/svg"><g stroke="#000"><rect x="48.403" y="173.9" width="49.416" height="35.812" fill="#888" stop-color="#0c0c0c" stroke-width="1.2981" style="-inkscape-stroke:none;font-variation-settings:normal"/><rect x="51.148" y="198.7" width="43.925" height="8.2644" fill="#9f9f9f" stop-color="#0c0c0c" stroke-width="1.2981" style="-inkscape-stroke:none;font-variation-settings:normal"/><g fill="#707070"><rect x="51.148" y="187.68" width="43.925" height="8.2644" stop-color="#0c0c0c" stroke-width="1.2981" style="-inkscape-stroke:none;font-variation-settings:normal"/><rect x="51.148" y="176.66" width="43.925" height="8.2644" stop-color="#0c0c0c" stroke-width="1.2981" style="-inkscape-stroke:none;font-variation-settings:normal"/><g stroke-linecap="round"><g stroke-width="1.2981"><path d="m70.366 201.45h5.4907" style="font-variation-settings:normal"/><path d="m70.366 190.43h5.4907" style="font-variation-settings:normal"/><path d="m70.366 179.41h5.4907" style="font-variation-settings:normal"/></g><rect x="97.819" y="173.9" width="5.4907" height="35.812" stroke-width="1.2981" style="font-variation-settings:normal"/></g></g><g stroke-linecap="round" stroke-width="1.2981"><g><rect transform="rotate(-12.601)" x="82.713" y="144.62" width="10.733" height="8.5862" fill="#d1d1d1" style="-inkscape-stroke:none;font-variation-settings:normal"/><rect transform="rotate(-12.601)" x="93.445" y="144.62" width="4.2931" height="8.5862" fill="#888" stop-color="#0c0c0c" style="-inkscape-stroke:none;font-variation-settings:normal"/><rect transform="rotate(-12.601)" x="55.481" y="143.06" width="10.733" height="8.5862" fill="#d1d1d1" style="-inkscape-stroke:none;font-variation-settings:normal"/><rect transform="rotate(-12.601)" x="66.214" y="143.06" width="4.2931" height="8.5862" fill="#888" stop-color="#0c0c0c" style="-inkscape-stroke:none;font-variation-settings:normal"/><rect x="78.553" y="171.7" width="10.733" height="8.5862" fill="#d1d1d1" style="-inkscape-stroke:none;font-variation-settings:normal"/><rect x="89.286" y="171.7" width="4.2931" height="8.5862" fill="#888" stop-color="#0c0c0c" style="-inkscape-stroke:none;font-variation-settings:normal"/><rect transform="rotate(14.478)" x="147" y="92.228" width="12.879" height="2.1465" fill="#7b7b7b" stop-color="#0c0c0c" style="-inkscape-stroke:none;font-variation-settings:normal"/><rect transform="rotate(14.478)" x="159.88" y="92.228" width="4.2931" height="2.1465" fill="#515151" stop-color="#0c0c0c" style="-inkscape-stroke:none;font-variation-settings:normal"/><rect transform="rotate(14.478)" x="149.15" y="90.081" width="8.5862" height="2.1465" fill="#7b7b7b" stop-color="#0c0c0c" style="-inkscape-stroke:none;font-variation-settings:normal"/><rect transform="rotate(14.478)" x="157.73" y="90.081" width="4.2931" height="2.1465" fill="#515151" stop-color="#0c0c0c" style="-inkscape-stroke:none;font-variation-settings:normal"/><path d="m117.18 130.71 3.2935-34.186 2.1366 0.20585-3.2935 34.186z" fill="#fff" stop-color="#0c0c0c" style="-inkscape-stroke:none;font-variation-settings:normal"/></g><path d="m114.06 95.902 14.957 1.4409-3.2441-11.095-6.4099-0.61754z" fill="#868686"/></g><g fill="#707070" stroke-linecap="round" stroke-width="1.2981"><path d="m110.77 130.09 2.3425-1.9308 10.683 1.0292 1.9308 2.3425z"/><g><rect transform="rotate(-37.849)" x="17" y="195.66" width="15.026" height="2.1465" style="-inkscape-stroke:none;font-variation-settings:normal"/><rect transform="rotate(-37.849)" x="17" y="198.35" width="2.2622" height="12.33" style="-inkscape-stroke:none;font-variation-settings:normal"/><rect transform="rotate(-37.849)" x="29.879" y="197.8" width="2.1465" height="12.879" style="-inkscape-stroke:none;font-variation-settings:normal"/></g></g><g stroke-linecap="round" stroke-width="1.2981"><rect transform="rotate(-37.849)" x="32.026" y="195.66" width="8.5862" height="2.1465" fill="#fff" stop-color="#0c0c0c" style="-inkscape-stroke:none;font-variation-settings:normal"/><rect transform="rotate(-37.849)" x="38.465" y="197.8" width="2.1465" height="12.879" fill="#c9c9c9" stop-color="#0c0c0c" style="-inkscape-stroke:none;font-variation-settings:normal"/><rect transform="rotate(-37.849)" x="25.586" y="197.8" width="2.1465" height="12.879" fill="#707070" style="-inkscape-stroke:none;font-variation-settings:normal"/></g><g fill="#fff" stroke-linecap="round"><g stroke-width="1.2981"><path d="m136.88 116.96-5.0849 3.9512c-1.8722 1.4548-2.2106 4.1519-0.7558 6.0241l9.2196 11.865 11.865-9.2196-9.2196-11.865c-1.4548-1.8722-4.1519-2.2106-6.0241-0.75577z" stop-color="#0c0c0c" style="-inkscape-stroke:none;font-variation-settings:normal"/><rect transform="rotate(-37.849)" x="27.733" y="184.92" width="2.1466" height="10.733" style="-inkscape-stroke:none;font-variation-settings:normal"/><rect transform="rotate(-37.849)" x="36.319" y="184.92" width="2.1466" height="10.733" style="-inkscape-stroke:none;font-variation-settings:normal"/></g><rect transform="rotate(-37.849)" x="32.026" y="180.63" width="2.1465" height="15.026" stroke-width="1.2981" style="-inkscape-stroke:none;font-variation-settings:normal"/><rect transform="rotate(13.601)" x="100.24" y="100.65" width="15.026" height="2.1465" stop-color="#0c0c0c" stroke-width="1.2981" style="-inkscape-stroke:none;font-variation-settings:normal"/></g><g stroke-linecap="round" stroke-width="1.2981"><rect transform="rotate(13.601)" x="100.24" y="103.34" width="2.2622" height="12.33" fill="#c9c9c9" stop-color="#0c0c0c" style="-inkscape-stroke:none;font-variation-settings:normal"/><rect transform="rotate(13.601)" x="113.12" y="102.79" width="2.1465" height="12.879" fill="#c9c9c9" stop-color="#0c0c0c" style="-inkscape-stroke:none;font-variation-settings:normal"/><rect transform="rotate(13.601)" x="115.26" y="100.65" width="8.5862" height="2.1465" fill="#9d9d9d" stop-color="#0c0c0c" style="-inkscape-stroke:none;font-variation-settings:normal"/><rect transform="rotate(13.601)" x="121.7" y="102.79" width="2.1465" height="12.879" fill="#707070" style="-inkscape-stroke:none;font-variation-settings:normal"/><rect transform="rotate(13.601)" x="108.82" y="102.79" width="2.1465" height="12.879" fill="#9d9d9d" stop-color="#0c0c0c" style="-inkscape-stroke:none;font-variation-settings:normal"/></g><g fill="#fff" stroke-linecap="round"><g stroke-width="1.2981"><path d="m97.078 107.16-6.259-1.5144c-2.3045-0.55758-4.6247 0.85858-5.1823 3.1631l-3.5336 14.604 14.604 3.5336 3.5336-14.604c0.55758-2.3045-0.85859-4.6247-3.1631-5.1823z" stop-color="#0c0c0c" style="-inkscape-stroke:none;font-variation-settings:normal"/><rect transform="rotate(13.601)" x="110.97" y="89.913" width="2.1466" height="10.733" style="-inkscape-stroke:none;font-variation-settings:normal"/><rect transform="rotate(13.601)" x="119.56" y="89.913" width="2.1466" height="10.733" style="-inkscape-stroke:none;font-variation-settings:normal"/></g><rect transform="rotate(13.601)" x="115.26" y="85.62" width="2.1465" height="15.026" stroke-width="1.2981" style="-inkscape-stroke:none;font-variation-settings:normal"/></g><path d="m76.036 131.98c-2.3631 0.19301-4.1224 2.2652-3.9294 4.6283l1.5726 19.255 19.255-1.5726-1.5726-19.255c-0.193-2.3631-2.2652-4.1224-4.6283-3.9294z" fill="#494949" stop-color="#0c0c0c" stroke-linecap="round" stroke-width="1.2981" style="-inkscape-stroke:none;font-variation-settings:normal"/><rect transform="rotate(-4.6692)" x="45.721" y="160.16" width="27.905" height="14.061" fill="#707070" stroke-linecap="round" stroke-width="1.2981"/><path d="m96.339 143.24-10.697 0.87369 1.9221 23.534s8.516-0.69553 10.697-0.87366c2.3631-0.19301 4.1224-2.2652 3.9294-4.6283l-1.2231-14.976c-0.193-2.3631-2.2652-4.1224-4.6283-3.9294z" fill="#707070" stroke-width="1.2981"/><g stroke-width="1.2981"><g><path d="m57.829 146.39a4.2931 4.2931 0 0 0-3.9294 4.6283l1.2231 14.976a4.2931 4.2931 0 0 0 4.6283 3.9294 4.2931 4.2931 0 0 0 3.9294-4.6283l-1.2231-14.976a4.2931 4.2931 0 0 0-4.6283-3.9294z" fill="#494949" stop-color="#0c0c0c" stroke-linecap="round" style="-inkscape-stroke:none;font-variation-settings:normal"/><rect transform="rotate(-4.6692)" x="44.648" y="149.54" width="12.879" height="10.733" fill="#494949" stop-color="#0c0c0c" stroke-linecap="round" style="-inkscape-stroke:none;font-variation-settings:normal"/><path d="m71.757 132.33c-2.3631 0.193-4.1224 2.2652-3.9294 4.6283l1.5726 19.255 19.255-1.5726-1.5726-19.255c-0.193-2.3631-2.2652-4.1224-4.6283-3.9294z" fill="#747474" stop-color="#0c0c0c" style="-inkscape-stroke:none;font-variation-settings:normal"/><path d="m85.642 144.12a4.2931 4.2931 0 0 0-3.9294 4.6283l1.2231 14.976a4.2931 4.2931 0 0 0 4.6283 3.9294 4.2931 4.2931 0 0 0 3.9294-4.6283l-1.2231-14.976a4.2931 4.2931 0 0 0-4.6283-3.9294z" fill="#494949" stop-color="#0c0c0c" stroke-linecap="round" style="-inkscape-stroke:none;font-variation-settings:normal"/></g><path d="m59.402 165.64-0.87367-10.697" fill="#707070" stroke-linecap="round"/><circle transform="rotate(-4.6692)" cx="44.648" cy="154.9" r="5.3664" fill="#747474"/></g><path d="m86.624 142.96 0.87367 10.697 11.756-1.0993c2.9509-0.27601 5.153-2.8315 4.9117-5.7854-0.24124-2.9539-2.8345-5.1877-5.7854-4.9117z" fill="#707070" stroke-linecap="round" stroke-width="1.3088"/><g stroke-width="1.2981"><path d="m87.214 163.37-0.87367-10.697" fill="#707070" stroke-linecap="round"/><g><circle transform="rotate(-4.6692)" cx="74.699" cy="154.9" r="5.3664" fill="#747474" stop-color="#0c0c0c" style="-inkscape-stroke:none;font-variation-settings:normal"/><rect transform="rotate(-4.6692)" x="50.014" y="161.34" width="19.319" height="12.879" fill="#494949" stop-color="#0c0c0c" stroke-linecap="round" style="-inkscape-stroke:none;font-variation-settings:normal"/><path d="m82.236 155.16c-0.19301-2.3631-2.2652-4.1224-4.6283-3.9294l-10.697 0.87366c-2.3631 0.19301-4.1224 2.2652-3.9294 4.6283z" fill="#747474" stop-color="#0c0c0c" style="-inkscape-stroke:none;font-variation-settings:normal"/></g><g stroke-linecap="round"><path d="m72.106 136.61 10.697-0.87367" fill="#707070"/><path d="m72.63 143.03 10.697-0.87366" fill="#707070"/><rect transform="rotate(9.4931)" x="114.12" y="94.891" width="12.879" height="53.664" fill="#d1d1d1" stop-color="#0c0c0c" style="-inkscape-stroke:none;font-variation-settings:normal"/></g></g><g fill="#707070" stroke-linecap="round" stroke-width="1.2981"><rect transform="rotate(9.4931)" x="116.26" y="139.97" width="8.5862" height="6.4396" style="font-variation-settings:normal"/><rect transform="rotate(9.4931)" x="116.26" y="131.38" width="8.5862" height="6.4396" style="font-variation-settings:normal"/><rect transform="rotate(9.4931)" x="116.26" y="122.8" width="8.5862" height="6.4396" style="font-variation-settings:normal"/></g><g fill="#595959" stroke-linecap="round" stroke-width="1.2981"><rect transform="rotate(9.4931)" x="116.26" y="114.21" width="8.5862" height="6.4396" stop-color="#0c0c0c" style="-inkscape-stroke:none;font-variation-settings:normal"/><rect transform="rotate(9.4931)" x="116.26" y="105.62" width="8.5862" height="6.4396" stop-color="#0c0c0c" style="-inkscape-stroke:none;font-variation-settings:normal"/><rect transform="rotate(9.4931)" x="116.26" y="97.037" width="8.5862" height="6.4396" stop-color="#0c0c0c" style="-inkscape-stroke:none;font-variation-settings:normal"/></g><g stroke-linecap="round" stroke-width="1.2981"><rect transform="rotate(9.4931)" x="118.41" y="105.62" width="2.1466" height="6.4396" fill="#6f6f6f" style="font-variation-settings:normal"/><rect transform="rotate(9.4931)" x="120.56" y="107.77" width="2.1465" height="4.2931" fill="#929292" style="font-variation-settings:normal"/><rect transform="rotate(9.4931)" x="122.7" y="107.77" width="2.1465" height="4.2931" fill="#7e7e7e" style="font-variation-settings:normal"/></g><g fill="#707070" stroke-linecap="round" stroke-width="1.2981"><rect transform="rotate(9.4931)" x="122.7" y="122.8" width="2.1465" height="6.4396" style="font-variation-settings:normal"/><rect transform="rotate(9.4931)" x="120.56" y="124.94" width="2.1465" height="4.2931" style="font-variation-settings:normal"/><rect transform="rotate(9.4931)" x="118.41" y="122.8" width="2.1465" height="6.4396" style="font-variation-settings:normal"/><rect transform="rotate(9.4931)" x="116.26" y="133.53" width="2.1465" height="4.2931" style="font-variation-settings:normal"/><rect transform="rotate(9.4931)" x="118.41" y="133.53" width="2.1465" height="4.2931" style="font-variation-settings:normal"/><rect transform="rotate(9.4931)" x="120.56" y="131.38" width="2.1465" height="6.4396" style="font-variation-settings:normal"/><rect transform="rotate(9.4931)" x="122.7" y="133.53" width="2.1465" height="4.2931" style="font-variation-settings:normal"/><rect transform="rotate(9.4931)" x="116.26" y="142.11" width="4.2931" height="4.2931" style="font-variation-settings:normal"/><rect transform="rotate(9.4931)" x="120.56" y="139.97" width="2.1465" height="6.4396" style="font-variation-settings:normal"/><rect transform="rotate(9.4931)" x="122.7" y="142.11" width="2.1465" height="4.2931" style="font-variation-settings:normal"/></g><g stroke-linecap="round" stroke-width="1.2981"><rect transform="rotate(9.4931)" x="127" y="94.891" width="6.4396" height="53.664" fill="#888" stop-color="#0c0c0c" style="-inkscape-stroke:none;font-variation-settings:normal"/><path d="m115.31 129.76c-2.3537-0.28609-4.4936 1.39-4.7797 3.7437l-2.331 19.178 44.748 5.439 2.331-19.178c0.28608-2.3537-1.39-4.4936-3.7437-4.7797z" fill="#3e3e3e" stop-color="#0c0c0c" style="-inkscape-stroke:none;font-variation-settings:normal"/><rect transform="rotate(6.9302)" x="110.8" y="137.33" width="51.517" height="14.061" fill="#707070"/><g><path d="m156.37 147.72-10.654-1.295-2.849 23.439s8.482 1.031 10.654 1.295c2.3537 0.28608 4.4936-1.39 4.7797-3.7437l1.813-14.916c0.28608-2.3537-1.39-4.4936-3.7437-4.7797z" fill="#3e3e3e" stop-color="#0c0c0c" style="-inkscape-stroke:none;font-variation-settings:normal"/><path d="m94.575 140.21a4.2931 4.2931 0 0 0-4.7797 3.7437l-1.813 14.916a4.2931 4.2931 0 0 0 3.7437 4.7797 4.2931 4.2931 0 0 0 4.7797-3.7437l1.813-14.916a4.2931 4.2931 0 0 0-3.7437-4.7797z" fill="#525252" stop-color="#0c0c0c" style="-inkscape-stroke:none;font-variation-settings:normal"/><rect transform="rotate(6.9302)" x="109.73" y="126.7" width="12.879" height="10.733" fill="#3e3e3e" stop-color="#0c0c0c" style="-inkscape-stroke:none;font-variation-settings:normal"/></g></g><path d="m111.05 129.24c-2.3537-0.28609-4.4936 1.39-4.7797 3.7437l-2.331 19.178 44.748 5.439 2.331-19.178c0.28608-2.3537-1.39-4.4936-3.7437-4.7797z" fill="#707070" stroke-width="1.2981"/><g stroke-width="1.2981"><g stroke-linecap="round"><path d="m145.72 146.43a4.2931 4.2931 0 0 0-4.7797 3.7437l-1.813 14.916a4.2931 4.2931 0 0 0 3.7437 4.7797 4.2931 4.2931 0 0 0 4.7797-3.7437l1.813-14.916a4.2931 4.2931 0 0 0-3.7437-4.7797z" fill="#525252" stop-color="#0c0c0c" style="-inkscape-stroke:none;font-variation-settings:normal"/><rect transform="rotate(6.9302)" x="115.1" y="138.51" width="21.465" height="12.879" fill="#525252" stop-color="#0c0c0c" style="-inkscape-stroke:none;font-variation-settings:normal"/><path d="m92.244 159.39 1.295-10.654" fill="#707070"/></g><circle transform="rotate(6.9302)" cx="109.73" cy="132.07" r="5.3664" fill="#707070"/><path d="m146.91 145.49-1.295 10.654 11.736 1.2868c2.9461 0.32296 5.617-1.7375 5.9747-4.6796 0.35761-2.9421-1.7335-5.6517-4.6796-5.9747z" fill="#3e3e3e" stop-color="#0c0c0c" stroke-linecap="round" style="-inkscape-stroke:none;font-variation-settings:normal"/></g><g fill="#707070"><path d="m143.38 165.61 1.295-10.654" stroke-linecap="round" stroke-width="1.2981"/><circle transform="rotate(6.9302)" cx="163.39" cy="132.07" r="5.3664" stroke-width="1.2981"/><path d="m118.85 153.98c0.28609-2.3537-1.39-4.4936-3.7437-4.7797l-12.785-1.554c-2.3537-0.28609-4.4936 1.39-4.7797 3.7437z" stroke-width="1.2981"/><g stroke-linecap="round" stroke-width="1.2981"><path d="m110.53 133.5 34.094 4.144"/><path d="m109.75 139.9 12.785 1.554"/><path d="m131.06 142.49 12.785 1.554"/></g><path d="m140.16 156.57c0.28609-2.3537-1.39-4.4936-3.7437-4.7797l-12.785-1.554c-2.3537-0.28609-4.4936 1.39-4.7797 3.7437z" stroke-width="1.2981"/></g><g stroke-linecap="round" stroke-width="1.2981"><rect transform="rotate(6.9302)" x="136.56" y="138.51" width="21.465" height="12.879" fill="#525252" stop-color="#0c0c0c" style="-inkscape-stroke:none;font-variation-settings:normal"/><rect transform="rotate(-4.7194)" x="29.903" y="175.34" width="2.2622" height="23.337" fill="#d1d1d1" stop-color="#0c0c0c" style="-inkscape-stroke:none;font-variation-settings:normal"/><rect transform="rotate(-4.7194)" x="32.165" y="175.34" width="15.026" height="23.337" fill="#888" stop-color="#0c0c0c" style="-inkscape-stroke:none;font-variation-settings:normal"/><rect transform="rotate(85.281)" x="173.2" y="-94.299" width="2.2622" height="55.81" fill="#707070" style="-inkscape-stroke:none;font-variation-settings:normal"/><rect transform="rotate(-4.7194)" x="72.949" y="175.62" width="15.026" height="23.337" fill="#888" stop-color="#0c0c0c" style="-inkscape-stroke:none;font-variation-settings:normal"/><rect transform="rotate(85.281)" x="173.2" y="-79.273" width="2.2622" height="55.81" fill="#d1d1d1" stop-color="#0c0c0c" style="-inkscape-stroke:none;font-variation-settings:normal"/><rect transform="rotate(-4.7194)" x="70.687" y="175.62" width="2.2622" height="23.337" fill="#d1d1d1" stop-color="#0c0c0c" style="-inkscape-stroke:none;font-variation-settings:normal"/><path d="m44.051 170.15c3.5344-0.29179 6.1798-3.4132 5.888-6.9476 0.2918 3.5344 3.4132 6.1798 6.9476 5.888z" fill="#fff" stop-color="#0c0c0c" style="-inkscape-stroke:none;font-variation-settings:normal"/></g><path d="m49.939 163.2-0.70644-8.5571" fill="none" stroke-linecap="round" stroke-linejoin="round" stroke-width="1.2981" style="font-variation-settings:normal"/><g><path d="m58.143 158.22c-0.19508-2.363-2.2688-4.1204-4.6318-3.9253l-4.2785 0.35321c-2.363 0.19508-4.1204 2.2688-3.9253 4.6318z" fill="#868686" stroke-width="1.2981"/><g stroke-linecap="round" stroke-width="1.2981"><rect transform="rotate(-4.7194)" x="70.687" y="171.05" width="12.879" height="2.1465" fill="#7e7e7e" stop-color="#0c0c0c" style="-inkscape-stroke:none;font-variation-settings:normal"/><rect transform="rotate(-4.7194)" x="83.566" y="171.05" width="4.2931" height="2.1465" fill="#707070" style="-inkscape-stroke:none;font-variation-settings:normal"/><rect transform="rotate(-4.7194)" x="72.834" y="168.9" width="8.5862" height="2.1465" fill="#b6b6b6" stop-color="#0c0c0c" style="-inkscape-stroke:none;font-variation-settings:normal"/><rect transform="rotate(-4.7194)" x="81.42" y="168.9" width="4.2931" height="2.1465" fill="#707070" style="-inkscape-stroke:none;font-variation-settings:normal"/><rect x="93.579" y="156.67" width="12.879" height="53.664" fill="#fff" style="font-variation-settings:normal"/></g></g><g fill="#c9c9c9" stroke-linecap="round" stroke-width="1.2981"><rect x="95.725" y="201.75" width="8.5862" height="6.4396" stop-color="#0c0c0c" style="-inkscape-stroke:none;font-variation-settings:normal"/><rect x="95.725" y="193.16" width="8.5862" height="6.4396" stop-color="#0c0c0c" style="-inkscape-stroke:none;font-variation-settings:normal"/><rect x="95.725" y="184.58" width="8.5862" height="6.4396" stop-color="#0c0c0c" style="-inkscape-stroke:none;font-variation-settings:normal"/><rect x="95.725" y="175.99" width="8.5862" height="6.4396" stop-color="#0c0c0c" style="-inkscape-stroke:none;font-variation-settings:normal"/><rect x="95.725" y="167.4" width="8.5862" height="6.4396" stop-color="#0c0c0c" style="-inkscape-stroke:none;font-variation-settings:normal"/><rect x="95.725" y="158.82" width="8.5862" height="6.4396" style="font-variation-settings:normal"/></g><g fill="#707070" stroke-linecap="round" stroke-width="1.2981"><path d="m97.872 203.9h4.2931" style="font-variation-settings:normal"/><path d="m97.872 195.31h4.2931" style="font-variation-settings:normal"/><path d="m97.872 186.72h4.2931" style="font-variation-settings:normal"/><path d="m97.872 178.14h4.2931" style="font-variation-settings:normal"/><path d="m97.872 169.55h4.2931" style="font-variation-settings:normal"/><path d="m97.872 160.96h4.2931" style="font-variation-settings:normal"/></g><rect x="106.46" y="156.67" width="6.4396" height="53.664" fill="#7a7a7a" stop-color="#0c0c0c" stroke-linecap="round" stroke-width="1.2981" style="-inkscape-stroke:none;font-variation-settings:normal"/><rect x="109.68" y="165.26" width="51.517" height="45.077" fill="#d1d1d1" stop-color="#0c0c0c" stroke-linecap="round" stroke-width="1.2981" style="-inkscape-stroke:none;font-variation-settings:normal"/><g fill="#595959" stroke-linecap="round" stroke-width="1.2981"><rect x="111.82" y="199.6" width="47.224" height="8.5861" stop-color="#0c0c0c" style="-inkscape-stroke:none;font-variation-settings:normal"/><rect x="111.82" y="188.87" width="47.224" height="8.5861" stop-color="#0c0c0c" style="-inkscape-stroke:none;font-variation-settings:normal"/><rect x="111.82" y="178.14" width="47.224" height="8.5861" stop-color="#0c0c0c" style="-inkscape-stroke:none;font-variation-settings:normal"/><rect x="111.82" y="167.4" width="47.224" height="8.5861" stop-color="#0c0c0c" style="-inkscape-stroke:none;font-variation-settings:normal"/></g><rect x="111.82" y="201.75" width="2.1465" height="6.4396" fill="#aeaeae" stop-color="#0c0c0c" stroke-linecap="round" stroke-width="1.2981" style="-inkscape-stroke:none;font-variation-settings:normal"/><rect x="113.97" y="201.75" width="2.1465" height="6.4396" fill="#aeaeae" stop-color="#0c0c0c" stroke-linecap="round" stroke-width="1.2981" style="-inkscape-stroke:none;font-variation-settings:normal"/><g fill="#707070" stroke-linecap="round" stroke-width="1.2981"><rect x="116.12" y="201.75" width="2.1465" height="6.4396" style="font-variation-settings:normal"/><rect x="118.26" y="203.9" width="2.1465" height="4.2931" style="font-variation-settings:normal"/><rect x="120.41" y="203.9" width="2.1465" height="4.2931" style="font-variation-settings:normal"/><rect x="122.56" y="199.6" width="2.1465" height="8.5862" style="font-variation-settings:normal"/><rect x="124.7" y="201.75" width="2.1465" height="6.4396" style="font-variation-settings:normal"/><rect x="126.85" y="201.75" width="2.1465" height="6.4396" style="font-variation-settings:normal"/></g><g stroke-linecap="round" stroke-width="1.2981"><rect x="129" y="199.6" width="2.1465" height="8.5862" fill="#aeaeae" stop-color="#0c0c0c" style="-inkscape-stroke:none;font-variation-settings:normal"/><rect x="131.14" y="201.75" width="2.1465" height="6.4396" fill="#707070" style="font-variation-settings:normal"/><rect x="133.29" y="199.6" width="2.1465" height="8.5862" fill="#707070" style="font-variation-settings:normal"/><rect x="135.44" y="199.6" width="4.2931" height="8.5861" fill="#b6b6b6" stop-color="#0c0c0c" style="-inkscape-stroke:none;font-variation-settings:normal"/><rect x="139.73" y="201.75" width="2.1465" height="6.4396" fill="#7b7b7b" stop-color="#0c0c0c" style="-inkscape-stroke:none;font-variation-settings:normal"/></g><g fill="#727272" stroke-linecap="round" stroke-width="1.2981"><rect x="141.88" y="203.9" width="2.1465" height="4.2931" stop-color="#0c0c0c" style="-inkscape-stroke:none;font-variation-settings:normal"/><rect x="144.02" y="203.9" width="2.1465" height="4.2931" stop-color="#0c0c0c" style="-inkscape-stroke:none;font-variation-settings:normal"/><rect x="146.17" y="203.9" width="2.1465" height="4.2931" stop-color="#0c0c0c" style="-inkscape-stroke:none;font-variation-settings:normal"/></g><g stroke-linecap="round" stroke-width="1.2981"><rect x="148.32" y="199.6" width="4.2931" height="8.5862" fill="#b6b6b6" stop-color="#0c0c0c" style="-inkscape-stroke:none;font-variation-settings:normal"/><rect x="152.61" y="199.6" width="2.1465" height="8.5861" fill="#929292" stop-color="#0c0c0c" style="-inkscape-stroke:none;font-variation-settings:normal"/><rect x="154.76" y="199.6" width="2.1465" height="8.5861" fill="#707070" style="font-variation-settings:normal"/><rect x="156.9" y="201.75" width="2.1465" height="6.4396" fill="#7b7b7b" stop-color="#0c0c0c" style="-inkscape-stroke:none;font-variation-settings:normal"/><rect transform="scale(-1,1)" x="-129" y="178.14" width="2.1465" height="8.5862" fill="#b6b6b6" stop-color="#0c0c0c" style="-inkscape-stroke:none;font-variation-settings:normal"/><rect transform="scale(-1,1)" x="-126.85" y="180.28" width="2.1465" height="6.4396" fill="#7e7e7e" stop-color="#0c0c0c" style="-inkscape-stroke:none;font-variation-settings:normal"/><rect transform="scale(-1,1)" x="-124.7" y="180.28" width="2.1465" height="6.4396" fill="#7e7e7e" stop-color="#0c0c0c" style="-inkscape-stroke:none;font-variation-settings:normal"/><rect transform="scale(-1,1)" x="-122.56" y="178.14" width="2.1465" height="8.5862" fill="#707070" style="font-variation-settings:normal"/><rect transform="scale(-1,1)" x="-120.41" y="180.28" width="2.1465" height="6.4396" fill="#707070" style="font-variation-settings:normal"/><rect transform="scale(-1,1)" x="-150.46" y="167.4" width="2.1465" height="8.5862" fill="#aeaeae" stop-color="#0c0c0c" style="-inkscape-stroke:none;font-variation-settings:normal"/><rect transform="scale(-1,1)" x="-129" y="191.02" width="2.1465" height="6.4396" fill="#7a7a7a" stop-color="#0c0c0c" style="-inkscape-stroke:none;font-variation-settings:normal"/><rect transform="scale(-1,1)" x="-126.85" y="191.02" width="2.1465" height="6.4396" fill="#7a7a7a" stop-color="#0c0c0c" style="-inkscape-stroke:none;font-variation-settings:normal"/></g><g fill="#707070" stroke-linecap="round" stroke-width="1.2981"><rect transform="scale(-1,1)" x="-124.7" y="188.87" width="2.1465" height="8.5862" style="font-variation-settings:normal"/><rect transform="scale(-1,1)" x="-122.56" y="191.02" width="2.1465" height="6.4396" style="font-variation-settings:normal"/><rect x="116.12" y="191.02" width="2.1465" height="6.4396" style="font-variation-settings:normal"/><rect x="118.26" y="191.02" width="2.1465" height="6.4396" style="font-variation-settings:normal"/></g><g stroke-linecap="round" stroke-width="1.2981"><rect transform="scale(-1,1)" x="-133.29" y="191.02" width="2.1465" height="6.4396" fill="#aeaeae" stop-color="#0c0c0c" style="-inkscape-stroke:none;font-variation-settings:normal"/><rect transform="scale(-1,1)" x="-131.14" y="191.02" width="2.1465" height="6.4396" fill="#aeaeae" style="font-variation-settings:normal"/><rect transform="scale(-1,1)" x="-152.61" y="180.28" width="2.1465" height="6.4396" fill="#929292" stop-color="#0c0c0c" style="-inkscape-stroke:none;font-variation-settings:normal"/><rect transform="scale(-1,1)" x="-150.46" y="180.28" width="2.1465" height="6.4396" fill="#7b7b7b" stop-color="#0c0c0c" style="-inkscape-stroke:none;font-variation-settings:normal"/><rect transform="scale(-1,1)" x="-148.32" y="182.43" width="2.1465" height="4.2931" fill="#aeaeae" stop-color="#0c0c0c" style="-inkscape-stroke:none;font-variation-settings:normal"/><rect transform="scale(-1,1)" x="-146.17" y="182.43" width="2.1465" height="4.2931" fill="#aeaeae" stop-color="#0c0c0c" style="-inkscape-stroke:none;font-variation-settings:normal"/><rect transform="scale(-1,1)" x="-120.41" y="169.55" width="2.1465" height="6.4396" fill="#6f6f6f" stop-color="#0c0c0c" style="-inkscape-stroke:none;font-variation-settings:normal"/><rect transform="scale(-1,1)" x="-118.26" y="169.55" width="2.1465" height="6.4396" fill="#aeaeae" stop-color="#0c0c0c" style="-inkscape-stroke:none;font-variation-settings:normal"/><rect transform="scale(-1,1)" x="-116.12" y="171.7" width="2.1465" height="4.2931" fill="#727272" stop-color="#0c0c0c" style="-inkscape-stroke:none;font-variation-settings:normal"/><rect transform="scale(-1,1)" x="-113.97" y="171.7" width="2.1465" height="4.2931" fill="#727272" stop-color="#0c0c0c" style="-inkscape-stroke:none;font-variation-settings:normal"/><rect x="124.7" y="167.4" width="4.2931" height="8.5861" fill="#707070" style="font-variation-settings:normal"/><rect x="129" y="167.4" width="4.2931" height="8.5861" fill="#7b7b7b" stop-color="#0c0c0c" style="-inkscape-stroke:none;font-variation-settings:normal"/><rect x="111.82" y="180.28" width="2.1465" height="6.4396" fill="#6f6f6f" stop-color="#0c0c0c" style="-inkscape-stroke:none;font-variation-settings:normal"/><rect x="113.97" y="178.14" width="4.2931" height="8.5861" fill="#aeaeae" stop-color="#0c0c0c" style="-inkscape-stroke:none;font-variation-settings:normal"/><rect x="111.82" y="188.87" width="2.1465" height="8.5862" fill="#707070" style="font-variation-settings:normal"/><rect x="113.97" y="188.87" width="2.1465" height="8.5862" fill="#707070" style="font-variation-settings:normal"/><rect x="120.41" y="167.4" width="2.1465" height="8.5862" fill="#7e7e7e" stop-color="#0c0c0c" style="-inkscape-stroke:none;font-variation-settings:normal"/><rect x="122.56" y="167.4" width="2.1465" height="8.5862" fill="#727272" stop-color="#0c0c0c" style="-inkscape-stroke:none;font-variation-settings:normal"/><rect x="124.7" y="171.7" width="2.1465" height="4.2931" fill="#aeaeae" stop-color="#0c0c0c" style="-inkscape-stroke:none;font-variation-settings:normal"/><rect x="126.85" y="169.55" width="2.1465" height="6.4396" fill="#aeaeae" stop-color="#0c0c0c" style="-inkscape-stroke:none;font-variation-settings:normal"/><rect x="133.29" y="167.4" width="2.1465" height="8.5862" fill="#7e7e7e" stop-color="#0c0c0c" style="-inkscape-stroke:none;font-variation-settings:normal"/><rect x="135.44" y="167.4" width="4.2931" height="8.5862" fill="#929292" stop-color="#0c0c0c" style="-inkscape-stroke:none;font-variation-settings:normal"/><rect x="150.46" y="168.14" width="2.1465" height="7.8455" fill="#727272" stop-color="#0c0c0c" style="-inkscape-stroke:none;font-variation-settings:normal"/><rect x="152.61" y="169.55" width="2.1465" height="6.4396" fill="#aeaeae" stop-color="#0c0c0c" style="-inkscape-stroke:none;font-variation-settings:normal"/><rect x="154.76" y="169.55" width="2.1465" height="6.4396" fill="#929292" stop-color="#0c0c0c" style="-inkscape-stroke:none;font-variation-settings:normal"/><rect x="156.9" y="171.7" width="2.1465" height="4.2931" fill="#929292" stop-color="#0c0c0c" style="-inkscape-stroke:none;font-variation-settings:normal"/><rect x="129" y="180.28" width="2.1465" height="6.4396" fill="#7b7b7b" stop-color="#0c0c0c" style="-inkscape-stroke:none;font-variation-settings:normal"/><rect x="152.61" y="178.14" width="4.2931" height="8.5862" fill="#7b7b7b" stop-color="#0c0c0c" style="-inkscape-stroke:none;font-variation-settings:normal"/><rect x="156.9" y="178.14" width="2.1465" height="8.5861" fill="#aeaeae" stop-color="#0c0c0c" style="-inkscape-stroke:none;font-variation-settings:normal"/><rect x="133.29" y="193.16" width="2.1465" height="4.2931" fill="#b6b6b6" stop-color="#0c0c0c" style="-inkscape-stroke:none;font-variation-settings:normal"/><rect x="135.44" y="188.87" width="2.1465" height="8.5862" fill="#727272" stop-color="#0c0c0c" style="-inkscape-stroke:none;font-variation-settings:normal"/><rect x="156.9" y="191.02" width="2.1465" height="6.4396" fill="#7b7b7b" stop-color="#0c0c0c" style="-inkscape-stroke:none;font-variation-settings:normal"/><rect x="154.76" y="191.02" width="2.1465" height="6.4396" fill="#7b7b7b" stop-color="#0c0c0c" style="-inkscape-stroke:none;font-variation-settings:normal"/><rect x="152.61" y="188.87" width="2.1465" height="8.5862" fill="#929292" stop-color="#0c0c0c" style="-inkscape-stroke:none;font-variation-settings:normal"/><rect x="150.46" y="191.02" width="2.1465" height="6.4396" fill="#7b7b7b" stop-color="#0c0c0c" style="-inkscape-stroke:none;font-variation-settings:normal"/><rect x="148.32" y="193.16" width="2.1465" height="4.2931" fill="#707070" style="font-variation-settings:normal"/><rect transform="matrix(-.86603 .5 .5 .86603 0 0)" x="-26.191" y="222.43" width="2.1465" height="6.4396" fill="#7b7b7b" stop-color="#0c0c0c" style="-inkscape-stroke:none;font-variation-settings:normal"/><rect transform="rotate(-90)" x="-175.99" y="139.73" width="2.1465" height="8.5862" fill="#727272" stop-color="#0c0c0c" style="-inkscape-stroke:none;font-variation-settings:normal"/><rect transform="rotate(-90)" x="-173.84" y="141.88" width="2.1465" height="6.4396" fill="#929292" stop-color="#0c0c0c" style="-inkscape-stroke:none;font-variation-settings:normal"/><path d="m146.17 169.55a2.1465 2.1465 0 0 1-1.0733 1.859 2.1465 2.1465 0 0 1-2.1465 0 2.1465 2.1465 0 0 1-1.0733-1.859h2.1465z" fill="#c5c5c5" style="font-variation-settings:normal"/><path d="m136.9 179.96h3.3943l3.2518 5.6322h-3.3898" fill="#515151" stop-color="#0c0c0c" style="-inkscape-stroke:none;font-variation-settings:normal"/><path d="m136.9 179.96-1.859 1.0733 3.2198 5.5768 1.859-1.0733z" fill="#7b7b7b" stop-color="#0c0c0c" style="-inkscape-stroke:none;font-variation-settings:normal"/><rect x="139.73" y="188.87" width="8.5862" height="8.5862" fill="#d6d6d6" style="font-variation-settings:normal"/><rect x="144.02" y="193.16" width="4.2931" height="4.2931" fill="#7a7a7a" style="font-variation-settings:normal"/><rect x="161.19" y="165.26" width="8.5862" height="45.077" fill="#888" stop-color="#0c0c0c" style="-inkscape-stroke:none;font-variation-settings:normal"/><rect x="122.56" y="160.96" width="6.4396" height="4.2931" fill="#888" style="-inkscape-stroke:none;font-variation-settings:normal"/><path d="m124.7 160.96-2.1465-6.4396" fill="#707070" style="-inkscape-stroke:none;font-variation-settings:normal"/><path d="m126.85 160.96v-8.5862" fill="#707070" style="-inkscape-stroke:none;font-variation-settings:normal"/><circle cx="122.56" cy="154.53" r="1.7173" fill="#fff" style="-inkscape-stroke:none;font-variation-settings:normal"/><circle cx="126.85" cy="152.38" r="1.7172" fill="#fff" stop-color="#0c0c0c" style="-inkscape-stroke:none;font-variation-settings:normal"/></g><g fill="#989898" stroke-linecap="round" stroke-width="1.2981"><path d="m126.85 160.96c1e-5 -6.4396 0.85862-6.4396 2.1466-6.4396 0 6.4396-0.85862 6.4396-2.1466 6.4396z" style="-inkscape-stroke:none;font-variation-settings:normal"/><path d="m126.64 160.96c0-4.2931-0.85862-4.2931-2.1465-4.2931 0 4.2931 0.85861 4.2931 2.1465 4.2931z" stop-color="#0c0c0c" style="-inkscape-stroke:none;font-variation-settings:normal"/><path d="m124.7 160.96c-4.2931 0-4.2931-0.85861-4.2931-2.1465 4.2931 0 4.2931 0.8586 4.2931 2.1465z" stop-color="#0c0c0c" style="-inkscape-stroke:none;font-variation-settings:normal"/></g><rect x="137.58" y="188.87" width="2.1465" height="8.5862" fill="#727272" stop-color="#0c0c0c" stroke-linecap="round" stroke-width="1.2981" style="-inkscape-stroke:none;font-variation-settings:normal"/><rect transform="rotate(4.1101)" x="53.344" y="174.64" width="38.638" height="27.905" fill="#707070" stop-color="#0c0c0c" stroke-linecap="round" stroke-width="1.2981" style="-inkscape-stroke:none;font-variation-settings:normal"/><g fill="#585858" stroke-linecap="round" stroke-width="1.2981"><rect transform="rotate(4.1101)" x="55.491" y="193.96" width="34.345" height="6.4396" stop-color="#0c0c0c" style="-inkscape-stroke:none;font-variation-settings:normal"/><rect transform="rotate(4.1101)" x="55.491" y="185.37" width="34.345" height="6.4396" stop-color="#0c0c0c" style="-inkscape-stroke:none;font-variation-settings:normal"/><rect transform="rotate(4.1101)" x="55.491" y="176.78" width="34.345" height="6.4396" stop-color="#0c0c0c" style="-inkscape-stroke:none;font-variation-settings:normal"/></g><g fill="#707070" stroke-linecap="round"><g stroke-width="1.2981"><path d="m56.28 200.65 4.282 0.3077" style="font-variation-settings:normal"/><path d="m56.895 192.09 4.282 0.30769" style="font-variation-settings:normal"/><path d="m57.51 183.52 4.282 0.3077" style="font-variation-settings:normal"/></g><rect transform="rotate(4.1101)" x="91.982" y="174.64" width="4.2931" height="27.905" stroke-width="1.2981" style="font-variation-settings:normal"/></g><g stroke-linecap="round" stroke-width="1.2981"><rect x="31.329" y="207.76" width="12.879" height="2.1465" fill="#7b7b7b" stop-color="#0c0c0c" style="-inkscape-stroke:none;font-variation-settings:normal"/><rect x="44.208" y="207.76" width="4.2931" height="2.1465" fill="#515151" stop-color="#0c0c0c" style="-inkscape-stroke:none;font-variation-settings:normal"/><rect x="33.476" y="205.61" width="8.5862" height="2.1465" fill="#727272" stop-color="#0c0c0c" style="-inkscape-stroke:none;font-variation-settings:normal"/><rect x="42.062" y="205.61" width="4.2931" height="2.1465" fill="#565656" stop-color="#0c0c0c" style="-inkscape-stroke:none;font-variation-settings:normal"/><rect transform="rotate(8.9541)" x="90.13" y="140.65" width="12.879" height="53.664" fill="#fff" stop-color="#0c0c0c" style="-inkscape-stroke:none;font-variation-settings:normal"/><rect transform="rotate(8.9541)" x="92.276" y="185.72" width="8.5862" height="6.4396" fill="#c9c9c9" stop-color="#0c0c0c" style="-inkscape-stroke:none;font-variation-settings:normal"/><rect transform="rotate(8.9541)" x="92.276" y="177.14" width="8.5862" height="6.4396" fill="#707070" style="font-variation-settings:normal"/><rect transform="rotate(8.9541)" x="92.276" y="168.55" width="8.5862" height="6.4396" fill="#707070" style="font-variation-settings:normal"/></g><g fill="#c9c9c9" stroke-linecap="round" stroke-width="1.2981"><rect transform="rotate(8.9541)" x="92.276" y="159.96" width="8.5862" height="6.4396" stop-color="#0c0c0c" style="-inkscape-stroke:none;font-variation-settings:normal"/><rect transform="rotate(8.9541)" x="92.276" y="151.38" width="8.5862" height="6.4396" stop-color="#0c0c0c" style="-inkscape-stroke:none;font-variation-settings:normal"/><rect transform="rotate(8.9541)" x="92.276" y="142.79" width="8.5862" height="6.4396" stop-color="#0c0c0c" style="-inkscape-stroke:none;font-variation-settings:normal"/></g><g fill="#707070" stroke-linecap="round" stroke-width="1.2981"><path d="m64.032 200.28 4.2408 0.66818" style="font-variation-settings:normal"/><path d="m65.368 191.79 4.2408 0.66819" style="font-variation-settings:normal"/><path d="m66.704 183.31 4.2408 0.66819" style="font-variation-settings:normal"/><path d="m68.041 174.83 4.2408 0.66818" style="font-variation-settings:normal"/><path d="m69.377 166.35 4.2408 0.66818" style="font-variation-settings:normal"/><path d="m70.714 157.87 4.2408 0.66818" style="font-variation-settings:normal"/></g><rect transform="rotate(8.9541)" x="103.01" y="140.65" width="6.4396" height="53.664" fill="#7a7a7a" stop-color="#0c0c0c" stroke-linecap="round" stroke-width="1.2981" style="-inkscape-stroke:none;font-variation-settings:normal"/><rect transform="rotate(53.13)" x="184.06" y="39.318" width="12.879" height="36.491" fill="#d1d1d1" stop-color="#0c0c0c" stroke-linecap="round" stroke-width="1.2981" style="-inkscape-stroke:none;font-variation-settings:normal"/><g fill="#9f9f9f" stroke-linecap="round" stroke-width="1.2981"><rect transform="rotate(53.13)" x="186.21" y="67.223" width="8.5862" height="6.4396" stop-color="#0c0c0c" style="-inkscape-stroke:none;font-variation-settings:normal"/><rect transform="rotate(53.13)" x="186.21" y="58.637" width="8.5862" height="6.4396" stop-color="#0c0c0c" style="-inkscape-stroke:none;font-variation-settings:normal"/><rect transform="rotate(53.13)" x="186.21" y="50.051" width="8.5862" height="6.4396" stop-color="#0c0c0c" style="-inkscape-stroke:none;font-variation-settings:normal"/><rect transform="rotate(53.13)" x="186.21" y="41.464" width="8.5862" height="6.4396" stop-color="#0c0c0c" style="-inkscape-stroke:none;font-variation-settings:normal"/></g><g fill="#707070" stroke-linecap="round" stroke-width="1.2981"><path d="m57.517 192.3 2.5759 3.4345" style="font-variation-settings:normal"/><path d="m64.386 187.15 2.5759 3.4344" style="font-variation-settings:normal"/><path d="m71.255 182 2.5759 3.4345" style="font-variation-settings:normal"/><path d="m78.124 176.85 2.5759 3.4345" style="font-variation-settings:normal"/></g><rect transform="rotate(53.13)" x="196.94" y="39.318" width="6.4396" height="36.491" fill="#888" stop-color="#0c0c0c" stroke-linecap="round" stroke-width="1.2981" style="-inkscape-stroke:none;font-variation-settings:normal"/><g fill="#fff" stroke-linecap="round" stroke-width="1.2981"><path d="m113.39 171.7-24.971 3.1555c-4.597 0.58091-7.8551 4.7981-7.2772 9.4193l2.7901 22.313 2.7745-0.35061-2.7901-22.313c-0.38523-3.0808 1.7869-5.8923 4.8515-6.2796l24.971-3.1555c3.0646-0.38728 5.8613 1.7963 6.2466 4.8771l2.7901 22.313 2.7745-0.35061-2.7901-22.313c-0.57786-4.6212-4.7729-7.8966-9.3698-7.3157z" stop-color="#0c0c0c" style="-inkscape-stroke:none;font-variation-settings:normal"/><rect transform="matrix(.99211 -.12537 .12408 .99227 0 0)" x="66.039" y="187.38" width="2.7966" height="14.054" stop-color="#0c0c0c" style="-inkscape-stroke:none;font-variation-settings:normal"/><rect transform="matrix(.99211 -.12537 .12408 .99227 0 0)" x="88.411" y="187.38" width="2.7966" height="14.054" stop-color="#0c0c0c" style="-inkscape-stroke:none;font-variation-settings:normal"/><rect transform="matrix(.99211 -.12537 .12408 .99227 0 0)" x="77.225" y="187.38" width="2.7966" height="14.054" stop-color="#0c0c0c" style="-inkscape-stroke:none;font-variation-settings:normal"/></g><rect transform="matrix(.99211 -.12537 .12408 .99227 0 0)" x="54.852" y="201.43" width="41.949" height="5.6218" fill="#888" stroke-linecap="round" stroke-width="1.2981" style="-inkscape-stroke:none;font-variation-settings:normal"/><g fill="none" stroke-linecap="round" stroke-width="1.2981"><rect transform="matrix(.99211 -.12537 .12408 .99227 0 0)" x="29.683" y="195.81" width="2.7966" height="8.4327"/><rect transform="matrix(.99211 -.12537 .12408 .99227 0 0)" x="40.869" y="195.81" width="2.7966" height="8.4327"/><rect transform="matrix(.99211 -.12537 .12408 .99227 0 0)" x="24.09" y="204.24" width="36.356" height="2.8109"/></g><g><rect transform="matrix(.99211 -.12537 .12408 .99227 0 0)" x="21.293" y="201.43" width="41.949" height="5.6218" fill="#707070" stroke-linecap="round" stroke-width="1.2981" style="-inkscape-stroke:none;font-variation-settings:normal"/><path d="m118.26 188.09c-0.38524-3.0808-3.1819-5.2644-6.2466-4.8771l-8.3235 1.0518c-3.0646 0.38727-5.2367 3.1987-4.8515 6.2796z" fill="#888" stroke-width="1.2981"/><path d="m104.38 189.84c-0.38524-3.0808-3.1819-5.2644-6.2466-4.8771l-47.167 5.9604c-3.0646 0.38727-5.2367 3.1987-4.8515 6.2796z" fill="#525252" stroke-width="1.2981"/></g><g fill="#fff" stroke-linecap="round" stroke-width="1.2981"><path d="m78.366 184.63-24.971 3.1555c-4.597 0.58091-7.8551 4.7981-7.2772 9.4193l1.7438 13.946 2.7745-0.35061-1.7438-13.946c-0.38523-3.0808 1.7869-5.8923 4.8515-6.2796l24.971-3.1555c3.0646-0.38727 5.8613 1.7963 6.2466 4.8771l1.7438 13.946 2.7745-0.35061-1.7438-13.946c-0.57786-4.6212-4.7729-7.8966-9.3698-7.3157z" stop-color="#0c0c0c" style="-inkscape-stroke:none;font-variation-settings:normal"/><rect transform="matrix(.99211 -.12537 .12408 .99227 0 0)" x="29.683" y="195.81" width="2.7966" height="8.4327" stop-color="#0c0c0c" style="-inkscape-stroke:none;font-variation-settings:normal"/><rect transform="matrix(.99211 -.12537 .12408 .99227 0 0)" x="52.335" y="196.09" width="2.7966" height="8.4327" stop-color="#0c0c0c" style="-inkscape-stroke:none;font-variation-settings:normal"/><rect transform="matrix(.99211 -.12537 .12408 .99227 0 0)" x="40.869" y="195.81" width="2.7966" height="8.4327" stop-color="#0c0c0c" style="-inkscape-stroke:none;font-variation-settings:normal"/><path d="m49.242 199.64 36.069-4.5579 0.34877 2.7892-36.069 4.5579z" stop-color="#0c0c0c" style="-inkscape-stroke:none;font-variation-settings:normal"/></g><g stroke-linecap="round" stroke-width="1.2981"><rect x="82.846" y="202.18" width="10.733" height="8.5862" fill="#d1d1d1" style="-inkscape-stroke:none;font-variation-settings:normal"/><rect x="93.579" y="202.18" width="4.2931" height="8.5862" fill="#888" stop-color="#0c0c0c" style="-inkscape-stroke:none;font-variation-settings:normal"/><rect x="80.7" y="204.97" width="8.5862" height="6.4396" fill="#d1d1d1" style="-inkscape-stroke:none;font-variation-settings:normal"/><rect x="89.286" y="204.97" width="2.1465" height="6.4396" fill="#888" stop-color="#0c0c0c" style="-inkscape-stroke:none;font-variation-settings:normal"/><rect x="115.47" y="204.75" width="12.879" height="2.1465" fill="#7b7b7b" stop-color="#0c0c0c" style="-inkscape-stroke:none;font-variation-settings:normal"/><rect x="128.35" y="204.75" width="4.2931" height="2.1465" fill="#515151" stop-color="#0c0c0c" style="-inkscape-stroke:none;font-variation-settings:normal"/><rect x="117.62" y="202.61" width="8.5862" height="2.1465" fill="#727272" stop-color="#0c0c0c" style="-inkscape-stroke:none;font-variation-settings:normal"/><rect x="126.21" y="202.61" width="4.2931" height="2.1465" fill="#565656" stop-color="#0c0c0c" style="-inkscape-stroke:none;font-variation-settings:normal"/><rect x="119.34" y="208.19" width="12.879" height="2.1465" fill="#7b7b7b" stop-color="#0c0c0c" style="-inkscape-stroke:none;font-variation-settings:normal"/><rect x="132.22" y="208.19" width="4.2931" height="2.1465" fill="#515151" stop-color="#0c0c0c" style="-inkscape-stroke:none;font-variation-settings:normal"/><rect x="121.48" y="206.04" width="8.5862" height="2.1465" fill="#727272" stop-color="#0c0c0c" style="-inkscape-stroke:none;font-variation-settings:normal"/><rect x="130.07" y="206.04" width="4.2931" height="2.1465" fill="#565656" stop-color="#0c0c0c" style="-inkscape-stroke:none;font-variation-settings:normal"/><rect x="39.915" y="204.54" width="8.5862" height="6.4396" fill="#d1d1d1" style="-inkscape-stroke:none;font-variation-settings:normal"/><rect x="48.501" y="204.54" width="2.1465" height="6.4396" fill="#888" stop-color="#0c0c0c" style="-inkscape-stroke:none;font-variation-settings:normal"/><rect x="131.36" y="158.6" width="8.5862" height="6.4396" fill="#d1d1d1" style="-inkscape-stroke:none;font-variation-settings:normal"/><rect x="139.94" y="158.6" width="2.1465" height="6.4396" fill="#888" stop-color="#0c0c0c" style="-inkscape-stroke:none;font-variation-settings:normal"/><path d="m169.57 210.98h-5.3664l-2.1466-6.4396 1.2879-1.7172h5.3664l2.1466 6.4396z" fill="#727272" stop-color="#0c0c0c" style="-inkscape-stroke:none;font-variation-settings:normal"/></g><path d="m164.2 210.98 1.2879-1.7172h5.3664" fill="none" stroke-linecap="round" stroke-width="1.2981" style="-inkscape-stroke:none;font-variation-settings:normal"/><g stroke-linecap="round"><g><path d="m165.49 209.26-2.1466-6.4396" fill="#727272" stop-color="#0c0c0c" stroke-width="1.2981" style="-inkscape-stroke:none;font-variation-settings:normal"/><path d="m170.85 209.26h-5.3664l-1.2879 1.7172h5.3664z" fill="#e0e0e0" stroke-linejoin="bevel" stroke-width="1.2981" style="font-variation-settings:normal"/><g stroke-width="1.2981"><rect x="120.2" y="207.76" width="12.879" height="2.1465" fill="#7b7b7b" stop-color="#0c0c0c" style="-inkscape-stroke:none;font-variation-settings:normal"/><rect x="133.08" y="207.76" width="4.2931" height="2.1465" fill="#515151" stop-color="#0c0c0c" style="-inkscape-stroke:none;font-variation-settings:normal"/><rect x="122.34" y="205.61" width="8.5862" height="2.1465" fill="#727272" stop-color="#0c0c0c" style="-inkscape-stroke:none;font-variation-settings:normal"/><rect x="130.93" y="205.61" width="4.2931" height="2.1465" fill="#565656" stop-color="#0c0c0c" style="-inkscape-stroke:none;font-variation-settings:normal"/><rect x="111.18" y="208.83" width="12.879" height="2.1465" fill="#b6b6b6" stop-color="#0c0c0c" style="-inkscape-stroke:none;font-variation-settings:normal"/><rect x="124.06" y="208.83" width="4.2931" height="2.1465" fill="#6d6d6d" stop-color="#0c0c0c" style="-inkscape-stroke:none;font-variation-settings:normal"/><rect x="113.33" y="206.69" width="8.5862" height="2.1465" fill="#7b7b7b" stop-color="#0c0c0c" style="-inkscape-stroke:none;font-variation-settings:normal"/><rect x="121.91" y="206.69" width="4.2931" height="2.1465" fill="#515151" stop-color="#0c0c0c" style="-inkscape-stroke:none;font-variation-settings:normal"/></g></g><g stroke-width="1.2981"><path d="m124.75 96.932v6.4419" fill="#007573"/><path transform="rotate(35.055)" d="m163.72 53.918a2.1465 2.1465 0 0 1-1.0733 1.859 2.1465 2.1465 0 0 1-2.1465 0 2.1465 2.1465 0 0 1-1.0733-1.859h2.1465z" fill="#6e6e6e" style="font-variation-settings:normal"/><circle transform="rotate(9.4931)" cx="122.7" cy="101.33" r="2.1465" fill="#7f7f7f" style="font-variation-settings:normal"/></g></g><path d="m56.004 158.39v2.1813" fill="none" stroke-linecap="round" stroke-linejoin="round" stroke-width="1.2981" style="font-variation-settings:normal"/></g></svg>
