<?xml version="1.0" encoding="UTF-8" standalone="no"?>
<!-- Created with Inkscape (http://www.inkscape.org/) -->

<svg
   width="297mm"
   height="210mm"
   viewBox="0 0 297 210"
   version="1.1"
   id="svg5"
   xml:space="preserve"
   xmlns="http://www.w3.org/2000/svg"
   xmlns:svg="http://www.w3.org/2000/svg"><defs
     id="defs2" /><g
     id="layer1"
     transform="translate(-902.2266,-247.5809)"><path
       id="path8"
       style="fill:#ffffcc;stroke:none;stroke-width:1.74793;stroke-linecap:round;stroke-linejoin:round;stroke-dasharray:none;paint-order:markers stroke fill"
       d="m 1067.636,206.6783 c -9.547,-0.017 -18.516,2.4979 -26.086,5.8211 -12.112,5.3172 -20.642,12.7028 -26.901,26.0235 -6.259,13.3207 -10.247,32.5747 -10.42,50.7431 -0.102,10.6799 1.139,20.976 5.306,30.3033 h 113.018 c 2.547,-4.9286 4.655,-10.0222 6.292,-15.0395 6.681,-20.4726 5.637,-39.6372 -2.95,-56.7267 -8.587,-17.0894 -24.717,-32.1036 -40.629,-37.9865 -5.966,-2.2061 -11.902,-3.1279 -17.63,-3.1383 z"
       transform="matrix(1.565752,0,0,0.836163,-616.4844,190.369)" /><path
       id="path6"
       style="fill:#ccccff;stroke:none;stroke-width:1.86345;stroke-linecap:round;stroke-linejoin:round;stroke-dasharray:none;paint-order:markers stroke fill"
       d="m 1158.775,208.5439 c -6.847,0.017 -13.896,0.3528 -20.872,0.6996 -22.324,1.1096 -43.894,2.3313 -54.224,14.8216 -10.33,12.4904 -9.418,36.2482 -7.957,57.1191 1.056,15.0787 2.447,28.6251 12.628,37.7673 h 82.938 v -109.9854 c -4.049,-0.3126 -8.24,-0.4328 -12.513,-0.4222 z"
       transform="matrix(0.8233066,0,0,1.399151,234.8976,11.31966)" /><path
       id="path7"
       style="fill:#aaeedd;stroke:none;stroke-width:1.50673;stroke-linecap:round;stroke-linejoin:round;stroke-dasharray:none;paint-order:markers stroke fill"
       d="m 895.0031,245.7776 v 50.5655 c 2.0286,2.1523 4.3624,4.3309 7.0882,6.5355 20.7871,16.8129 63.2612,35.0417 83.5314,22.0715 20.2703,-12.9701 18.3353,-57.1383 8.8884,-78.3361 -0.1285,-0.2884 -0.2637,-0.5564 -0.395,-0.8364 z"
       transform="matrix(1.917841,0,0,0.9187109,-814.247,21.78232)" /><path
       id="path9"
       style="fill:#ffcccc;stroke:none;stroke-width:1.145;stroke-linecap:round;stroke-linejoin:round;stroke-dasharray:none;paint-order:markers stroke fill"
       d="m 1020.111,400.7894 v 59.0978 h 39.207 c 0.41,-0.7675 0.79,-1.5626 1.127,-2.3978 6.071,-15.056 -0.149,-41.35 -18.85,-51.5615 -6.16,-3.3632 -13.675,-4.972 -21.484,-5.1385 z"
       transform="matrix(1.778219,0,0,1.715765,-911.754,-331.4773)" /><rect
       style="fill:#ffffff;stroke:#000000;stroke-width:1.5;stroke-linecap:round;stroke-linejoin:round;stroke-dasharray:none;paint-order:fill markers stroke"
       id="rect3"
       width="123.5"
       height="185"
       x="914.7266"
       y="260.0809"
       ry="10" /><rect
       style="fill:#ffffff;stroke:#000000;stroke-width:1.5;stroke-linecap:round;stroke-linejoin:round;stroke-dasharray:none;paint-order:fill markers stroke"
       id="rect6"
       width="123.5"
       height="185"
       x="1063.227"
       y="260.0809"
       ry="10" /><path
       d="m 1087.412,290.2337 v -11.7898 h 2.688 v 11.7898 z m 4.141,0 v -8.8173 h 2.689 v 8.8173 z m 1.336,-9.6356 q -0.768,0 -1.185,-0.3172 -0.401,-0.3173 -0.401,-0.9352 0,-0.6346 0.401,-0.9519 0.417,-0.334 1.185,-0.334 0.785,0 1.186,0.334 0.417,0.3173 0.417,0.9519 0,0.6012 -0.417,0.9352 -0.401,0.3172 -1.186,0.3172 z m 2.822,12.2073 v -7.8487 -3.5403 h 2.322 v 2.6552 l 0.183,0.017 q 0.167,-0.9685 0.535,-1.6198 0.384,-0.6513 0.968,-0.9686 0.585,-0.3173 1.386,-0.3173 1.069,0 1.82,0.5344 0.769,0.5344 1.169,1.5698 0.401,1.0353 0.401,2.5383 0,1.5196 -0.417,2.555 -0.418,1.0353 -1.169,1.5697 -0.752,0.5177 -1.77,0.5177 -0.769,0 -1.353,-0.3006 -0.568,-0.3173 -0.952,-0.9519 -0.367,-0.6345 -0.551,-1.5864 h -0.2 q 0.08,0.4676 0.15,0.9853 0.08,0.5009 0.117,0.9852 0.05,0.4843 0.05,0.9352 v 2.2711 z m 4.426,-4.5255 q 0.534,0 0.885,-0.3173 0.367,-0.334 0.534,-0.8684 0.184,-0.5511 0.184,-1.2023 0,-0.7014 -0.201,-1.2358 -0.183,-0.5511 -0.551,-0.8684 -0.35,-0.334 -0.868,-0.334 -0.384,0 -0.701,0.167 -0.318,0.167 -0.551,0.4843 -0.218,0.3006 -0.351,0.7515 -0.134,0.4342 -0.134,0.9853 v 0.167 q 0,0.4508 0.08,0.8182 0.1,0.3507 0.267,0.6179 0.167,0.2672 0.384,0.4676 0.234,0.1837 0.484,0.2839 0.267,0.084 0.535,0.084 z m 8.416,2.1876 q -1.486,0 -2.204,-1.0187 -0.718,-1.0186 -0.718,-3.1228 v -4.9096 h 2.705 v 4.7927 q 0,1.0354 0.301,1.4863 0.3,0.4509 0.885,0.4509 0.384,0 0.701,-0.2004 0.317,-0.2004 0.551,-0.6012 0.234,-0.4008 0.351,-0.9853 0.117,-0.6011 0.117,-1.386 v -3.557 h 2.705 v 4.9597 3.8576 h -2.254 l -0.02,-3.223 h -0.184 q -0.133,1.2024 -0.501,1.9705 -0.35,0.7682 -0.968,1.1356 -0.601,0.3507 -1.47,0.3507 z m 13.844,-0.033 q -1.553,0 -2.305,-0.8016 -0.751,-0.8015 -0.751,-2.5049 v -3.6071 h -1.052 l 0.02,-1.8202 h 0.3 q 0.885,-0.1002 1.269,-0.5344 0.384,-0.4342 0.485,-1.3693 l 0.07,-0.3841 h 1.553 v 2.0039 h 2.054 v 2.1709 h -2.054 v 3.3232 q 0,0.6179 0.301,0.8851 0.301,0.2672 0.802,0.2672 0.25,0 0.501,-0.067 0.267,-0.067 0.484,-0.1837 v 2.388 q -0.534,0.1503 -0.952,0.1837 -0.401,0.05 -0.718,0.05 z m 6.813,0.033 q -1.219,0 -2.07,-0.334 -0.852,-0.3507 -1.403,-0.9519 -0.535,-0.6178 -0.785,-1.4194 -0.251,-0.8183 -0.251,-1.7534 0,-0.9853 0.251,-1.8537 0.267,-0.885 0.802,-1.5363 0.534,-0.668 1.352,-1.0521 0.818,-0.3841 1.921,-0.3841 1.118,0 1.92,0.3841 0.818,0.3674 1.319,1.0688 0.501,0.6847 0.668,1.6198 0.167,0.9352 0.02,2.0373 l -6.546,0.1002 v -1.4528 l 4.642,-0.084 -0.534,0.8016 q 0.1,-0.7849 -0.05,-1.3026 -0.151,-0.5344 -0.518,-0.8016 -0.351,-0.2671 -0.902,-0.2671 -0.601,0 -1.002,0.3172 -0.384,0.3173 -0.567,0.9018 -0.184,0.5845 -0.184,1.3861 0,1.3526 0.484,1.9705 0.501,0.6179 1.436,0.6179 0.418,0 0.685,-0.1002 0.284,-0.1002 0.451,-0.2839 0.184,-0.2004 0.25,-0.4676 0.08,-0.2672 0.101,-0.5845 l 2.438,0.2505 q -0.02,0.5678 -0.217,1.1356 -0.184,0.551 -0.635,1.0186 -0.451,0.4509 -1.219,0.7348 -0.752,0.2839 -1.854,0.2839 z m 5.043,-0.2338 v -5.0766 -3.7407 h 2.238 l 0.02,3.3065 h 0.2 q 0.134,-1.2024 0.485,-1.9872 0.35,-0.7849 0.968,-1.169 0.618,-0.3841 1.536,-0.3841 1.47,0 2.221,1.002 0.752,0.9853 0.752,3.0059 v 5.0432 h -2.705 v -4.7092 q 0,-1.0354 -0.318,-1.5364 -0.3,-0.501 -0.951,-0.501 -0.535,0 -0.936,0.3674 -0.384,0.3507 -0.601,1.1022 -0.217,0.7348 -0.217,1.9037 v 3.3733 z m 9.786,2.5717 v -7.8487 -3.5403 h 2.322 v 2.6552 l 0.183,0.017 q 0.167,-0.9685 0.535,-1.6198 0.384,-0.6513 0.968,-0.9686 0.585,-0.3173 1.386,-0.3173 1.069,0 1.82,0.5344 0.769,0.5344 1.169,1.5698 0.401,1.0353 0.401,2.5383 0,1.5196 -0.417,2.555 -0.418,1.0353 -1.169,1.5697 -0.752,0.5177 -1.77,0.5177 -0.769,0 -1.353,-0.3006 -0.568,-0.3173 -0.952,-0.9519 -0.367,-0.6345 -0.551,-1.5864 h -0.2 q 0.08,0.4676 0.15,0.9853 0.08,0.5009 0.117,0.9852 0.05,0.4843 0.05,0.9352 v 2.2711 z m 4.426,-4.5255 q 0.534,0 0.885,-0.3173 0.367,-0.334 0.534,-0.8684 0.184,-0.5511 0.184,-1.2023 0,-0.7014 -0.201,-1.2358 -0.183,-0.5511 -0.551,-0.8684 -0.35,-0.334 -0.868,-0.334 -0.384,0 -0.701,0.167 -0.318,0.167 -0.552,0.4843 -0.217,0.3006 -0.35,0.7515 -0.134,0.4342 -0.134,0.9853 v 0.167 q 0,0.4508 0.08,0.8182 0.1,0.3507 0.267,0.6179 0.167,0.2672 0.384,0.4676 0.234,0.1837 0.484,0.2839 0.267,0.084 0.535,0.084 z m 9.635,2.1876 q -1.302,0 -2.304,-0.501 -0.986,-0.5177 -1.553,-1.553 -0.551,-1.0354 -0.551,-2.5884 0,-1.5865 0.567,-2.6051 0.585,-1.0354 1.587,-1.5364 1.018,-0.501 2.288,-0.501 1.319,0 2.304,0.5177 1.002,0.501 1.553,1.5364 0.551,1.0186 0.551,2.5884 0,1.6031 -0.584,2.6385 -0.585,1.0353 -1.587,1.5196 -1.002,0.4843 -2.271,0.4843 z m 0.07,-1.9705 q 0.551,0 0.902,-0.2839 0.367,-0.3006 0.551,-0.8684 0.2,-0.5678 0.2,-1.3693 0,-0.8684 -0.217,-1.4696 -0.2,-0.6012 -0.584,-0.9185 -0.384,-0.3172 -0.969,-0.3172 -0.518,0 -0.885,0.3005 -0.367,0.2839 -0.568,0.8517 -0.183,0.5678 -0.183,1.3694 0,1.3025 0.467,2.0039 0.468,0.7014 1.286,0.7014 z"
       id="text12"
       style="font-weight:800;font-size:16.6994px;line-height:0.85;font-family:'Bricolage Grotesque 72pt';-inkscape-font-specification:'Bricolage Grotesque 72pt, Ultra-Bold';font-variant-numeric:oldstyle-nums;stroke-width:0.264583"
       aria-label="lipu tenpo" /></g></svg>
