<?xml version="1.0" encoding="UTF-8" standalone="no"?>
<!-- Created with Inkscape (http://www.inkscape.org/) -->

<svg
   width="303mm"
   height="216mm"
   viewBox="0 0 303 216"
   version="1.1"
   id="svg5"
   xml:space="preserve"
   sodipodi:docname="selo.svg"
   inkscape:version="1.3.2 (091e20e, 2023-11-25)"
   xmlns:inkscape="http://www.inkscape.org/namespaces/inkscape"
   xmlns:sodipodi="http://sodipodi.sourceforge.net/DTD/sodipodi-0.dtd"
   xmlns="http://www.w3.org/2000/svg"
   xmlns:svg="http://www.w3.org/2000/svg"><sodipodi:namedview
     id="namedview1"
     pagecolor="#ffffff"
     bordercolor="#666666"
     borderopacity="1.0"
     inkscape:showpageshadow="2"
     inkscape:pageopacity="0.0"
     inkscape:pagecheckerboard="0"
     inkscape:deskcolor="#d1d1d1"
     inkscape:document-units="mm"
     showgrid="false"
     inkscape:zoom="0.32213849"
     inkscape:cx="515.30632"
     inkscape:cy="90.023393"
     inkscape:window-width="1920"
     inkscape:window-height="1011"
     inkscape:window-x="0"
     inkscape:window-y="32"
     inkscape:window-maximized="1"
     inkscape:current-layer="layer1" /><defs
     id="defs2"><inkscape:path-effect
       effect="bspline"
       id="path-effect5"
       is_visible="true"
       lpeversion="1.3"
       weight="33.333333"
       steps="2"
       helper_size="0"
       apply_no_weight="true"
       apply_with_weight="true"
       only_selected="false"
       uniform="false" /><inkscape:path-effect
       effect="bspline"
       id="path-effect4"
       is_visible="true"
       lpeversion="1.3"
       weight="33.333333"
       steps="2"
       helper_size="0"
       apply_no_weight="true"
       apply_with_weight="true"
       only_selected="false"
       uniform="false" /><inkscape:path-effect
       effect="bspline"
       id="path-effect3"
       is_visible="true"
       lpeversion="1.3"
       weight="33.333333"
       steps="2"
       helper_size="0"
       apply_no_weight="true"
       apply_with_weight="true"
       only_selected="false"
       uniform="false" /><inkscape:path-effect
       effect="bspline"
       id="path-effect2"
       is_visible="true"
       lpeversion="1.3"
       weight="33.333333"
       steps="2"
       helper_size="0"
       apply_no_weight="true"
       apply_with_weight="true"
       only_selected="false"
       uniform="false" /><inkscape:path-effect
       effect="bspline"
       id="path-effect1"
       is_visible="true"
       lpeversion="1.3"
       weight="33.333333"
       steps="2"
       helper_size="0"
       apply_no_weight="true"
       apply_with_weight="true"
       only_selected="false"
       uniform="false" /></defs><g
     id="layer1"
     transform="translate(-899.2266,265.6201)"><path
       id="path4"
       style="fill:#ffcccc;stroke:none;stroke-width:0.264583px;stroke-linecap:butt;stroke-linejoin:miter;stroke-opacity:1"
       d="M 899.2266 -191.61428 L 899.2266 -49.619848 L 961.15047 -49.619848 C 965.55772 -65.030967 967.45015 -85.779096 965.82357 -107.68194 C 963.88795 -133.74608 956.98377 -161.41362 939.76779 -176.49892 C 928.51521 -186.35888 912.87159 -190.8179 899.2266 -191.61428 z " /><path
       id="path3"
       style="fill:#aaeedd;stroke:none;stroke-width:0.264583px;stroke-linecap:butt;stroke-linejoin:miter;stroke-opacity:1"
       d="M 899.2266 -265.6201 L 899.2266 -179.38609 C 908.83174 -169.63322 920.62156 -161.60803 933.83999 -156.82209 C 960.90582 -147.02247 993.89245 -150.74765 1024.6804 -158.53465 C 1055.4684 -166.32164 1084.0559 -178.17041 1099.0216 -196.69511 C 1113.9873 -215.21981 1115.3299 -240.41961 1109.2624 -257.47641 C 1108.2 -260.46281 1106.9354 -263.16016 1105.4967 -265.6201 L 899.2266 -265.6201 z " /><path
       id="path2"
       style="fill:#ffffaa;stroke:none;stroke-width:0.204923px;stroke-linecap:butt;stroke-linejoin:miter;stroke-opacity:1"
       d="M 1091.6652 -270.027 C 1085.0395 -258.9096 1088.2891 -241.14535 1094.5471 -222.41598 C 1101.5046 -201.59315 1112.1374 -179.6068 1131.3316 -174.14132 C 1150.5258 -168.67584 1176.3762 -178.97234 1196.2082 -187.45118 L 1196.2082 -270.027 L 1091.6652 -270.027 z "
       transform="matrix(1.0556145,0,0,1.579196,-60.507997,160.80546)" /><path
       id="path1"
       style="fill:#ccccff;stroke:none;stroke-width:0.264583px;stroke-linecap:butt;stroke-linejoin:miter;stroke-opacity:1"
       d="M 1212.9701 -36.139567 C 1229.8275 -48.922406 1238.2674 -65.339703 1241.4118 -84.304849 C 1245.6042 -109.59171 1240.3827 -139.40692 1227.1962 -155.54667 C 1214.0096 -171.68641 1192.8588 -174.15026 1166.8855 -171.8953 C 1145.2605 -170.01786 1120.4274 -164.88215 1097.5102 -159.83124 L 1026.0495 -103.85005 L 1097.8513 -12.194013 C 1127.9708 -6.3270054 1166.8668 -12.795046 1193.1909 -24.608584 C 1200.7964 -28.021677 1207.3509 -31.878621 1212.9701 -36.139567 z "
       transform="rotate(-141.92544,1123.4943,-107.13042)" /><rect
       style="fill:#ffffff;stroke:#000000;stroke-width:1.5;stroke-linecap:round;stroke-linejoin:round;stroke-dasharray:none;paint-order:fill markers stroke"
       id="rect8"
       width="123.5"
       height="185"
       x="914.7266"
       y="-250.1202"
       ry="10" /><rect
       style="fill:#ffffff;stroke:#000000;stroke-width:1.5;stroke-linecap:round;stroke-linejoin:round;stroke-dasharray:none;paint-order:fill markers stroke"
       id="rect9"
       width="123.5"
       height="185"
       x="1063.227"
       y="-250.1202"
       ry="10" /><path
       d="m 1087.412,-219.9674 v -11.7899 h 2.688 v 11.7899 z m 4.141,0 v -8.8174 h 2.689 v 8.8174 z m 1.336,-9.6357 q -0.768,0 -1.185,-0.3172 -0.401,-0.3173 -0.401,-0.9352 0,-0.6346 0.401,-0.9519 0.417,-0.334 1.185,-0.334 0.785,0 1.186,0.334 0.417,0.3173 0.417,0.9519 0,0.6012 -0.417,0.9352 -0.401,0.3172 -1.186,0.3172 z m 2.822,12.2074 v -7.8487 -3.5404 h 2.322 v 2.6553 l 0.183,0.017 q 0.167,-0.9686 0.535,-1.6199 0.384,-0.6513 0.968,-0.9686 0.585,-0.3173 1.386,-0.3173 1.069,0 1.82,0.5344 0.769,0.5344 1.169,1.5699 0.401,1.0353 0.401,2.5383 0,1.5196 -0.417,2.555 -0.418,1.0353 -1.169,1.5697 -0.752,0.5177 -1.77,0.5177 -0.769,0 -1.353,-0.3006 -0.568,-0.3173 -0.952,-0.9519 -0.367,-0.6345 -0.551,-1.5864 h -0.2 q 0.08,0.4676 0.15,0.9853 0.08,0.5009 0.117,0.9852 0.05,0.4843 0.05,0.9352 v 2.2711 z m 4.426,-4.5255 q 0.534,0 0.885,-0.3173 0.367,-0.334 0.534,-0.8684 0.184,-0.5511 0.184,-1.2023 0,-0.7014 -0.201,-1.2358 -0.183,-0.5511 -0.551,-0.8684 -0.35,-0.334 -0.868,-0.334 -0.384,0 -0.701,0.167 -0.318,0.167 -0.551,0.4843 -0.218,0.3006 -0.351,0.7515 -0.134,0.4342 -0.134,0.9853 v 0.167 q 0,0.4508 0.08,0.8182 0.1,0.3507 0.267,0.6179 0.167,0.2672 0.384,0.4676 0.234,0.1837 0.484,0.2839 0.267,0.084 0.535,0.084 z m 8.416,2.1876 q -1.486,0 -2.204,-1.0187 -0.718,-1.0186 -0.718,-3.1228 v -4.9097 h 2.705 v 4.7928 q 0,1.0354 0.301,1.4863 0.3,0.4509 0.885,0.4509 0.384,0 0.701,-0.2004 0.317,-0.2004 0.551,-0.6012 0.234,-0.4008 0.351,-0.9853 0.117,-0.6011 0.117,-1.386 v -3.5571 h 2.705 v 4.9598 3.8576 h -2.254 l -0.02,-3.223 h -0.184 q -0.133,1.2024 -0.501,1.9705 -0.35,0.7682 -0.968,1.1356 -0.601,0.3507 -1.47,0.3507 z m 13.844,-0.033 q -1.553,0 -2.305,-0.8016 -0.751,-0.8015 -0.751,-2.5049 v -3.6071 h -1.052 l 0.02,-1.8203 h 0.3 q 0.885,-0.1002 1.269,-0.5344 0.384,-0.4342 0.485,-1.3693 l 0.07,-0.3841 h 1.553 v 2.0039 h 2.054 v 2.171 h -2.054 v 3.3232 q 0,0.6179 0.301,0.8851 0.301,0.2672 0.802,0.2672 0.25,0 0.501,-0.067 0.267,-0.067 0.484,-0.1837 v 2.388 q -0.534,0.1503 -0.952,0.1837 -0.401,0.05 -0.718,0.05 z m 6.813,0.033 q -1.219,0 -2.07,-0.334 -0.852,-0.3507 -1.403,-0.9519 -0.535,-0.6178 -0.785,-1.4194 -0.251,-0.8183 -0.251,-1.7534 0,-0.9853 0.251,-1.8537 0.267,-0.885 0.802,-1.5364 0.534,-0.668 1.352,-1.0521 0.818,-0.3841 1.921,-0.3841 1.118,0 1.92,0.3841 0.818,0.3674 1.319,1.0688 0.501,0.6848 0.668,1.6199 0.167,0.9352 0.02,2.0373 l -6.546,0.1002 v -1.4528 l 4.642,-0.084 -0.534,0.8016 q 0.1,-0.7849 -0.05,-1.3026 -0.151,-0.5344 -0.518,-0.8016 -0.351,-0.2671 -0.902,-0.2671 -0.601,0 -1.002,0.3172 -0.384,0.3173 -0.567,0.9018 -0.184,0.5845 -0.184,1.3861 0,1.3526 0.484,1.9705 0.501,0.6179 1.436,0.6179 0.418,0 0.685,-0.1002 0.284,-0.1002 0.451,-0.2839 0.184,-0.2004 0.25,-0.4676 0.08,-0.2672 0.101,-0.5845 l 2.438,0.2505 q -0.02,0.5678 -0.217,1.1356 -0.184,0.551 -0.635,1.0186 -0.451,0.4509 -1.219,0.7348 -0.752,0.2839 -1.854,0.2839 z m 5.043,-0.2338 v -5.0766 -3.7408 h 2.238 l 0.02,3.3066 h 0.2 q 0.134,-1.2024 0.485,-1.9873 0.35,-0.7849 0.968,-1.169 0.618,-0.3841 1.536,-0.3841 1.47,0 2.221,1.002 0.752,0.9853 0.752,3.006 v 5.0432 h -2.705 v -4.7092 q 0,-1.0354 -0.318,-1.5364 -0.3,-0.501 -0.951,-0.501 -0.535,0 -0.936,0.3674 -0.384,0.3507 -0.601,1.1022 -0.217,0.7348 -0.217,1.9037 v 3.3733 z m 9.786,2.5717 v -7.8487 -3.5404 h 2.322 v 2.6553 l 0.183,0.017 q 0.167,-0.9686 0.535,-1.6199 0.384,-0.6513 0.968,-0.9686 0.585,-0.3173 1.386,-0.3173 1.069,0 1.82,0.5344 0.769,0.5344 1.169,1.5699 0.401,1.0353 0.401,2.5383 0,1.5196 -0.417,2.555 -0.418,1.0353 -1.169,1.5697 -0.752,0.5177 -1.77,0.5177 -0.769,0 -1.353,-0.3006 -0.568,-0.3173 -0.952,-0.9519 -0.367,-0.6345 -0.551,-1.5864 h -0.2 q 0.08,0.4676 0.15,0.9853 0.08,0.5009 0.117,0.9852 0.05,0.4843 0.05,0.9352 v 2.2711 z m 4.426,-4.5255 q 0.534,0 0.885,-0.3173 0.367,-0.334 0.534,-0.8684 0.184,-0.5511 0.184,-1.2023 0,-0.7014 -0.201,-1.2358 -0.183,-0.5511 -0.551,-0.8684 -0.35,-0.334 -0.868,-0.334 -0.384,0 -0.701,0.167 -0.318,0.167 -0.552,0.4843 -0.217,0.3006 -0.35,0.7515 -0.134,0.4342 -0.134,0.9853 v 0.167 q 0,0.4508 0.08,0.8182 0.1,0.3507 0.267,0.6179 0.167,0.2672 0.384,0.4676 0.234,0.1837 0.484,0.2839 0.267,0.084 0.535,0.084 z m 9.635,2.1876 q -1.302,0 -2.304,-0.501 -0.986,-0.5177 -1.553,-1.553 -0.551,-1.0354 -0.551,-2.5884 0,-1.5865 0.567,-2.6051 0.585,-1.0355 1.587,-1.5365 1.018,-0.501 2.288,-0.501 1.319,0 2.304,0.5177 1.002,0.501 1.553,1.5365 0.551,1.0186 0.551,2.5884 0,1.6031 -0.584,2.6385 -0.585,1.0353 -1.587,1.5196 -1.002,0.4843 -2.271,0.4843 z m 0.07,-1.9705 q 0.551,0 0.902,-0.2839 0.367,-0.3006 0.551,-0.8684 0.2,-0.5678 0.2,-1.3693 0,-0.8684 -0.217,-1.4696 -0.2,-0.6012 -0.584,-0.9185 -0.384,-0.3172 -0.969,-0.3172 -0.518,0 -0.885,0.3005 -0.367,0.2839 -0.568,0.8517 -0.183,0.5678 -0.183,1.3694 0,1.3025 0.467,2.0039 0.468,0.7014 1.286,0.7014 z"
       id="path12"
       style="font-weight:800;font-size:16.6994px;line-height:0.85;font-family:'Bricolage Grotesque 72pt';-inkscape-font-specification:'Bricolage Grotesque 72pt, Ultra-Bold';font-variant-numeric:oldstyle-nums;stroke-width:0.264583"
       aria-label="lipu tenpo" /></g></svg>
