<?xml version="1.0" encoding="UTF-8" standalone="no"?>
<!-- Created with Inkscape (http://www.inkscape.org/) -->

<svg
   width="172.3594"
   height="65.72462"
   viewBox="0 0 172.3594 65.72462"
   version="1.1"
   id="svg5"
   xml:space="preserve"
   xmlns="http://www.w3.org/2000/svg"
   xmlns:svg="http://www.w3.org/2000/svg"><defs
     id="defs2" /><g
     id="layer1"
     transform="translate(-330.8165,-1054.155)"><path
       style="opacity:1;fill:#ccccff;stroke-width:3.44486;stroke-linecap:round;stroke-linejoin:round;paint-order:fill markers stroke"
       d="m 333.33,1084.43 c -0.081,-8.272 3.8817,-16.034 18.6816,-19.637 14.7999,-3.603 40.4362,-3.047 64.4998,-2.423 24.0635,0.625 46.5529,1.318 61.4615,5.61 14.9086,4.292 22.2363,12.183 22.6706,19.942 0.4344,7.76 -6.0237,15.388 -21.3802,19.524 -15.3565,4.135 -39.6098,4.778 -64.0266,4.666 -24.4169,-0.112 -48.9957,-0.977 -63.3479,-5.802 -14.3521,-4.824 -18.4776,-13.608 -18.5588,-21.88 z"
       id="path2"
       transform="matrix(1.030025,0,0,1.308966,-12.52052,-335.8519)" /></g></svg>
