<?xml version="1.0" encoding="UTF-8" standalone="no"?>
<!-- Created with Inkscape (http://www.inkscape.org/) -->

<svg
   width="177.9711"
   height="70.91835"
   viewBox="0 0 177.9711 70.91835"
   version="1.1"
   id="svg5"
   xml:space="preserve"
   xmlns="http://www.w3.org/2000/svg"
   xmlns:svg="http://www.w3.org/2000/svg"><defs
     id="defs2" /><g
     id="layer1"
     transform="translate(-317.5884,-1277.301)"><path
       style="opacity:1;fill:#ccccff;stroke-width:4.01442;stroke-linecap:round;stroke-linejoin:round;paint-order:fill markers stroke"
       d="m 313.4925,1307.903 c -0.2358,10.891 -0.7074,32.673 2.6166,38.311 3.324,5.638 10.4436,-4.868 39.8283,-9.886 29.3848,-5.017 81.0285,-4.547 107.9619,-8.219 26.9334,-3.672 29.1467,-11.486 30.2483,-20.484 1.1015,-8.998 1.0911,-19.179 -14.5799,-24.472 -15.671,-5.294 -47.0013,-5.698 -76.0302,-5.387 -29.029,0.311 -55.7549,1.338 -70.3395,4.665 -14.5845,3.327 -17.0273,8.954 -18.2486,11.768 -1.2214,2.813 -1.2211,2.813 -1.4569,13.704 z"
       id="path1"
       transform="matrix(0.9819938,0,0,1.011035,9.904927,-14.48688)" /></g></svg>
