<?xml version="1.0" encoding="UTF-8" standalone="no"?>
<!-- Created with Inkscape (http://www.inkscape.org/) -->

<svg
   width="283.5331"
   height="127.2881"
   viewBox="0 0 283.5331 127.2881"
   version="1.1"
   id="svg5"
   xml:space="preserve"
   xmlns="http://www.w3.org/2000/svg"
   xmlns:svg="http://www.w3.org/2000/svg"><defs
     id="defs2" /><g
     id="layer1"
     transform="translate(-307.43,-146.4797)"><path
       style="opacity:1;fill:#ffffaa;stroke-width:4;stroke-linecap:round;stroke-linejoin:round;paint-order:fill markers stroke"
       d="m 308.3776,274.837 c 5.4865,-10.4505 10.9729,-20.901 47.6832,-25.4399 36.7103,-4.5389 104.6404,-3.1663 149.1692,-3.2685 44.5288,-0.1022 65.6512,-1.6791 74.9064,-13.295 9.2553,-11.6158 6.6423,-33.269 0.8457,-49.1187 -5.7967,-15.8497 -14.7764,-25.8939 -57.7904,-31.2522 -43.0141,-5.3582 -120.0588,-6.0299 -162.2363,-3.482 -42.1775,2.5479 -49.4858,8.315 -53.6316,18.8076 -4.1458,10.4926 -5.1288,25.7099 -4.426,44.3388 0.7027,18.629 3.0913,40.6695 5.4798,62.7099 z"
       id="path5"
       transform="translate(4.74015,-1.069152)" /></g></svg>
