<?xml version="1.0" encoding="UTF-8" standalone="no"?>
<!-- Created with Inkscape (http://www.inkscape.org/) -->

<svg
   width="11.37647mm"
   height="10.34901mm"
   viewBox="0 0 42.99769 39.11438"
   version="1.1"
   id="svg5"
   xmlns="http://www.w3.org/2000/svg"
   xmlns:svg="http://www.w3.org/2000/svg">
  <defs
     id="defs2" />
  <g
     id="layer1"
     transform="translate(-520.0318,-421.3067)">
    <path
       id="path12"
       style="fill:#3333cc;stroke-width:2.26771;stroke-linecap:round;stroke-linejoin:round;paint-order:fill markers stroke"
       d="m 543.3363,421.3067 c -0.3098,0 -0.6198,-4e-4 -0.9316,0.01 -9.977,0.3241 -20.8519,8.0163 -22.2207,15.9238 -1.369,7.9077 6.7686,16.0313 13.584,20.1212 6.8154,4.0899 12.308,4.1469 18.2168,-0.2383 5.9086,-4.3852 12.2316,-13.2121 10.8535,-21.1485 -1.3351,-7.6883 -9.8975,-14.5417 -19.502,-14.6679 z m -7.8398,11.2733 c 1.0686,0 1.7344,0.7484 1.8692,1.586 0.3316,0.092 0.6635,0.2817 0.9726,0.6016 1.2556,1.3463 0.6674,0.5935 1.7343,2.289 0.1403,0.5228 0.37,1.0296 0.4219,1.5684 0.1887,2.0313 -0.9608,3.9803 -2.668,5.0254 0.053,0.1267 0.097,0.2632 0.131,0.4122 0.3496,1.1571 1.1372,2.1822 2.3066,2.6074 0.2545,0.093 0.5297,0.1157 0.7948,0.1757 0.2648,-0.035 0.5361,-0.03 0.795,-0.094 1.4573,-0.3596 2.515,-1.3906 3.2949,-2.625 0.071,-0.1125 0.1334,-0.2309 0.1973,-0.3478 -0.3596,-0.2293 -0.7039,-0.4891 -1.0664,-0.7127 -0.4061,-0.5861 -0.9421,-1.1008 -1.2187,-1.7579 -0.7842,-1.8616 -0.1923,-4.0568 0.9687,-5.6016 0.9278,-1.2342 1.5922,-1.454 2.8769,-2.2089 0.5739,-0.1468 1.1303,-0.3935 1.7207,-0.4414 1.0513,-0.085 2.115,0.2177 2.8965,0.9512 0.1642,0.154 0.3,0.3341 0.42,0.5273 0.1192,0.1132 0.2354,0.2286 0.3398,0.3554 0.7327,0.8907 1.28,1.8656 1.455,3.0293 0.096,0.6392 -0.012,1.293 -0.012,1.9395 -0.5791,1.5527 -0.6063,2.2291 -1.9513,3.3535 -0.7479,0.6253 -1.6338,1.0359 -2.5625,1.2188 -0.05,0.1933 -0.1305,0.3911 -0.2461,0.5937 -0.686,1.1746 -0.987,1.8416 -1.9668,2.8555 -1.3565,1.4043 -3.1291,2.4406 -5.0995,2.6503 -0.6356,0.068 -1.2768,-0.042 -1.9161,-0.062 -0.5447,-0.181 -1.1151,-0.2977 -1.6347,-0.5409 -2.0659,-0.965 -3.4743,-2.8714 -4.0781,-5.0254 -0.039,-0.1732 -0.059,-0.3411 -0.062,-0.4981 -0.2564,-0.022 -0.511,-0.054 -0.7579,-0.125 -1.8216,-0.5275 -3.1871,-1.9628 -3.7285,-3.7637 -0.4188,-1.3949 -0.1766,-2.0204 0.022,-3.412 0.2349,-0.5243 0.4048,-1.0835 0.7069,-1.5724 1.0002,-1.6193 2.7756,-2.5233 4.5762,-2.9023 0.164,-0.032 0.3201,-0.048 0.4688,-0.049 z m -0.4121,3.9395 c -0.7041,0.2422 -1.3564,0.6531 -1.6758,1.3633 -0.084,0.1872 -0.1005,0.4007 -0.1445,0.5996 -0.05,0.9246 0.1073,1.8093 1.0683,2.1934 0.4635,0.1849 0.6601,0.096 1.1328,0.033 0.7219,-0.3826 1.6841,-1.1907 1.2501,-2.1172 -0.054,-0.1163 -0.1467,-0.2114 -0.2208,-0.3164 -0.5198,-0.5554 -0.2314,-0.2592 -0.873,-0.8809 -0.2729,-0.2823 -0.4445,-0.5789 -0.5371,-0.875 z m 13.625,0.2032 c -0.034,0.061 -0.1259,0.077 -0.1875,0.1133 -0.152,0.089 -0.3057,0.1727 -0.459,0.2597 -0.924,0.6093 -1.8492,1.5412 -1.5957,2.7637 0.042,0.2011 0.1295,0.4046 0.2676,0.5566 0.1114,0.1224 0.2937,0.1476 0.4414,0.2226 0.6652,0.215 1.4143,0.3032 2.0449,-0.094 0.3375,-0.2123 0.6667,-0.7539 0.7851,-1.1134 0.075,-0.2254 0.077,-0.4705 0.1153,-0.7051 -0.011,-0.075 -0.03,-0.1442 -0.047,-0.2148 -0.7234,-0.1968 -1.334,-0.8069 -1.3652,-1.789 z" />
  </g>
</svg>
