<?xml version="1.0" encoding="UTF-8" standalone="no"?>
<!-- Created with Inkscape (http://www.inkscape.org/) -->

<svg
   width="11.79825mm"
   height="13.16221mm"
   viewBox="0 0 44.59183 49.74694"
   version="1.1"
   id="svg5"
   xmlns="http://www.w3.org/2000/svg"
   xmlns:svg="http://www.w3.org/2000/svg">
  <defs
     id="defs2" />
  <g
     id="layer1"
     transform="translate(-515.9863,-127.569)">
    <path
       id="path349"
       style="fill:#665500;stroke-width:2.26772;stroke-linecap:round;stroke-linejoin:round;paint-order:fill markers stroke"
       d="m 537.3592,127.5694 c -5.0053,-0.023 -9.9834,1.3338 -13.539,3.8496 -6.321,4.4724 -8.1422,12.6076 -7.7929,21.0703 0.3492,8.4626 2.8683,17.2528 9.7109,21.6054 6.8425,4.3527 18.0093,4.269 25.125,-0.098 7.1156,-4.3666 10.1797,-13.0147 9.6582,-21.8399 -0.5214,-8.8251 -4.6289,-17.8277 -12.0938,-21.9238 -3.2659,-1.792 -7.1753,-2.646 -11.0684,-2.664 z m -0.4589,9.5371 c 0.9445,0.027 1.869,0.7229 1.83,2.0586 -0.06,1.5885 -0.041,3.1778 0.027,4.7656 0.014,0.1997 0.027,0.3998 0.041,0.5996 0.1851,2.6661 -3.5842,2.9278 -3.7696,0.2617 -0.016,-0.234 -0.034,-0.4673 -0.049,-0.7012 -0.07,-1.6775 -0.092,-3.3568 -0.029,-5.0351 v 0 c 0.039,-1.3357 1.0028,-1.9767 1.9473,-1.9492 z m 7.3242,0.1816 c 1.1802,0.086 2.2582,1.2752 1.5566,2.791 -0.6947,1.518 -1.2729,3.0865 -1.8593,4.6485 -0.065,0.1803 -0.1284,0.3604 -0.1934,0.541 -0.9059,2.5143 -4.4625,1.233 -3.5566,-1.2813 0.071,-0.1959 0.1419,-0.392 0.2128,-0.5879 0.6193,-1.6496 1.2293,-3.3058 1.9649,-4.9082 0.421,-0.9095 1.1669,-1.2548 1.875,-1.2031 z m -14.0645,1.2852 c 0.7101,0 1.4292,0.3952 1.7852,1.332 0.4722,1.4272 0.8519,2.8838 1.2949,4.3203 0.056,0.1704 0.11,0.3394 0.1661,0.5098 0.8294,2.5405 -2.7623,3.7143 -3.5919,1.1738 -0.062,-0.1905 -0.1255,-0.3818 -0.1875,-0.5723 -0.4183,-1.3594 -0.7864,-2.7336 -1.2148,-4.0898 -0.5934,-1.5614 0.5646,-2.6708 1.748,-2.6738 z m 9.6622,10.3496 c 1.5515,-0.035 3.1633,0.08 4.2715,1.2695 0.34,0.365 0.521,0.8498 0.7812,1.2754 0.1225,0.4583 0.2842,0.9079 0.3672,1.375 0.1562,0.8804 0.166,2.1421 0.166,3.0293 -0.01,1.4672 -0.088,2.9366 -0.1464,4.4023 -0.043,0.8323 -0.057,1.6653 -0.063,2.4981 1.4132,0.7779 1.3245,3.2418 -0.7988,3.5331 -1.761,0.2287 -3.5445,0.1805 -5.3125,0.334 -2.4427,0.1782 -4.8792,0.418 -7.3106,0.7129 -1.1863,0.1133 -1.9098,-0.5738 -2.1172,-1.3906 -0.1701,-0.3671 -0.2225,-0.8081 -0.092,-1.2988 -0.074,-1.5708 -0.1335,-3.1423 -0.1641,-4.7148 -0.035,-2.5409 -0.017,-5.0823 -0.057,-7.6231 v 0 c -0.026,-1.0449 0.5399,-1.6888 1.2382,-1.9336 0.1712,-0.1432 0.3756,-0.2699 0.6212,-0.3711 2.2917,-0.7258 4.7223,-0.8888 7.1074,-1.0468 0.4832,-0.011 0.9925,-0.039 1.5098,-0.051 z m 0.3555,3.7832 c -0.5369,-0.01 -1.0312,0.023 -1.6192,0.043 -1.814,0.1181 -3.6472,0.2452 -5.4239,0.6504 0.022,2.1654 0.018,4.3308 0.049,6.4961 0.023,1.1596 0.064,2.318 0.1133,3.4766 1.8351,-0.2007 3.6739,-0.367 5.5156,-0.5019 0.8641,-0.099 1.737,-0.1121 2.6093,-0.1349 0.01,-0.8698 0.022,-1.7401 0.063,-2.6093 0.09,-2.3209 0.2797,-4.6649 0,-6.9785 0.026,-0.049 0.034,-0.112 0.078,-0.1446 0.054,-0.04 0.2294,3e-4 0.1933,-0.057 -0.1047,-0.1642 -0.8572,-0.2106 -1.0234,-0.2207 -0.1934,-0.012 -0.3758,-0.017 -0.5546,-0.019 z" />
  </g>
</svg>
