<?xml version="1.0" encoding="UTF-8" standalone="no"?>
<!-- Created with Inkscape (http://www.inkscape.org/) -->

<svg
   width="7.793095mm"
   height="7.732139mm"
   viewBox="0 0 7.793095 7.732139"
   version="1.1"
   id="svg5"
   xml:space="preserve"
   xmlns="http://www.w3.org/2000/svg"
   xmlns:svg="http://www.w3.org/2000/svg"><defs
     id="defs2" /><g
     id="layer1"
     transform="translate(-378.1029,-147.2354)"><g
       id="g251"
       transform="translate(42.33335)"><path
         style="fill:#114444;stroke-width:0.421373;stroke-linecap:round;stroke-linejoin:round;paint-order:markers stroke fill"
         d="m 339.6362,148.511 c 1.5515,-0.071 3.044,1.3166 3.0425,2.8546 0,1.5381 -1.4967,3.227 -3.0482,3.2975 -1.5515,0.071 -3.1589,-1.4773 -3.1574,-3.0154 0,-1.5381 1.6116,-3.0661 3.1631,-3.1367 z"
         id="path247"
         transform="matrix(1.255816,0,0,1.255816,-86.7788,-39.2638)" /><g
         id="g250"
         transform="translate(6.381072,17.61383)"
         style="stroke:#ffffff"><path
           style="color:#000000;fill:#ffffff;stroke:none;stroke-linecap:round;stroke-linejoin:round;-inkscape-stroke:none;paint-order:markers stroke fill"
           d="m 345.8145,131.6797 c -0.4106,-0.064 -0.8254,0.1789 -1.0821,0.5508 -0.2557,0.3703 -0.4443,0.947 -0.3672,1.4121 0.043,0.2589 0.205,0.4848 0.3985,0.6797 0.1934,0.1949 0.4165,0.3551 0.6523,0.4179 0.4279,0.1138 0.9653,0.02 1.3086,-0.3105 0.3361,-0.3207 0.4913,-0.8333 0.4941,-1.2266 0,-0.3924 -0.195,-0.6986 -0.4453,-0.9492 -0.2484,-0.249 -0.578,-0.5134 -0.9589,-0.5723 z m -0.067,0.418 c 0.2077,0.032 0.5113,0.2394 0.7247,0.4531 0.2117,0.212 0.3222,0.3893 0.3222,0.6504 0,0.2606 -0.1634,0.7331 -0.3613,0.9218 -0.1913,0.185 -0.6425,0.2752 -0.9062,0.2051 -0.1104,-0.029 -0.3073,-0.1519 -0.4609,-0.3067 -0.1537,-0.1547 -0.264,-0.3446 -0.2813,-0.4492 -0.043,-0.2619 0.1186,-0.8433 0.2969,-1.1015 0.1773,-0.2569 0.4899,-0.4029 0.6679,-0.375 z"
           id="path248"
           transform="matrix(1.334848,0,0,1.167046,-128.2811,-22.03694)" /><path
           style="color:#000000;fill:#ffffff;stroke:none;stroke-linecap:round;stroke-linejoin:round;-inkscape-stroke:none;paint-order:markers stroke fill"
           d="m 347.8047,145.8047 a 0.315063,0.315063 0 0 0 -0.3652,0.2558 c -0.079,0.4438 -0.1607,0.8999 -0.2129,1.3301 -0.053,0.4304 -0.075,0.8294 -0.1016,1.1426 -0.026,0.3139 -0.058,0.5609 -0.072,0.7578 -0.015,0.195 -0.01,0.3255 -0.01,0.4297 a 0.315063,0.315063 0 0 0 0.3144,0.3145 0.315063,0.315063 0 0 0 0.3145,-0.3145 c 0,-0.1197 0,-0.2153 0.01,-0.3828 0.012,-0.167 0.043,-0.4233 0.07,-0.75 0.028,-0.3276 0.05,-0.7143 0.1,-1.1191 0.049,-0.4049 0.128,-0.853 0.207,-1.2969 a 0.315063,0.315063 0 0 0 -0.2539,-0.3652 z"
           id="path249"
           transform="matrix(0.8766884,0,0,0.8044257,28.68119,14.49371)" /><path
           style="color:#000000;fill:#ffffff;stroke:none;stroke-linecap:round;stroke-linejoin:round;-inkscape-stroke:none;paint-order:markers stroke fill"
           d="m 349.3984,146.3516 a 0.2769825,0.2769825 0 0 0 -0.2754,0.2773 c 0,0.3726 0.01,0.7355 -0.01,1.1172 -0.016,0.3873 -0.049,0.8068 -0.07,1.0879 -0.021,0.2847 -0.034,0.5349 -0.037,0.5938 a 0.2769825,0.2769825 0 0 0 0.2636,0.291 0.2769825,0.2769825 0 0 0 0.291,-0.2637 c 0,-0.064 0.013,-0.3031 0.033,-0.5781 0.021,-0.2777 0.056,-0.7031 0.072,-1.1055 v 0 c 0.021,-0.4075 0.01,-0.7806 0.01,-1.1426 a 0.2769825,0.2769825 0 0 0 -0.2774,-0.2773 z"
           id="path250"
           transform="matrix(0,0.8766884,-1.040818,0,487.4001,-172.7381)" /></g></g></g></svg>
