<?xml version="1.0" encoding="UTF-8" standalone="no"?>
<!-- Created with Inkscape (http://www.inkscape.org/) -->

<svg
   width="8.919528mm"
   height="10.69212mm"
   viewBox="0 0 8.919528 10.69212"
   version="1.1"
   id="svg5"
   xml:space="preserve"
   xmlns="http://www.w3.org/2000/svg"
   xmlns:svg="http://www.w3.org/2000/svg"><defs
     id="defs2" /><g
     id="layer1"
     transform="translate(-366.901,-140.4835)"><g
       id="g247"
       transform="translate(30.8421,5.51389)"><path
         style="fill:#3333cc;stroke-width:0.385741;stroke-linecap:round;stroke-linejoin:round;paint-order:markers stroke fill"
         d="m 338.1953,143.7946 c 1.2531,0.8621 2.7606,0.7335 3.9105,-0.3361 1.15,-1.0697 1.814,-3.0692 1.3492,-4.4175 -0.4647,-1.3483 -2.0579,-2.0448 -3.5519,-1.8442 -1.494,0.2006 -2.8879,1.298 -3.2412,2.716 -0.3532,1.418 0.2803,3.0196 1.5334,3.8818 z"
         id="path241"
         transform="matrix(1.267005,0,0,1.485305,-90.37041,-68.75899)" /><g
         id="g246"
         transform="matrix(0.9992002,0,0,0.9992002,7.579229,-0.8132781)"
         style="stroke:#ffffff;stroke-width:1.0008"><path
           style="color:#000000;fill:#ffffff;stroke:none;stroke-linecap:round;stroke-linejoin:round;-inkscape-stroke:none;paint-order:markers stroke fill"
           d="m 331.3633,138.4258 a 0.357405,0.357405 0 0 0 -0.2324,0.4492 c 0.086,0.2691 0.1711,0.5389 0.2285,0.7266 0.057,0.1874 0.089,0.297 0.123,0.4043 0.034,0.1052 0.067,0.1945 0.088,0.2519 0.01,0.023 0.013,0.036 0.02,0.055 a 0.357405,0.357405 0 0 0 0,0.047 c 0.014,0.032 0.025,0.049 0.025,0.049 10e-5,10e-5 -0.01,-0.052 -0.014,-0.065 6e-4,0 0,0 0,0.01 a 0.3574407,0.3574407 0 0 0 0.018,0.078 c 0.09,0.1805 0.334,0.207 0.334,0.207 a 0.3574407,0.3574407 0 0 0 0.3398,-0.3828 c 0,0 10e-5,-6e-4 0,0 -0.01,-0.1049 -0.026,-0.1315 -0.037,-0.1446 6e-4,0 0,8e-4 0,0 l 0.035,0.1426 a 0.3574407,0.3574407 0 0 0 0,-0.09 c -0.014,-0.04 -0.028,-0.081 -0.051,-0.1445 -0.023,-0.065 -0.052,-0.1427 -0.08,-0.2305 -0.028,-0.087 -0.06,-0.201 -0.1191,-0.3945 -0.059,-0.1934 -0.1443,-0.4641 -0.2305,-0.7344 a 0.357405,0.357405 0 0 0 -0.4492,-0.2324 z m 0.5918,1.4961 c 0,0 0.1044,0.071 0.1894,0.1172 a 0.357405,0.357405 0 0 0 -0.2109,-0.086 z"
           id="path242"
           transform="matrix(0.7408831,0,0,0.7408831,86.16351,36.28243)" /><path
           style="color:#000000;fill:#ffffff;stroke:none;stroke-linecap:round;stroke-linejoin:round;-inkscape-stroke:none;paint-order:markers stroke fill"
           d="m 333.7187,138.002 a 0.3561305,0.3561305 0 0 0 -0.4238,0.2714 c -0.1153,0.5216 -0.2314,1.0442 -0.289,1.3047 -0.024,0.1101 -0.078,0.14 0.012,0.039 0,0 0.012,0 0.014,0 a 0.3561305,0.3561305 0 0 0 -0.076,0.4277 c 0,0 0.055,0.1126 0.2011,0.1602 0.1462,0.048 0.3359,-0.043 0.3965,-0.1114 0.1213,-0.1371 0.115,-0.2067 0.1485,-0.3574 0.058,-0.2608 0.1737,-0.7831 0.289,-1.3047 a 0.3561305,0.3561305 0 0 0 -0.2715,-0.4257 z m -0.3417,1.5214 c 0.1377,0.045 0.1875,0.1504 0.1875,0.1504 a 0.3561305,0.3561305 0 0 0 -0.3926,-0.098 c 0.072,-0.029 0.1265,-0.078 0.2051,-0.053 z"
           id="path243"
           transform="matrix(0.7172684,-0.1958828,0.1958828,0.7172684,66.83866,104.98)" /><path
           style="color:#000000;fill:#ffffff;stroke:none;stroke-linecap:round;stroke-linejoin:round;-inkscape-stroke:none;paint-order:markers stroke fill"
           d="m 335.6621,138.6152 a 0.38388,0.38388 0 0 0 -0.248,0.1582 c -0.2555,0.3641 -0.5108,0.7284 -0.6621,0.9317 -0.1515,0.2032 -0.1878,0.2371 -0.252,0.3086 -0.064,0.071 -0.1186,0.1382 -0.1328,0.1543 0,0 0,0 0,0 a 0.38388,0.38388 0 0 0 -0.07,0.5391 0.38388,0.38388 0 0 0 0.5371,0.07 c 0,0 0.064,-0.05 0.1114,-0.1035 0.046,-0.052 0.083,-0.1021 0.1269,-0.1504 0.044,-0.049 0.1309,-0.1386 0.2969,-0.3613 0.1659,-0.2228 0.4204,-0.5853 0.6758,-0.9493 a 0.38388,0.38388 0 0 0 -0.094,-0.5351 0.38388,0.38388 0 0 0 -0.2871,-0.065 z"
           id="path244"
           transform="matrix(0.6325503,-0.2146948,0.1982833,0.6849052,94.91413,115.7815)" /><path
           style="color:#000000;fill:#ffffff;stroke:none;stroke-linecap:round;stroke-linejoin:round;-inkscape-stroke:none;paint-order:markers stroke fill"
           d="m 334.0273,142.5273 a 0.383588,0.383588 0 0 0 -0.2441,0.1641 c -0.019,0.029 -0.1254,0.1702 -0.1621,0.2012 -0.089,0.075 -0.2013,0.1332 -0.2637,0.1289 -0.064,0 -0.3186,-0.1268 -0.5859,-0.2949 a 0.383588,0.383588 0 0 0 -0.5293,0.1211 0.383588,0.383588 0 0 0 0.1211,0.5293 c 0.2673,0.1681 0.5466,0.3826 0.9414,0.4101 0.3966,0.028 0.6717,-0.1913 0.8125,-0.3105 0.192,-0.1628 0.3134,-0.3707 0.3086,-0.3633 a 0.383588,0.383588 0 0 0 -0.1113,-0.5313 0.383588,0.383588 0 0 0 -0.2872,-0.055 z"
           id="path245"
           transform="matrix(0.6327289,0,0,0.7531349,122.3547,34.80121)" /><path
           style="color:#000000;fill:#ffffff;stroke:none;stroke-linecap:round;stroke-linejoin:round;-inkscape-stroke:none;paint-order:markers stroke fill"
           d="m 342.2227,144.3887 c -0.3366,-0.02 -0.6809,0.03 -0.9864,0.1425 -0.3099,0.1144 -0.6164,0.3225 -0.8066,0.6583 -0.19,0.3355 -0.2757,0.7726 -0.2695,1.1875 0.011,0.4079 0.1066,0.8153 0.3046,1.1406 0.2005,0.3291 0.522,0.5906 0.9082,0.6894 0.3722,0.096 0.7937,0.062 1.1582,-0.035 0.3676,-0.098 0.7274,-0.2925 0.9708,-0.625 0.2417,-0.3303 0.3735,-0.7657 0.4042,-1.166 0.031,-0.4004 -0.052,-0.7687 -0.1699,-1.0489 -0.1202,-0.2874 -0.2998,-0.5089 -0.3574,-0.582 -0.029,-0.037 -0.078,-0.1029 -0.1602,-0.1484 -0.082,-0.046 -0.1309,-0.053 -0.2031,-0.072 -0.1453,-0.039 -0.4576,-0.1253 -0.7929,-0.1445 z m -0.035,0.6172 c 0.2494,0.014 0.5232,0.084 0.666,0.123 0.047,0.013 0.037,0.01 0.041,0.01 0.059,0.075 0.1943,0.2511 0.2715,0.4355 0.081,0.1933 0.1445,0.4817 0.123,0.7637 -0.022,0.2821 -0.1465,0.6555 -0.2871,0.8476 -0.1393,0.1904 -0.3646,0.3229 -0.6328,0.3946 -0.2714,0.073 -0.6331,0.087 -0.8438,0.033 -0.1965,-0.05 -0.4182,-0.2222 -0.5351,-0.4141 -0.1188,-0.1951 -0.2055,-0.5177 -0.2149,-0.832 v 0 c 0,-7e-4 10e-5,0 0,0 0,-0.308 0.084,-0.6835 0.1895,-0.8692 0.1056,-0.1864 0.2718,-0.3051 0.4824,-0.3828 0.2149,-0.079 0.49,-0.1199 0.7383,-0.1054 z"
           id="path246"
           transform="matrix(0.858161,0,0,0.858161,39.71461,16.90972)" /></g></g></g></svg>
