<?xml version="1.0" encoding="UTF-8" standalone="no"?>
<!-- Created with Inkscape (http://www.inkscape.org/) -->

<svg
   width="8.193537mm"
   height="8.228342mm"
   viewBox="0 0 8.193537 8.228342"
   version="1.1"
   id="svg5"
   xml:space="preserve"
   xmlns="http://www.w3.org/2000/svg"
   xmlns:svg="http://www.w3.org/2000/svg"><defs
     id="defs2" /><g
     id="layer1"
     transform="translate(-388.5531,-131.5146)"><g
       id="g267"
       transform="translate(42.33335)"><path
         style="fill:#3333cc;stroke-width:0.359023;stroke-linecap:round;stroke-linejoin:round;paint-order:markers stroke fill"
         d="m 350.7811,133.3444 c 0.5091,0.2666 1.5269,0.7996 1.972,1.7741 0.445,0.9744 0.3171,2.39 -0.5874,3.0907 -0.9044,0.7007 -2.5853,0.6863 -3.599,0.041 -1.0137,-0.6457 -1.3602,-1.923 -0.9647,-2.8903 0.3954,-0.9673 1.5326,-1.6246 2.1013,-1.9533 0.5687,-0.3287 0.5687,-0.3284 1.0778,-0.062 z"
         id="path263"
         transform="matrix(1.47391,0,0,1.47391,-165.8791,-64.73925)" /><g
         id="g266"
         transform="matrix(0.6556559,0,0,0.6481971,113.8091,35.17947)"
         style="stroke:#ffffff;stroke-width:1.53394"><path
           style="color:#000000;fill:#ffffff;stroke:none;stroke-linecap:round;stroke-linejoin:round;-inkscape-stroke:none;paint-order:markers stroke fill"
           d="m 349.5098,146.7754 a 0.4058565,0.4058565 0 0 0 -0.2559,0.2402 c -0.1549,0.01 -0.3209,-0.01 -0.4492,0.053 -0.2252,0.1098 -0.4016,0.285 -0.5293,0.5039 -0.1315,0.2247 -0.207,0.485 -0.2109,0.7656 a 0.4058971,0.4058971 0 0 0 0,0.01 c 0,0.271 0.077,0.5757 0.2753,0.8418 0.1987,0.2669 0.4606,0.4716 0.7403,0.5957 0.2821,0.1254 0.5698,0.1141 0.789,0.064 0.2171,-0.049 0.4461,-0.1367 0.6504,-0.2949 0.2044,-0.1581 0.3645,-0.3696 0.461,-0.6211 0.093,-0.2433 0.1173,-0.5016 0.09,-0.75 -0.028,-0.2552 -0.1188,-0.5148 -0.2851,-0.7442 -0.1635,-0.2258 -0.3741,-0.4138 -0.629,-0.5332 -0.2668,-0.1252 -0.5175,-0.123 -0.6464,-0.1269 z m -0.1036,1.0019 c 0.1207,0.023 0.3805,0.1234 0.629,0.2286 a 0.4058565,0.4058565 0 0 0 0.1289,0 c 0.044,0.084 0.089,0.1703 0.1,0.2617 0.015,0.1314 0,0.2683 -0.041,0.3692 -0.035,0.091 -0.1261,0.2114 -0.2012,0.2695 -0.076,0.059 -0.2135,0.1196 -0.332,0.1465 -0.1164,0.026 -0.1833,0.027 -0.2793,-0.016 -0.098,-0.044 -0.333,-0.2238 -0.418,-0.3379 -0.085,-0.1145 -0.115,-0.2294 -0.1152,-0.3555 0,-0.1171 0.053,-0.2846 0.1,-0.3633 0.05,-0.085 0.1359,-0.1594 0.1855,-0.1836 0.059,-0.029 0.1176,-0.044 0.2441,-0.02 z"
           id="path264"
           transform="translate(9.765433,5.929964)" /><path
           style="color:#000000;fill:#ffffff;stroke:none;stroke-linecap:round;stroke-linejoin:round;-inkscape-stroke:none;paint-order:markers stroke fill"
           d="m 348.4238,151.9219 a 0.333781,0.333781 0 0 0 -0.3281,0.3183 c -0.037,0.018 -0.097,0.019 -0.1289,0.037 -0.1664,0.094 -0.2968,0.2231 -0.377,0.3555 -0.083,0.1371 -0.1467,0.317 -0.1503,0.5254 0,0.2035 0.04,0.4078 0.1035,0.5918 0.065,0.1863 0.16,0.3549 0.2949,0.4883 0.1381,0.1366 0.3447,0.2541 0.5957,0.2695 0.2417,0.015 0.4689,-0.042 0.6621,-0.1172 0.1969,-0.077 0.3414,-0.1845 0.4375,-0.2695 0.098,-0.087 0.2256,-0.2253 0.2793,-0.4238 0.048,-0.1765 0.061,-0.389 0.01,-0.6211 -0.055,-0.2327 -0.1715,-0.4337 -0.3067,-0.5957 0,0 0,0 0,0 a 0.333781,0.333781 0 0 0 -0.1914,-0.2188 c -0.036,-0.014 -0.092,-0.018 -0.1309,-0.033 -0.053,-0.035 -0.096,-0.092 -0.1523,-0.1191 -0.1744,-0.085 -0.3479,-0.1297 -0.4219,-0.1504 -0.046,-0.013 -0.08,-0.022 -0.1093,-0.027 -0.029,0 -0.078,-0.01 -0.078,-0.01 z m 0.2071,0.834 c 0.06,4e-4 0.1738,0.045 0.2714,0.076 0.032,0.027 0.07,0.044 0.098,0.076 0.075,0.09 0.1432,0.2185 0.168,0.3223 0.025,0.1042 0.014,0.2381 0,0.291 -0.01,0.031 -0.017,0.046 -0.078,0.1 -0.063,0.056 -0.1293,0.1049 -0.2363,0.1465 -0.1106,0.043 -0.2989,0.079 -0.3789,0.074 -0.071,0 -0.1199,-0.032 -0.166,-0.078 -0.049,-0.049 -0.099,-0.1246 -0.1367,-0.2325 -0.038,-0.1101 -0.066,-0.2766 -0.065,-0.3613 0,-0.08 0.026,-0.1432 0.055,-0.1914 0.032,-0.053 0.046,-0.072 0.1328,-0.1211 0.087,-0.049 0.2426,-0.1022 0.336,-0.1015 z"
           id="path265"
           transform="matrix(1.215932,0,0,1.215932,-61.54285,-32.13009)" /><path
           style="color:#000000;fill:#ffffff;stroke:none;stroke-linecap:round;stroke-linejoin:round;-inkscape-stroke:none;paint-order:markers stroke fill"
           d="m 362.4023,155.1152 a 0.4058565,0.4058565 0 0 0 -0.1855,0.543 c 0.1414,0.2866 0.2081,0.6453 0.1699,0.9609 -0.038,0.3156 -0.1663,0.5773 -0.4101,0.7598 a 0.4058971,0.4058971 0 0 0 -0.025,0.022 c -0.5834,0.514 -1.5489,0.4642 -2.2461,0.061 -0.2207,-0.1474 -0.3376,-0.3849 -0.3711,-0.6972 -0.034,-0.3151 0.036,-0.6835 0.164,-0.9512 a 0.4058565,0.4058565 0 0 0 -0.1914,-0.541 0.4058565,0.4058565 0 0 0 -0.541,0.1914 c -0.1953,0.4099 -0.2925,0.8998 -0.2402,1.3867 0.052,0.487 0.2753,0.9923 0.7402,1.2969 a 0.4058971,0.4058971 0 0 0 0.016,0.01 c 0.9457,0.5548 2.2709,0.6549 3.1895,-0.1406 0.4324,-0.3303 0.6639,-0.8138 0.7227,-1.2988 0.059,-0.4902 -0.037,-0.9893 -0.2481,-1.418 a 0.4058565,0.4058565 0 0 0 -0.543,-0.1836 z"
           id="path266" /></g></g></g></svg>
