<?xml version="1.0" encoding="UTF-8" standalone="no"?>
<!-- Created with Inkscape (http://www.inkscape.org/) -->

<svg
   width="210mm"
   height="297mm"
   viewBox="0 0 210 297"
   version="1.1"
   id="svg1"
   xml:space="preserve"
   inkscape:version="1.3.2 (091e20e, 2023-11-25)"
   sodipodi:docname="ko.svg"
   xmlns:inkscape="http://www.inkscape.org/namespaces/inkscape"
   xmlns:sodipodi="http://sodipodi.sourceforge.net/DTD/sodipodi-0.dtd"
   xmlns="http://www.w3.org/2000/svg"
   xmlns:svg="http://www.w3.org/2000/svg"><sodipodi:namedview
     id="namedview1"
     pagecolor="#ffffff"
     bordercolor="#666666"
     borderopacity="1.0"
     inkscape:showpageshadow="2"
     inkscape:pageopacity="0.0"
     inkscape:pagecheckerboard="0"
     inkscape:deskcolor="#d1d1d1"
     inkscape:document-units="mm"
     inkscape:zoom="3.4941275"
     inkscape:cx="75.555344"
     inkscape:cy="338.71117"
     inkscape:window-width="1920"
     inkscape:window-height="1016"
     inkscape:window-x="0"
     inkscape:window-y="27"
     inkscape:window-maximized="1"
     inkscape:current-layer="layer1"
     showgrid="false" /><defs
     id="defs1"><inkscape:path-effect
       effect="bspline"
       id="path-effect161"
       is_visible="true"
       lpeversion="1.3"
       weight="33.333333"
       steps="2"
       helper_size="0"
       apply_no_weight="true"
       apply_with_weight="true"
       only_selected="false"
       uniform="false" /><inkscape:path-effect
       effect="bspline"
       id="path-effect160"
       is_visible="true"
       lpeversion="1.3"
       weight="33.333333"
       steps="2"
       helper_size="0"
       apply_no_weight="true"
       apply_with_weight="true"
       only_selected="false"
       uniform="false" /><inkscape:path-effect
       effect="bspline"
       id="path-effect159"
       is_visible="true"
       lpeversion="1.3"
       weight="33.333333"
       steps="2"
       helper_size="0"
       apply_no_weight="true"
       apply_with_weight="true"
       only_selected="false"
       uniform="false" /><inkscape:path-effect
       effect="bspline"
       id="path-effect158"
       is_visible="true"
       lpeversion="1.3"
       weight="33.333333"
       steps="2"
       helper_size="0"
       apply_no_weight="true"
       apply_with_weight="true"
       only_selected="false"
       uniform="false" /><inkscape:path-effect
       effect="bspline"
       id="path-effect157"
       is_visible="true"
       lpeversion="1.3"
       weight="33.333333"
       steps="2"
       helper_size="0"
       apply_no_weight="true"
       apply_with_weight="true"
       only_selected="false"
       uniform="false" /><inkscape:path-effect
       effect="bspline"
       id="path-effect156"
       is_visible="true"
       lpeversion="1.3"
       weight="33.333333"
       steps="2"
       helper_size="0"
       apply_no_weight="true"
       apply_with_weight="true"
       only_selected="false"
       uniform="false" /><inkscape:path-effect
       effect="bspline"
       id="path-effect155"
       is_visible="true"
       lpeversion="1.3"
       weight="33.333333"
       steps="2"
       helper_size="0"
       apply_no_weight="true"
       apply_with_weight="true"
       only_selected="false"
       uniform="false" /><inkscape:path-effect
       effect="bspline"
       id="path-effect154"
       is_visible="true"
       lpeversion="1.3"
       weight="33.333333"
       steps="2"
       helper_size="0"
       apply_no_weight="true"
       apply_with_weight="true"
       only_selected="false"
       uniform="false" /><inkscape:path-effect
       effect="bspline"
       id="path-effect153"
       is_visible="true"
       lpeversion="1.3"
       weight="33.333333"
       steps="2"
       helper_size="0"
       apply_no_weight="true"
       apply_with_weight="true"
       only_selected="false"
       uniform="false" /><inkscape:path-effect
       effect="bspline"
       id="path-effect130"
       is_visible="true"
       lpeversion="1.3"
       weight="33.333333"
       steps="2"
       helper_size="0"
       apply_no_weight="true"
       apply_with_weight="true"
       only_selected="false"
       uniform="false" /><inkscape:path-effect
       effect="bspline"
       id="path-effect129"
       is_visible="true"
       lpeversion="1.3"
       weight="33.333333"
       steps="2"
       helper_size="0"
       apply_no_weight="true"
       apply_with_weight="true"
       only_selected="false"
       uniform="false" /><inkscape:path-effect
       effect="bspline"
       id="path-effect128"
       is_visible="true"
       lpeversion="1.3"
       weight="33.333333"
       steps="2"
       helper_size="0"
       apply_no_weight="true"
       apply_with_weight="true"
       only_selected="false"
       uniform="false" /><inkscape:path-effect
       effect="bspline"
       id="path-effect127"
       is_visible="true"
       lpeversion="1.3"
       weight="33.333333"
       steps="2"
       helper_size="0"
       apply_no_weight="true"
       apply_with_weight="true"
       only_selected="false"
       uniform="false" /><inkscape:path-effect
       effect="bspline"
       id="path-effect126"
       is_visible="true"
       lpeversion="1.3"
       weight="33.333333"
       steps="2"
       helper_size="0"
       apply_no_weight="true"
       apply_with_weight="true"
       only_selected="false"
       uniform="false" /><inkscape:path-effect
       effect="bspline"
       id="path-effect125"
       is_visible="true"
       lpeversion="1.3"
       weight="33.333333"
       steps="2"
       helper_size="0"
       apply_no_weight="true"
       apply_with_weight="true"
       only_selected="false"
       uniform="false" /><inkscape:path-effect
       effect="bspline"
       id="path-effect105"
       is_visible="true"
       lpeversion="1.3"
       weight="33.333333"
       steps="2"
       helper_size="0"
       apply_no_weight="true"
       apply_with_weight="true"
       only_selected="false"
       uniform="false" /><inkscape:path-effect
       effect="bspline"
       id="path-effect104"
       is_visible="true"
       lpeversion="1.3"
       weight="33.333333"
       steps="2"
       helper_size="0"
       apply_no_weight="true"
       apply_with_weight="true"
       only_selected="false"
       uniform="false" /><inkscape:path-effect
       effect="bspline"
       id="path-effect103"
       is_visible="true"
       lpeversion="1.3"
       weight="33.333333"
       steps="2"
       helper_size="0"
       apply_no_weight="true"
       apply_with_weight="true"
       only_selected="false"
       uniform="false" /><inkscape:path-effect
       effect="bspline"
       id="path-effect96"
       is_visible="true"
       lpeversion="1.3"
       weight="33.333333"
       steps="2"
       helper_size="0"
       apply_no_weight="true"
       apply_with_weight="true"
       only_selected="false"
       uniform="false" /><inkscape:path-effect
       effect="bspline"
       id="path-effect71"
       is_visible="true"
       lpeversion="1.3"
       weight="33.333333"
       steps="2"
       helper_size="0"
       apply_no_weight="true"
       apply_with_weight="true"
       only_selected="false"
       uniform="false" /><inkscape:path-effect
       effect="bspline"
       id="path-effect52"
       is_visible="true"
       lpeversion="1.3"
       weight="33.333333"
       steps="2"
       helper_size="0"
       apply_no_weight="true"
       apply_with_weight="true"
       only_selected="false"
       uniform="false" /><inkscape:path-effect
       effect="bspline"
       id="path-effect42"
       is_visible="true"
       lpeversion="1.3"
       weight="33.333333"
       steps="2"
       helper_size="0"
       apply_no_weight="true"
       apply_with_weight="true"
       only_selected="false"
       uniform="false" /><inkscape:path-effect
       effect="bspline"
       id="path-effect41"
       is_visible="true"
       lpeversion="1.3"
       weight="33.333333"
       steps="2"
       helper_size="0"
       apply_no_weight="true"
       apply_with_weight="true"
       only_selected="false"
       uniform="false" /><inkscape:path-effect
       effect="bspline"
       id="path-effect12"
       is_visible="true"
       lpeversion="1.3"
       weight="33.333333"
       steps="2"
       helper_size="0"
       apply_no_weight="true"
       apply_with_weight="true"
       only_selected="false"
       uniform="false" /><inkscape:path-effect
       effect="bspline"
       id="path-effect3"
       is_visible="true"
       lpeversion="1.3"
       weight="33.333333"
       steps="2"
       helper_size="0"
       apply_no_weight="true"
       apply_with_weight="true"
       only_selected="false"
       uniform="false" /><inkscape:path-effect
       effect="bspline"
       id="path-effect63"
       is_visible="true"
       lpeversion="1.3"
       weight="33.333333"
       steps="2"
       helper_size="0"
       apply_no_weight="true"
       apply_with_weight="true"
       only_selected="false"
       uniform="false" /><inkscape:path-effect
       effect="bspline"
       id="path-effect62"
       is_visible="true"
       lpeversion="1.3"
       weight="33.333333"
       steps="2"
       helper_size="0"
       apply_no_weight="true"
       apply_with_weight="true"
       only_selected="false"
       uniform="false" /><inkscape:path-effect
       effect="bspline"
       id="path-effect61"
       is_visible="true"
       lpeversion="1.3"
       weight="33.333333"
       steps="2"
       helper_size="0"
       apply_no_weight="true"
       apply_with_weight="true"
       only_selected="false"
       uniform="false" /><inkscape:path-effect
       effect="bspline"
       id="path-effect40"
       is_visible="true"
       lpeversion="1.3"
       weight="33.333333"
       steps="2"
       helper_size="0"
       apply_no_weight="true"
       apply_with_weight="true"
       only_selected="false"
       uniform="false" /><inkscape:path-effect
       effect="bspline"
       id="path-effect39"
       is_visible="true"
       lpeversion="1.3"
       weight="33.333333"
       steps="2"
       helper_size="0"
       apply_no_weight="true"
       apply_with_weight="true"
       only_selected="false"
       uniform="false" /><inkscape:path-effect
       effect="bspline"
       id="path-effect38"
       is_visible="true"
       lpeversion="1.3"
       weight="33.333333"
       steps="2"
       helper_size="0"
       apply_no_weight="true"
       apply_with_weight="true"
       only_selected="false"
       uniform="false" /><inkscape:path-effect
       effect="bspline"
       id="path-effect37"
       is_visible="true"
       lpeversion="1.3"
       weight="33.333333"
       steps="2"
       helper_size="0"
       apply_no_weight="true"
       apply_with_weight="true"
       only_selected="false"
       uniform="false" /><inkscape:path-effect
       effect="bspline"
       id="path-effect36"
       is_visible="true"
       lpeversion="1.3"
       weight="33.333333"
       steps="2"
       helper_size="0"
       apply_no_weight="true"
       apply_with_weight="true"
       only_selected="false"
       uniform="false" /><inkscape:path-effect
       effect="bspline"
       id="path-effect35"
       is_visible="true"
       lpeversion="1.3"
       weight="33.333333"
       steps="2"
       helper_size="0"
       apply_no_weight="true"
       apply_with_weight="true"
       only_selected="false"
       uniform="false" /><inkscape:path-effect
       effect="bspline"
       id="path-effect34"
       is_visible="true"
       lpeversion="1.3"
       weight="33.333333"
       steps="2"
       helper_size="0"
       apply_no_weight="true"
       apply_with_weight="true"
       only_selected="false"
       uniform="false" /><inkscape:path-effect
       effect="bspline"
       id="path-effect33"
       is_visible="true"
       lpeversion="1.3"
       weight="33.333333"
       steps="2"
       helper_size="0"
       apply_no_weight="true"
       apply_with_weight="true"
       only_selected="false"
       uniform="false" /><inkscape:path-effect
       effect="bspline"
       id="path-effect32"
       is_visible="true"
       lpeversion="1.3"
       weight="33.333333"
       steps="2"
       helper_size="0"
       apply_no_weight="true"
       apply_with_weight="true"
       only_selected="false"
       uniform="false" /><inkscape:path-effect
       effect="bspline"
       id="path-effect31"
       is_visible="true"
       lpeversion="1.3"
       weight="33.333333"
       steps="2"
       helper_size="0"
       apply_no_weight="true"
       apply_with_weight="true"
       only_selected="false"
       uniform="false" /><inkscape:path-effect
       effect="bspline"
       id="path-effect30"
       is_visible="true"
       lpeversion="1.3"
       weight="33.333333"
       steps="2"
       helper_size="0"
       apply_no_weight="true"
       apply_with_weight="true"
       only_selected="false"
       uniform="false" /><inkscape:path-effect
       effect="bspline"
       id="path-effect29"
       is_visible="true"
       lpeversion="1.3"
       weight="33.333333"
       steps="2"
       helper_size="0"
       apply_no_weight="true"
       apply_with_weight="true"
       only_selected="false"
       uniform="false" /><inkscape:path-effect
       effect="bspline"
       id="path-effect28"
       is_visible="true"
       lpeversion="1.3"
       weight="33.333333"
       steps="2"
       helper_size="0"
       apply_no_weight="true"
       apply_with_weight="true"
       only_selected="false"
       uniform="false" /><inkscape:path-effect
       effect="bspline"
       id="path-effect27"
       is_visible="true"
       lpeversion="1.3"
       weight="33.333333"
       steps="2"
       helper_size="0"
       apply_no_weight="true"
       apply_with_weight="true"
       only_selected="false"
       uniform="false" /><rect
       x="87.239149"
       y="522.35201"
       width="277.12957"
       height="89.781431"
       id="rect9" /><inkscape:path-effect
       effect="bspline"
       id="path-effect155-5"
       is_visible="true"
       lpeversion="1.3"
       weight="33.333333"
       steps="2"
       helper_size="0"
       apply_no_weight="true"
       apply_with_weight="true"
       only_selected="false"
       uniform="false" /></defs><g
     inkscape:label="Layer 1"
     inkscape:groupmode="layer"
     id="layer1"><path
       style="fill:#ffcccc;stroke:none;stroke-width:0.264583px;stroke-linecap:butt;stroke-linejoin:miter;stroke-opacity:1"
       d="m 105.53601,130.0443 c 0.26623,-0.27293 0.79869,-0.8188 5.38427,-1.24002 4.58558,-0.42122 13.22404,-0.71778 18.69567,-0.78793 5.47162,-0.0701 7.77988,0.0864 9.1792,0.30772 1.39932,0.22136 1.88964,0.50756 2.22482,1.54973 0.33518,1.04216 0.51521,2.8402 0.33816,4.00317 -0.17706,1.16296 -0.71118,1.6908 -5.96109,1.97368 -5.2499,0.28289 -15.21475,0.32081 -20.89149,0.3249 -5.67674,0.004 -7.06513,-0.0256 -7.8717,-0.16535 -0.80656,-0.13972 -1.07567,-0.43871 -1.21345,-1.4141 -0.13777,-0.97539 -0.14421,-2.62709 -0.14742,-3.45296 -0.003,-0.82587 -0.003,-0.82591 0.26303,-1.09884 z"
       id="path160"
       inkscape:path-effect="#path-effect161"
       inkscape:original-d="m 105.26979,130.31723 c 0.53245,-0.54586 1.06491,-1.09173 1.59736,-1.6376 8.63871,-0.29657 17.27717,-0.59313 25.91562,-0.88969 2.30717,0.12138 4.61424,0.29532 6.92136,0.46927 0.49034,0.28622 0.98066,0.57242 1.47098,0.85863 0.18004,1.79812 0.36007,3.59616 0.54011,5.39423 -0.53415,0.52786 -1.06827,1.0557 -1.6024,1.58354 -9.96539,0.11377 -19.93039,0.11377 -29.89558,0.11377 -1.38843,-0.0297 -2.77682,-0.0595 -4.16521,-0.0892 -0.25432,-0.22308 -0.50864,-0.53538 -0.76297,-0.8477 -0.006,-1.65177 -0.0129,-3.30347 -0.0193,-4.95521 z"
       transform="translate(0.58214735,-0.05298068)" /><path
       style="fill:#ccccff;stroke:none;stroke-width:0.264583px;stroke-linecap:butt;stroke-linejoin:miter;stroke-opacity:1"
       d="m 104.01966,153.39566 c -0.75654,0.99475 -0.75654,1.47401 0.0107,2.31047 0.76724,0.83646 2.30167,2.03006 5.09904,2.59403 2.79737,0.56398 6.8575,0.4983 11.42701,0.36158 4.5695,-0.13672 9.6481,-0.34447 12.74383,-0.91915 3.09573,-0.57469 4.20845,-1.51628 4.74669,-2.22563 0.53823,-0.70934 0.50418,-1.15758 -0.0431,-2.13683 -0.54731,-0.97926 -1.60784,-2.48948 -3.93822,-3.30035 -2.33037,-0.81087 -5.93042,-0.92235 -10.51932,-0.92235 -4.58889,1e-5 -10.16633,0.11149 -13.71166,0.92237 -3.54533,0.81088 -5.05839,2.3211 -5.81493,3.31586 z"
       id="path159"
       inkscape:path-effect="#path-effect160"
       inkscape:original-d="m 103.26312,153.91115 c 0,0.47926 0,0.95852 0,1.43779 1.53448,1.19365 3.06891,2.38725 4.60337,3.58088 4.06028,-0.0657 8.12041,-0.13136 12.18062,-0.19704 5.0788,-0.20776 10.1574,-0.41551 15.2361,-0.62326 1.11276,-0.94162 2.22548,-1.88321 3.3382,-2.8248 -0.0348,-0.47721 -0.0696,-0.92539 -0.10436,-1.37357 -1.06057,-1.51028 -2.1211,-3.0205 -3.18165,-4.53075 -3.6002,-0.11149 -7.20025,-0.22297 -10.80038,-0.33445 -5.57766,0.11149 -11.1551,0.22296 -16.73265,0.33445 -1.51311,1.51028 -3.02617,3.0205 -4.53925,4.53075 z" /><path
       style="fill:#ccccff;stroke:none;stroke-width:0.264583px;stroke-linecap:butt;stroke-linejoin:miter;stroke-opacity:1"
       d="m 65.240142,165.64317 c 3.959236,-0.57816 11.163517,-0.98055 15.264909,-0.85415 4.101391,0.12641 5.099729,0.7816 5.753224,2.05465 0.653495,1.27305 0.962145,3.16391 0.609186,4.55469 -0.352959,1.39078 -1.316911,2.23705 -5.670858,2.51379 -4.353947,0.27675 -12.097558,-0.016 -16.366082,0.1867 -4.268524,0.20274 -5.06177,0.90096 -5.855034,1.5992 0.167444,-2.52419 0.387514,-5.8417 0.989517,-7.28225 0.602003,-1.44055 1.315902,-2.19447 5.275138,-2.77263 z"
       id="path158"
       inkscape:path-effect="#path-effect158"
       inkscape:original-d="m 61.994808,165.46742 c 7.20457,-0.40241 14.408851,-0.8048 21.613278,-1.2072 0.99836,0.6552 1.996694,1.3104 2.995025,1.96559 0.308661,1.89091 0.61731,3.78177 0.92596,5.67263 -0.98085,0.92911 -1.961663,1.75617 -2.942492,2.58325 -7.743923,-0.29279 -15.487534,-0.58557 -23.2313,-0.87836 -0.793279,0.69826 -2.379792,2.09472 -2.379792,2.09472 0,0 -8.88e-4,-5.86746 0.502333,-7.57257 0.503221,-1.7051 1.510102,-2.18158 2.516988,-2.65806 z"
       transform="translate(0.80915042,-0.40457523)"
       sodipodi:nodetypes="ccccccccc" /><path
       style="fill:#ccccff;stroke:none;stroke-width:0.264583px;stroke-linecap:butt;stroke-linejoin:miter;stroke-opacity:1"
       d="m 58.562399,152.32961 c -0.174211,-1.48981 0.383353,-2.02068 5.876847,-2.3128 5.493494,-0.29212 15.922298,-0.34548 21.364037,-0.25226 5.441738,0.0932 5.895782,0.33299 6.201694,1.46405 0.305912,1.13105 0.463655,3.15329 -0.735347,4.78354 -1.199002,1.63026 -3.754647,2.86846 -7.573177,3.56467 -3.818531,0.69621 -8.89974,0.8504 -12.933353,0.62382 -4.033614,-0.22658 -7.124035,-0.85517 -9.122281,-2.39387 -1.998245,-1.53869 -2.90421,-3.98735 -3.07842,-5.47715 z"
       id="path157"
       inkscape:path-effect="#path-effect157"
       inkscape:original-d="m 57.830619,151.37068 c 0.557568,-0.53088 1.115136,-1.06175 1.672701,-1.59263 10.42942,-0.0534 20.858224,-0.10672 31.287631,-0.16008 0.454072,0.23979 0.908116,0.47957 1.362189,0.71937 0.157749,2.02231 0.315492,4.04455 0.473237,6.06681 -2.555748,1.23825 -5.111392,2.47645 -7.66709,3.71467 -5.081365,0.1542 -10.162574,0.3084 -15.243786,0.46259 -2.983132,-0.62153 -6.074995,-1.24304 -9.166918,-1.86456 -0.906007,-2.44878 -1.811975,-4.89744 -2.717964,-7.34617 z"
       sodipodi:nodetypes="ccccccccc"
       transform="translate(-0.24918288,-0.34227951)" /><path
       style="fill:#ccccff;stroke:none;stroke-width:0.300804px;stroke-linecap:butt;stroke-linejoin:miter;stroke-opacity:1"
       d="m 98.508479,169.70388 c -0.0306,0.28089 -0.06119,0.56177 0.827195,0.60443 0.888386,0.0426 2.695686,-0.15293 4.503026,-0.34851 0.13195,0.86108 0.26075,1.70157 0.67826,2.42702 0.41752,0.72545 1.08473,1.26809 2.58759,1.76598 1.50286,0.49789 3.82487,0.93769 9.13459,1.02387 5.30971,0.0862 13.60648,-0.18127 19.51544,-0.4585 5.90896,-0.27723 9.4401,-0.56508 11.73593,-1.62428 2.29584,-1.05919 3.38419,-2.9026 4.46926,-4.74044 -1.5552,-1.06508 -3.11036,-2.13013 -5.70118,-2.94711 -2.59082,-0.81699 -6.21701,-1.38582 -11.85269,-1.65014 -5.63569,-0.26431 -13.28021,-0.22407 -18.34412,-0.004 -5.06391,0.22003 -7.54664,0.61984 -9.15032,1.56596 -1.60368,0.94612 -2.32814,2.43847 -3.05261,3.93085 z"
       id="path156"
       inkscape:path-effect="#path-effect156"
       inkscape:original-d="m 98.508479,169.70388 c 0,0 -0.06119,0.56177 -0.09179,0.84267 1.807371,-0.19559 5.422011,-0.58675 5.422011,-0.58675 0,0 0.26075,1.70157 0.39586,2.58324 0.69992,0.56923 1.36713,1.11187 2.05072,1.66783 2.32213,0.43982 4.64414,0.87962 6.96628,1.31944 8.29729,-0.26747 16.59406,-0.53491 24.89135,-0.80238 3.52063,-0.28699 7.05177,-0.57484 10.56166,-0.86096 1.08178,-1.83227 3.2552,-5.51352 3.2552,-5.51352 0,0 -3.11036,-2.13013 -4.66559,-3.19523 -3.62641,-0.56887 -7.2526,-1.1377 -10.87901,-1.70657 -7.64496,0.0402 -15.28948,0.0805 -22.93443,0.12072 -2.48287,0.39983 -4.9656,0.79964 -7.44847,1.19947 -0.72449,1.49241 -2.17342,4.47714 -2.17342,4.47714 z"
       transform="matrix(0.87958399,0,0,0.87958399,12.260411,20.384637)"
       sodipodi:nodetypes="ccccccccccccccc" /><path
       style="fill:#ffcccc;stroke:none;stroke-width:0.257165px;stroke-linecap:butt;stroke-linejoin:miter;stroke-opacity:1"
       d="m 60.987343,135.2544 c 0.521776,2.08499 1.465556,3.21499 7.155507,3.70124 5.689951,0.48626 16.125655,0.32877 21.877441,-0.25666 5.751786,-0.58544 6.819411,-1.59878 7.134433,-2.917 0.315022,-1.31823 -0.153343,-3.05549 -1.260598,-4.84811 -1.107254,-1.79263 -2.853316,-3.64051 -5.442622,-4.76246 -2.589306,-1.12195 -6.02168,-1.51791 -10.493982,-1.6053 -4.472303,-0.0874 -9.984246,0.13379 -13.439484,0.60579 -3.455237,0.47199 -4.853607,1.19478 -5.502921,3.07619 -0.649314,1.88142 -0.54955,4.92132 -0.02777,7.00631 z"
       id="path155"
       inkscape:path-effect="#path-effect155"
       inkscape:original-d="m 60.565334,136.20938 c 0.943781,1.13001 1.887563,2.26001 2.831345,3.39001 10.436122,-0.1575 20.871826,-0.31498 31.307738,-0.47247 1.067658,-1.01338 2.135286,-2.02672 3.202914,-3.04007 -0.458116,-1.61756 -0.916215,-3.35759 -1.37432,-5.09764 -1.746136,-1.84797 -3.492204,-3.69585 -5.238303,-5.54378 -3.432511,-0.39597 -6.864884,-0.79193 -10.297326,-1.1879 -5.512163,0.22119 -11.024106,0.44237 -16.536159,0.66355 -1.398424,0.72281 -2.796792,1.4456 -4.195189,2.1684 0.09977,3.04003 0.199533,6.07993 0.2993,9.1199 z"
       transform="matrix(1.0288458,0,0,1.0288458,-2.8052854,-3.8046424)" /><path
       style="fill:#ffcccc;stroke:none;stroke-width:0.264583px;stroke-linecap:butt;stroke-linejoin:miter;stroke-opacity:1"
       d="m 105.68464,108.55421 c 0.38737,-1.30757 1.45939,-2.44244 2.70865,-2.58455 1.24925,-0.14211 2.67569,0.7085 4.35667,0.5609 1.68098,-0.14761 3.6164,-1.2934 5.44298,-1.0616 1.82657,0.2318 3.46991,1.77152 5.25205,2.16625 1.78214,0.39473 3.70296,-0.35553 5.24525,0.0587 1.54228,0.41422 2.70594,1.99287 4.12103,2.65909 1.41509,0.66623 3.08149,0.42 4.17985,1.13956 1.09836,0.71955 1.62857,2.40481 1.44284,4.12035 -0.18573,1.71553 -1.08738,3.46117 -2.43688,4.03599 -1.34951,0.57482 -3.1153,-0.0108 -4.88944,0.0637 -1.77415,0.0745 -3.5331,0.81699 -4.74275,0.81034 -1.20965,-0.007 -1.86993,-0.76236 -3.53543,-0.60787 -1.66551,0.1545 -4.33614,1.21921 -5.99923,1.21857 -1.66309,-6.4e-4 -2.36297,-1.13871 -3.88439,-1.35372 -1.52142,-0.21502 -3.86427,0.49301 -5.58174,0.28885 -1.71748,-0.20416 -2.80949,-1.32049 -2.95063,-2.68029 -0.14113,-1.35979 0.66859,-2.96297 0.92482,-4.50472 0.25624,-1.54176 -0.041,-3.022 0.34635,-4.32957 z"
       id="path154"
       inkscape:path-effect="#path-effect154"
       inkscape:original-d="m 105,108.38151 c 1.07201,-1.13487 2.14403,-2.26974 3.21605,-3.40461 1.42649,0.85065 2.85293,1.70126 4.2794,2.55189 1.93549,-1.14584 3.87091,-2.29164 5.80634,-3.43743 1.66818,1.66227 3.33629,3.17556 5.00444,4.68887 1.9209,-0.75028 3.84172,-1.50055 5.76258,-2.25082 1.16371,1.57872 2.32737,3.15737 3.49106,4.73605 1.66649,-0.24624 3.33289,-0.49246 4.99938,-0.73869 0.53023,1.68534 1.06043,3.3706 1.59067,5.05594 -0.9017,1.74573 -1.80334,3.49137 -2.70503,5.2371 -1.85676,-0.41687 -3.62049,-1.00871 -5.35238,-1.77515 -1.75902,0.74249 -3.51797,1.48495 -5.27696,2.22742 -0.66031,-0.75576 -1.32059,-1.51148 -1.98089,-2.26723 -2.67071,1.06474 -5.34134,2.12945 -8.01197,3.19416 -0.68512,-1.0478 -1.37021,-2.19497 -2.05532,-3.34215 -2.34295,0.70806 -4.6858,1.41609 -7.02869,2.12414 -1.09206,-1.11637 -2.18407,-2.2327 -3.2761,-3.34905 0.80976,-1.60324 1.61948,-3.20642 2.42922,-4.80963 -0.29727,-1.4803 -0.59453,-2.96054 -0.8918,-4.44081 z"
       transform="translate(0,0.52916667)"
       sodipodi:nodetypes="ccccccccccccccccccc" /><path
       style="fill:#ffcccc;stroke:none;stroke-width:0.264583px;stroke-linecap:butt;stroke-linejoin:miter;stroke-opacity:1"
       d="m 63.731964,110.34272 c 2.242701,-0.65278 6.134441,-0.61707 8.412365,-0.28829 2.277925,0.32878 2.979258,0.95097 3.680594,1.57317 0,0 1.83224,-2.30888 1.83224,-2.30888 0,0 3.321385,2.80251 3.321385,2.80251 0,0 2.250877,-2.70661 2.250877,-2.70661 0,0 2.216097,2.21298 2.216097,2.21298 0,0 3.102585,0 3.102585,0 0,0 -1.068227,2.59543 -1.068227,2.59543 0,0 1.068226,4.17743 1.068226,4.17743 0,0 -4.50228,-0.75145 -4.50228,-0.75145 0,0 -2.240444,1.83206 -2.240444,1.83206 0,0 -2.815431,-2.66261 -2.815431,-2.66261 0,0 -3.058652,2.93325 -3.058652,2.93325 -1.425147,-0.73709 -2.850295,-1.47419 -4.939397,-1.73251 -2.089101,-0.25833 -4.842114,-0.0379 -6.63677,0.54509 -1.794656,0.58297 -2.630807,1.52841 -3.2321,1.98497 -0.601293,0.45655 -0.967647,0.42415 -1.093422,-0.79626 -0.125776,-1.22041 -0.03731,-3.07601 0.448015,-5.38873 0.485322,-2.31272 1.011638,-3.36877 3.254339,-4.02155 z"
       id="path153"
       inkscape:path-effect="#path-effect153"
       inkscape:original-d="m 62.157382,109.65492 c 3.817283,0.035 7.709023,0.0707 11.563534,0.10609 0.701336,0.6222 2.104007,1.86659 2.104007,1.86659 l 1.83224,-2.30888 3.321385,2.80251 2.250877,-2.70661 2.216097,2.21298 h 3.102585 l -1.068227,2.59543 1.068226,4.17743 -4.50228,-0.75145 -2.240444,1.83206 -2.815431,-2.66261 -3.058652,2.93325 c 0,0 -2.850294,-1.47419 -4.275441,-2.21128 -2.753057,0.22044 -5.50607,0.44088 -8.259179,0.66133 -0.836203,0.9455 -1.672357,1.89094 -2.508563,2.83645 -0.366377,-0.0324 -0.732731,-0.0648 -1.099107,-0.0972 0.114825,-2.40842 0.203293,-4.26402 0.344469,-7.22513 0.829467,-1.66433 1.355785,-2.72038 2.023904,-4.06096 z"
       sodipodi:nodetypes="cscccccccccccccccccc" /><path
       style="fill:#ffcccc;stroke:none;stroke-width:0.244672px;stroke-linecap:butt;stroke-linejoin:miter;stroke-opacity:1"
       d="m 108.38261,94.973494 c 0.22979,1.902796 0.54532,2.377545 4.58707,2.644987 4.04175,0.267441 11.77656,0.278027 15.87176,0.146439 4.0952,-0.131587 4.57563,-0.420277 4.88398,-2.269022 0.30835,-1.848745 0.44459,-5.257404 0.32867,-7.162775 -0.11593,-1.905371 -0.48401,-2.30737 -2.49273,-2.98249 -2.00872,-0.675119 -5.95842,-1.701395 -7.82836,-2.123396 -1.86995,-0.422001 -2.33123,-0.391176 -4.57748,0.07679 -2.24625,0.467971 -6.31239,1.375395 -8.49119,1.996651 -2.17881,0.621256 -2.47019,0.956312 -2.55337,2.743537 -0.0832,1.787224 0.0418,5.026479 0.27165,6.929275 z"
       id="path129"
       inkscape:path-effect="#path-effect130"
       inkscape:original-d="m 108.28041,96.376769 c 0.33199,0.499523 0.64253,0.977588 0.99598,1.498566 7.73504,0.01058 15.46985,0.02117 23.20465,0.03176 0.47217,-0.246179 0.94432,-0.548661 1.41648,-0.851148 0.13625,-3.408794 0.2725,-6.817453 0.40874,-10.226178 -0.3681,-0.402016 -0.73618,-0.804018 -1.10427,-1.206021 -3.64935,-0.948234 -7.59905,-1.974509 -10.94784,-2.844647 -0.3911,0.02613 -0.85238,0.05696 -1.27858,0.08544 -4.0663,0.907461 -8.13244,1.814885 -12.19866,2.722328 -0.29139,0.335068 -0.58277,0.670123 -0.87415,1.005186 0.10443,3.240183 0.20886,6.480233 0.37765,9.784714 z"
       transform="matrix(1.0813792,0,0,1.0813792,-9.8542112,-7.306018)"
       sodipodi:nodetypes="ccccccccccc" /><path
       style="fill:#aaeedd;stroke:none;stroke-width:0.264583px;stroke-linecap:butt;stroke-linejoin:miter;stroke-opacity:1"
       d="m 65.610354,91.658669 c 5.147523,-0.375569 14.196186,-0.307107 19.143257,0.211641 4.94707,0.518747 5.894261,1.604352 6.23873,2.856464 0.34447,1.252112 0.08621,2.670655 -0.38524,3.714456 -0.47145,1.043801 -1.156055,1.71281 -5.950431,2.06085 -4.794375,0.34805 -13.698239,0.37511 -18.695693,0.10727 -4.997453,-0.26784 -5.839502,-0.702167 -6.448414,-1.905821 -0.608912,-1.203653 -1.007264,-3.295236 -0.626701,-4.588807 0.380562,-1.293572 1.576968,-2.080483 6.724492,-2.456053 z"
       id="path128"
       inkscape:path-effect="#path-effect128"
       inkscape:original-d="m 61.708942,91.214635 c 9.048935,0.06847 18.097598,0.136927 27.146258,0.20539 0.913312,0.90985 1.826588,2.025045 2.739882,3.140263 -0.258271,1.418598 -0.51653,2.837141 -0.774798,4.255709 -0.684633,0.669034 -1.369237,1.338043 -2.053857,2.007063 -8.904132,0.0271 -17.807996,0.0541 -26.71186,0.0812 -1.155483,-0.43782 -1.965312,-0.93461 -2.775153,-1.431407 -0.375763,-1.972977 -0.774115,-4.06456 -1.127266,-5.918811 1.114276,-0.732892 2.310682,-1.519803 3.556794,-2.339407 z"
       sodipodi:nodetypes="ccccccccc"
       transform="translate(-0.07976095,0.95078822)" /><path
       style="fill:#ffffaa;stroke:none;stroke-width:0.251639px;stroke-linecap:butt;stroke-linejoin:miter;stroke-opacity:1"
       d="m 104.01122,66.588922 c 0.50546,-2.246764 1.61257,-3.571095 6.08473,-4.011041 4.47216,-0.439946 12.40315,0.0098 16.96001,0.703731 4.55685,0.693954 5.73937,1.632094 6.48929,3.376868 0.74992,1.744775 1.06722,4.29607 0.99137,6.088923 -0.0759,1.792852 -0.54483,2.827166 -5.18499,3.374853 -4.64017,0.547687 -13.45116,0.608722 -18.42195,0.369584 -4.97078,-0.239138 -6.10115,-0.778432 -6.71444,-2.632722 -0.6133,-1.854289 -0.70948,-5.023433 -0.20402,-7.270196 z"
       id="path127"
       inkscape:path-effect="#path-effect127"
       inkscape:original-d="m 103.40958,65.666476 c 1.1071,-1.324316 2.21421,-2.648646 3.32129,-3.972949 7.83704,0.447964 15.76813,0.895909 23.69938,1.343864 1.18256,0.938176 2.36508,1.876311 3.54761,2.814468 0.31731,2.551396 0.63461,5.102691 0.95191,7.654039 -0.469,1.034357 -0.93798,2.068671 -1.40697,3.103007 -8.81134,0.06104 -17.62233,0.122073 -26.43349,0.18311 -1.13041,-0.539316 -2.26078,-1.078609 -3.39118,-1.617914 -0.0962,-3.169272 -0.19236,-6.338416 -0.28855,-9.507625 z"
       transform="matrix(1.0514398,0,0,1.0514398,-6.1273338,-3.5757795)" /><path
       style="fill:#ffffaa;stroke:none;stroke-width:0.20641px;stroke-linecap:butt;stroke-linejoin:miter;stroke-opacity:1"
       d="m 96.247152,72.962214 c -1.807953,-0.281227 -5.55493,-0.182919 -7.685415,0.153033 -2.130485,0.335952 -3.09584,0.921358 -3.68384,2.393048 -0.588001,1.471689 -0.798576,3.82949 -0.23484,5.391346 0.563737,1.561855 1.901722,2.327588 4.4867,2.688525 2.584978,0.360937 6.416721,0.317036 10.248539,0.273135 0.196163,-3.013422 0.392325,-6.026844 -0.003,-7.940758 -0.395354,-1.913913 -1.320162,-2.677103 -3.128115,-2.958329 z"
       id="path126"
       inkscape:path-effect="#path-effect126"
       inkscape:original-d="m 97.283127,72.606373 c -2.843928,0.07461 -6.590905,0.172922 -9.886461,0.259385 -0.965414,0.585441 -1.930769,1.170847 -2.896182,1.756288 -0.210588,2.357938 -0.421164,4.715739 -0.631751,7.073675 1.338061,0.765775 2.676046,1.531508 4.014108,2.297284 3.831894,-0.0439 11.495455,-0.131704 11.495455,-0.131704 0,0 0.392325,-6.026844 0.588488,-9.040266 -0.986871,-0.814405 -1.911679,-1.577595 -2.683657,-2.214662 z"
       transform="matrix(1.2609978,0,0,1.3030028,-25.381497,-22.542562)"
       sodipodi:nodetypes="sccccccs" /><path
       style="fill:#ffffaa;stroke:none;stroke-width:0.25121px;stroke-linecap:butt;stroke-linejoin:miter;stroke-opacity:1"
       d="m 74.883584,78.813979 c 3.359054,-0.468812 4.363612,-1.527544 4.6849,-3.41228 0.321288,-1.884736 0.0119,-4.650812 -1.104527,-6.549894 -1.116429,-1.899083 -3.088692,-2.957353 -5.95535,-3.354865 -2.866658,-0.397513 -6.627522,-0.134256 -8.924412,0.410077 -2.29689,0.544333 -3.129695,1.369706 -3.50215,3.614319 -0.372456,2.244614 -0.284546,5.908302 -0.196635,9.572064 5.792988,0.09426 11.63912,0.189391 14.998174,-0.279421 z"
       id="path125"
       inkscape:path-effect="#path-effect125"
       inkscape:original-d="m 77.264373,79.37619 c 0.978265,-1.031023 1.983549,-2.089066 2.934795,-3.093067 -0.309396,-2.76616 -0.618781,-5.532236 -0.928169,-8.298312 -1.956051,-0.97137 -3.912023,-2.060001 -5.868037,-3.14865 -3.761013,0.263266 -7.521877,0.526521 -11.282818,0.789784 -0.832839,0.825405 -1.665644,1.650778 -2.498468,2.476169 0.08791,3.663836 0.263734,10.991286 0.263734,10.991286 0,0 11.640013,0.134485 17.378963,0.28279 z"
       transform="matrix(1.0532364,0,0,1.0532364,-3.7131582,-3.8457014)" /><text
       xml:space="preserve"
       style="font-style:normal;font-variant:normal;font-weight:500;font-stretch:semi-condensed;font-size:5.29165px;line-height:0.95;font-family:'Bricolage Grotesque 48pt SemiCondensed';-inkscape-font-specification:'Bricolage Grotesque 48pt SemiCondensed,  Medium Semi-Condensed';letter-spacing:0px;word-spacing:0px;fill:#665500;stroke-width:0.264583"
       x="62.841686"
       y="71.451729"
       id="text1"><tspan
         sodipodi:role="line"
         style="font-style:normal;font-variant:normal;font-weight:500;font-stretch:semi-condensed;font-size:5.29165px;line-height:0.95;font-family:'Bricolage Grotesque 48pt SemiCondensed';-inkscape-font-specification:'Bricolage Grotesque 48pt SemiCondensed,  Medium Semi-Condensed';fill:#665500;stroke-width:0.264583"
         x="62.841686"
         y="71.451729"
         id="tspan2">tenpo</tspan><tspan
         sodipodi:role="line"
         style="font-style:normal;font-variant:normal;font-weight:500;font-stretch:semi-condensed;font-size:5.29165px;line-height:0.95;font-family:'Bricolage Grotesque 48pt SemiCondensed';-inkscape-font-specification:'Bricolage Grotesque 48pt SemiCondensed,  Medium Semi-Condensed';fill:#665500;stroke-width:0.264583"
         x="62.841686"
         y="76.478798"
         id="tspan3">kulupu</tspan></text><text
       xml:space="preserve"
       style="font-style:normal;font-variant:normal;font-weight:500;font-stretch:semi-condensed;font-size:5.29165px;line-height:0.95;font-family:'Bricolage Grotesque 48pt SemiCondensed';-inkscape-font-specification:'Bricolage Grotesque 48pt SemiCondensed,  Medium Semi-Condensed';letter-spacing:0px;word-spacing:0px;fill:#665500;stroke-width:0.264583"
       x="106.55712"
       y="68.55619"
       id="text5"><tspan
         sodipodi:role="line"
         style="font-style:normal;font-variant:normal;font-weight:500;font-stretch:semi-condensed;font-size:5.29165px;line-height:0.95;font-family:'Bricolage Grotesque 48pt SemiCondensed';-inkscape-font-specification:'Bricolage Grotesque 48pt SemiCondensed,  Medium Semi-Condensed';fill:#665500;stroke-width:0.264583"
         x="106.55712"
         y="68.55619"
         id="tspan4">toki lawa</tspan><tspan
         sodipodi:role="line"
         style="font-style:normal;font-variant:normal;font-weight:500;font-stretch:semi-condensed;font-size:5.29165px;line-height:0.95;font-family:'Bricolage Grotesque 48pt SemiCondensed';-inkscape-font-specification:'Bricolage Grotesque 48pt SemiCondensed,  Medium Semi-Condensed';fill:#665500;stroke-width:0.264583"
         x="106.55712"
         y="73.58326"
         id="tspan5">pi lipu tenpo</tspan></text><text
       xml:space="preserve"
       style="font-style:normal;font-variant:normal;font-weight:500;font-stretch:semi-condensed;font-size:5.29165px;line-height:0.95;font-family:'Bricolage Grotesque 48pt SemiCondensed';-inkscape-font-specification:'Bricolage Grotesque 48pt SemiCondensed,  Medium Semi-Condensed';letter-spacing:0px;word-spacing:0px;fill:#114444;stroke-width:0.264583"
       x="61.423195"
       y="98.689659"
       id="text7"><tspan
         sodipodi:role="line"
         style="font-style:normal;font-variant:normal;font-weight:500;font-stretch:semi-condensed;font-size:5.29165px;line-height:0.95;font-family:'Bricolage Grotesque 48pt SemiCondensed';-inkscape-font-specification:'Bricolage Grotesque 48pt SemiCondensed,  Medium Semi-Condensed';fill:#114444;stroke-width:0.264583"
         x="61.423195"
         y="98.689659"
         id="tspan7">lawa poki sin</tspan></text><text
       xml:space="preserve"
       style="font-style:normal;font-variant:normal;font-weight:500;font-stretch:semi-condensed;font-size:5.29165px;line-height:0.95;font-family:'Bricolage Grotesque 48pt SemiCondensed';-inkscape-font-specification:'Bricolage Grotesque 48pt SemiCondensed,  Medium Semi-Condensed';letter-spacing:0px;word-spacing:0px;fill:#aa1111;stroke-width:0.264583"
       x="110.72958"
       y="90.502174"
       id="text8"><tspan
         sodipodi:role="line"
         style="font-style:normal;font-variant:normal;font-weight:500;font-stretch:semi-condensed;font-size:5.29165px;line-height:0.95;font-family:'Bricolage Grotesque 48pt SemiCondensed';-inkscape-font-specification:'Bricolage Grotesque 48pt SemiCondensed,  Medium Semi-Condensed';fill:#aa1111;stroke-width:0.264583"
         x="110.72958"
         y="90.502174"
         id="tspan8">tomo lawa</tspan><tspan
         sodipodi:role="line"
         style="font-style:normal;font-variant:normal;font-weight:500;font-stretch:semi-condensed;font-size:5.29165px;line-height:0.95;font-family:'Bricolage Grotesque 48pt SemiCondensed';-inkscape-font-specification:'Bricolage Grotesque 48pt SemiCondensed,  Medium Semi-Condensed';fill:#aa1111;stroke-width:0.264583"
         x="110.72958"
         y="95.529243"
         id="tspan9">pi ma Tosi</tspan></text><path
       d="m 64.433845,116.08292 q -0.359833,0 -0.54504,-0.20108 -0.185208,-0.20638 -0.185208,-0.61913 v -1.53987 h -0.306916 v -0.43391 h 0.148166 q 0.164042,-0.005 0.232833,-0.0688 0.06879,-0.0688 0.08467,-0.21167 l 0.04233,-0.32279 h 0.35454 v 0.57679 h 0.555623 v 0.47096 H 64.25922 v 1.46049 q 0,0.18521 0.06879,0.27517 0.07408,0.0847 0.211666,0.0847 0.06879,0 0.142874,-0.0159 0.07408,-0.0212 0.148166,-0.0635 v 0.54504 q -0.111124,0.0318 -0.211666,0.0476 -0.09525,0.0159 -0.185207,0.0159 z m 1.77798,0.0212 q -0.349249,0 -0.603248,-0.16934 -0.253999,-0.16933 -0.386291,-0.49212 -0.132291,-0.32808 -0.132291,-0.79904 0,-0.49212 0.137583,-0.80962 0.142874,-0.32279 0.391582,-0.47625 0.253999,-0.15875 0.592665,-0.15875 0.349249,0 0.597956,0.15875 0.253999,0.15875 0.391582,0.48154 0.137583,0.3175 0.137583,0.80433 0,0.49212 -0.137583,0.81491 -0.137583,0.32279 -0.391582,0.48684 -0.253999,0.15875 -0.597956,0.15875 z m 0.01058,-0.4498 q 0.174625,0 0.296332,-0.11112 0.121708,-0.11112 0.185208,-0.32808 0.0635,-0.22225 0.0635,-0.55033 0,-0.33867 -0.06879,-0.56092 -0.0635,-0.22754 -0.1905,-0.33866 -0.121708,-0.11113 -0.301624,-0.11113 -0.169333,0 -0.296332,0.10583 -0.121708,0.10584 -0.185208,0.32809 -0.0635,0.21695 -0.0635,0.55562 0,0.50271 0.148166,0.75671 0.148167,0.25399 0.412749,0.25399 z m 1.587489,0.381 v -3.67769 h 0.560915 v 2.05845 q 0.174624,-0.11113 0.317499,-0.254 0.142874,-0.14817 0.248707,-0.30692 0.105833,-0.15875 0.174625,-0.3122 0.07408,-0.15346 0.100541,-0.28046 h 0.629707 q -0.05292,0.18521 -0.153458,0.381 -0.100542,0.1905 -0.248708,0.37041 -0.142874,0.17463 -0.328082,0.31221 -0.185208,0.13758 -0.402165,0.21167 v 0.0582 q 0.243415,-0.0212 0.412748,0.0265 0.174625,0.0476 0.296333,0.15346 0.121708,0.10583 0.201082,0.26458 0.08467,0.15875 0.137583,0.37042 l 0.132291,0.62441 h -0.603248 l -0.08467,-0.46037 q -0.05821,-0.24342 -0.132291,-0.40746 -0.06879,-0.16404 -0.195791,-0.2487 -0.127,-0.0847 -0.354541,-0.0847 h -0.148166 v 1.2012 z m 2.465907,0 v -2.77282 h 0.566207 v 2.77282 z m 0.280458,-3.13265 q -0.174625,0 -0.269875,-0.0741 -0.08996,-0.0741 -0.08996,-0.21695 0,-0.14288 0.08996,-0.21696 0.09525,-0.0794 0.269875,-0.0794 0.179916,0 0.269874,0.0794 0.09525,0.0741 0.09525,0.21696 0,0.14287 -0.09525,0.21695 -0.08996,0.0741 -0.269874,0.0741 z m 1.926149,3.91582 v -2.19604 -1.35995 h 0.486832 l -0.02646,0.78845 h 0.07408 q 0.04762,-0.26987 0.142874,-0.46037 0.09525,-0.1905 0.243416,-0.29104 0.148166,-0.10054 0.354541,-0.10054 0.275165,0 0.48154,0.16933 0.206374,0.16404 0.317499,0.48683 0.116416,0.32279 0.116416,0.79904 0,0.47096 -0.116416,0.79375 -0.111125,0.32279 -0.312208,0.49212 -0.201082,0.16405 -0.470956,0.16405 -0.211666,0 -0.365124,-0.10584 -0.148166,-0.11112 -0.243416,-0.30162 -0.09525,-0.19579 -0.148166,-0.46038 h -0.07937 q 0.03175,0.1905 0.05292,0.37042 0.02646,0.17462 0.04233,0.33337 0.01588,0.15346 0.01588,0.27517 v 0.60325 z m 1.12183,-1.20121 q 0.148166,0 0.253999,-0.10583 0.111125,-0.11112 0.169333,-0.32808 0.0635,-0.22225 0.0635,-0.53975 0,-0.3175 -0.0635,-0.52917 -0.05821,-0.21166 -0.164041,-0.32279 -0.105833,-0.11112 -0.259291,-0.11112 -0.132291,0 -0.232833,0.09 -0.100541,0.0847 -0.174624,0.22225 -0.07408,0.13758 -0.111125,0.30162 -0.03704,0.15875 -0.03704,0.30692 v 0.0794 q 0,0.10583 0.02117,0.23283 0.02117,0.12171 0.0635,0.24871 0.04762,0.12171 0.111125,0.22754 0.0635,0.10584 0.153457,0.16934 0.08996,0.0582 0.206375,0.0582 z m 1.919486,0.65476 q -0.186405,-0.0393 -0.325375,-0.14968 -0.133793,-0.10931 -0.19317,-0.28947 -0.0542,-0.17907 -0.004,-0.41725 0.04365,-0.20712 0.141512,-0.33791 0.103043,-0.12971 0.253224,-0.20081 0.15018,-0.0711 0.340414,-0.10132 0.195413,-0.0291 0.41862,-0.0362 0.192139,-0.0136 0.309604,-0.0321 0.117466,-0.0185 0.177161,-0.0708 0.06597,-0.0564 0.09106,-0.1755 0.03928,-0.1864 -0.04136,-0.31696 -0.07955,-0.13574 -0.271136,-0.17611 -0.129448,-0.0273 -0.251279,0.0119 -0.12183,0.0392 -0.211244,0.15557 -0.08832,0.11118 -0.136056,0.31203 l -0.495157,-0.19087 q 0.05946,-0.23083 0.169049,-0.3916 0.110681,-0.16595 0.265226,-0.25776 0.159723,-0.0907 0.352953,-0.10949 0.194322,-0.0239 0.42215,0.0241 0.310676,0.0655 0.48861,0.22194 0.183111,0.15756 0.231298,0.41648 0.05446,0.25483 -0.02083,0.61211 l -0.132031,0.62653 q -0.03492,0.16569 -0.07011,0.35836 -0.0341,0.1875 -0.06412,0.38127 -0.02893,0.18858 -0.05458,0.36164 l -0.497081,-0.10475 q 0.02893,-0.18859 0.06194,-0.37091 0.03928,-0.18641 0.07856,-0.37281 l -0.06213,-0.0131 q -0.103064,0.23245 -0.249991,0.39076 -0.141749,0.1594 -0.328175,0.22287 -0.181248,0.0645 -0.393543,0.0198 z m 0.285424,-0.40492 q 0.09838,0.0207 0.201403,-0.006 0.104115,-0.0321 0.201424,-0.10898 0.102488,-0.0757 0.191902,-0.19209 0.08941,-0.11636 0.153217,-0.26515 l 0.08402,-0.3987 0.150438,0.005 q -0.0785,0.0646 -0.192973,0.0945 -0.108201,0.0259 -0.240109,0.0359 -0.12564,0.006 -0.253461,0.0223 -0.127822,0.0163 -0.243383,0.0515 -0.110383,0.0362 -0.192159,0.11633 -0.08178,0.0801 -0.112329,0.22509 -0.03601,0.17088 0.03238,0.28263 0.07465,0.10766 0.219635,0.13822 z m 1.971435,-0.5618 v -3.67769 h 0.560915 v 2.05845 q 0.174624,-0.11113 0.317499,-0.254 0.142874,-0.14817 0.248707,-0.30692 0.105833,-0.15875 0.174625,-0.3122 0.07408,-0.15346 0.100541,-0.28046 h 0.629706 q -0.05292,0.18521 -0.153457,0.381 -0.100542,0.1905 -0.248708,0.37041 -0.142875,0.17463 -0.328082,0.31221 -0.185208,0.13758 -0.402166,0.21167 v 0.0582 q 0.243416,-0.0212 0.412749,0.0265 0.174624,0.0476 0.296332,0.15346 0.121708,0.10583 0.201083,0.26458 0.08467,0.15875 0.137583,0.37042 l 0.132291,0.62441 h -0.603248 l -0.08467,-0.46037 q -0.05821,-0.24342 -0.132291,-0.40746 -0.06879,-0.16404 -0.195791,-0.2487 -0.127,-0.0847 -0.354541,-0.0847 h -0.148166 v 1.2012 z m 3.328728,1.10169 q -0.189385,0.0206 -0.355779,-0.0412 -0.161132,-0.0623 -0.273541,-0.21513 -0.107149,-0.15337 -0.133437,-0.39536 -0.02286,-0.21043 0.02953,-0.36516 0.05765,-0.1553 0.178307,-0.26954 0.120659,-0.11424 0.292094,-0.20206 0.176695,-0.0884 0.386668,-0.16443 0.17841,-0.0726 0.284313,-0.12669 0.105902,-0.0541 0.146391,-0.12236 0.04518,-0.0741 0.03203,-0.1951 -0.02057,-0.18939 -0.137789,-0.28843 -0.117787,-0.10431 -0.312433,-0.0832 -0.131518,0.0143 -0.235134,0.0894 -0.103617,0.0751 -0.152458,0.21351 -0.04941,0.13311 -0.03238,0.33885 l -0.529953,-0.0276 q -0.0152,-0.23787 0.03902,-0.42474 0.05365,-0.19212 0.172021,-0.32741 0.123633,-0.13585 0.301471,-0.21372 0.177267,-0.0831 0.408738,-0.10828 0.315642,-0.0343 0.533382,0.0592 0.223001,0.0929 0.349243,0.32401 0.130931,0.2253 0.170364,0.58829 l 0.06915,0.63654 q 0.01829,0.16834 0.04469,0.36242 0.02583,0.18881 0.0575,0.38231 0.03109,0.18825 0.06048,0.36071 l -0.505027,0.0549 q -0.0311,-0.18824 -0.05636,-0.37179 -0.02057,-0.18939 -0.04115,-0.37878 l -0.06313,0.007 q -0.02575,0.25297 -0.116219,0.4491 -0.08521,0.19555 -0.242695,0.31379 -0.152224,0.11767 -0.367912,0.1411 z m 0.145497,-0.47356 q 0.09995,-0.0109 0.189503,-0.0685 0.08898,-0.0629 0.157601,-0.16616 0.07388,-0.10384 0.122725,-0.24221 0.04884,-0.13838 0.06326,-0.29963 l -0.044,-0.40507 0.144442,-0.0423 q -0.05456,0.0858 -0.154055,0.14981 -0.09481,0.0582 -0.217066,0.10874 -0.117567,0.0447 -0.233991,0.0999 -0.116424,0.0552 -0.215352,0.12453 -0.09367,0.0687 -0.146508,0.17027 -0.05284,0.10155 -0.03684,0.24885 0.01886,0.17361 0.118579,0.25858 0.104408,0.0791 0.251707,0.0631 z m 1.768166,-0.14813 v -3.6724 h 0.560915 v 3.6724 z m 1.904368,0.84245 q -0.18887,0.0249 -0.356622,-0.0331 -0.162505,-0.0587 -0.278352,-0.20887 -0.1106,-0.1509 -0.142372,-0.39223 -0.02763,-0.20986 0.02124,-0.36573 0.05411,-0.15657 0.172146,-0.27352 0.118036,-0.11695 0.287434,-0.20864 0.174644,-0.0924 0.382839,-0.17316 0.176716,-0.0766 0.281365,-0.13311 0.104648,-0.0565 0.143577,-0.12565 0.04348,-0.0751 0.0276,-0.19578 -0.02487,-0.18887 -0.144298,-0.28523 -0.120123,-0.1016 -0.314239,-0.076 -0.131159,0.0173 -0.233045,0.0947 -0.101885,0.0775 -0.147575,0.21691 -0.04638,0.1342 -0.02469,0.3395 l -0.530443,-0.0156 q -0.02059,-0.23747 0.02938,-0.42551 0.04928,-0.1933 0.164548,-0.33123 0.12052,-0.13863 0.296545,-0.22051 0.175335,-0.0871 0.406176,-0.11752 0.314783,-0.0414 0.534587,0.047 0.22505,0.0878 0.356504,0.316 0.136009,0.22227 0.183667,0.58427 l 0.08357,0.63482 q 0.0221,0.16788 0.0529,0.3613 0.03011,0.18818 0.06616,0.38092 0.03536,0.18749 0.06864,0.35924 l -0.503652,0.0663 q -0.03536,-0.18749 -0.06478,-0.37042 -0.02486,-0.18887 -0.04973,-0.37774 l -0.06296,0.008 q -0.02,0.25349 -0.106,0.45162 -0.08075,0.19743 -0.235514,0.31922 -0.149515,0.12109 -0.364616,0.14941 z m 0.134716,-0.47675 q 0.09968,-0.0131 0.187899,-0.0728 0.08753,-0.0649 0.153791,-0.16969 0.07151,-0.10549 0.117199,-0.24494 0.04569,-0.13944 0.05645,-0.30098 l -0.05318,-0.40397 0.143445,-0.0456 q -0.0526,0.087 -0.150616,0.15326 -0.09347,0.0603 -0.214543,0.11364 -0.116523,0.0474 -0.231664,0.10522 -0.115141,0.0579 -0.212471,0.12939 -0.09208,0.0708 -0.142607,0.17355 -0.05052,0.10273 -0.03118,0.24962 0.02279,0.17313 0.124414,0.25583 0.106177,0.0768 0.253076,0.0574 z"
       id="text11"
       style="font-weight:500;font-stretch:semi-condensed;font-size:5.29165px;line-height:0.95;font-family:'Bricolage Grotesque 48pt SemiCondensed';-inkscape-font-specification:'Bricolage Grotesque 48pt SemiCondensed,  Medium Semi-Condensed';letter-spacing:0px;word-spacing:0px;fill:#aa1111;stroke-width:0.264583"
       aria-label="toki pakala" /><text
       xml:space="preserve"
       style="font-style:normal;font-variant:normal;font-weight:500;font-stretch:semi-condensed;font-size:5.29165px;line-height:0.95;font-family:'Bricolage Grotesque 48pt SemiCondensed';-inkscape-font-specification:'Bricolage Grotesque 48pt SemiCondensed,  Medium Semi-Condensed';letter-spacing:0px;word-spacing:0px;fill:#aa1111;stroke-width:0.264583"
       x="108.03084"
       y="112.50027"
       id="text12"><tspan
         sodipodi:role="line"
         style="font-style:normal;font-variant:normal;font-weight:500;font-stretch:semi-condensed;font-size:5.29165px;line-height:0.95;font-family:'Bricolage Grotesque 48pt SemiCondensed';-inkscape-font-specification:'Bricolage Grotesque 48pt SemiCondensed,  Medium Semi-Condensed';fill:#aa1111;stroke-width:0.264583"
         x="108.03084"
         y="112.50027"
         id="tspan12">o pali</tspan><tspan
         sodipodi:role="line"
         style="font-style:normal;font-variant:normal;font-weight:500;font-stretch:semi-condensed;font-size:5.29165px;line-height:0.95;font-family:'Bricolage Grotesque 48pt SemiCondensed';-inkscape-font-specification:'Bricolage Grotesque 48pt SemiCondensed,  Medium Semi-Condensed';fill:#aa1111;stroke-width:0.264583"
         x="108.03084"
         y="117.52734"
         id="tspan13">e telo kili jelo</tspan></text><text
       xml:space="preserve"
       style="font-style:normal;font-variant:normal;font-weight:500;font-stretch:semi-condensed;font-size:5.29165px;line-height:0.95;font-family:'Bricolage Grotesque 48pt SemiCondensed';-inkscape-font-specification:'Bricolage Grotesque 48pt SemiCondensed,  Medium Semi-Condensed';letter-spacing:0px;word-spacing:0px;fill:#aa1111;stroke-width:0.264583"
       x="62.991852"
       y="131.11353"
       id="text15"><tspan
         sodipodi:role="line"
         style="font-style:normal;font-variant:normal;font-weight:500;font-stretch:semi-condensed;font-size:5.29165px;line-height:0.95;font-family:'Bricolage Grotesque 48pt SemiCondensed';-inkscape-font-specification:'Bricolage Grotesque 48pt SemiCondensed,  Medium Semi-Condensed';fill:#aa1111;stroke-width:0.264583"
         x="62.991852"
         y="131.11353"
         id="tspan15">toki Sonko</tspan><tspan
         sodipodi:role="line"
         style="font-style:normal;font-variant:normal;font-weight:500;font-stretch:semi-condensed;font-size:5.29165px;line-height:0.95;font-family:'Bricolage Grotesque 48pt SemiCondensed';-inkscape-font-specification:'Bricolage Grotesque 48pt SemiCondensed,  Medium Semi-Condensed';fill:#aa1111;stroke-width:0.264583"
         x="62.991852"
         y="136.14059"
         id="tspan16">li kama toki lon</tspan></text><text
       xml:space="preserve"
       style="font-style:normal;font-variant:normal;font-weight:500;font-stretch:semi-condensed;font-size:5.29165px;line-height:0.95;font-family:'Bricolage Grotesque 48pt SemiCondensed';-inkscape-font-specification:'Bricolage Grotesque 48pt SemiCondensed,  Medium Semi-Condensed';letter-spacing:0px;word-spacing:0px;fill:#aa1111;stroke-width:0.264583"
       x="108.51047"
       y="133.72891"
       id="text18"><tspan
         sodipodi:role="line"
         style="font-style:normal;font-variant:normal;font-weight:500;font-stretch:semi-condensed;font-size:5.29165px;line-height:0.95;font-family:'Bricolage Grotesque 48pt SemiCondensed';-inkscape-font-specification:'Bricolage Grotesque 48pt SemiCondensed,  Medium Semi-Condensed';fill:#aa1111;stroke-width:0.264583"
         x="108.51047"
         y="133.72891"
         id="tspan18">sona pi ken ala</tspan></text><text
       xml:space="preserve"
       style="font-style:normal;font-variant:normal;font-weight:500;font-stretch:semi-condensed;font-size:5.29165px;line-height:0.95;font-family:'Bricolage Grotesque 48pt SemiCondensed';-inkscape-font-specification:'Bricolage Grotesque 48pt SemiCondensed,  Medium Semi-Condensed';letter-spacing:0px;word-spacing:0px;fill:#3333cc;stroke-width:0.264583"
       x="62.991852"
       y="155.73677"
       id="text20"><tspan
         sodipodi:role="line"
         style="font-style:normal;font-variant:normal;font-weight:500;font-stretch:semi-condensed;font-size:5.29165px;line-height:0.95;font-family:'Bricolage Grotesque 48pt SemiCondensed';-inkscape-font-specification:'Bricolage Grotesque 48pt SemiCondensed,  Medium Semi-Condensed';fill:#3333cc;stroke-width:0.264583"
         x="62.991852"
         y="155.73677"
         id="tspan20">toki lawa tu</tspan></text><text
       xml:space="preserve"
       style="font-style:normal;font-variant:normal;font-weight:500;font-stretch:semi-condensed;font-size:5.29165px;line-height:0.95;font-family:'Bricolage Grotesque 48pt SemiCondensed';-inkscape-font-specification:'Bricolage Grotesque 48pt SemiCondensed,  Medium Semi-Condensed';letter-spacing:0px;word-spacing:0px;fill:#3333cc;stroke-width:0.264583"
       x="107.39584"
       y="155.73677"
       id="text21"><tspan
         sodipodi:role="line"
         style="font-style:normal;font-variant:normal;font-weight:500;font-stretch:semi-condensed;font-size:5.29165px;line-height:0.95;font-family:'Bricolage Grotesque 48pt SemiCondensed';-inkscape-font-specification:'Bricolage Grotesque 48pt SemiCondensed,  Medium Semi-Condensed';fill:#3333cc;stroke-width:0.264583"
         x="107.39584"
         y="155.73677"
         id="tspan21">toki musi aku</tspan></text><text
       xml:space="preserve"
       style="font-style:normal;font-variant:normal;font-weight:500;font-stretch:semi-condensed;font-size:5.29165px;line-height:0.95;font-family:'Bricolage Grotesque 48pt SemiCondensed';-inkscape-font-specification:'Bricolage Grotesque 48pt SemiCondensed,  Medium Semi-Condensed';letter-spacing:0px;word-spacing:0px;fill:#3333cc;stroke-width:0.264583"
       x="62.991852"
       y="171.12733"
       id="text22"><tspan
         sodipodi:role="line"
         style="font-style:normal;font-variant:normal;font-weight:500;font-stretch:semi-condensed;font-size:5.29165px;line-height:0.95;font-family:'Bricolage Grotesque 48pt SemiCondensed';-inkscape-font-specification:'Bricolage Grotesque 48pt SemiCondensed,  Medium Semi-Condensed';fill:#3333cc;stroke-width:0.264583"
         x="62.991852"
         y="171.12733"
         id="tspan22">seme li mi</tspan></text><text
       xml:space="preserve"
       style="font-style:normal;font-variant:normal;font-weight:500;font-stretch:semi-condensed;font-size:5.29165px;line-height:0.95;font-family:'Bricolage Grotesque 48pt SemiCondensed';-inkscape-font-specification:'Bricolage Grotesque 48pt SemiCondensed,  Medium Semi-Condensed';letter-spacing:0px;word-spacing:0px;fill:#3333cc;stroke-width:0.264583"
       x="106.23008"
       y="171.12733"
       id="text23"><tspan
         sodipodi:role="line"
         style="font-style:normal;font-variant:normal;font-weight:500;font-stretch:semi-condensed;font-size:5.29165px;line-height:0.95;font-family:'Bricolage Grotesque 48pt SemiCondensed';-inkscape-font-specification:'Bricolage Grotesque 48pt SemiCondensed,  Medium Semi-Condensed';fill:#3333cc;stroke-width:0.264583"
         x="106.23008"
         y="171.12733"
         id="tspan23">kijetesantakalu o</tspan></text><g
       id="g120"
       transform="matrix(0.60000212,0,0,0.60000212,7.6064019,34.467285)"
       style="stroke-width:1.66666"><path
         style="fill:#665500;stroke:none;stroke-width:0.36405px;stroke-linecap:butt;stroke-linejoin:miter;stroke-opacity:1"
         d="m 30.258377,96.189151 c 0.307492,-1.405707 1.808796,-3.084597 2.924957,-3.909217 1.11616,-0.82462 1.847076,-0.794904 2.620361,-0.701385 0.773286,0.09352 1.588886,0.250835 2.278329,1.245223 0.689444,0.994387 1.252721,2.825793 1.132458,4.123857 -0.120264,1.298065 -0.923458,2.062206 -2.28685,2.458971 -1.363392,0.396764 -3.231143,0.424228 -4.672738,-0.142806 -1.441596,-0.567033 -2.304009,-1.668936 -1.996517,-3.074643 z"
         id="path36"
         inkscape:path-effect="#path-effect41"
         inkscape:original-d="m 29.064533,96.462369 c 1.501336,-1.678925 3.00264,-3.357815 4.504004,-5.036772 0.730957,0.02972 1.461873,0.05943 2.192827,0.08915 0.815617,0.15732 1.631217,0.314637 2.44681,0.471953 0.563293,1.831459 1.126572,3.662865 1.689849,5.494271 -0.803805,0.764723 -1.606999,1.528864 -2.411371,2.294126 -1.922412,0.02827 -3.790163,0.05573 -5.763063,0.08474 -0.910289,-1.163077 -1.772703,-2.26498 -2.659056,-3.397468 z"
         transform="matrix(1.1808556,0,0,1.2425011,-16.078309,-26.980743)"
         sodipodi:nodetypes="cccccccc" /><path
         style="opacity:1;fill:#ffffff;stroke-width:0.44097px;-inkscape-stroke:none;paint-order:fill markers stroke"
         id="path25"
         d="m 27.323596,91.930234 c -0.218988,-0.05595 -0.443646,-0.08399 -0.668256,-0.105013 -0.328014,-0.01918 -0.670192,0.02445 -0.937172,0.234632 -0.06808,0.0536 -0.12363,0.121434 -0.185447,0.182148 -0.04781,0.07367 -0.103206,0.14293 -0.143444,0.220993 -0.125719,0.243898 -0.172484,0.521475 -0.16088,0.793813 0.0099,0.231812 0.03862,0.292756 0.09717,0.513088 0.03518,0.07794 0.06228,0.160044 0.105534,0.233802 0.138486,0.236151 0.348372,0.421407 0.611601,0.506031 0.233219,0.07498 0.312928,0.04828 0.550989,0.03422 0.08741,-0.02402 0.177393,-0.04014 0.262231,-0.07209 0.251151,-0.09457 0.470945,-0.259929 0.643655,-0.463857 0.143769,-0.169759 0.160396,-0.22914 0.260212,-0.423757 0.115292,-0.285609 0.155726,-0.590002 0.08881,-0.892918 -0.03946,-0.178612 -0.07121,-0.220681 -0.149434,-0.382561 -0.04253,-0.05735 -0.08506,-0.114708 -0.127588,-0.172061 -0.351134,-0.437865 -0.970367,0.05871 -0.619233,0.496578 v 0 c 0.01347,0.01246 0.02692,0.02492 0.04038,0.0374 0.01363,0.02313 0.02926,0.0452 0.04087,0.06941 0.07602,0.158565 0.06964,0.331364 0.01333,0.495062 -0.01701,0.03821 -0.0311,0.07789 -0.05108,0.114641 -0.104206,0.191696 -0.271854,0.336672 -0.479306,0.404154 -0.07835,0.01669 -0.159096,0.0383 -0.238119,0.009 -0.09699,-0.03599 -0.14817,-0.11879 -0.188976,-0.208751 -0.01437,-0.04599 -0.03206,-0.09107 -0.04309,-0.137969 -0.04993,-0.212204 -0.03966,-0.43887 0.06613,-0.632074 0.0141,-0.02048 0.02572,-0.04291 0.04231,-0.06142 0.106352,-0.118634 0.283948,-0.110001 0.428143,-0.107061 0.185397,0.01651 0.370904,0.03949 0.551612,0.08548 0.545115,0.133676 0.73416,-0.637233 0.189044,-0.770908 z" /><path
         style="opacity:1;fill:#ffffff;stroke-width:0.44097px;-inkscape-stroke:none;paint-order:fill markers stroke"
         id="path26"
         d="m 25.901142,89.047471 c -0.175233,-0.09825 -0.372594,-0.161592 -0.57423,-0.171363 -0.05811,-0.0028 -0.116338,0.0019 -0.174506,0.0029 -0.294362,0.03458 -0.542938,0.153344 -0.734449,0.38522 -0.133231,0.161308 -0.14238,0.224483 -0.222081,0.416592 -0.0172,0.0799 -0.04058,0.158723 -0.05158,0.239715 -0.04045,0.297693 0.0054,0.644138 0.147383,0.911537 0.03783,0.07124 0.08911,0.13449 0.133662,0.201737 0.06005,0.05669 0.113803,0.120914 0.180168,0.170069 0.203084,0.15041 0.453528,0.217286 0.70453,0.201051 0.211667,-0.01368 0.285459,-0.05654 0.479729,-0.128238 0.272024,-0.134329 0.512096,-0.326543 0.666081,-0.592103 0.0982,-0.169363 0.09645,-0.213548 0.14541,-0.400209 0.0034,-0.07424 0.0145,-0.148524 0.01016,-0.22271 -0.0159,-0.271278 -0.141759,-0.529275 -0.301421,-0.744183 -0.03758,-0.05059 -0.08036,-0.09711 -0.120539,-0.145667 -0.362861,-0.428193 -0.96842,0.08497 -0.60556,0.513165 v 0 c 0.10786,0.121992 0.21323,0.259329 0.243377,0.423389 -0.0024,0.02138 -0.0024,0.04321 -0.0074,0.06414 -0.04008,0.167592 -0.181266,0.282699 -0.322402,0.366215 -0.138391,0.06343 -0.287092,0.12778 -0.426741,0.03298 -0.01712,-0.01886 -0.0373,-0.03536 -0.05132,-0.05662 -0.104146,-0.157856 -0.108199,-0.372957 -0.08132,-0.552847 0.04182,-0.146302 0.0861,-0.25331 0.245263,-0.29009 0.106646,-0.01085 0.212442,0.0021 0.307621,0.0549 0.480509,0.290052 0.890704,-0.38949 0.410194,-0.679542 z" /><path
         style="opacity:1;fill:#ffffff;stroke-width:0.44097px;-inkscape-stroke:none;paint-order:fill markers stroke"
         id="path31"
         d="m 23.877944,91.571957 c -0.269412,-0.07067 -0.555924,-0.06952 -0.821002,0.02199 -0.07277,0.02511 -0.141018,0.06181 -0.211529,0.09272 -0.06971,0.04801 -0.144219,0.08971 -0.209137,0.144031 -0.199946,0.167299 -0.351169,0.390009 -0.445763,0.631915 -0.08449,0.216067 -0.08104,0.282991 -0.114027,0.509971 8.2e-5,0.08342 -0.0071,0.167151 2.46e-4,0.250243 0.03125,0.355378 0.202216,0.698487 0.530093,0.868233 0.08571,0.04438 0.182827,0.06194 0.274238,0.09292 0.09355,0.0054 0.187092,0.02146 0.280662,0.01632 0.274092,-0.01503 0.539427,-0.125857 0.766141,-0.275222 0.188962,-0.124492 0.226623,-0.178207 0.383381,-0.335833 0.202313,-0.240212 0.337465,-0.520398 0.364262,-0.835887 0.01569,-0.184751 -0.0028,-0.23308 -0.03093,-0.413534 -0.05739,-0.166631 -0.06799,-0.241866 -0.180597,-0.384518 -0.04798,-0.06079 -0.109743,-0.109297 -0.164615,-0.163944 -0.419368,-0.373031 -0.946912,0.220043 -0.527545,0.593074 v 0 c 0.05565,0.01802 0.0682,0.04223 0.0918,0.09731 0.0064,0.02532 0.01508,0.05018 0.01905,0.07599 0.02732,0.177816 -0.03436,0.339958 -0.142177,0.479901 -0.03238,0.03522 -0.06242,0.07276 -0.09715,0.105667 -0.15199,0.144039 -0.34431,0.252825 -0.554474,0.274598 -0.02032,0.0011 -0.07756,0.008 -0.100253,-0.0024 -0.123936,-0.05723 -0.120923,-0.231211 -0.124794,-0.342119 0.0046,-0.04722 0.0056,-0.0949 0.01365,-0.141653 0.03546,-0.206996 0.137795,-0.395655 0.303612,-0.525729 0.02947,-0.01574 0.05776,-0.03391 0.0884,-0.04724 0.121672,-0.05294 0.256808,-0.05608 0.38439,-0.02529 0.538437,0.158446 0.762516,-0.603017 0.224078,-0.761465 z" /></g><g
       id="g119"
       transform="matrix(0.60000212,0,0,0.60000212,7.6064019,34.467285)"
       style="stroke-width:1.66666"><path
         style="fill:#114444;stroke:none;stroke-width:0.486977px;stroke-linecap:butt;stroke-linejoin:miter;stroke-opacity:1"
         d="m 45.031623,92.94221 c 1.802928,-0.539065 4.233544,-0.711373 6.066213,0.205973 1.832669,0.917346 3.067346,2.924268 2.481931,4.846276 -0.585414,1.922008 -2.990847,3.758991 -5.12248,4.551691 -2.131633,0.7927 -3.989343,0.54109 -5.206887,-0.84186 -1.217545,-1.38295 -1.79486,-3.897136 -1.495892,-5.607174 0.298969,-1.710038 1.474188,-2.615841 3.277115,-3.154906 z"
         id="path41"
         inkscape:path-effect="#path-effect42"
         inkscape:original-d="m 44.403938,92.575453 c 2.430613,-0.172307 4.861229,-0.344617 7.291843,-0.516924 1.234725,2.006999 2.469401,4.013922 3.7041,6.020882 -2.405528,1.837057 -4.810961,3.674039 -7.216441,5.511059 -1.857786,-0.25162 -3.715497,-0.50322 -5.573245,-0.75484 -0.577339,-2.51429 -1.154654,-5.028476 -1.731983,-7.542713 1.175266,-0.905838 2.350484,-1.811642 3.525726,-2.717464 z"
         transform="matrix(0.85262559,0,0,0.96170292,-2.2502198,-2.7878595)" /><path
         style="opacity:1;fill:#ffffff;stroke:none;stroke-width:0.44097px;-inkscape-stroke:none;paint-order:fill markers stroke"
         id="path50"
         d="m 38.685178,90.501589 c 0.112143,-0.165156 0.239842,-0.321728 0.386773,-0.457385 0.03863,-0.03567 0.07984,-0.06844 0.119761,-0.102664 0.171691,-0.124158 0.377881,-0.275383 0.600123,-0.281347 0.02468,-5.29e-4 0.04898,0.0063 0.07347,0.0095 0.168198,0.07771 0.227399,0.26533 0.275304,0.430321 0.05197,0.288282 -0.0024,0.577864 -0.110286,0.847392 -0.02705,0.06755 -0.06038,0.132416 -0.09056,0.198625 -0.18729,0.359236 -0.43906,0.68057 -0.740465,0.95108 -0.05733,0.05145 -0.118235,0.09876 -0.177351,0.148142 -0.294179,0.236736 -0.632677,0.372653 -0.988049,0.485839 -0.04628,0.01304 -0.09256,0.02609 -0.138843,0.03913 -0.53998,0.153101 -0.323461,0.916749 0.216522,0.763645 v 0 c 0.05485,-0.01564 0.109696,-0.03126 0.164547,-0.04689 0.147021,-0.04735 0.232124,-0.07219 0.378,-0.130358 0.31564,-0.125862 0.612486,-0.293002 0.879192,-0.504293 0.07272,-0.06167 0.147669,-0.120806 0.218162,-0.185012 0.374398,-0.341009 0.685027,-0.746181 0.913376,-1.198354 0.03959,-0.09046 0.08362,-0.179102 0.118763,-0.271378 0.164439,-0.431728 0.219861,-0.892773 0.11125,-1.344837 -0.06833,-0.196466 -0.08285,-0.27708 -0.197671,-0.452826 -0.138773,-0.212403 -0.33139,-0.385313 -0.573579,-0.470459 -0.07829,-0.02752 -0.162105,-0.03558 -0.243158,-0.05338 -0.0777,0.0013 -0.155826,-0.0046 -0.2331,0.0036 -0.366588,0.0389 -0.691703,0.243049 -0.976233,0.462648 -0.05396,0.04734 -0.109593,0.09285 -0.161885,0.142033 -0.193691,0.182174 -0.362847,0.391139 -0.507633,0.613754 -0.285284,0.483354 0.398283,0.886807 0.68357,0.403453 z" /><path
         style="opacity:1;fill:#ffffff;stroke:none;stroke-width:0.44097px;-inkscape-stroke:none;paint-order:fill markers stroke"
         id="path51"
         d="m 38.717616,90.24554 c -0.03019,-0.214058 -0.106704,-0.420909 -0.211625,-0.609555 -0.02881,-0.05179 -0.06189,-0.101084 -0.09283,-0.151624 -0.159599,-0.224391 -0.366662,-0.411266 -0.620019,-0.524272 -0.184391,-0.08224 -0.238898,-0.08082 -0.436137,-0.118589 -0.07997,-0.0019 -0.160078,-0.0108 -0.239908,-0.0057 -0.24647,0.01577 -0.489659,0.09516 -0.698061,0.227666 -0.190711,0.121264 -0.231383,0.182772 -0.386267,0.343882 -0.225806,0.283467 -0.366406,0.617088 -0.427361,0.973579 -0.0389,0.227537 -0.03016,0.295257 -0.03174,0.52405 0.01805,0.339799 0.09701,0.674037 0.241253,0.982811 0.0949,0.203152 0.135366,0.249748 0.258251,0.43611 0.183775,0.255116 0.411269,0.472657 0.668761,0.652208 0.126873,0.08847 0.198525,0.126468 0.330216,0.202721 0.195099,0.103447 0.392345,0.202118 0.579763,0.319159 0.476853,0.296024 0.895496,-0.378349 0.418642,-0.674372 v 0 c -0.195397,-0.120743 -0.398153,-0.227542 -0.602318,-0.332651 -0.100738,-0.0576 -0.158713,-0.08823 -0.255215,-0.153696 -0.184033,-0.124841 -0.34794,-0.275807 -0.480353,-0.455075 -0.03339,-0.04877 -0.06912,-0.09602 -0.100185,-0.14631 -0.155517,-0.251767 -0.243022,-0.537726 -0.265065,-0.83217 -7.94e-4,-0.05893 -0.0048,-0.117893 -0.0024,-0.176784 0.01066,-0.278294 0.0885,-0.550632 0.249484,-0.779452 0.03063,-0.03517 0.05904,-0.0724 0.09188,-0.10551 0.13901,-0.140174 0.319699,-0.218229 0.517163,-0.218051 0.03569,0.0046 0.07179,0.0065 0.107063,0.01363 0.167823,0.03362 0.306078,0.133524 0.409469,0.267359 0.08433,0.130563 0.161608,0.270184 0.188421,0.42532 0.05989,0.558062 0.849103,0.473371 0.789217,-0.08469 z" /></g><g
       id="g121"
       transform="matrix(0.60000212,0,0,0.60000212,7.6064019,34.467285)"
       style="stroke-width:1.66666"><path
         style="fill:#3333cc;stroke:none;stroke-width:0.565338px;stroke-linecap:butt;stroke-linejoin:miter;stroke-opacity:1"
         d="m 31.957182,105.76492 c 2.109533,-0.64991 4.837036,-0.98227 6.904068,0.12234 2.067033,1.10462 3.415679,3.54147 2.709229,6.39404 -0.70645,2.85257 -3.49646,6.06644 -6.156536,7.10871 -2.660077,1.04226 -5.190061,-0.0871 -6.59331,-2.28911 -1.40325,-2.20203 -1.679701,-5.47657 -1.072121,-7.59761 0.607579,-2.12104 2.099136,-3.08847 4.20867,-3.73837 z"
         id="path52"
         inkscape:path-effect="#path-effect52"
         inkscape:original-d="m 31.339236,105.44737 c 2.727479,-0.33236 5.454982,-0.66472 8.182433,-0.99708 1.406614,2.54159 2.755262,4.97844 4.133382,7.46855 -2.791025,3.21503 -5.581031,6.4289 -8.371097,9.64283 -2.530086,-1.1294 -5.060071,-2.25875 -7.590107,-3.38812 -0.276463,-3.27468 -0.552915,-6.54922 -0.829373,-9.82383 1.491617,-0.96747 2.983174,-1.9349 4.474762,-2.90235 z"
         sodipodi:nodetypes="ccccccc"
         transform="matrix(-0.78001144,0,0,0.78001144,51.589417,18.334644)" /><path
         id="path99"
         style="opacity:1;fill:#ffffff;stroke:none;stroke-width:0.44097px;-inkscape-stroke:none;paint-order:fill markers stroke"
         d="m 22.745662,105.78455 c -0.05184,0.22083 -0.04883,0.45098 -0.02675,0.67558 0.0067,0.0681 0.01704,0.13583 0.02553,0.20375 0.06357,0.39507 0.171386,0.7856 0.345035,1.14728 0.037,0.0771 0.07991,0.15116 0.119864,0.22674 0.04813,0.0728 0.09205,0.14858 0.144402,0.21841 0.16387,0.21858 0.36572,0.40537 0.607084,0.53584 0.227145,0.12278 0.288118,0.12118 0.538453,0.18401 0.09901,0.007 0.197747,0.0226 0.297032,0.0221 0.300649,-0.001 0.598369,-0.0771 0.870596,-0.20229 0.228041,-0.10488 0.28979,-0.16124 0.492612,-0.30295 0.270869,-0.21744 0.498562,-0.48247 0.651311,-0.79586 0.08877,-0.18212 0.09797,-0.24226 0.154279,-0.43361 0.06039,-0.26239 0.07372,-0.53283 0.04544,-0.80035 -0.01524,-0.14405 -0.0283,-0.1887 -0.05773,-0.32733 -0.01344,-0.0475 -0.0269,-0.0951 -0.04035,-0.14262 -0.15607,-0.53913 -0.918517,-0.31841 -0.762445,0.22072 v 0 c 0.0091,0.0303 0.01815,0.0606 0.02725,0.0909 0.0205,0.0906 0.03051,0.12446 0.0418,0.21842 0.02098,0.17445 0.01675,0.35154 -0.01767,0.524 -0.03103,0.11689 -0.03695,0.15844 -0.08748,0.26995 -0.09418,0.20787 -0.240954,0.383 -0.414764,0.52918 -0.132373,0.0969 -0.177966,0.13898 -0.32577,0.21207 -0.166384,0.0823 -0.347586,0.13677 -0.533456,0.14723 -0.05423,0.003 -0.108619,-0.002 -0.16293,-0.003 -0.137999,-0.0263 -0.168027,-0.0228 -0.295757,-0.0837 -0.204388,-0.0975 -0.354139,-0.26596 -0.47198,-0.45535 -0.0308,-0.0567 -0.06398,-0.11217 -0.0924,-0.1701 -0.1436,-0.29267 -0.231439,-0.61013 -0.285128,-0.93065 -0.0244,-0.18437 -0.04801,-0.37049 -0.024,-0.55625 0.156961,-0.53887 -0.605118,-0.76085 -0.762079,-0.22198 z m 0.411869,-2.45562 c -0.215778,-0.0545 -0.441082,-0.0408 -0.653614,0.0232 -0.0616,0.0185 -0.120758,0.0444 -0.181136,0.0666 -0.266356,0.12059 -0.497496,0.30313 -0.660098,0.54842 -0.119341,0.18003 -0.123198,0.22885 -0.196125,0.43098 -0.07702,0.30891 -0.06878,0.62606 0.05073,0.92359 0.07601,0.18924 0.115771,0.2212 0.236215,0.38431 0.05722,0.0535 0.110027,0.11217 0.171654,0.16054 0.188597,0.14803 0.415382,0.24159 0.650922,0.28189 0.212,0.0363 0.282332,0.0219 0.495059,0.0125 0.320173,-0.0403 0.630161,-0.14622 0.887492,-0.34571 0.169527,-0.13143 0.187256,-0.17517 0.318744,-0.34249 0.157639,-0.25387 0.24117,-0.53969 0.229462,-0.83961 -0.0076,-0.19427 -0.02993,-0.23413 -0.08084,-0.42109 -0.112861,-0.29312 -0.301437,-0.54249 -0.581877,-0.69419 -0.200702,-0.10856 -0.273984,-0.10612 -0.495943,-0.15129 -0.366736,-0.012 -0.180478,-0.0187 -0.558668,0.0229 -0.557088,0.0683 -0.46042,0.85619 0.09667,0.78784 v 0 c 0.228383,-0.0327 0.120013,-0.0246 0.324721,-0.0289 0.03814,0.004 0.07673,0.006 0.114414,0.0129 0.16652,0.0322 0.268314,0.12579 0.33964,0.27634 0.0104,0.0295 0.02331,0.0582 0.03123,0.0884 0.04184,0.15966 0.01749,0.32526 -0.05477,0.47179 -0.01849,0.028 -0.0344,0.0578 -0.05546,0.0839 -0.138123,0.17103 -0.350946,0.25077 -0.56112,0.28685 -0.04679,0.004 -0.09342,0.0107 -0.140361,0.0118 -0.184389,0.004 -0.363099,-0.0423 -0.505302,-0.16278 -0.01998,-0.0223 -0.04231,-0.0427 -0.05994,-0.0668 -0.106447,-0.14593 -0.130794,-0.32534 -0.100227,-0.4999 0.01,-0.0353 0.01701,-0.0714 0.0299,-0.10574 0.06491,-0.17282 0.196453,-0.30359 0.359225,-0.38569 0.106267,-0.0447 0.217823,-0.0901 0.3352,-0.0663 0.540441,0.15146 0.754645,-0.61284 0.214202,-0.7643 z m 3.633211,-0.12945 c -0.248409,0.0178 -0.493633,0.0798 -0.716311,0.19293 -0.06628,0.0337 -0.128561,0.0747 -0.192842,0.11205 -0.288086,0.20367 -0.51748,0.47574 -0.625239,0.81644 -0.07381,0.23337 -0.05979,0.30853 -0.06754,0.5494 0.01254,0.0906 0.0168,0.1827 0.03767,0.27172 0.06526,0.27861 0.208513,0.53948 0.419569,0.73464 0.192193,0.17772 0.268721,0.19238 0.500552,0.30172 0.09273,0.0239 0.183584,0.0569 0.278191,0.0718 0.292089,0.0459 0.586488,0.003 0.857136,-0.11395 0.2228,-0.0962 0.26026,-0.14629 0.446683,-0.29526 0.05597,-0.0648 0.117914,-0.12483 0.167915,-0.1943 0.139393,-0.19369 0.221639,-0.42198 0.23935,-0.65969 0.01381,-0.18537 -0.0077,-0.25258 -0.03698,-0.43204 -0.05188,-0.16429 -0.06296,-0.233 -0.151479,-0.38166 -0.03546,-0.0596 -0.08058,-0.11281 -0.120867,-0.16921 -0.339714,-0.44679 -0.97156,0.0336 -0.631849,0.48042 v 0 c 0.062,0.0678 0.09647,0.12295 0.123357,0.21302 0.04994,0.22231 0.04678,0.34898 -0.100147,0.53582 -0.02976,0.0279 -0.0568,0.059 -0.08928,0.0836 -0.147611,0.11208 -0.338151,0.17539 -0.523859,0.16015 -0.04681,-0.004 -0.09241,-0.0169 -0.138615,-0.0253 -0.0989,-0.037 -0.151697,-0.0481 -0.236062,-0.11266 -0.147814,-0.11319 -0.222961,-0.28041 -0.24757,-0.46088 -0.0039,-0.11283 -0.01294,-0.15588 0.01214,-0.26592 0.04025,-0.17658 0.153845,-0.31687 0.293785,-0.42633 0.03723,-0.0233 0.07326,-0.0485 0.111689,-0.0697 0.133371,-0.0736 0.282551,-0.11233 0.433792,-0.1242 0.560435,-0.0306 0.517245,-0.82312 -0.04319,-0.79258 z" /></g><g
       id="g118"
       transform="matrix(0.60000212,0,0,0.60000212,7.6064019,34.467285)"
       style="stroke-width:1.66666"><path
         style="fill:#aa1111;stroke:none;stroke-width:0.300299px;stroke-linecap:butt;stroke-linejoin:miter;stroke-opacity:1"
         d="m 49.364107,108.56666 c 1.303582,0.67777 2.09006,1.90867 2.008312,3.43468 -0.08175,1.52601 -1.152283,3.11953 -2.443227,3.78919 -1.290944,0.66967 -2.795809,0.40596 -3.693587,-0.7587 -0.897778,-1.16467 -1.187652,-3.22508 -1.045958,-4.49558 0.141694,-1.27049 0.509263,-1.57127 1.837184,-2.04926 1.327921,-0.47798 2.033693,-0.5981 3.337276,0.0797 z"
         id="path104"
         inkscape:path-effect="#path-effect105"
         inkscape:original-d="m 49.63081,107.62163 c 1.036878,1.6228 1.823357,2.8537 2.743138,4.29323 -1.083278,1.61249 -2.153812,3.20601 -3.230749,4.80906 -1.504951,-0.26372 -3.009816,-0.52743 -4.514766,-0.79115 -0.290607,-2.06561 -0.580482,-4.12602 -0.871804,-6.19673 0.574714,-0.47028 0.942283,-0.77106 1.719874,-1.40736 1.878249,-0.31967 2.584021,-0.43979 4.154307,-0.70705 z"
         sodipodi:nodetypes="ccccccc"
         transform="matrix(1.4684432,0,0,1.4684432,-31.205994,-59.256024)" /><path
         style="opacity:1;fill:#ffffff;stroke:none;stroke-width:0.44097px;-inkscape-stroke:none;paint-order:fill markers stroke"
         id="path105"
         d="m 36.582311,105.19989 c 0.01947,0.2871 0.06679,0.57187 0.10382,0.85717 0.04744,0.34914 0.06151,0.70081 0.05154,1.05265 -0.01037,0.24271 -0.02207,0.48534 -0.0292,0.72818 -0.0019,0.0678 -0.003,0.13559 -0.004,0.2034 -0.0077,0.56121 0.785966,0.57212 0.793673,0.0109 v 0 c 7.94e-4,-0.0637 0.0019,-0.12736 0.0037,-0.19102 0.0071,-0.24339 0.01913,-0.48658 0.02925,-0.72986 0.01032,-0.3932 -0.0048,-0.78628 -0.05786,-1.17646 -0.03268,-0.25159 -0.07055,-0.50268 -0.09721,-0.75497 0,-0.56126 -0.79375,-0.56126 -0.79375,0 z" /><path
         style="opacity:1;fill:#ffffff;stroke:none;stroke-width:0.44097px;-inkscape-stroke:none;paint-order:fill markers stroke"
         id="path106"
         d="m 36.9914,105.53684 c 0.476751,-0.002 0.953456,-0.0136 1.430039,-0.026 0.498351,-0.0115 0.996019,-0.0389 1.493425,-0.0704 0.100126,-0.006 0.200263,-0.0125 0.300453,-0.0177 0.03177,-0.002 0.102523,-0.006 0.06844,-0.001 -0.01119,-0.001 -0.0227,-0.001 -0.03358,-0.004 -0.06437,-0.0177 -0.0933,-0.0315 -0.146524,-0.077 -0.01685,-0.0144 -0.02999,-0.0327 -0.04366,-0.0501 -0.007,-0.009 -0.0094,-0.0215 -0.01812,-0.0287 -0.0039,-0.003 0.0011,0.0101 0.0016,0.0151 0.05516,0.26667 0.07848,0.53819 0.09955,0.80924 0.03152,0.42519 0.02265,0.8518 0.0085,1.27748 -0.0079,0.19516 -0.01908,0.39009 -0.03686,0.5846 -0.05065,0.55897 0.739862,0.6306 0.790511,0.0716 v 0 c 0.01884,-0.20964 0.03148,-0.4197 0.03967,-0.63005 0.01495,-0.45505 0.02363,-0.91107 -0.01053,-1.36557 -0.02487,-0.31605 -0.05303,-0.6329 -0.121645,-0.94305 -0.0088,-0.0317 -0.01521,-0.0642 -0.02647,-0.0951 -0.07232,-0.19859 -0.210981,-0.32262 -0.422013,-0.35416 -0.166656,-0.0122 -0.333012,0.008 -0.499544,0.0162 -0.487548,0.0309 -0.975341,0.0579 -1.463815,0.0691 -0.469723,0.0122 -0.93957,0.0235 -1.409454,0.0257 -0.561266,0 -0.561266,0.79375 0,0.79375 z" /><path
         style="opacity:1;fill:#ffffff;stroke:none;stroke-width:0.44097px;-inkscape-stroke:none;paint-order:fill markers stroke"
         id="path107"
         d="m 37.104307,108.66419 c 0.12219,0.0171 0.243536,0.0403 0.365393,0.0598 0.257362,0.0423 0.518054,0.0523 0.778332,0.0561 0.284925,7.9e-4 0.569833,-0.002 0.854761,-0.001 0.203755,0.001 0.407611,-0.002 0.610793,-0.0183 0.130527,-0.0106 0.168074,-0.0166 0.296965,-0.0325 0.172625,-0.0242 0.08915,-0.013 0.250397,-0.0337 0.556662,-0.0717 0.45521,-0.85898 -0.101452,-0.78724 v 0 c -0.165989,0.0214 -0.08364,0.0103 -0.247044,0.0333 -0.109217,0.0137 -0.141899,0.019 -0.252383,0.0282 -0.184669,0.0154 -0.369989,0.0176 -0.555199,0.0165 -0.281821,-7.9e-4 -0.563624,0.002 -0.845442,0.001 -0.222142,-0.003 -0.444738,-0.0103 -0.664443,-0.0463 -0.147219,-0.0235 -0.293611,-0.0541 -0.442105,-0.0683 -0.560216,-0.0343 -0.608788,0.75792 -0.04857,0.79226 z" /><path
         style="opacity:1;fill:#ffffff;stroke:none;stroke-width:0.44097px;-inkscape-stroke:none;paint-order:fill markers stroke"
         id="path108"
         d="m 36.632761,102.30246 c 0.04076,0.14379 0.08105,0.28766 0.119255,0.43216 0.0433,0.15961 0.07889,0.32104 0.110599,0.4833 0.03107,0.16332 0.05938,0.32716 0.09011,0.49055 0.103799,0.55158 0.883857,0.40478 0.780055,-0.1468 v 0 c -0.03112,-0.16528 -0.05963,-0.33103 -0.0912,-0.49622 -0.03512,-0.17917 -0.07445,-0.35746 -0.122187,-0.53374 -0.03761,-0.1422 -0.07679,-0.28393 -0.117472,-0.42528 -0.138618,-0.54388 -0.90778,-0.34785 -0.769162,0.19603 z" /><path
         style="opacity:1;fill:#ffffff;stroke:none;stroke-width:0.44097px;-inkscape-stroke:none;paint-order:fill markers stroke"
         id="path115"
         d="m 40.239987,102.19966 c -0.04406,0.12132 -0.09819,0.2385 -0.153784,0.3549 -0.09496,0.19253 -0.198159,0.38081 -0.301884,0.56871 -0.04138,0.0738 -0.08225,0.14797 -0.122521,0.22244 -0.266835,0.49378 0.431478,0.87114 0.698312,0.37736 v 0 c 0.0391,-0.0724 0.07895,-0.1444 0.119124,-0.21622 0.111342,-0.20173 0.221983,-0.40394 0.323519,-0.61084 0.07505,-0.15782 0.148529,-0.31701 0.201975,-0.48372 0.150352,-0.54075 -0.614389,-0.75338 -0.764741,-0.21263 z" /><path
         style="opacity:1;fill:#ffffff;stroke:none;stroke-width:0.44097px;-inkscape-stroke:none;paint-order:fill markers stroke"
         id="path118"
         d="m 38.40309,101.95477 c 0.0068,0.13096 0.0067,0.26211 0.0054,0.3932 -0.0016,0.24158 -0.02056,0.48238 -0.04644,0.72241 -0.02003,0.15761 -0.0096,0.0799 -0.03121,0.23316 -0.07816,0.5558 0.707859,0.66633 0.786016,0.11054 v 0 c 0.02373,-0.16913 0.01222,-0.0828 0.03441,-0.25897 0.02841,-0.26571 0.04923,-0.53225 0.05094,-0.79964 0.0016,-0.16181 0.0021,-0.32392 -0.0099,-0.4854 -0.05989,-0.55806 -0.849106,-0.47336 -0.789218,0.0847 z" /></g><text
       xml:space="preserve"
       style="font-style:normal;font-variant:normal;font-weight:500;font-stretch:semi-condensed;font-size:5.29165px;line-height:0.95;font-family:'Bricolage Grotesque 48pt SemiCondensed';-inkscape-font-specification:'Bricolage Grotesque 48pt SemiCondensed,  Medium Semi-Condensed';letter-spacing:0px;word-spacing:0px;fill:#665500;stroke-width:0.264583"
       x="84.716393"
       y="78.410202"
       id="text122"><tspan
         sodipodi:role="line"
         style="font-style:normal;font-variant:normal;font-weight:500;font-stretch:semi-condensed;font-size:5.29165px;line-height:0.95;font-family:'Bricolage Grotesque 48pt SemiCondensed';-inkscape-font-specification:'Bricolage Grotesque 48pt SemiCondensed,  Medium Semi-Condensed';fill:#665500;stroke-width:0.264583"
         x="84.716393"
         y="78.410202"
         id="tspan122">pi lipu</tspan><tspan
         sodipodi:role="line"
         style="font-style:normal;font-variant:normal;font-weight:500;font-stretch:semi-condensed;font-size:5.29165px;line-height:0.95;font-family:'Bricolage Grotesque 48pt SemiCondensed';-inkscape-font-specification:'Bricolage Grotesque 48pt SemiCondensed,  Medium Semi-Condensed';fill:#665500;stroke-width:0.264583"
         x="84.716393"
         y="83.437271"
         id="tspan123">tenpo</tspan></text><text
       xml:space="preserve"
       style="font-style:normal;font-variant:normal;font-weight:500;font-stretch:semi-condensed;font-size:5.29165px;line-height:0.95;font-family:'Bricolage Grotesque 48pt SemiCondensed';-inkscape-font-specification:'Bricolage Grotesque 48pt SemiCondensed,  Medium Semi-Condensed';letter-spacing:0px;word-spacing:0px;fill:#aa1111;stroke-width:0.264583"
       x="30.843449"
       y="122.80815"
       id="text153"><tspan
         sodipodi:role="line"
         style="font-style:normal;font-variant:normal;font-weight:500;font-stretch:semi-condensed;font-size:5.29165px;line-height:0.95;font-family:'Bricolage Grotesque 48pt SemiCondensed';-inkscape-font-specification:'Bricolage Grotesque 48pt SemiCondensed,  Medium Semi-Condensed';word-spacing:0px;fill:#aa1111;stroke-width:0.264583"
         x="30.843449"
         y="122.80815"
         id="tspan153"
         rotate="0 0 0 0 0 0 11.9 0 353.79999 0 352.5 0"
         dy="0 0 0 0 0 0 0 -0.73000002 1.13 -0.64999998 0.88999999"
         dx="0 0 0 0 0 0 -0.15000001 0.31 0.30000001 0 0.20999999">toki pakala</tspan></text></g></svg>
