<?xml version="1.0" encoding="UTF-8" standalone="no"?>
<!-- Created with Inkscape (http://www.inkscape.org/) -->

<svg
   width="210mm"
   height="297mm"
   viewBox="0 0 210 297"
   version="1.1"
   id="svg1"
   xml:space="preserve"
   inkscape:version="1.3.2 (091e20e, 2023-11-25)"
   sodipodi:docname="ko.svg"
   xmlns:inkscape="http://www.inkscape.org/namespaces/inkscape"
   xmlns:sodipodi="http://sodipodi.sourceforge.net/DTD/sodipodi-0.dtd"
   xmlns="http://www.w3.org/2000/svg"
   xmlns:svg="http://www.w3.org/2000/svg"><sodipodi:namedview
     id="namedview1"
     pagecolor="#ffffff"
     bordercolor="#666666"
     borderopacity="1.0"
     inkscape:showpageshadow="2"
     inkscape:pageopacity="0.0"
     inkscape:pagecheckerboard="0"
     inkscape:deskcolor="#d1d1d1"
     inkscape:document-units="mm"
     inkscape:zoom="4.3382588"
     inkscape:cx="410.99439"
     inkscape:cy="778.1924"
     inkscape:window-width="1920"
     inkscape:window-height="1011"
     inkscape:window-x="0"
     inkscape:window-y="32"
     inkscape:window-maximized="1"
     inkscape:current-layer="layer1"
     showgrid="false" /><defs
     id="defs1"><inkscape:path-effect
       effect="bspline"
       id="path-effect25"
       is_visible="true"
       lpeversion="1.3"
       weight="33.333333"
       steps="2"
       helper_size="0"
       apply_no_weight="true"
       apply_with_weight="true"
       only_selected="false"
       uniform="false" /><inkscape:path-effect
       effect="bspline"
       id="path-effect24"
       is_visible="true"
       lpeversion="1.3"
       weight="33.333333"
       steps="2"
       helper_size="0"
       apply_no_weight="true"
       apply_with_weight="true"
       only_selected="false"
       uniform="false" /><inkscape:path-effect
       effect="bspline"
       id="path-effect9"
       is_visible="true"
       lpeversion="1.3"
       weight="33.333333"
       steps="2"
       helper_size="0"
       apply_no_weight="true"
       apply_with_weight="true"
       only_selected="false"
       uniform="false" /><inkscape:path-effect
       effect="bspline"
       id="path-effect8"
       is_visible="true"
       lpeversion="1.3"
       weight="33.333333"
       steps="2"
       helper_size="0"
       apply_no_weight="true"
       apply_with_weight="true"
       only_selected="false"
       uniform="false" /><inkscape:path-effect
       effect="bspline"
       id="path-effect7"
       is_visible="true"
       lpeversion="1.3"
       weight="33.333333"
       steps="2"
       helper_size="0"
       apply_no_weight="true"
       apply_with_weight="true"
       only_selected="false"
       uniform="false" /><inkscape:path-effect
       effect="bspline"
       id="path-effect6"
       is_visible="true"
       lpeversion="1.3"
       weight="33.333333"
       steps="2"
       helper_size="0"
       apply_no_weight="true"
       apply_with_weight="true"
       only_selected="false"
       uniform="false" /><inkscape:path-effect
       effect="bspline"
       id="path-effect5"
       is_visible="true"
       lpeversion="1.3"
       weight="33.333333"
       steps="2"
       helper_size="0"
       apply_no_weight="true"
       apply_with_weight="true"
       only_selected="false"
       uniform="false" /><inkscape:path-effect
       effect="bspline"
       id="path-effect4"
       is_visible="true"
       lpeversion="1.3"
       weight="33.333333"
       steps="2"
       helper_size="0"
       apply_no_weight="true"
       apply_with_weight="true"
       only_selected="false"
       uniform="false" /><inkscape:path-effect
       effect="bspline"
       id="path-effect2"
       is_visible="true"
       lpeversion="1.3"
       weight="33.333333"
       steps="2"
       helper_size="0"
       apply_no_weight="true"
       apply_with_weight="true"
       only_selected="false"
       uniform="false" /><inkscape:path-effect
       effect="bspline"
       id="path-effect1"
       is_visible="true"
       lpeversion="1.3"
       weight="33.333333"
       steps="2"
       helper_size="0"
       apply_no_weight="true"
       apply_with_weight="true"
       only_selected="false"
       uniform="false" /><inkscape:path-effect
       effect="bspline"
       id="path-effect23"
       is_visible="true"
       lpeversion="1.3"
       weight="33.333333"
       steps="2"
       helper_size="0"
       apply_no_weight="true"
       apply_with_weight="true"
       only_selected="false"
       uniform="false" /><inkscape:path-effect
       effect="bspline"
       id="path-effect22"
       is_visible="true"
       lpeversion="1.3"
       weight="33.333333"
       steps="2"
       helper_size="0"
       apply_no_weight="true"
       apply_with_weight="true"
       only_selected="false"
       uniform="false" /><inkscape:path-effect
       effect="bspline"
       id="path-effect21"
       is_visible="true"
       lpeversion="1.3"
       weight="33.333333"
       steps="2"
       helper_size="0"
       apply_no_weight="true"
       apply_with_weight="true"
       only_selected="false"
       uniform="false" /><inkscape:path-effect
       effect="bspline"
       id="path-effect12"
       is_visible="true"
       lpeversion="1.3"
       weight="33.333333"
       steps="2"
       helper_size="0"
       apply_no_weight="true"
       apply_with_weight="true"
       only_selected="false"
       uniform="false" /><inkscape:path-effect
       effect="bspline"
       id="path-effect3"
       is_visible="true"
       lpeversion="1.3"
       weight="33.333333"
       steps="2"
       helper_size="0"
       apply_no_weight="true"
       apply_with_weight="true"
       only_selected="false"
       uniform="false" /><inkscape:path-effect
       effect="bspline"
       id="path-effect63"
       is_visible="true"
       lpeversion="1.3"
       weight="33.333333"
       steps="2"
       helper_size="0"
       apply_no_weight="true"
       apply_with_weight="true"
       only_selected="false"
       uniform="false" /><inkscape:path-effect
       effect="bspline"
       id="path-effect62"
       is_visible="true"
       lpeversion="1.3"
       weight="33.333333"
       steps="2"
       helper_size="0"
       apply_no_weight="true"
       apply_with_weight="true"
       only_selected="false"
       uniform="false" /><inkscape:path-effect
       effect="bspline"
       id="path-effect61"
       is_visible="true"
       lpeversion="1.3"
       weight="33.333333"
       steps="2"
       helper_size="0"
       apply_no_weight="true"
       apply_with_weight="true"
       only_selected="false"
       uniform="false" /><inkscape:path-effect
       effect="bspline"
       id="path-effect40"
       is_visible="true"
       lpeversion="1.3"
       weight="33.333333"
       steps="2"
       helper_size="0"
       apply_no_weight="true"
       apply_with_weight="true"
       only_selected="false"
       uniform="false" /><inkscape:path-effect
       effect="bspline"
       id="path-effect39"
       is_visible="true"
       lpeversion="1.3"
       weight="33.333333"
       steps="2"
       helper_size="0"
       apply_no_weight="true"
       apply_with_weight="true"
       only_selected="false"
       uniform="false" /><inkscape:path-effect
       effect="bspline"
       id="path-effect38"
       is_visible="true"
       lpeversion="1.3"
       weight="33.333333"
       steps="2"
       helper_size="0"
       apply_no_weight="true"
       apply_with_weight="true"
       only_selected="false"
       uniform="false" /><inkscape:path-effect
       effect="bspline"
       id="path-effect37"
       is_visible="true"
       lpeversion="1.3"
       weight="33.333333"
       steps="2"
       helper_size="0"
       apply_no_weight="true"
       apply_with_weight="true"
       only_selected="false"
       uniform="false" /><inkscape:path-effect
       effect="bspline"
       id="path-effect36"
       is_visible="true"
       lpeversion="1.3"
       weight="33.333333"
       steps="2"
       helper_size="0"
       apply_no_weight="true"
       apply_with_weight="true"
       only_selected="false"
       uniform="false" /><inkscape:path-effect
       effect="bspline"
       id="path-effect35"
       is_visible="true"
       lpeversion="1.3"
       weight="33.333333"
       steps="2"
       helper_size="0"
       apply_no_weight="true"
       apply_with_weight="true"
       only_selected="false"
       uniform="false" /><inkscape:path-effect
       effect="bspline"
       id="path-effect34"
       is_visible="true"
       lpeversion="1.3"
       weight="33.333333"
       steps="2"
       helper_size="0"
       apply_no_weight="true"
       apply_with_weight="true"
       only_selected="false"
       uniform="false" /><inkscape:path-effect
       effect="bspline"
       id="path-effect33"
       is_visible="true"
       lpeversion="1.3"
       weight="33.333333"
       steps="2"
       helper_size="0"
       apply_no_weight="true"
       apply_with_weight="true"
       only_selected="false"
       uniform="false" /><inkscape:path-effect
       effect="bspline"
       id="path-effect32"
       is_visible="true"
       lpeversion="1.3"
       weight="33.333333"
       steps="2"
       helper_size="0"
       apply_no_weight="true"
       apply_with_weight="true"
       only_selected="false"
       uniform="false" /><inkscape:path-effect
       effect="bspline"
       id="path-effect31"
       is_visible="true"
       lpeversion="1.3"
       weight="33.333333"
       steps="2"
       helper_size="0"
       apply_no_weight="true"
       apply_with_weight="true"
       only_selected="false"
       uniform="false" /><inkscape:path-effect
       effect="bspline"
       id="path-effect30"
       is_visible="true"
       lpeversion="1.3"
       weight="33.333333"
       steps="2"
       helper_size="0"
       apply_no_weight="true"
       apply_with_weight="true"
       only_selected="false"
       uniform="false" /><inkscape:path-effect
       effect="bspline"
       id="path-effect29"
       is_visible="true"
       lpeversion="1.3"
       weight="33.333333"
       steps="2"
       helper_size="0"
       apply_no_weight="true"
       apply_with_weight="true"
       only_selected="false"
       uniform="false" /><inkscape:path-effect
       effect="bspline"
       id="path-effect28"
       is_visible="true"
       lpeversion="1.3"
       weight="33.333333"
       steps="2"
       helper_size="0"
       apply_no_weight="true"
       apply_with_weight="true"
       only_selected="false"
       uniform="false" /><inkscape:path-effect
       effect="bspline"
       id="path-effect27"
       is_visible="true"
       lpeversion="1.3"
       weight="33.333333"
       steps="2"
       helper_size="0"
       apply_no_weight="true"
       apply_with_weight="true"
       only_selected="false"
       uniform="false" /><rect
       x="87.239149"
       y="522.35201"
       width="277.12957"
       height="89.781431"
       id="rect9" /></defs><g
     inkscape:label="Layer 1"
     inkscape:groupmode="layer"
     id="layer1"><path
       style="fill:#aaeedd;stroke:none;stroke-width:0.264583px;stroke-linecap:butt;stroke-linejoin:miter;stroke-opacity:1"
       d="m 57.693675,99.750367 c 3.741181,0.475673 10.444657,0.532543 16.251828,0.522713 5.80717,-0.01 10.717946,-0.0864 13.550937,-0.509919 2.832991,-0.42353 3.587956,-1.193993 4.320343,-2.044657 0.732387,-0.850665 1.442123,-1.781449 2.151873,-2.712251 -0.689657,-0.990037 -1.3793,-1.980055 -2.065886,-2.7808 -0.686587,-0.800745 -1.37005,-1.412142 -5.50936,-1.681145 -4.139311,-0.269003 -11.734127,-0.195577 -17.658774,-0.176523 -5.924646,0.01906 -10.962345,-0.02277 -12.880598,0.333822 -1.918253,0.356588 -2.410021,1.354069 -2.755623,2.653486 -0.345602,1.299416 -0.516462,2.650324 -0.220634,3.837733 0.295827,1.187408 1.074713,2.081871 4.815894,2.557541 z"
       id="path24"
       inkscape:path-effect="#path-effect25"
       inkscape:original-d="m 54.731381,100.16916 c 6.703475,0.0569 13.406951,0.11375 20.110424,0.17063 4.910869,-0.0765 9.821644,-0.1531 14.732615,-0.22965 0.755011,-0.770509 1.509976,-1.540972 2.264987,-2.311481 0.709763,-0.93082 2.129249,-2.792406 2.129249,-2.792406 0,0 -1.3793,-1.980055 -2.06897,-2.970112 -0.683503,-0.611433 -1.366966,-1.22283 -2.050469,-1.834264 -7.595118,0.07343 -15.189934,0.146854 -22.7849,0.220281 -4.254327,-0.03532 -9.292026,-0.07714 -12.762725,-0.105952 -0.365808,0.741989 -0.857575,1.73947 -1.345176,2.728501 -0.203604,1.609802 -0.374463,2.96071 -0.561694,4.441065 0.778886,0.894462 1.557772,1.788925 2.336659,2.683388 z"
       sodipodi:nodetypes="scccccccccss"
       transform="translate(0.19841373,-0.13227582)" /><path
       style="fill:#aaeedd;stroke:none;stroke-width:0.26145px;stroke-linecap:butt;stroke-linejoin:miter;stroke-opacity:1"
       d="m 104.55721,103.20753 c 2.84491,0.71109 7.96209,0.99008 14.27682,1.00376 6.31473,0.0137 13.82661,-0.23795 18.24677,-0.38327 4.42015,-0.14531 5.74834,-0.18431 6.6391,-0.64662 0.89076,-0.46232 1.34401,-1.34794 1.19749,-3.568981 -0.14653,-2.221041 -0.8928,-5.777349 -1.7869,-7.732064 -0.89411,-1.954715 -1.936,-2.307753 -8.16133,-2.485324 -6.22533,-0.177571 -17.63363,-0.179671 -23.7085,-0.121946 -6.07486,0.05773 -6.81604,0.175271 -7.56061,0.60283 -0.74457,0.427559 -1.49248,1.165097 -2.05624,2.857084 -0.56376,1.691988 -1.04787,5.067021 -0.77591,6.843641 0.27197,1.77662 0.8444,2.9198 3.68931,3.63089 z"
       id="path23"
       inkscape:path-effect="#path-effect24"
       inkscape:original-d="m 102.28473,103.63962 c 5.11739,0.279 10.23457,0.55799 15.35185,0.83699 7.51218,-0.25164 15.02406,-0.50327 22.53609,-0.75491 1.32828,-0.039 2.65647,-0.078 3.98474,-0.11698 0.45325,-0.88564 0.9065,-1.77126 1.35975,-2.65689 -0.7463,-3.556452 -1.49257,-7.112759 -2.23885,-10.669138 -1.04193,-0.353049 -2.08382,-0.706088 -3.12572,-1.059132 -11.40876,-0.0021 -22.81706,-0.0042 -34.22558,-0.0063 -0.74121,0.117552 -1.48239,0.235096 -2.22359,0.352645 -0.74794,0.737568 -1.49585,1.475105 -2.24377,2.212658 -0.3796,2.646424 -1.27628,5.962279 -1.13878,7.939113 0.1375,1.976834 1.05068,2.949384 1.96386,3.921944 z"
       sodipodi:nodetypes="cccccccccccc"
       transform="matrix(1.0119844,0,0,1.0119844,-1.6709081,-1.0930635)" /><path
       style="fill:#aaeedd;stroke:none;stroke-width:0.264583px;stroke-linecap:butt;stroke-linejoin:miter;stroke-opacity:1"
       d="m 54.753623,115.54405 c 0.248677,-1.90529 0.79967,-3.45756 2.257982,-4.39797 1.458311,-0.94041 3.823783,-1.26889 7.893135,-1.39281 4.069351,-0.12391 9.842087,-0.0432 13.81863,0.11372 3.976543,0.15695 6.156408,0.39017 7.715794,1.01323 1.559386,0.62307 2.498099,1.63591 3.014041,3.28985 0.515942,1.65393 0.609044,3.94875 0.288089,5.85464 -0.320955,1.9059 -1.055927,3.42263 -3.459775,4.20246 -2.403849,0.77982 -6.476281,0.82264 -11.621357,0.80303 -5.145075,-0.0196 -11.362168,-0.10164 -14.882299,-0.62277 -3.52013,-0.52112 -4.342855,-1.48127 -4.781065,-3.09055 -0.43821,-1.60928 -0.491852,-3.86754 -0.243175,-5.77283 z"
       id="path8"
       inkscape:path-effect="#path-effect9"
       inkscape:original-d="m 54.451302,115.19104 c 0.550999,-1.55228 1.101989,-3.10455 1.653,-4.65686 2.365614,-0.32851 4.731085,-0.657 7.0967,-0.9855 5.773089,0.0807 11.545825,0.16136 17.318912,0.24204 2.179998,0.23323 4.359864,0.46644 6.539862,0.69966 0.938773,1.01291 1.877488,2.02575 2.816262,3.03866 0.09311,2.29496 0.186212,4.58978 0.27932,6.88474 -0.735017,1.51683 -1.469991,3.03356 -2.20501,4.55039 -4.072678,0.0428 -8.14511,0.0856 -12.217787,0.12846 -6.217475,-0.082 -12.434567,-0.16407 -18.652052,-0.24611 -0.822777,-0.96021 -1.645501,-1.92036 -2.468276,-2.88057 -0.05365,-2.25835 -0.107287,-4.51661 -0.160931,-6.77491 z"
       sodipodi:nodetypes="cccccccccccc"
       transform="translate(-0.60530503,28.745355)" /><path
       style="fill:#aaeedd;stroke:none;stroke-width:0.24073px;stroke-linecap:butt;stroke-linejoin:miter;stroke-opacity:1"
       d="m 113.90855,117.84299 c 2.75291,0.0844 7.03508,0.2156 9.74172,-0.13386 2.70663,-0.34946 3.22574,-1.19831 3.53831,-2.29474 0.31256,-1.09643 0.41854,-2.44026 -0.0129,-3.38055 -0.43144,-0.94029 -1.40021,-1.47686 -4.17948,-1.72699 -2.77927,-0.25014 -7.3687,-0.2138 -11.50766,-0.21776 -4.13896,-0.004 -7.82698,-0.0482 -10.09852,0.18872 -2.27155,0.23695 -3.126361,0.75507 -3.550939,1.58804 -0.424578,0.83296 -0.418872,1.98065 -0.330629,3.28415 0.08824,1.30349 0.259015,2.76263 0.42979,4.22181 0.885969,-0.62919 1.357074,-0.96375 4.591498,-1.35855 3.23443,-0.3948 4.66608,-0.35761 6.64599,-0.30619 1.97991,0.0514 1.97991,0.0515 4.73282,0.13592 z"
       id="path7"
       inkscape:path-effect="#path-effect8"
       inkscape:original-d="m 111.15564,117.75862 c 5.50582,0.16873 9.78799,0.29997 14.68212,0.44996 0.51914,-0.84891 1.03825,-1.69776 1.5574,-2.54667 0.10598,-1.34395 0.21195,-2.68778 0.31794,-4.03173 -0.96886,-0.53663 -1.93763,-1.0732 -2.90647,-1.60981 -4.5897,0.0363 -9.17913,0.0727 -13.76882,0.10902 -3.68823,-0.0443 -7.37625,-0.0885 -11.064482,-0.13279 -0.854861,0.51815 -1.70967,1.03628 -2.564532,1.55444 0.0057,1.14777 0.01141,2.29546 0.01712,3.44324 0.17078,1.45921 0.512326,4.37753 0.512326,4.37753 0,0 1.357077,-0.96375 2.657908,-1.88757 5.16802,0.13422 6.59967,0.17141 10.55949,0.27425 z"
       sodipodi:nodetypes="ccccccccccccc"
       transform="matrix(1.0990822,0,0,1.0990822,-10.919568,18.275193)" /><path
       style="fill:#ccccff;stroke:none;stroke-width:0.259837px;stroke-linecap:butt;stroke-linejoin:miter;stroke-opacity:1"
       d="m 64.035898,159.66845 c 1.094151,-0.72416 2.831407,-1.02182 5.129368,-0.87141 2.297961,0.15042 4.869532,0.73064 7.614868,0.76044 2.745335,0.0298 5.579284,-0.51002 7.921523,-0.69669 2.34224,-0.18667 4.192653,-0.0202 5.297677,0.86194 1.105025,0.88214 1.464605,2.47985 1.287216,4.0089 -0.17739,1.52905 -0.891724,2.98926 -2.260509,3.74551 -1.368784,0.75624 -3.426926,0.80933 -5.534188,0.58698 -2.107261,-0.22235 -4.302358,-0.71136 -7.437438,-0.56501 -3.13508,0.14636 -6.506125,0.85776 -8.940424,0.82377 -2.4343,-0.034 -3.424582,-0.92034 -4.025334,-1.95624 -0.600752,-1.0359 -0.836906,-2.3616 -0.686428,-3.5978 0.150478,-1.2362 0.539517,-2.37623 1.633669,-3.10039 z"
       id="path6"
       inkscape:path-effect="#path-effect7"
       inkscape:original-d="m 63.330788,159.25257 c 1.799262,-0.30828 3.536518,-0.60594 5.390951,-0.92368 2.741487,0.61857 5.313058,1.1988 7.96967,1.79821 2.83406,-0.53983 5.668009,-1.07964 8.502002,-1.61946 1.850486,0.16648 3.700899,0.33295 5.551348,0.49943 0.3596,1.5978 0.719179,3.19551 1.07878,4.79331 -0.71438,1.4603 -1.428715,2.92051 -2.143096,4.38082 -2.023186,0.0522 -4.081328,0.10527 -6.06943,0.15655 -2.22642,-0.49599 -4.421518,-0.98499 -6.796985,-1.51418 -3.894693,0.8219 -7.265737,1.5333 -11.143993,2.35173 -0.990343,-0.88641 -1.980627,-1.77276 -2.970971,-2.65917 -0.211159,-1.18539 -0.447314,-2.51109 -0.633462,-3.55608 0.474608,-1.43167 0.869895,-2.56957 1.265186,-3.70748 z"
       sodipodi:nodetypes="ccccccccccccc"
       transform="matrix(1.0182651,0,0,1.0182651,-1.9989726,25.909667)" /><path
       style="fill:#ffffaa;stroke:none;stroke-width:0.260698px;stroke-linecap:butt;stroke-linejoin:miter;stroke-opacity:1"
       d="m 95.457943,52.800223 c 0.431398,-2.122794 0.776771,-3.241141 1.480142,-4.071565 0.70337,-0.830423 1.764658,-1.372847 6.014215,-1.626417 4.24956,-0.253569 11.68073,-0.21828 16.61297,-0.169742 4.93225,0.04854 7.3619,0.110305 8.86367,2.279659 1.50177,2.169353 2.07549,6.446033 2.03173,8.835583 -0.0438,2.389551 -0.70501,2.891688 -5.51505,3.268523 -4.81004,0.376835 -13.7683,0.628319 -19.61885,0.584295 -5.850558,-0.04402 -8.592727,-0.383552 -9.705179,-2.116967 -1.112452,-1.733416 -0.595046,-4.860574 -0.163648,-6.983369 z"
       id="path5"
       inkscape:path-effect="#path-effect6"
       inkscape:original-d="m 95.543961,51.795796 c 0.34538,-1.118367 0.690753,-2.236714 1.03614,-3.355104 1.061354,-0.542457 2.122642,-1.084881 3.183999,-1.62734 7.43776,0.03532 14.86893,0.07061 22.30363,0.105914 2.42979,0.06177 4.85944,0.123538 7.28922,0.185309 0.57376,4.276936 1.14748,8.553616 1.72124,12.830545 -0.66129,0.502169 -1.32253,1.004311 -1.98382,1.506481 -8.95879,0.251498 -17.91705,0.502982 -26.87583,0.75448 -2.742328,-0.339547 -5.484497,-0.679074 -8.226828,-1.018621 0.517427,-3.127284 1.034833,-6.254442 1.552249,-9.381664 z"
       sodipodi:nodetypes="cccccccccc"
       transform="matrix(1.0149021,0,0,1.0149021,3.3642539,10.290818)" /><path
       style="fill:#ccccff;stroke:none;stroke-width:0.264583px;stroke-linecap:butt;stroke-linejoin:miter;stroke-opacity:1"
       d="m 109.64667,160.21303 c 2.03449,-0.78723 5.64514,-1.08859 9.73172,-1.12988 4.08658,-0.0413 8.64876,0.1775 11.04043,0.70241 2.39167,0.52491 2.61257,1.3559 2.67443,2.63374 0.0619,1.27785 -0.0353,3.00241 -1.05907,4.1039 -1.02375,1.10149 -2.97398,1.5798 -6.9217,1.81723 -3.94771,0.23744 -9.89266,0.234 -13.37506,-0.29772 -3.4824,-0.53173 -4.50207,-1.59168 -4.91517,-2.47561 -0.41311,-0.88393 -0.25156,-1.47483 0.10863,-2.57474 0.36019,-1.09991 0.6813,-1.99211 2.71579,-2.77933 z"
       id="path4"
       inkscape:path-effect="#path-effect5"
       inkscape:original-d="m 108.07037,159.72718 c 3.61079,-0.30138 7.22144,-0.60274 10.83217,-0.90411 4.56243,0.21879 9.12461,0.43758 13.68703,0.65637 0.22091,0.83103 0.44182,1.66202 0.66274,2.49305 -0.0972,1.72466 -0.19439,3.44922 -0.29158,5.17388 -1.9503,0.47832 -3.90053,0.95663 -5.85076,1.43493 -5.94519,-0.0233 -11.89014,-0.0168 -17.83521,-0.0103 -1.01974,-1.06002 -2.03941,-2.11997 -3.05914,-3.17998 0.19352,-0.70785 0.35507,-1.29875 0.58056,-2.12352 0.49489,-1.37505 0.816,-2.26725 1.27419,-3.54032 z"
       transform="translate(-0.880332,28.518071)"
       sodipodi:nodetypes="cccccccccc" /><path
       style="fill:#ccccff;stroke:none;stroke-width:0.260785px;stroke-linecap:butt;stroke-linejoin:miter;stroke-opacity:1"
       d="m 106.33094,139.90962 c 1.33778,0.16338 2.74565,-0.82447 4.081,-0.85157 1.33535,-0.0271 2.59814,0.90651 4.19031,0.90986 1.59217,0.003 3.51361,-0.92356 5.39232,-0.82613 1.87871,0.0974 3.71458,1.21915 5.49492,1.24783 1.78034,0.0287 3.50506,-1.03567 5.10121,-1.09165 1.59616,-0.056 3.06366,0.89636 4.48169,1.02974 1.41802,0.13338 2.78648,-0.5522 3.65008,-1.89633 0.86359,-1.34414 1.22228,-3.34669 1.22287,-4.90956 5.9e-4,-1.56286 -0.35691,-2.68587 -1.19848,-2.78239 -0.84157,-0.0965 -2.16721,0.83348 -3.54779,0.75402 -1.38059,-0.0795 -2.81598,-1.16833 -4.28998,-1.20203 -1.47399,-0.0337 -2.98645,0.98781 -4.52473,1.02336 -1.53828,0.0356 -3.08376,-0.90355 -4.72733,-0.99703 -1.64357,-0.0935 -3.30779,0.66306 -4.8226,0.60787 -1.51482,-0.0552 -2.86006,-0.93119 -4.18488,-1.0347 -1.32481,-0.10351 -2.62903,0.56547 -3.98536,0.6727 -1.35634,0.10722 -2.76463,-0.3473 -3.80773,0.65132 -1.04309,0.99862 -1.72087,3.45026 -1.42591,5.33349 0.29495,1.88322 1.56262,3.19781 2.90039,3.3612 z"
       id="path3"
       inkscape:path-effect="#path-effect4"
       inkscape:original-d="m 106.26086,141.06085 c 1.40786,-0.98785 2.81573,-1.9757 4.22359,-2.96355 1.26284,0.93365 2.52563,1.86726 3.78845,2.80089 1.92152,-0.92694 3.84296,-1.85383 5.76443,-2.78075 1.83595,1.12177 3.67182,2.24349 5.50772,3.36523 1.72478,-1.06438 3.4495,-2.12872 5.17424,-3.19309 1.46757,0.95239 2.93507,1.90474 4.40261,2.85711 1.36851,-0.68561 2.73697,-1.37119 4.10546,-2.05678 0.35871,-2.00268 0.71739,-4.00523 1.07609,-6.00791 -0.35752,-1.12305 -0.71502,-2.24606 -1.07253,-3.36908 -1.32563,0.92999 -2.65127,1.85997 -3.97695,2.79 -1.43549,-1.08895 -2.87088,-2.17781 -4.30637,-3.26675 -1.5125,1.02154 -3.02496,2.04305 -4.53742,3.06457 -1.5641,-0.95042 -3.10958,-1.88952 -4.69234,-2.85127 -1.70438,0.77479 -3.3686,1.53132 -5.0529,2.29699 -1.34533,-0.87604 -2.69057,-1.75204 -4.0359,-2.62808 -1.3043,0.66902 -2.60852,1.338 -3.91281,2.00701 -1.40838,-0.45455 -2.81667,-0.90908 -4.22505,-1.36364 -0.67781,2.4518 -1.35559,4.90344 -2.0334,7.35524 1.26772,1.31465 2.53539,2.62924 3.80308,3.94386 z"
       sodipodi:nodetypes="cccccccccccccccccccc"
       transform="matrix(1.0144861,-0.01267994,0.01267994,1.0144861,-3.182973,28.342417)" /><path
       style="fill:#aaeedd;stroke:none;stroke-width:0.289175px;stroke-linecap:butt;stroke-linejoin:miter;stroke-opacity:1"
       d="m 52.521141,100.78618 c -0.170523,1.56869 -0.08155,2.25951 1.518669,2.19758 1.600216,-0.0619 4.711545,-0.87662 9.099137,-0.90479 4.387593,-0.0282 10.051053,0.73014 14.608703,1.21375 4.557651,0.48362 8.00906,0.6925 10.719922,-0.16622 2.710862,-0.85872 4.681191,-2.78504 5.748443,-5.209435 1.067252,-2.424396 1.231362,-5.346642 0.159631,-7.621962 -1.071731,-2.27532 -3.379178,-3.903447 -6.760467,-4.469698 -3.38129,-0.566251 -7.836109,-0.07055 -11.759133,0.482586 -3.923025,0.553136 -7.314028,1.16367 -11.083039,1.013839 -3.769012,-0.149831 -7.915703,-1.059985 -9.987067,-1.130392 -2.071365,-0.07041 -2.067976,0.546049 -1.899883,2.338759 0.168093,1.79271 0.36134,3.346982 0.276624,5.918255 -0.08471,2.571272 -0.471018,4.769037 -0.64154,6.337728 z"
       id="path2"
       inkscape:path-effect="#path-effect2"
       inkscape:original-d="m 52.261637,101.66401 c 0.08898,0.69086 0.177956,1.38168 0.266937,2.07254 3.111452,-0.81472 6.22278,-1.62941 9.334168,-2.44411 5.663797,0.75836 11.327257,1.51667 16.991052,2.27502 3.451507,0.20888 6.902916,0.41776 10.354317,0.62663 1.970324,-1.92631 3.940651,-3.85263 5.911036,-5.779 0.16412,-2.922421 0.32823,-5.844667 0.49235,-8.767085 -2.307582,-1.628222 -4.615029,-3.256349 -6.922612,-4.884572 -4.454996,0.495721 -8.909815,0.991423 -13.364723,1.487134 -3.391141,0.610558 -6.782144,1.221095 -10.173218,1.831642 -4.146949,-0.91021 -8.29364,-1.820364 -12.440599,-2.730577 0.0042,0.769399 0.0076,1.385855 0.01269,2.308145 0.331115,2.66313 0.524363,4.217402 0.828656,6.664812 -0.473725,2.695135 -0.860028,4.8929 -1.290054,7.339421 z"
       transform="matrix(0.91495427,0,0,0.91495427,6.0442447,36.173466)"
       sodipodi:nodetypes="cccccccccccccc" /><path
       style="fill:#ffcccc;stroke:none;stroke-width:0.244815px;stroke-linecap:butt;stroke-linejoin:miter;stroke-opacity:1"
       d="m 56.494754,78.925847 c 0.366107,2.118563 0.966296,1.55022 1.580632,1.00102 0.614336,-0.549199 1.24281,-1.079247 2.410594,-1.361429 1.167784,-0.282181 2.874769,-0.316477 6.646103,-0.227232 3.771335,0.08925 9.606692,0.302026 13.203099,-0.177455 3.596407,-0.47948 4.953694,-1.651176 5.964443,-3.334231 1.010749,-1.683055 1.674891,-3.877306 1.536502,-5.57104 -0.138388,-1.693733 -1.07929,-2.886732 -3.501355,-3.505702 -2.422065,-0.61897 -6.325003,-0.663833 -10.944811,-0.724316 -4.619807,-0.06048 -9.955931,-0.136576 -12.996322,0.222656 -3.040391,0.359232 -3.784684,1.153747 -4.090844,3.953799 -0.306159,2.800052 -0.174147,7.605368 0.191959,9.72393 z"
       id="path1"
       inkscape:path-effect="#path-effect1"
       inkscape:original-d="m 56.260665,81.612759 c 0.600196,-0.568349 1.200385,-1.136692 1.800575,-1.705036 0.628482,-0.530055 1.256956,-1.060103 1.885449,-1.590168 1.707075,-0.0343 3.41406,-0.06859 5.121141,-0.102892 5.835588,0.212789 11.670945,0.425569 17.506415,0.638353 1.357345,-1.171744 2.714631,-2.343441 4.071946,-3.515161 0.664184,-2.19439 1.328325,-4.388641 1.992509,-6.583034 -0.940961,-1.193074 -1.881863,-2.386073 -2.822823,-3.579146 -3.90317,-0.04487 -7.806108,-0.08973 -11.709278,-0.134597 -5.336445,-0.0761 -10.672569,-0.152192 -16.009014,-0.228291 -0.744337,0.794563 -1.48863,1.589078 -2.232968,2.383641 0.132019,4.805541 0.264032,9.610857 0.396048,14.416331 z"
       transform="matrix(1.0807457,0,0,1.0807457,-5.8704034,-5.6571878)"
       sodipodi:nodetypes="cccccccccccc" /><path
       style="fill:#aaeedd;stroke:none;stroke-width:0.255094px;stroke-linecap:butt;stroke-linejoin:miter;stroke-opacity:1"
       d="m 55.394328,136.14993 c 0.122661,-0.88479 0.367984,-2.65439 4.035068,-3.58125 3.667085,-0.92685 10.755645,-1.01097 17.098777,-0.92204 6.343133,0.0889 11.940345,0.3509 15.06038,1.21082 3.120036,0.85992 3.762491,2.31769 3.990033,3.91568 0.227543,1.59799 0.04015,3.33601 -3.541315,4.21741 -3.58146,0.8814 -10.556688,0.90606 -17.064334,0.87065 -6.507645,-0.0354 -12.547326,-0.13089 -15.752922,-0.94533 -3.205596,-0.81444 -3.576968,-2.34776 -3.762658,-3.11443 -0.18569,-0.76668 -0.18569,-0.76671 -0.06303,-1.65151 z"
       id="path22"
       inkscape:path-effect="#path-effect23"
       inkscape:original-d="m 55.271667,137.03473 c 0.245322,-1.76959 0.490645,-3.53919 0.735967,-5.30878 7.088847,-0.0841 14.177407,-0.16824 21.266113,-0.25236 5.597559,0.26198 11.194771,0.52395 16.792347,0.78593 0.642496,1.45786 1.28495,2.91563 1.927444,4.37349 -0.187409,1.73812 -0.374807,3.47614 -0.562216,5.21427 -6.975511,0.0246 -13.950739,0.0493 -20.926109,0.074 -6.039921,-0.0955 -12.079602,-0.19097 -18.119404,-0.28646 -0.371389,-1.53339 -0.742762,-3.06671 -1.114142,-4.60006 z"
       transform="matrix(1.0496847,0,0,1.0248574,-4.2055582,25.301563)"
       sodipodi:nodetypes="ccccccccc" /><path
       style="fill:#aaeedd;stroke:none;stroke-width:0.258332px;stroke-linecap:butt;stroke-linejoin:miter;stroke-opacity:1"
       d="m 97.970135,94.674326 c -0.245077,2.676836 0.281382,5.488574 3.327005,7.005294 3.04562,1.51672 8.61017,1.73832 13.9351,1.93777 5.32492,0.19945 10.4098,0.37673 13.22864,-1.16292 2.81883,-1.53965 3.37129,-4.79606 3.04518,-7.484956 -0.32611,-2.688896 -1.53075,-4.809975 -4.70491,-6.303536 -3.17416,-1.49356 -8.31756,-2.359439 -13.0713,-2.54687 -4.75373,-0.187431 -9.11743,0.303575 -11.80773,1.820062 -2.690304,1.516487 -3.706907,4.058321 -3.951985,6.735156 z"
       id="path21"
       inkscape:path-effect="#path-effect21"
       inkscape:original-d="m 97.19859,94.539375 c 0.526468,2.811787 1.052927,5.623525 1.579405,8.435365 5.564765,0.2216 11.129315,0.4432 16.693975,0.6648 5.08519,0.1773 10.17007,0.35458 15.25525,0.53188 0.55249,-3.2566 1.10495,-6.51301 1.65744,-9.7696 -1.20471,-2.121201 -2.40935,-4.24228 -3.61406,-6.363488 -5.14361,-0.865914 -10.28701,-1.731794 -15.43052,-2.597691 -4.36396,0.491036 -8.72766,0.982042 -13.09162,1.473078 -1.016647,2.541937 -2.033249,5.083771 -3.04987,7.625656 z"
       transform="matrix(1.1254556,0,0,0.93204944,-9.0634506,33.243526)"
       sodipodi:nodetypes="ccccccccc" /><text
       xml:space="preserve"
       style="font-style:normal;font-variant:normal;font-weight:500;font-stretch:semi-condensed;font-size:5.29165px;line-height:0.95;font-family:'Bricolage Grotesque 48pt SemiCondensed';-inkscape-font-specification:'Bricolage Grotesque 48pt SemiCondensed,  Medium Semi-Condensed';letter-spacing:0px;word-spacing:0px;fill:#665500;stroke-width:0.264583"
       x="103.53753"
       y="64.558693"
       id="text1"><tspan
         sodipodi:role="line"
         style="font-style:normal;font-variant:normal;font-weight:500;font-stretch:semi-condensed;font-size:5.29165px;line-height:0.95;font-family:'Bricolage Grotesque 48pt SemiCondensed';-inkscape-font-specification:'Bricolage Grotesque 48pt SemiCondensed,  Medium Semi-Condensed';fill:#665500;stroke-width:0.264583"
         x="103.53753"
         y="64.558693"
         id="tspan2">tenpo kulupu</tspan><tspan
         sodipodi:role="line"
         style="font-style:normal;font-variant:normal;font-weight:500;font-stretch:semi-condensed;font-size:5.29165px;line-height:0.95;font-family:'Bricolage Grotesque 48pt SemiCondensed';-inkscape-font-specification:'Bricolage Grotesque 48pt SemiCondensed,  Medium Semi-Condensed';fill:#665500;stroke-width:0.264583"
         x="103.53753"
         y="69.585762"
         id="tspan1">pi ma Ansetan</tspan></text><text
       xml:space="preserve"
       style="font-style:normal;font-variant:normal;font-weight:500;font-stretch:semi-condensed;font-size:5.29165px;line-height:0.95;font-family:'Bricolage Grotesque 48pt SemiCondensed';-inkscape-font-specification:'Bricolage Grotesque 48pt SemiCondensed,  Medium Semi-Condensed';letter-spacing:0px;word-spacing:0px;fill:#aa1111;stroke-width:0.264583"
       x="57.855236"
       y="71.248047"
       id="text4"><tspan
         sodipodi:role="line"
         style="font-style:normal;font-variant:normal;font-weight:500;font-stretch:semi-condensed;font-size:5.29165px;line-height:0.95;font-family:'Bricolage Grotesque 48pt SemiCondensed';-inkscape-font-specification:'Bricolage Grotesque 48pt SemiCondensed,  Medium Semi-Condensed';fill:#aa1111;stroke-width:0.264583"
         x="57.855236"
         y="71.248047"
         id="tspan4">kala li ken ala</tspan><tspan
         sodipodi:role="line"
         style="font-style:normal;font-variant:normal;font-weight:500;font-stretch:semi-condensed;font-size:5.29165px;line-height:0.95;font-family:'Bricolage Grotesque 48pt SemiCondensed';-inkscape-font-specification:'Bricolage Grotesque 48pt SemiCondensed,  Medium Semi-Condensed';fill:#aa1111;stroke-width:0.264583"
         x="57.855236"
         y="76.275116"
         id="tspan5">ken waso?</tspan></text><text
       xml:space="preserve"
       style="font-style:normal;font-variant:normal;font-weight:500;font-stretch:semi-condensed;font-size:5.29165px;line-height:0.95;font-family:'Bricolage Grotesque 48pt SemiCondensed';-inkscape-font-specification:'Bricolage Grotesque 48pt SemiCondensed,  Medium Semi-Condensed';letter-spacing:0px;word-spacing:0px;fill:#114444;stroke-width:0.264583"
       x="57.249931"
       y="121.85433"
       id="text7"><tspan
         sodipodi:role="line"
         style="font-style:normal;font-variant:normal;font-weight:500;font-stretch:semi-condensed;font-size:5.29165px;line-height:0.95;font-family:'Bricolage Grotesque 48pt SemiCondensed';-inkscape-font-specification:'Bricolage Grotesque 48pt SemiCondensed,  Medium Semi-Condensed';fill:#114444;stroke-width:0.264583"
         x="57.249931"
         y="121.85433"
         id="tspan7">kala Kupi mute</tspan><tspan
         sodipodi:role="line"
         style="font-style:normal;font-variant:normal;font-weight:500;font-stretch:semi-condensed;font-size:5.29165px;line-height:0.95;font-family:'Bricolage Grotesque 48pt SemiCondensed';-inkscape-font-specification:'Bricolage Grotesque 48pt SemiCondensed,  Medium Semi-Condensed';fill:#114444;stroke-width:0.264583"
         x="57.249931"
         y="126.8814"
         id="tspan8">li lon tan seme?</tspan></text><text
       xml:space="preserve"
       style="font-style:normal;font-variant:normal;font-weight:500;font-stretch:semi-condensed;font-size:5.29165px;line-height:0.95;font-family:'Bricolage Grotesque 48pt SemiCondensed';-inkscape-font-specification:'Bricolage Grotesque 48pt SemiCondensed,  Medium Semi-Condensed';letter-spacing:0px;word-spacing:0px;fill:#114444;stroke-width:0.264583"
       x="105.43477"
       y="120.96357"
       id="text10"><tspan
         sodipodi:role="line"
         style="font-style:normal;font-variant:normal;font-weight:500;font-stretch:semi-condensed;font-size:5.29165px;line-height:0.95;font-family:'Bricolage Grotesque 48pt SemiCondensed';-inkscape-font-specification:'Bricolage Grotesque 48pt SemiCondensed,  Medium Semi-Condensed';fill:#114444;stroke-width:0.264583"
         x="105.43477"
         y="120.96357"
         id="tspan10">lipu Kojo en</tspan><tspan
         sodipodi:role="line"
         style="font-style:normal;font-variant:normal;font-weight:500;font-stretch:semi-condensed;font-size:5.29165px;line-height:0.95;font-family:'Bricolage Grotesque 48pt SemiCondensed';-inkscape-font-specification:'Bricolage Grotesque 48pt SemiCondensed,  Medium Semi-Condensed';fill:#114444;stroke-width:0.264583"
         x="105.43477"
         y="125.99064"
         id="tspan11">linluwi majuna</tspan></text><text
       xml:space="preserve"
       style="font-style:normal;font-variant:normal;font-weight:500;font-stretch:semi-condensed;font-size:5.29165px;line-height:0.95;font-family:'Bricolage Grotesque 48pt SemiCondensed';-inkscape-font-specification:'Bricolage Grotesque 48pt SemiCondensed,  Medium Semi-Condensed';letter-spacing:0px;word-spacing:0px;fill:#114444;stroke-width:0.264583"
       x="57.249931"
       y="145.22943"
       id="text13"><tspan
         sodipodi:role="line"
         style="font-style:normal;font-variant:normal;font-weight:500;font-stretch:semi-condensed;font-size:5.29165px;line-height:0.95;font-family:'Bricolage Grotesque 48pt SemiCondensed';-inkscape-font-specification:'Bricolage Grotesque 48pt SemiCondensed,  Medium Semi-Condensed';fill:#114444;stroke-width:0.264583"
         x="57.249931"
         y="145.22943"
         id="tspan13">tenpo sike sin</tspan><tspan
         sodipodi:role="line"
         style="font-style:normal;font-variant:normal;font-weight:500;font-stretch:semi-condensed;font-size:5.29165px;line-height:0.95;font-family:'Bricolage Grotesque 48pt SemiCondensed';-inkscape-font-specification:'Bricolage Grotesque 48pt SemiCondensed,  Medium Semi-Condensed';fill:#114444;stroke-width:0.264583"
         x="57.249931"
         y="150.2565"
         id="tspan16">li lon ma Asija</tspan></text><text
       xml:space="preserve"
       style="font-style:normal;font-variant:normal;font-weight:500;font-stretch:semi-condensed;font-size:5.29165px;line-height:0.95;font-family:'Bricolage Grotesque 48pt SemiCondensed';-inkscape-font-specification:'Bricolage Grotesque 48pt SemiCondensed,  Medium Semi-Condensed';letter-spacing:0px;word-spacing:0px;fill:#114444;stroke-width:0.264583"
       x="98.186089"
       y="145.22943"
       id="text15"><tspan
         sodipodi:role="line"
         style="font-style:normal;font-variant:normal;font-weight:500;font-stretch:semi-condensed;font-size:5.29165px;line-height:0.95;font-family:'Bricolage Grotesque 48pt SemiCondensed';-inkscape-font-specification:'Bricolage Grotesque 48pt SemiCondensed,  Medium Semi-Condensed';fill:#114444;stroke-width:0.264583"
         x="98.186089"
         y="145.22943"
         id="tspan15">o kama kala a</tspan></text><text
       xml:space="preserve"
       style="font-style:normal;font-variant:normal;font-weight:500;font-stretch:semi-condensed;font-size:5.29165px;line-height:0.95;font-family:'Bricolage Grotesque 48pt SemiCondensed';-inkscape-font-specification:'Bricolage Grotesque 48pt SemiCondensed,  Medium Semi-Condensed';letter-spacing:0px;word-spacing:0px;fill:#114444;stroke-width:0.264583"
       x="56.819252"
       y="167.22235"
       id="text18"><tspan
         sodipodi:role="line"
         style="font-style:normal;font-variant:normal;font-weight:500;font-stretch:semi-condensed;font-size:5.29165px;line-height:0.95;font-family:'Bricolage Grotesque 48pt SemiCondensed';-inkscape-font-specification:'Bricolage Grotesque 48pt SemiCondensed,  Medium Semi-Condensed';fill:#114444;stroke-width:0.264583"
         x="56.819252"
         y="167.22235"
         id="tspan18">nasin sewi la kala</tspan></text><text
       xml:space="preserve"
       style="font-style:normal;font-variant:normal;font-weight:500;font-stretch:semi-condensed;font-size:5.29165px;line-height:0.95;font-family:'Bricolage Grotesque 48pt SemiCondensed';-inkscape-font-specification:'Bricolage Grotesque 48pt SemiCondensed,  Medium Semi-Condensed';letter-spacing:0px;word-spacing:0px;fill:#3333cc;stroke-width:0.264583"
       x="106.74148"
       y="165.45998"
       id="text19"><tspan
         sodipodi:role="line"
         style="font-style:normal;font-variant:normal;font-weight:500;font-stretch:semi-condensed;font-size:5.29165px;line-height:0.95;font-family:'Bricolage Grotesque 48pt SemiCondensed';-inkscape-font-specification:'Bricolage Grotesque 48pt SemiCondensed,  Medium Semi-Condensed';fill:#3333cc;stroke-width:0.264583"
         x="106.74148"
         y="165.45998"
         id="tspan19">telo li monsuta</tspan></text><text
       xml:space="preserve"
       style="font-style:normal;font-variant:normal;font-weight:500;font-stretch:semi-condensed;font-size:5.29165px;line-height:0.95;font-family:'Bricolage Grotesque 48pt SemiCondensed';-inkscape-font-specification:'Bricolage Grotesque 48pt SemiCondensed,  Medium Semi-Condensed';letter-spacing:0px;word-spacing:0px;fill:#3333cc;stroke-width:0.264583"
       x="108.4368"
       y="193.96144"
       id="text20"><tspan
         sodipodi:role="line"
         style="font-style:normal;font-variant:normal;font-weight:500;font-stretch:semi-condensed;font-size:5.29165px;line-height:0.95;font-family:'Bricolage Grotesque 48pt SemiCondensed';-inkscape-font-specification:'Bricolage Grotesque 48pt SemiCondensed,  Medium Semi-Condensed';fill:#3333cc;stroke-width:0.264583"
         x="108.4368"
         y="193.96144"
         id="tspan20">seme li mi</tspan></text><text
       xml:space="preserve"
       style="font-style:normal;font-variant:normal;font-weight:500;font-stretch:semi-condensed;font-size:5.29165px;line-height:0.95;font-family:'Bricolage Grotesque 48pt SemiCondensed';-inkscape-font-specification:'Bricolage Grotesque 48pt SemiCondensed,  Medium Semi-Condensed';letter-spacing:0px;word-spacing:0px;fill:#3333cc;stroke-width:0.264583"
       x="64.703491"
       y="193.96144"
       id="text21"><tspan
         sodipodi:role="line"
         style="font-style:normal;font-variant:normal;font-weight:500;font-stretch:semi-condensed;font-size:5.29165px;line-height:0.95;font-family:'Bricolage Grotesque 48pt SemiCondensed';-inkscape-font-specification:'Bricolage Grotesque 48pt SemiCondensed,  Medium Semi-Condensed';fill:#3333cc;stroke-width:0.264583"
         x="64.703491"
         y="193.96144"
         id="tspan21">toki kala tu</tspan></text><text
       xml:space="preserve"
       style="font-style:normal;font-variant:normal;font-weight:500;font-stretch:semi-condensed;font-size:5.29165px;line-height:0.95;font-family:'Bricolage Grotesque 48pt SemiCondensed';-inkscape-font-specification:'Bricolage Grotesque 48pt SemiCondensed,  Medium Semi-Condensed';letter-spacing:0px;word-spacing:0px;fill:#114444;stroke-width:0.264583"
       x="55.714649"
       y="96.768387"
       id="text12"><tspan
         sodipodi:role="line"
         style="font-style:normal;font-variant:normal;font-weight:500;font-stretch:semi-condensed;font-size:5.29165px;line-height:0.95;font-family:'Bricolage Grotesque 48pt SemiCondensed';-inkscape-font-specification:'Bricolage Grotesque 48pt SemiCondensed,  Medium Semi-Condensed';fill:#114444;stroke-width:0.264583"
         x="55.714649"
         y="96.768387"
         id="tspan12">kala li ken seme?</tspan></text><text
       xml:space="preserve"
       style="font-style:normal;font-variant:normal;font-weight:500;font-stretch:semi-condensed;font-size:5.29165px;line-height:0.95;font-family:'Bricolage Grotesque 48pt SemiCondensed';-inkscape-font-specification:'Bricolage Grotesque 48pt SemiCondensed,  Medium Semi-Condensed';letter-spacing:0px;word-spacing:0px;fill:#114444;stroke-width:0.264583"
       x="103.89949"
       y="95.877625"
       id="text17"><tspan
         sodipodi:role="line"
         style="font-style:normal;font-variant:normal;font-weight:500;font-stretch:semi-condensed;font-size:5.29165px;line-height:0.95;font-family:'Bricolage Grotesque 48pt SemiCondensed';-inkscape-font-specification:'Bricolage Grotesque 48pt SemiCondensed,  Medium Semi-Condensed';fill:#114444;stroke-width:0.264583"
         x="103.89949"
         y="95.877625"
         id="tspan17">jan alasa li kulupu</tspan><tspan
         sodipodi:role="line"
         style="font-style:normal;font-variant:normal;font-weight:500;font-stretch:semi-condensed;font-size:5.29165px;line-height:0.95;font-family:'Bricolage Grotesque 48pt SemiCondensed';-inkscape-font-specification:'Bricolage Grotesque 48pt SemiCondensed,  Medium Semi-Condensed';fill:#114444;stroke-width:0.264583"
         x="103.89949"
         y="100.90469"
         id="tspan22">lon ma Potuke</tspan></text><path
       id="path37"
       style="fill:#3333cc;stroke:none;stroke-width:1.323;paint-order:markers stroke fill"
       d="m 98.043809,210.96829 c 0.08922,-0.0827 0.193981,-0.14526 0.298707,-0.20605 0.0234,-0.0126 0.06318,-0.0348 0.08959,-0.0458 0.0041,-0.002 0.01572,-0.006 0.01291,-0.003 -0.01483,0.0179 -0.06308,0.003 -0.03421,0.0269 0.126961,0.0321 0.249502,0.0773 0.37046,0.12692 0.114321,0.0487 0.228452,0.0963 0.347139,0.13341 0.131177,0.0389 0.266161,0.0611 0.402102,0.0741 0.126056,0.0143 0.237583,0.005 0.361802,-0.0213 0.138791,-0.0398 0.263091,-0.11381 0.383731,-0.19105 0.0696,-0.0436 0.13561,-0.0923 0.20339,-0.13844 0.0133,-0.0101 0.0265,-0.0202 0.0398,-0.0303 0.48216,-0.3777 -0.052,-1.05958 -0.53415,-0.68189 v 0 c -2.28e-4,4.6e-4 -4.58e-4,8.7e-4 -6.87e-4,0.002 -0.0581,0.0409 -0.115927,0.0819 -0.175919,0.12007 -0.03096,0.0199 -0.0612,0.0403 -0.09361,0.0578 -0.01091,0.006 -0.02228,0.0109 -0.03303,0.0172 -0.0016,8.6e-4 -0.0059,0.003 -0.004,0.004 0.0042,0.002 0.0088,-8.7e-4 0.01323,-0.002 -0.0029,0.004 -2.29e-4,-8.7e-4 0.0023,0.003 0.0037,0.006 -0.08406,-0.004 -0.08261,-0.002 -0.07634,-0.007 -0.15202,-0.0187 -0.225983,-0.0392 -0.09461,-0.0288 -0.183801,-0.0706 -0.275387,-0.10768 -0.177587,-0.0724 -0.358419,-0.13719 -0.54627,-0.17795 -0.140196,-0.0193 -0.167914,-0.0333 -0.308486,-0.0134 -0.126293,0.0178 -0.239502,0.08 -0.349339,0.14039 -0.168056,0.0989 -0.333832,0.20407 -0.473819,0.34122 -0.433092,0.4331 0.179394,1.04559 0.612486,0.61248 z m -0.02131,-1.55637 c 0.06549,-0.0514 0.135416,-0.098 0.206104,-0.14217 0.031,-0.0131 0.06402,-0.0437 0.09993,-0.0433 -0.0046,0.007 0.07748,0.003 -0.03044,0.002 -0.0067,-6.8e-4 -0.01338,-0.003 -0.02003,-0.002 -0.0035,4.6e-4 0.0067,0.003 0.01,0.003 0.0088,0.003 0.01756,0.006 0.02628,0.009 0.03679,0.0133 0.07291,0.0271 0.108002,0.0444 0.103965,0.0471 0.201588,0.10641 0.303739,0.15733 0.104485,0.0555 0.21241,0.10321 0.324299,0.14158 0.115208,0.0399 0.236393,0.0494 0.357267,0.0533 0.120024,0.006 0.239087,-0.006 0.356968,-0.0275 0.149245,-0.0294 0.277922,-0.0874 0.404372,-0.17051 0.082,-0.0582 0.15663,-0.12571 0.22749,-0.19694 0.048,-0.0409 0.0874,-0.0904 0.12572,-0.14005 0.36273,-0.49352 -0.33521,-1.00651 -0.697948,-0.51298 v 0 c 0.02469,-0.0281 -0.0055,0.006 -0.0069,0.009 -0.0024,0.003 0.0054,-0.009 0.0099,-0.009 0.0042,-5e-5 -0.0058,0.006 -0.0087,0.009 -0.01235,0.0116 -0.02469,0.0232 -0.03704,0.0348 -0.0315,0.032 -0.06365,0.0626 -0.09908,0.0903 -0.0029,0.003 -0.0045,0.006 -0.0075,0.009 -0.0209,0.0162 -0.05027,0.019 -0.07431,0.0279 -0.05493,0.0124 -0.110848,0.0149 -0.167059,0.0123 -0.03647,-8.7e-4 -0.07314,8.6e-4 -0.10814,-0.009 -0.07481,-0.0234 -0.143903,-0.0609 -0.213752,-0.0959 -0.109355,-0.054 -0.212967,-0.11911 -0.32511,-0.1676 -0.123587,-0.0559 -0.250896,-0.10727 -0.385451,-0.12927 -0.09217,-0.006 -0.183278,-0.007 -0.27374,0.0161 -0.127686,0.0325 -0.249334,0.0824 -0.360845,0.15328 -0.09874,0.0627 -0.196326,0.12789 -0.287915,0.20072 -0.476555,0.38475 0.06757,1.0587 0.54412,0.67395 z" /></g></svg>
