<?xml version="1.0" encoding="UTF-8" standalone="no"?>
<!-- Created with Inkscape (http://www.inkscape.org/) -->

<svg
   width="75.79061mm"
   height="21.82298mm"
   viewBox="0 0 75.79061 21.82298"
   version="1.1"
   id="svg5"
   xml:space="preserve"
   xmlns="http://www.w3.org/2000/svg"
   xmlns:svg="http://www.w3.org/2000/svg"><defs
     id="defs2" /><g
     id="layer1"
     transform="translate(-365.6942,-206.1876)"><path
       style="opacity:1;vector-effect:none;fill:#9acd32;fill-opacity:1;stroke:none;stroke-width:2.02639;stroke-linecap:round;stroke-linejoin:round;stroke-miterlimit:4;stroke-dasharray:none;stroke-dashoffset:0;stroke-opacity:1;-inkscape-stroke:none;paint-order:markers stroke fill"
       d="m 441.0914,212.3064 c 0.945,3.7006 0.1503,9.6295 -0.6481,15.5867 -7.5731,0.044 -15.1461,0.088 -25.2729,0.1192 -10.1267,0.031 -22.8061,0.05 -31.4925,-0.037 -8.6864,-0.087 -13.3793,-0.2808 -15.8195,-3.1646 -2.4402,-2.8839 -2.6275,-8.4574 -1.3422,-12.193 1.2852,-3.7357 4.0425,-5.6324 15.6697,-6.4633 11.6272,-0.8308 31.9342,-0.5977 43.6262,0.232 11.692,0.8297 14.3344,2.2193 15.2793,5.9199 z"
       id="path132"
       transform="matrix(-1,0,0,0.9741248,807.2153,5.872852)" /></g></svg>
