<?xml version="1.0" encoding="UTF-8" standalone="no"?>
<!-- Created with Inkscape (http://www.inkscape.org/) -->

<svg
   width="50.18715mm"
   height="22.99649mm"
   viewBox="0 0 50.18715 22.99649"
   version="1.1"
   id="svg5"
   xml:space="preserve"
   xmlns="http://www.w3.org/2000/svg"
   xmlns:svg="http://www.w3.org/2000/svg"><defs
     id="defs2" /><g
     id="layer1"
     transform="translate(-441.0564,-314.4859)"><path
       style="opacity:1;vector-effect:none;fill:#9acd32;fill-opacity:1;stroke:none;stroke-width:2;stroke-linecap:round;stroke-linejoin:round;stroke-miterlimit:4;stroke-dasharray:none;stroke-dashoffset:0;stroke-opacity:1;-inkscape-stroke:none;paint-order:markers stroke fill"
       d="m 450.6261,314.6522 c -4.2122,0.4975 -6.4028,2.193 -7.9292,5.4506 -1.5264,3.2576 -2.3886,8.0777 -0.7714,11.3636 1.6172,3.286 5.7137,5.038 11.1755,5.6904 5.4618,0.6525 12.288,0.2054 18.886,-0.3033 6.598,-0.5087 12.9673,-1.0788 16.2412,-3.2049 3.2739,-2.1261 3.4525,-5.8083 2.5404,-8.6105 -0.9121,-2.8021 -2.915,-4.7246 -7.0073,-6.1585 -4.0924,-1.4339 -10.2733,-2.3789 -16.4812,-3.2017 -6.2078,-0.8228 -12.4418,-1.5232 -16.654,-1.0257 z"
       id="path137" /></g></svg>
