<?xml version="1.0" encoding="UTF-8" standalone="no"?>
<!-- Created with Inkscape (http://www.inkscape.org/) -->

<svg
   width="54.54952mm"
   height="13.56728mm"
   viewBox="0 0 54.54952 13.56728"
   version="1.1"
   id="svg5"
   xml:space="preserve"
   xmlns="http://www.w3.org/2000/svg"
   xmlns:svg="http://www.w3.org/2000/svg"><defs
     id="defs2" /><g
     id="layer1"
     transform="translate(-713.9521,-353.0069)"><path
       style="opacity:1;vector-effect:none;fill:#9acd32;fill-opacity:1;stroke:none;stroke-width:0.671394;stroke-linecap:round;stroke-linejoin:round;stroke-miterlimit:4;stroke-dasharray:none;stroke-dashoffset:0;stroke-opacity:1;-inkscape-stroke:none;paint-order:markers stroke fill"
       d="m 713.2613,389.4007 c -2.9553,0.1982 -3.457,-0.055 -3.779,-0.4794 -0.322,-0.4246 -0.4635,-1.0201 -0.2292,-1.4616 0.2344,-0.4415 0.8445,-0.7284 1.0953,-0.9715 0.2508,-0.2432 0.142,-0.4426 0.1373,-0.6747 -0,-0.2321 0.095,-0.4972 0.3207,-0.476 0.2262,0.021 0.5792,0.3285 1.7489,0.2893 1.1696,-0.039 3.1563,-0.4248 5.4076,-0.689 2.2514,-0.2643 4.7684,-0.4072 6.157,-0.6638 1.3886,-0.2565 1.6484,-0.6267 1.8879,-0.6943 0.2395,-0.068 0.4586,0.1672 0.5223,0.4118 0.064,0.2445 -0.028,0.498 0.1359,0.7129 0.164,0.2148 0.5839,0.3909 0.8348,0.7423 0.2508,0.3514 0.333,0.8789 0.2263,1.3176 -0.1067,0.4388 -0.4022,0.7891 -3.2537,1.2891 -2.8516,0.4999 -8.2568,1.1491 -11.2121,1.3473 z"
       id="path150"
       transform="matrix(2.896828,0.3358343,-0.3214993,3.025994,-1215.545,-1051.508)" /></g></svg>
