<?xml version="1.0" encoding="UTF-8" standalone="no"?>
<!-- Created with Inkscape (http://www.inkscape.org/) -->

<svg
   width="61.86895mm"
   height="25.97993mm"
   viewBox="0 0 61.86895 25.97993"
   version="1.1"
   id="svg5"
   xml:space="preserve"
   xmlns="http://www.w3.org/2000/svg"
   xmlns:svg="http://www.w3.org/2000/svg"><defs
     id="defs2" /><g
     id="layer1"
     transform="translate(-690.5588,-413.0643)"><path
       style="opacity:1;vector-effect:none;fill:#9acd32;fill-opacity:1;stroke:none;stroke-width:1.52184;stroke-linecap:round;stroke-linejoin:round;stroke-miterlimit:4;stroke-dasharray:none;stroke-dashoffset:0;stroke-opacity:1;-inkscape-stroke:none;paint-order:markers stroke fill"
       d="m 720.3909,435.0186 c -1.3037,-1.4041 -2.6074,-2.8082 -6.1936,-3.452 -3.5863,-0.6438 -9.4546,-0.5273 -12.9537,-2.9501 -3.4992,-2.4229 -4.6284,-7.3847 -0.9651,-10.0859 3.6633,-2.7011 12.1188,-3.1412 20.9209,-3.2423 8.8022,-0.1012 17.9503,0.1367 21.7562,2.7559 3.806,2.6192 2.2693,7.6194 -1.6129,10.1077 -3.8823,2.4882 -10.1096,2.4642 -13.9927,3.1899 -3.883,0.7258 -5.421,2.2011 -6.9591,3.6765 z"
       id="path154"
       transform="matrix(1.312688,0,0,1.315528,-225.7219,-133.2349)" /></g></svg>
