<?xml version="1.0" encoding="UTF-8" standalone="no"?>
<!-- Created with Inkscape (http://www.inkscape.org/) -->

<svg
   width="40.58039mm"
   height="19.9645mm"
   viewBox="0 0 40.58039 19.9645"
   version="1.1"
   id="svg5"
   xml:space="preserve"
   xmlns="http://www.w3.org/2000/svg"
   xmlns:svg="http://www.w3.org/2000/svg"><defs
     id="defs2" /><g
     id="layer1"
     transform="translate(-608.3169,-385.9378)"><path
       style="opacity:1;vector-effect:none;fill:#9acd32;fill-opacity:1;stroke:none;stroke-width:1.92187;stroke-linecap:round;stroke-linejoin:round;stroke-miterlimit:4;stroke-dasharray:none;stroke-dashoffset:0;stroke-opacity:1;-inkscape-stroke:none;paint-order:markers stroke fill"
       d="m 607.7646,391.125 c 0.1444,2.5304 0.433,7.5908 2.4719,10.3312 2.0389,2.7404 5.8278,3.1604 12.7919,3.3757 6.964,0.2154 17.102,0.226 21.4858,-2.1079 4.3838,-2.334 3.0124,-7.0119 0.9812,-9.8722 -2.0311,-2.8603 -4.7214,-3.9021 -9.7198,-4.9923 -4.9984,-1.0902 -12.3034,-2.2285 -17.3813,-2.114 -5.0778,0.1145 -7.9256,1.4816 -9.3498,2.1654 -1.4242,0.6837 -1.4242,0.6836 -1.2799,3.2141 z"
       id="path146"
       transform="matrix(1.040653,0,0,1.040653,-24.83456,-15.48102)" /></g></svg>
